<?xml version="1.0" encoding="UTF-8"?>
<svg width="30px" height="25px" viewBox="0 0 30 25" version="1.1" xmlns="http://www.w3.org/2000/svg"
     xmlns:xlink="http://www.w3.org/1999/xlink">
    <!-- Generator: Sketch 52.3 (67297) - http://www.bohemiancoding.com/sketch -->
    <title>广告icon</title>
    <desc>Created with Sketch.</desc>
    <g id="Design" stroke="none" stroke-width="1">
        <g id="17-01-广告管理-广告列表" transform="translate(-30.000000, -193.000000)">
            <path
                d="M50.6250012,193 C55.8026701,193 60,197.19733 60,202.374999 C60,207.552668 55.8026701,211.749998 50.6250012,211.749998 L42.5482201,211.749998 L44.2500021,217.388913 C39.5071739,214.490733 36.7197907,212.573789 35.3057569,211.749998 C31.6728424,209.633525 30.0000008,207.4645 30,203.591305 L30.000002,202.374999 C30.0000009,197.197331 34.197329,193.000001 39.3749968,193 L50.6250012,193 Z M39.9312218,203.288918 L41.2469239,199.674056 L42.562626,203.288918 L39.9312218,203.288918 Z M39.5455224,204.589227 L42.9958595,204.589227 L43.907533,207.09403 C44.0492024,207.483263 44.4795841,207.683954 44.8688174,207.542284 C45.2580508,207.400615 45.4587411,206.970233 45.3170717,206.581 L41.9823758,197.418998 C41.8407064,197.029765 41.4103247,196.829074 41.0210913,196.970744 C40.8242089,197.042403 40.6755661,197.187931 40.5950695,197.364638 C40.5689164,197.40717 40.5466441,197.452962 40.5289007,197.501712 L37.1942047,206.663714 C37.0525353,207.052947 37.2532256,207.483329 37.642459,207.624998 C38.0316924,207.766667 38.4620741,207.565977 38.6037435,207.176744 L39.5455224,204.589227 Z M50.6333511,206.987289 C50.6875417,207.348236 50.9989508,207.624998 51.3750011,207.624998 C51.7892146,207.624998 52.125001,207.289212 52.125001,206.874998 L52.125001,197.499999 C52.125001,197.085786 51.7892146,196.75 51.3750011,196.75 C50.9607876,196.75 50.6250012,197.085786 50.6250012,197.499999 L50.6250012,200.756478 C50.0887145,200.357612 49.4438064,200.124999 48.7500015,200.124999 C46.8860407,200.124999 45.3750019,201.803931 45.3750019,203.874999 C45.3750019,205.946066 46.8860407,207.624998 48.7500015,207.624998 C49.447411,207.624998 50.0954143,207.389962 50.6333511,206.987289 Z M50.6250012,205.487298 C50.21272,205.993335 49.6095159,206.312498 48.9375015,206.312498 C47.6948609,206.312498 46.6875018,205.221192 46.6875018,203.874999 C46.6875018,202.528805 47.6948609,201.437499 48.9375015,201.437499 C49.6095159,201.437499 50.21272,201.756662 50.6250012,202.2627 L50.6250012,205.487298 Z M53.6250008,207.624998 C54.0392143,207.624998 54.3750007,207.289212 54.3750007,206.874998 C54.3750007,206.460785 54.0392143,206.124998 53.6250008,206.124998 C53.2107873,206.124998 52.8750009,206.460785 52.8750009,206.874998 C52.8750009,207.289212 53.2107873,207.624998 53.6250008,207.624998 Z"
                id="广告icon"></path>
        </g>
    </g>
</svg>
