<?xml version="1.0" encoding="UTF-8"?>
<svg width="212px" height="212px" viewBox="0 0 212 212" version="1.1" xmlns="http://www.w3.org/2000/svg" xmlns:xlink="http://www.w3.org/1999/xlink">
    <!-- Generator: Sketch 52.3 (67297) - http://www.bohemiancoding.com/sketch -->
    <title>广告主icon</title>
    <desc>Created with Sketch.</desc>
    <defs>
        <rect id="path-1" x="0" y="0.473933649" width="200" height="199.052133" rx="8"></rect>
        <filter x="-3.9%" y="-3.9%" width="109.7%" height="109.7%" filterUnits="objectBoundingBox" id="filter-3">
            <feMorphology radius="1.20000005" operator="dilate" in="SourceAlpha" result="shadowSpreadOuter1"></feMorphology>
            <feOffset dx="2" dy="2" in="shadowSpreadOuter1" result="shadowOffsetOuter1"></feOffset>
            <feGaussianBlur stdDeviation="2.5" in="shadowOffsetOuter1" result="shadowBlurOuter1"></feGaussianBlur>
            <feComposite in="shadowBlurOuter1" in2="SourceAlpha" operator="out" result="shadowBlurOuter1"></feComposite>
            <feColorMatrix values="0 0 0 0 0   0 0 0 0 0   0 0 0 0 0  0 0 0 0.5 0" type="matrix" in="shadowBlurOuter1"></feColorMatrix>
        </filter>
    </defs>
    <g id="Design" stroke="none" stroke-width="1" fill="none" fill-rule="evenodd">
        <g id="17-02-广告管理-广告详情A" transform="translate(-238.000000, -167.000000)">
            <g id="广告主icon" transform="translate(242.000000, 171.000000)">
                <mask id="mask-2" fill="white">
                    <use xlink:href="#path-1"></use>
                </mask>
                <g id="Mask" fill-rule="nonzero">
                    <use fill="black" fill-opacity="1" filter="url(#filter-3)" xlink:href="#path-1"></use>
                    <rect stroke="#3E495E" stroke-width="1.20000005" fill="#2A3040" fill-rule="evenodd" x="-0.600000024" y="-0.126066375" width="201.2" height="200.252133" rx="8"></rect>
                </g>
                <path d="M118.750004,59 C136.0089,59 150,72.9910997 150,90.2499959 C150,107.508892 136.0089,121.499992 118.750004,121.499992 L91.8274003,121.499992 L97.5000069,140.296376 C81.6905798,130.635777 72.3993022,124.245963 67.6858563,121.499992 C55.5761412,114.445083 50.0000027,107.215 50,94.30435 L50.0000066,90.2499959 C50.000003,72.9911034 63.9910968,59.0000036 81.2499893,59 L118.750004,59 Z M83.1040726,93.2963939 L87.4897462,81.2468546 L91.8754199,93.2963939 L83.1040726,93.2963939 Z M81.8184079,97.6307583 L93.3195316,97.6307583 L96.3584433,105.9801 C96.8306745,107.277544 98.2652802,107.946512 99.5627248,107.474281 C100.860169,107.002049 101.529137,105.567444 101.056906,104.269999 L89.9412526,73.729993 C89.4690214,72.4325484 88.0344157,71.7635808 86.7369711,72.235812 C86.0806963,72.4746765 85.5852204,72.9597693 85.3168983,73.548792 C85.2297213,73.6905666 85.1554803,73.843207 85.0963356,74.0057059 L73.9806824,104.545712 C73.5084512,105.843157 74.1774188,107.277762 75.4748634,107.749994 C76.7723079,108.222225 78.2069136,107.553257 78.6791448,106.255813 L81.8184079,97.6307583 Z M118.777837,105.624297 C118.958472,106.827453 119.996503,107.749994 121.250004,107.749994 C122.630715,107.749994 123.750003,106.630706 123.750003,105.249994 L123.750003,73.999998 C123.750003,72.6192863 122.630715,71.4999983 121.250004,71.4999983 C119.869292,71.4999983 118.750004,72.6192863 118.750004,73.999998 L118.750004,84.8549258 C116.962382,83.5253741 114.812688,82.7499969 112.500005,82.7499969 C106.286802,82.7499969 101.250006,88.3464368 101.250006,95.2499952 C101.250006,102.153554 106.286802,107.749994 112.500005,107.749994 C114.824703,107.749994 116.984714,106.966539 118.777837,105.624297 Z M118.750004,100.624325 C117.375733,102.311117 115.365053,103.374994 113.125005,103.374994 C108.98287,103.374994 105.625006,99.7373082 105.625006,95.2499952 C105.625006,90.7626822 108.98287,87.1249963 113.125005,87.1249963 C115.365053,87.1249963 117.375733,88.1888733 118.750004,89.8756651 L118.750004,100.624325 Z M128.750003,107.749994 C130.130714,107.749994 131.250002,106.630706 131.250002,105.249994 C131.250002,103.869282 130.130714,102.749994 128.750003,102.749994 C127.369291,102.749994 126.250003,103.869282 126.250003,105.249994 C126.250003,106.630706 127.369291,107.749994 128.750003,107.749994 Z" id="广告" fill="#3E495E" fill-rule="nonzero" mask="url(#mask-2)"></path>
            </g>
        </g>
    </g>
</svg>