<?xml version="1.0" encoding="UTF-8"?>
<svg width="212px" height="212px" viewBox="0 0 212 212" version="1.1" xmlns="http://www.w3.org/2000/svg" xmlns:xlink="http://www.w3.org/1999/xlink">
    <!-- Generator: Sketch 52.3 (67297) - http://www.bohemiancoding.com/sketch -->
    <title>广告主icon</title>
    <desc>Created with Sketch.</desc>
    <defs>
        <rect id="path-1" x="0" y="0.473933649" width="200" height="199.052133" rx="8"></rect>
        <filter x="-3.9%" y="-3.9%" width="109.7%" height="109.7%" filterUnits="objectBoundingBox" id="filter-3">
            <feMorphology radius="1.20000005" operator="dilate" in="SourceAlpha" result="shadowSpreadOuter1"></feMorphology>
            <feOffset dx="2" dy="2" in="shadowSpreadOuter1" result="shadowOffsetOuter1"></feOffset>
            <feGaussianBlur stdDeviation="2.5" in="shadowOffsetOuter1" result="shadowBlurOuter1"></feGaussianBlur>
            <feComposite in="shadowBlurOuter1" in2="SourceAlpha" operator="out" result="shadowBlurOuter1"></feComposite>
            <feColorMatrix values="0 0 0 0 0   0 0 0 0 0   0 0 0 0 0  0 0 0 0.5 0" type="matrix" in="shadowBlurOuter1"></feColorMatrix>
        </filter>
    </defs>
    <g id="Design" stroke="none" stroke-width="1" fill="none" fill-rule="evenodd">
        <g id="17-02-广告管理-广告主详情B" transform="translate(-238.000000, -127.000000)">
            <g id="广告主icon" transform="translate(242.000000, 131.000000)">
                <mask id="mask-2" fill="white">
                    <use xlink:href="#path-1"></use>
                </mask>
                <g id="Mask" fill-rule="nonzero">
                    <use fill="black" fill-opacity="1" filter="url(#filter-3)" xlink:href="#path-1"></use>
                    <rect stroke="#3E495E" stroke-width="1.20000005" fill="#2A3040" fill-rule="evenodd" x="-0.600000024" y="-0.126066375" width="201.2" height="200.252133" rx="8"></rect>
                </g>
                <path d="M65.5,65 L130.5,65 C140.164983,65 148,72.8350169 148,82.5 L148,102.5 C148,112.164983 140.164983,120 130.5,120 L65.5,120 C55.8350169,120 48,112.164983 48,102.5 L48,82.5 C48,72.8350169 55.8350169,65 65.5,65 Z M79.7748403,94.2963985 L84.1605145,82.2468576 L88.5461887,94.2963985 L79.7748403,94.2963985 Z M78.4891754,98.6307634 L89.9903006,98.6307634 L93.0292127,106.980106 C93.501444,108.277551 94.9360499,108.946518 96.2334946,108.474287 C97.5309394,108.002056 98.1999071,106.56745 97.7276758,105.270005 L86.6120212,74.7299949 C86.1397899,73.4325502 84.705184,72.7635824 83.4077393,73.2358137 C82.7514643,73.4746783 82.2559884,73.9597712 81.9876663,74.5487939 C81.9004893,74.6905685 81.8262483,74.8432089 81.7671035,75.0057079 L70.6514488,105.545718 C70.1792176,106.843163 70.8481853,108.277769 72.14563,108.75 C73.4430748,109.222231 74.8776807,108.553264 75.3499119,107.255819 L78.4891754,98.6307634 Z M115.448609,106.624303 C115.629245,107.82746 116.667275,108.75 117.920777,108.75 C119.301488,108.75 120.420777,107.630712 120.420777,106.25 L120.420777,75 C120.420777,73.6192881 119.301488,72.5 117.920777,72.5 C116.540065,72.5 115.420777,73.6192881 115.420777,75 L115.420777,85.8549292 C113.633154,84.5253773 111.48346,83.75 109.170777,83.75 C102.957573,83.75 97.9207765,89.3464406 97.9207765,96.25 C97.9207765,103.153559 102.957573,108.75 109.170777,108.75 C111.495475,108.75 113.655487,107.966545 115.448609,106.624303 Z M115.420777,101.624331 C114.046506,103.311123 112.035825,104.375 109.795777,104.375 C105.653641,104.375 102.295777,100.737314 102.295777,96.25 C102.295777,91.7626864 105.653641,88.125 109.795777,88.125 C112.035825,88.125 114.046506,89.1888771 115.420777,90.8756692 L115.420777,101.624331 Z M125.420777,108.75 C126.801488,108.75 127.920777,107.630712 127.920777,106.25 C127.920777,104.869288 126.801488,103.75 125.420777,103.75 C124.040065,103.75 122.920777,104.869288 122.920777,106.25 C122.920777,107.630712 124.040065,108.75 125.420777,108.75 Z M136.748999,121.25 C136.694748,126.726274 132.238601,131.148881 126.749499,131.148881 L69.2494993,131.148881 C63.7603976,131.148881 59.3042511,126.726274 59.25,121.25 C61.1908613,121.992254 63.297694,122.398881 65.4994993,122.398881 L130.499499,122.398881 C132.701305,122.398881 134.808137,121.992254 136.748999,121.25 Z M127.955694,133.75 C127.984893,133.954127 128,134.162799 128,134.375 C128,136.791246 126.041246,138.75 123.625,138.75 L72.375,138.75 C69.9587542,138.75 68,136.791246 68,134.375 C68,134.162799 68.0151075,133.954127 68.0443055,133.75 L127.955694,133.75 Z" id="广告主" fill="#3E495E" fill-rule="nonzero" mask="url(#mask-2)"></path>
            </g>
        </g>
    </g>
</svg>