<?xml version="1.0" encoding="UTF-8"?>
<svg width="30px" height="21px" viewBox="0 0 30 21" version="1.1" xmlns="http://www.w3.org/2000/svg" xmlns:xlink="http://www.w3.org/1999/xlink">
    <!-- Generator: Sketch 52.3 (67297) - http://www.bohemiancoding.com/sketch -->
    <title>GIF</title>
    <desc>Created with Sketch.</desc>
    <g id="Design" stroke="none" stroke-width="1" fill="none" fill-rule="evenodd">
        <g id="17-02-广告管理-广告主详情B" transform="translate(-652.000000, -604.000000)" fill="#FFFFFF">
            <g id="屏保广告a-copy-2" transform="translate(642.000000, 535.500000)">
                <path d="M14,69 L36,69 C38.209139,69 40,70.790861 40,73 L40,85.4545455 C40,87.6636845 38.209139,89.4545455 36,89.4545455 L14,89.4545455 C11.790861,89.4545455 10,87.6636845 10,85.4545455 L10,73 C10,70.790861 11.790861,69 14,69 Z M19.808,84.156 C17.444,84.156 15.728,82.5 15.728,79.608 C15.728,76.728 17.504,75 19.844,75 C21.092,75 21.932,75.552 22.472,76.116 L21.716,77.004 C21.284,76.56 20.744,76.212 19.892,76.212 C18.248,76.212 17.156,77.484 17.156,79.56 C17.156,81.66 18.128,82.944 19.952,82.944 C20.492,82.944 21.032,82.788 21.344,82.512 L21.344,80.436 L19.592,80.436 L19.592,79.296 L22.604,79.296 L22.604,83.124 C22.016,83.712 21.02,84.156 19.808,84.156 Z M24.62,84 L24.62,75.168 L26.012,75.168 L26.012,84 L24.62,84 Z M28.328,84 L28.328,75.168 L33.56,75.168 L33.56,76.332 L29.72,76.332 L29.72,79.032 L32.984,79.032 L32.984,80.196 L29.72,80.196 L29.72,84 L28.328,84 Z" id="GIF"></path>
            </g>
        </g>
    </g>
</svg>