<?xml version="1.0" encoding="UTF-8"?>
<svg width="30px" height="21px" viewBox="0 0 30 21" version="1.1" xmlns="http://www.w3.org/2000/svg" xmlns:xlink="http://www.w3.org/1999/xlink">
    <!-- Generator: Sketch 52.3 (67297) - http://www.bohemiancoding.com/sketch -->
    <title>图片 icon</title>
    <desc>Created with Sketch.</desc>
    <g id="Design" stroke="none" stroke-width="1" fill="none" fill-rule="evenodd">
        <g id="17-02-广告管理-广告主详情B" transform="translate(-852.000000, -460.000000)" fill="#FFFFFF">
            <g id="屏保广告a" transform="translate(842.000000, 391.000000)">
                <path d="M14,69 L36,69 C38.209139,69 40,70.790861 40,73 L40,85.4545455 C40,87.6636845 38.209139,89.4545455 36,89.4545455 L14,89.4545455 C11.790861,89.4545455 10,87.6636845 10,85.4545455 L10,73 C10,70.790861 11.790861,69 14,69 Z M14.3636364,88.0909091 L35.6363636,88.0909091 C37.2932179,88.0909091 38.6363636,86.7477633 38.6363636,85.0909091 L38.6363636,73.0909091 L27.0038201,83.1670486 L23.7243568,79.8276663 L14.3636364,88.0909091 Z M27.7272727,77.1818182 C29.2335039,77.1818182 30.4545455,75.9607766 30.4545455,74.4545455 C30.4545455,72.9483143 29.2335039,71.7272727 27.7272727,71.7272727 C26.2210416,71.7272727 25,72.9483143 25,74.4545455 C25,75.9607766 26.2210416,77.1818182 27.7272727,77.1818182 Z" id="图片-icon"></path>
            </g>
        </g>
    </g>
</svg>