<?xml version="1.0" encoding="UTF-8"?>
<svg width="14px" height="18px" viewBox="0 0 14 18" version="1.1" xmlns="http://www.w3.org/2000/svg" xmlns:xlink="http://www.w3.org/1999/xlink">
    <!-- Generator: Sketch 49.3 (51167) - http://www.bohemiancoding.com/sketch -->
    <title>广告管理icon</title>
    <desc>Created with Sketch.</desc>
    <defs></defs>
    <g id="Design" stroke="none" stroke-width="1" fill="none" fill-rule="evenodd">
        <g id="菜单栏" transform="translate(-493.000000, -382.000000)" fill="#B8C7CE">
            <g id="菜单栏1级" transform="translate(462.000000, 75.000000)">
                <path d="M42.0000303,315 C41.4477413,315 41,314.552319 41,314.00003 C41,313.447741 41.4477413,313 42.0000303,313 C42.5522587,313 43,313.447741 43,314.00003 C43,314.552319 42.5522587,315 42.0000303,315 Z M34.9999695,311.012695 C34.958678,309.437414 35.9825977,308 38.0003168,308 C40.0180359,308 41.0003052,309.435664 41.0003052,311.012695 C41.0003052,311.031401 39.0001933,311.031401 34.9999695,311.012695 Z M34.0000303,315 C33.4476806,315 33,314.552319 33,314.00003 C33,313.447741 33.4476806,313 34.0000303,313 C34.5523194,313 35,313.447741 35,314.00003 C35,314.552319 34.5523194,315 34.0000303,315 Z M37.9998821,307 C35.6640881,307 33.8150849,308.72655 33.8150849,311.000427 C33.8150849,311.017509 32.8767232,311.017509 31,311.000427 L31,322.351429 C31,323.780454 32.3471181,325 33.8150849,325 L42.1508115,325 C43.6188254,325 45,323.784082 45,322.351429 L45,311.000427 L42.1508115,311.000427 C42.1508115,308.72655 40.3359119,307 37.9998821,307 Z" id="广告管理icon"></path>
            </g>
        </g>
    </g>
</svg>