<?xml version="1.0" encoding="UTF-8"?>
<svg width="30px" height="31px" viewBox="0 0 30 31" version="1.1" xmlns="http://www.w3.org/2000/svg" xmlns:xlink="http://www.w3.org/1999/xlink">
    <!-- Generator: Sketch 52.3 (67297) - http://www.bohemiancoding.com/sketch -->
    <title>视频icon</title>
    <desc>Created with Sketch.</desc>
    <g id="Design" stroke="none" stroke-width="1" fill="none" fill-rule="evenodd" fill-opacity="0.5">
        <g id="17-02-广告管理-广告主详情B" transform="translate(-250.000000, -450.000000)" fill="#000000" fill-rule="nonzero">
            <path d="M265,480.5 C256.715729,480.5 250,473.784271 250,465.5 C250,457.215729 256.715729,450.5 265,450.5 C273.284271,450.5 280,457.215729 280,465.5 C280,473.784271 273.284271,480.5 265,480.5 Z M271.346972,466.366374 C271.499463,466.278476 271.626052,466.151886 271.713951,465.999395 C271.989759,465.520909 271.825457,464.909434 271.346972,464.633626 L262.899395,459.76428 C262.74752,459.676736 262.5753,459.630655 262.4,459.630655 C261.847715,459.630655 261.4,460.07837 261.4,460.630655 L261.4,470.369345 C261.4,470.544645 261.446082,470.716865 261.533626,470.86874 C261.809434,471.347226 262.420909,471.511528 262.899395,471.23572 L271.346972,466.366374 Z" id="视频icon"></path>
        </g>
    </g>
</svg>