<?xml version="1.0" encoding="UTF-8"?>
<svg width="20px" height="20px" viewBox="0 0 20 20" version="1.1" xmlns="http://www.w3.org/2000/svg" xmlns:xlink="http://www.w3.org/1999/xlink">
    <!-- Generator: Sketch 52.2 (67145) - http://www.bohemiancoding.com/sketch -->
    <title>新建icon</title>
    <desc>Created with Sketch.</desc>
    <g id="Design" stroke="none" stroke-width="1" fill="none" fill-rule="evenodd">
        <g id="12-01版本设备-版本管理" transform="translate(-1230.000000, -311.000000)" fill="#A3D0FD" fill-rule="nonzero">
            <g id="新建btn" transform="translate(1210.000000, 301.000000)">
                <path d="M30.9166667,19 L39,19 C39.5522847,19 40,19.4477153 40,20 C40,20.5522847 39.5522847,21 39,21 L30.9166667,21 L30.9166667,29 C30.9166667,29.5522847 30.4689514,30 29.9166667,30 C29.3643819,30 28.9166667,29.5522847 28.9166667,29 L28.9166667,21 L21,21 C20.4477153,21 20,20.5522847 20,20 C20,19.4477153 20.4477153,19 21,19 L28.9166667,19 L28.9166667,11 C28.9166667,10.4477153 29.3643819,10 29.9166667,10 C30.4689514,10 30.9166667,10.4477153 30.9166667,11 L30.9166667,19 Z" id="新建icon"></path>
            </g>
        </g>
    </g>
</svg>