<?xml version="1.0" encoding="UTF-8"?>
<svg width="29px" height="29px" viewBox="0 0 29 29" version="1.1" xmlns="http://www.w3.org/2000/svg"
     xmlns:xlink="http://www.w3.org/1999/xlink">
    <!-- Generator: Sketch 49.3 (51167) - http://www.bohemiancoding.com/sketch -->
    <title>添加icon copy</title>
    <desc>Created with Sketch.</desc>
    <defs></defs>
    <g id="Design" stroke="none" stroke-width="1" fill="none" fill-rule="evenodd" opacity="0.7">
        <g id="01推荐设置" transform="translate(-1257.000000, -1420.000000)">
            <g id="添加icon-copy" transform="translate(1258.000000, 1421.000000)">
                <path
                    d="M15,12 L23.5,12 C24.3284271,12 25,12.6715729 25,13.5 C25,14.3284271 24.3284271,15 23.5,15 L15,15 L15,23.5 C15,24.3284271 14.3284271,25 13.5,25 C12.6715729,25 12,24.3284271 12,23.5 L12,15 L3.5,15 C2.67157288,15 2,14.3284271 2,13.5 C2,12.6715729 2.67157288,12 3.5,12 L12,12 L12,3.5 C12,2.67157288 12.6715729,2 13.5,2 C14.3284271,2 15,2.67157288 15,3.5 L15,12 Z"
                    id="Combined-Shape" fill="#1989FA"></path>
                <circle id="Oval-3" stroke="#1989FA" stroke-width="2" cx="13.5" cy="13.5" r="13.5"></circle>
            </g>
        </g>
    </g>
</svg>
