<?xml version="1.0" encoding="UTF-8"?>
<svg width="16px" height="15px" viewBox="0 0 16 15" version="1.1" xmlns="http://www.w3.org/2000/svg" xmlns:xlink="http://www.w3.org/1999/xlink">
    <!-- Generator: Sketch 49.3 (51167) - http://www.bohemiancoding.com/sketch -->
    <title>管理员管理icon</title>
    <desc>Created with Sketch.</desc>
    <defs></defs>
    <g id="Design" stroke="none" stroke-width="1" fill="none" fill-rule="evenodd">
        <g id="菜单栏" transform="translate(-492.000000, -272.000000)" fill="#B8C7CE">
            <g id="菜单栏1级" transform="translate(462.000000, 75.000000)">
                <g id="管理员管理icon" transform="translate(30.000000, 197.000000)">
                    <path d="M12.0013387,12.7142857 C11.0535686,12.7142857 10.2857143,11.9485107 10.2857143,11 C10.2857143,10.0536328 11.0535686,9.28571429 12.0013387,9.28571429 C12.9464314,9.28571429 13.7142857,10.0536328 13.7142857,11 C13.7142857,11.9485107 12.9464314,12.7142857 12.0013387,12.7142857 Z M15.5183082,10.5220833 C14.8053544,10.3854167 14.4765873,9.55041667 14.9078598,8.96291667 L15.2091255,8.55125 L14.5561748,7.89875 L14.1511537,8.17375 C13.5486223,8.58208333 12.7269129,8.22416667 12.6160738,7.50458333 L12.538153,7 L11.6151883,7 L11.4964321,7.62208333 C11.3610084,8.32 10.5572165,8.65375 9.96801917,8.25333333 L9.4438252,7.89875 L8.79087452,8.55125 L9.09380697,8.96291667 C9.52341268,9.55041667 9.19631231,10.3854167 8.48169175,10.5220833 L8,10.615 L8,11.5379167 L8.50460962,11.6158333 C9.22381374,11.7266667 9.58216574,12.5470833 9.1750612,13.1508333 L8.90004688,13.55625 L9.55299755,14.20875 L9.96468566,13.90625 C10.5505495,13.47625 11.385593,13.8033333 11.5222668,14.5179167 L11.6151883,15 L12.538153,15 L12.5931559,14.6433333 C12.7056618,13.9091667 13.5586228,13.55625 14.157404,13.9954167 L14.4474191,14.20875 L15.0999531,13.55625 L14.8249388,13.1508333 C14.4161675,12.54875 14.7761863,11.7266667 15.4937236,11.6158333 L16,11.5379167 L16,10.615 L15.5183082,10.5220833 Z" id="Fill-5" fill-opacity="0.800000012"></path>
                    <path d="M11.6903605,12.1088259 L8.86832012,10.757347 C8.50342339,10.5818671 8.27407029,10.2252465 8.27407029,9.83430822 L8.27407029,8.77435256 C8.35162931,8.68696637 8.44396148,8.5765838 8.54072559,8.44532761 C8.92445808,7.92419454 9.21585841,7.35211567 9.41788119,6.75102599 C9.78019262,6.64453512 10.0453706,6.32400113 10.0453706,5.94403038 L10.0453706,4.8119015 C10.0453706,4.56177178 9.93014006,4.3392377 9.75138498,4.18463135 L9.75138498,2.54693618 C9.75138498,2.54693618 10.1018779,0 6.50092332,0 C2.89996875,0 3.25046166,2.54693618 3.25046166,2.54693618 L3.25046166,4.18463135 C3.07022927,4.3392377 2.95462939,4.56177178 2.95462939,4.8119015 L2.95462939,5.94403038 C2.95462939,6.24227558 3.11934998,6.50514175 3.36310691,6.65550262 C3.65856985,7.88846172 4.43194409,8.77435256 4.43194409,8.77435256 L4.43194409,9.80777395 C4.43194409,10.1852682 4.2169948,10.5333978 3.87093383,10.7131233 L1.23503509,12.0911364 C0.473110032,12.4891504 0,13.2533374 0,14.0836832 L0,15 L13,15 L13,14.1392283 C13,13.2795179 12.4936504,12.4926883 11.6903605,12.1088259" id="Fill-1"></path>
                </g>
            </g>
        </g>
    </g>
</svg>