<?xml version="1.0" encoding="UTF-8"?>
<svg width="30px" height="23px" viewBox="0 0 30 23" version="1.1" xmlns="http://www.w3.org/2000/svg"
     xmlns:xlink="http://www.w3.org/1999/xlink">
    <!-- Generator: Sketch 52.3 (67297) - http://www.bohemiancoding.com/sketch -->
    <title>广告主</title>
    <desc>Created with Sketch.</desc>
    <g id="Design" stroke="none" stroke-width="1">
        <g id="17-01-广告管理-广告列表" transform="translate(-30.000000, -145.000000)">
            <path
                d="M35.25,145 L54.75,145 C57.6494949,145 60,147.350505 60,150.25 L60,156.25 C60,159.149495 57.6494949,161.5 54.75,161.5 L35.25,161.5 C32.3505051,161.5 30,159.149495 30,156.25 L30,150.25 C30,147.350505 32.3505051,145 35.25,145 Z M39.5324521,153.78892 L40.8481543,150.174057 L42.1638566,153.78892 L39.5324521,153.78892 Z M39.1467526,155.089229 L42.5970902,155.089229 L43.5087638,157.594032 C43.6504332,157.983265 44.080815,158.183955 44.4700484,158.042286 C44.8592818,157.900617 45.0599721,157.470235 44.9183027,157.081002 L41.5836064,147.918998 C41.441937,147.529765 41.0115552,147.329075 40.6223218,147.470744 C40.4254393,147.542403 40.2767965,147.687931 40.1962999,147.864638 C40.1701468,147.907171 40.1478745,147.952963 40.130131,148.001712 L36.7954346,157.163715 C36.6537653,157.552949 36.8544556,157.983331 37.243689,158.125 C37.6329224,158.266669 38.0633042,158.065979 38.2049736,157.676746 L39.1467526,155.089229 Z M50.2345828,157.487291 C50.2887734,157.848238 50.6001826,158.125 50.976233,158.125 C51.3904465,158.125 51.726233,157.789214 51.726233,157.375 L51.726233,148 C51.726233,147.585786 51.3904465,147.25 50.976233,147.25 C50.5620194,147.25 50.226233,147.585786 50.226233,148 L50.226233,151.256479 C49.6899462,150.857613 49.0450379,150.625 48.351233,150.625 C46.4872719,150.625 44.976233,152.303932 44.976233,154.375 C44.976233,156.446068 46.4872719,158.125 48.351233,158.125 C49.0486425,158.125 49.696646,157.889963 50.2345828,157.487291 Z M50.226233,155.987299 C49.8139517,156.493337 49.2107475,156.8125 48.538733,156.8125 C47.2960923,156.8125 46.288733,155.721194 46.288733,154.375 C46.288733,153.028806 47.2960923,151.9375 48.538733,151.9375 C49.2107475,151.9375 49.8139517,152.256663 50.226233,152.762701 L50.226233,155.987299 Z M53.226233,158.125 C53.6404465,158.125 53.976233,157.789214 53.976233,157.375 C53.976233,156.960786 53.6404465,156.625 53.226233,156.625 C52.8120194,156.625 52.476233,156.960786 52.476233,157.375 C52.476233,157.789214 52.8120194,158.125 53.226233,158.125 Z M56.6246996,161.875 C56.6084243,163.517882 55.2715803,164.844664 53.6248498,164.844664 L36.3748498,164.844664 C34.7281193,164.844664 33.3912753,163.517882 33.375,161.875 C33.9572584,162.097676 34.5893082,162.219664 35.2498498,162.219664 L54.7498498,162.219664 C55.4103914,162.219664 56.0424412,162.097676 56.6246996,161.875 Z M53.9867083,165.625 C53.9954678,165.686238 54,165.74884 54,165.8125 C54,166.537374 53.4123737,167.125 52.6875,167.125 L37.3125,167.125 C36.5876263,167.125 36,166.537374 36,165.8125 C36,165.74884 36.0045322,165.686238 36.0132917,165.625 L53.9867083,165.625 Z"
                id="广告主"></path>
        </g>
    </g>
</svg>
