<?xml version="1.0" encoding="UTF-8"?>
<svg width="30px" height="30px" viewBox="0 0 30 30" version="1.1" xmlns="http://www.w3.org/2000/svg" xmlns:xlink="http://www.w3.org/1999/xlink">
    <!-- Generator: Sketch 54.1 (76490) - https://sketchapp.com -->
    <title>alipay</title>
    <desc>Created with Sketch.</desc>
    <g id="Design" stroke="none" stroke-width="1" fill="none" fill-rule="evenodd">
        <g id="11-03用户管理-查看用户-2.3" transform="translate(-1002.000000, -631.000000)" fill="#009FE9" fill-rule="nonzero">
            <path d="M1031.99999,656.157969 L1031.99999,656.200002 C1031.99999,658.850965 1029.85096,660.999995 1027.2,660.999995 L1006.80002,660.999995 C1005.52698,661.000003 1004.30608,660.494294 1003.4059,659.59412 C1002.50572,658.693946 1002,657.473044 1002,656.200002 L1002,635.800023 C1001.99999,634.52698 1002.5057,633.306076 1003.40588,632.405896 C1004.30605,631.505716 1005.52695,631 1006.79999,631 L1027.2,631 C1029.85096,631 1031.99999,633.14903 1031.99999,635.799993 L1031.99999,651.550005 C1031.99395,651.549231 1031.03833,651.425443 1026.75601,649.995997 C1025.556,649.576001 1023.95399,648.975998 1022.15999,648.32199 C1023.31257,646.26853 1024.19966,644.076995 1024.79999,641.799992 L1018.79999,641.799992 L1018.79999,640.000042 L1026,640.000042 L1026,638.728011 L1018.80002,638.800037 L1018.80002,635.199961 L1015.83596,635.199961 C1015.30198,635.199961 1015.19997,635.799964 1015.19997,635.799964 L1015.19997,638.799978 L1008,638.799978 L1008,639.999984 L1015.19997,639.999984 L1015.19997,641.799963 L1009.20003,641.799963 L1009.20003,642.999969 L1021.20003,642.999969 C1020.71346,644.508151 1020.07624,645.963498 1019.29802,647.343982 C1015.53602,646.089972 1011.49804,645.069973 1008.91802,645.729987 C1007.65948,645.995985 1006.51348,646.643354 1005.63603,647.583972 C1002.84002,651.00996 1004.86801,656.199972 1010.77204,656.199972 C1014.28804,656.199972 1017.69003,654.225964 1020.31802,650.991997 C1024.25064,652.922325 1031.98672,656.152425 1032.00001,656.157974 Z M1010.238,654.244015 C1005.582,654.244015 1004.238,650.589993 1006.536,648.556002 C1007.28537,647.871877 1008.20591,647.403308 1009.2,647.199989 C1011.94201,646.899987 1014.76199,648.244016 1017.80399,649.738016 C1015.60801,652.509996 1012.91999,654.244015 1010.23802,654.244015 L1010.238,654.244015 Z" id="alipay"></path>
        </g>
    </g>
</svg>