<?xml version="1.0" encoding="UTF-8"?>
<svg width="15px" height="20px" viewBox="0 0 15 20" version="1.1" xmlns="http://www.w3.org/2000/svg" xmlns:xlink="http://www.w3.org/1999/xlink">
    <!-- Generator: Sketch 63.1 (92452) - https://sketch.com -->
    <title>APP icon</title>
    <desc>Created with Sketch.</desc>
    <g id="Design" stroke="none" stroke-width="1" fill-rule="evenodd">
        <g id="00-2.9-说明" transform="translate(-177.000000, -149.000000)">
            <path d="M189.545455,149 C190.650024,149 191.545455,149.895431 191.545455,151 L191.545455,167 C191.545455,168.104569 190.650024,169 189.545455,169 L179.545455,169 C178.440885,169 177.545455,168.104569 177.545455,167 L177.545455,151 C177.545455,149.895431 178.440885,149 179.545455,149 L189.545455,149 Z M189.545455,150 L179.545455,150 C178.99317,150 178.545455,150.447715 178.545455,151 L178.545455,151 L178.545455,166 C178.545455,166.552285 178.99317,167 179.545455,167 L179.545455,167 L189.545455,167 C190.097739,167 190.545455,166.552285 190.545455,166 L190.545455,166 L190.545455,151 C190.545455,150.447715 190.097739,150 189.545455,150 L189.545455,150 Z M180.045455,151 L189.045455,151 C189.321597,151 189.545455,151.223858 189.545455,151.5 L189.545455,165.5 C189.545455,165.776142 189.321597,166 189.045455,166 L180.045455,166 C179.769312,166 179.545455,165.776142 179.545455,165.5 L179.545455,151.5 C179.545455,151.223858 179.769312,151 180.045455,151 Z" id="APP-icon"></path>
        </g>
    </g>
</svg>