<?xml version="1.0" encoding="UTF-8"?>
<svg width="15px" height="20px" viewBox="0 0 15 20" version="1.1" xmlns="http://www.w3.org/2000/svg" xmlns:xlink="http://www.w3.org/1999/xlink">
    <!-- Generator: Sketch 63.1 (92452) - https://sketch.com -->
    <title>APP icon备份</title>
    <desc>Created with Sketch.</desc>
    <g id="Design" stroke="none" stroke-width="1" fill="none" fill-rule="evenodd">
        <g id="00-2.9-说明" transform="translate(-177.000000, -188.000000)" fill="#FFFFFF">
            <path d="M189.545455,188 C190.650024,188 191.545455,188.895431 191.545455,190 L191.545455,206 C191.545455,207.104569 190.650024,208 189.545455,208 L179.545455,208 C178.440885,208 177.545455,207.104569 177.545455,206 L177.545455,190 C177.545455,188.895431 178.440885,188 179.545455,188 L189.545455,188 Z M189.545455,189 L179.545455,189 C178.99317,189 178.545455,189.447715 178.545455,190 L178.545455,190 L178.545455,205 C178.545455,205.552285 178.99317,206 179.545455,206 L179.545455,206 L189.545455,206 C190.097739,206 190.545455,205.552285 190.545455,205 L190.545455,205 L190.545455,190 C190.545455,189.447715 190.097739,189 189.545455,189 L189.545455,189 Z M180.045455,190 L189.045455,190 C189.321597,190 189.545455,190.223858 189.545455,190.5 L189.545455,204.5 C189.545455,204.776142 189.321597,205 189.045455,205 L180.045455,205 C179.769312,205 179.545455,204.776142 179.545455,204.5 L179.545455,190.5 C179.545455,190.223858 179.769312,190 180.045455,190 Z" id="APP-icon备份"></path>
        </g>
    </g>
</svg>