<?xml version="1.0" encoding="UTF-8"?>
<svg width="14px" height="20px" viewBox="0 0 14 20" version="1.1" xmlns="http://www.w3.org/2000/svg" xmlns:xlink="http://www.w3.org/1999/xlink">
    <!-- Generator: Sketch 60.1 (88133) - https://sketch.com -->
    <title>APP icon</title>
    <desc>Created with Sketch.</desc>
    <g id="Design" stroke="none" stroke-width="1" fill="none" fill-rule="evenodd">
        <g id="03-页面布局-首页推荐（空）" transform="translate(-143.000000, -20.000000)" fill="#A3D0FD">
            <path d="M155,20 C156.104569,20 157,20.8954305 157,22 L157,38 C157,39.1045695 156.104569,40 155,40 L145,40 C143.895431,40 143,39.1045695 143,38 L143,22 C143,20.8954305 143.895431,20 145,20 L155,20 Z M155,21 L145,21 C144.447715,21 144,21.4477153 144,22 L144,22 L144,37 C144,37.5522847 144.447715,38 145,38 L145,38 L155,38 C155.552285,38 156,37.5522847 156,37 L156,37 L156,22 C156,21.4477153 155.552285,21 155,21 L155,21 Z" id="APP-icon"></path>
        </g>
    </g>
</svg>