<?xml version="1.0" encoding="UTF-8"?>
<svg width="14px" height="20px" viewBox="0 0 14 20" version="1.1" xmlns="http://www.w3.org/2000/svg" xmlns:xlink="http://www.w3.org/1999/xlink">
    <!-- Generator: Sketch 60.1 (88133) - https://sketch.com -->
    <title>APP icon备份</title>
    <desc>Created with Sketch.</desc>
    <g id="Design" stroke="none" stroke-width="1" fill="none" fill-rule="evenodd">
        <g id="03-页面布局-首页推荐（空）" transform="translate(-143.000000, -386.000000)" fill="#515E78">
            <path d="M155,386 C156.104569,386 157,386.895431 157,388 L157,404 C157,405.104569 156.104569,406 155,406 L145,406 C143.895431,406 143,405.104569 143,404 L143,388 C143,386.895431 143.895431,386 145,386 L155,386 Z M155,387 L145,387 C144.447715,387 144,387.447715 144,388 L144,388 L144,403 C144,403.552285 144.447715,404 145,404 L145,404 L155,404 C155.552285,404 156,403.552285 156,403 L156,403 L156,388 C156,387.447715 155.552285,387 155,387 L155,387 Z" id="APP-icon备份"></path>
        </g>
    </g>
</svg>