<?xml version="1.0" encoding="UTF-8"?>
<svg width="30px" height="30px" viewBox="0 0 30 30" version="1.1" xmlns="http://www.w3.org/2000/svg" xmlns:xlink="http://www.w3.org/1999/xlink">
    <!-- Generator: Sketch 52.4 (67378) - http://www.bohemiancoding.com/sketch -->
    <title>节目管理</title>
    <desc>Created with Sketch.</desc>
    <g id="Design" stroke="none" stroke-width="1" fill-rule="evenodd">
        <g id="02-02内容管理-节目列表-更多筛选" transform="translate(-30.000000, -140.000000)">
            <g id="节目管理" transform="translate(30.000000, 140.000000)">
                <path d="M25.5,5.11585038 L27.1889765,4.63450201 C27.3226924,4.59639377 27.4610575,4.57706204 27.6000977,4.57706204 C28.4285248,4.57706204 29.1000977,5.24863491 29.1000977,6.07706204 L29.1000977,23.8665974 C29.1000977,24.0022256 29.081703,24.1372272 29.0454168,24.2679112 C28.8237773,25.0661388 27.9970116,25.533556 27.1987839,25.3119165 L25.5,24.8402246 L25.5,5.11585038 Z" id="Combined-Shape"></path>
                <path d="M19.875,25.8901867 L19.875,3.73481334 L22.1102898,3.13341832 C22.9102693,2.91818733 23.7332599,3.39221961 23.9484909,4.19219906 C23.9826816,4.31928047 24,4.45030875 24,4.58190925 L24,25.0430907 C24,25.8715179 23.3284271,26.5430907 22.5,26.5430907 C22.3683995,26.5430907 22.2373712,26.5257724 22.1102898,26.4915817 L19.875,25.8901867 Z" id="Combined-Shape"></path>
                <path d="M14.25,27.4152958 L14.25,2.58468697 L16.4935361,1.99473924 C17.294727,1.78406256 18.1150077,2.2627689 18.3256844,3.06395979 C18.3584252,3.18847115 18.375,3.31667958 18.375,3.44542367 L18.375,26.5545685 C18.375,27.3829956 17.7034271,28.0545685 16.875,28.0545685 C16.7462539,28.0545685 16.6180436,28.0379932 16.4935305,28.0052514 L14.25,27.4152958 Z" id="Combined-Shape"></path>
                <path d="M10.1891068,0.748220213 L1.43910676,3.3047215 C0.586220111,3.55391074 3.35273921e-16,4.33591648 4.4408921e-16,5.22446075 L-1.55431223e-15,24.775492 C1.32869327e-16,25.6640335 0.586216421,26.4460374 1.43909938,26.6952291 L10.1890994,29.2517669 C11.2493409,29.5615438 12.3599602,28.953172 12.6697371,27.8929305 C12.7229745,27.7107201 12.75,27.5218583 12.75,27.3320299 L12.75,2.66795946 C12.75,1.56338996 11.8545695,0.667959459 10.75,0.667959459 C10.5601741,0.667959459 10.3713149,0.694984179 10.1891068,0.748220213 Z" id="Fill-4"></path>
            </g>
        </g>
    </g>
</svg>
