<?xml version="1.0" encoding="UTF-8"?>
<svg width="30px" height="26px" viewBox="0 0 30 26" version="1.1" xmlns="http://www.w3.org/2000/svg" xmlns:xlink="http://www.w3.org/1999/xlink">
    <!-- Generator: Sketch 52.4 (67378) - http://www.bohemiancoding.com/sketch -->
    <title>专题管理icon</title>
    <desc>Created with Sketch.</desc>
    <g id="Design" stroke="none" stroke-width="1" fill-rule="evenodd">
        <g id="02-02内容管理-节目列表-更多筛选" transform="translate(-30.000000, -340.000000)" fill-rule="nonzero">
            <g id="专题管理icon" transform="translate(30.000000, 340.000000)">
                <rect id="Rectangle" x="0" y="3.75" width="11.25" height="1.5" rx="0.75"></rect>
                <rect id="Rectangle-Copy-33" x="0" y="6.72761013" width="11.25" height="1.5" rx="0.75"></rect>
                <path d="M4.34037681,0.397389872 L4.34037681,0.397389872 C4.75459038,0.397389872 5.09037681,0.73317631 5.09037681,1.14738987 L5.09037681,10.8973899 C5.09037681,11.3116034 4.75459038,11.6473899 4.34037681,11.6473899 L4.34037681,11.6473899 C3.92616325,11.6473899 3.59037681,11.3116034 3.59037681,10.8973899 L3.59037681,1.14738987 C3.59037681,0.73317631 3.92616325,0.397389872 4.34037681,0.397389872 Z" id="Rectangle" transform="translate(4.340377, 6.022390) rotate(10.000000) translate(-4.340377, -6.022390) "></path>
                <path d="M6.96537681,0.397389872 L6.96537681,0.397389872 C7.37959038,0.397389872 7.71537681,0.73317631 7.71537681,1.14738987 L7.71537681,10.8973899 C7.71537681,11.3116034 7.37959038,11.6473899 6.96537681,11.6473899 L6.96537681,11.6473899 C6.55116325,11.6473899 6.21537681,11.3116034 6.21537681,10.8973899 L6.21537681,1.14738987 C6.21537681,0.73317631 6.55116325,0.397389872 6.96537681,0.397389872 Z" id="Rectangle" transform="translate(6.965377, 6.022390) rotate(10.000000) translate(-6.965377, -6.022390) "></path>
                <path d="M11.5,10.4776101 L11.5,10.7251382 C11.5,11.8297077 12.3954305,12.7251382 13.5,12.7251382 L26.125,12.7251382 L26.125,16.7276101 C26.125,17.8321796 25.2295695,18.7276101 24.125,18.7276101 L9.375,18.7276101 C8.2704305,18.7276101 7.375,17.8321796 7.375,16.7276101 L7.375,12.4776101 C7.375,11.3730406 8.2704305,10.4776101 9.375,10.4776101 L11.5,10.4776101 Z" id="Combined-Shape"></path>
                <path d="M6.625,17.2276101 L6.625,17.5772986 C6.625,18.6818681 7.5204305,19.5772986 8.625,19.5772986 L21.25,19.5772986 L21.25,23.8526101 C21.25,24.9571796 20.3545695,25.8526101 19.25,25.8526101 L4.5,25.8526101 C3.3954305,25.8526101 2.5,24.9571796 2.5,23.8526101 L2.5,19.2276101 C2.5,18.1230406 3.3954305,17.2276101 4.5,17.2276101 L6.625,17.2276101 Z" id="Combined-Shape"></path>
                <path d="M14.25,3.72761013 L28,3.72761013 C29.1045695,3.72761013 30,4.62304063 30,5.72761013 L30,9.97761013 C30,11.0821796 29.1045695,11.9776101 28,11.9776101 L14.25,11.9776101 C13.1454305,11.9776101 12.25,11.0821796 12.25,9.97761013 L12.25,5.72761013 C12.25,4.62304063 13.1454305,3.72761013 14.25,3.72761013 Z" id="Rectangle"></path>
            </g>
        </g>
    </g>
</svg>
