<?xml version="1.0" encoding="UTF-8"?>
<svg width="30px" height="27px" viewBox="0 0 30 27" version="1.1" xmlns="http://www.w3.org/2000/svg" xmlns:xlink="http://www.w3.org/1999/xlink">
    <!-- Generator: Sketch 52.4 (67378) - http://www.bohemiancoding.com/sketch -->
    <title>管理员</title>
    <desc>Created with Sketch.</desc>
    <g id="Design" stroke="none" stroke-width="1" fill-rule="evenodd">
        <g id="14-02管理员-管理员管理-添加" transform="translate(-30.000000, -142.000000)">
            <g id="管理员" transform="translate(30.000000, 142.000000)">
                <path d="M25.4754668,24.1434375 C24.8381338,23.1092361 23.4751803,22.3567361 22.1432864,21.7534722 C20.6981595,21.0986806 17.8837204,20.1634028 16.6303315,19.0392708 C15.8575102,18.3458333 15.3397689,17.0309028 15.5603653,16.2441319 C15.8560428,15.1909722 16.7120158,15.3125 18.2588812,12.9033333 C19.2031416,11.4335764 19.8096596,5.95486111 18.8722469,3.76736111 C17.9507309,1.61680556 16.5080496,0 13.125,0 C9.74195036,0 8.2992691,1.61680556 7.37775309,3.76736111 C6.44034043,5.95486111 7.0468584,11.4335764 7.99111884,12.9033333 C9.53798424,15.3125 10.3939572,15.1909722 10.6896347,16.2441319 C10.9102311,17.0309028 10.3924898,18.3458333 9.61966851,19.0392708 C8.36627956,20.1634028 5.55184052,21.0986806 4.10671362,21.7534722 C2.77481972,22.3567361 1.41186623,23.1092361 0.774533233,24.1434375 C0.321112136,24.8789236 0,26.25 0,26.25 L13.125,26.25 L26.25,26.25 C26.25,26.25 25.9288879,24.8789236 25.4754668,24.1434375" id="我的"></path>
                <path d="M22.4659915,21.912134 C20.6975726,21.912134 19.2648536,20.4832947 19.2648536,18.7134938 C19.2648536,16.9476924 20.6975726,15.5148536 22.4659915,15.5148536 C24.2294149,15.5148536 25.662134,16.9476924 25.662134,18.7134938 C25.662134,20.4832947 24.2294149,21.912134 22.4659915,21.912134 Z M29.0282117,17.8217618 C27.6979301,17.5667591 27.0844923,16.0087547 27.8891921,14.9125541 L28.4513158,14.1444362 L27.2329925,12.9269538 L26.4772744,13.440069 C25.3530271,14.2019673 23.8198212,13.5341401 23.6130094,12.1914886 L23.4676192,11.25 L21.7454838,11.25 L21.5238998,12.4107288 C21.2712163,13.7129529 19.7714424,14.3356882 18.6720747,13.5885614 L17.6939951,12.9269538 L16.4756718,14.1444362 L17.0409054,14.9125541 C17.8424953,16.0087547 17.2321674,17.5667591 15.8987759,17.8217618 L15,17.9951325 L15,19.7171782 L15.9415377,19.8625608 C17.2834816,20.0693618 17.952121,21.6001555 17.1925155,22.7266766 L16.6793736,23.4831328 L17.8976969,24.7006152 L18.6658548,24.1361885 C19.7590026,23.3338629 21.3170881,23.944159 21.5721041,25.2774811 L21.7454838,26.1769876 L23.4676192,26.1769876 L23.5702476,25.5114927 C23.7801693,24.1416306 25.3716868,23.4831328 26.4889367,24.3025622 L27.0300682,24.7006152 L28.247614,23.4831328 L27.7344721,22.7266766 C26.9717566,21.6032653 27.643506,20.0693618 28.9823399,19.8625608 L29.9269876,19.7171782 L29.9269876,17.9951325 L29.0282117,17.8217618 Z" id="Fill-5" fill-opacity="0.5"></path>
            </g>
        </g>
    </g>
</svg>
