<?xml version="1.0" encoding="UTF-8"?>
<svg width="30px" height="26px" viewBox="0 0 30 26" version="1.1" xmlns="http://www.w3.org/2000/svg" xmlns:xlink="http://www.w3.org/1999/xlink">
    <!-- Generator: Sketch 52.4 (67378) - http://www.bohemiancoding.com/sketch -->
    <title>页面布局icon</title>
    <desc>Created with Sketch.</desc>
    <g id="Design" stroke="none" stroke-width="1" fill-rule="evenodd">
        <g id="02-02内容管理-节目列表-更多筛选" transform="translate(-30.000000, -192.000000)" fill-rule="nonzero">
            <g id="页面布局icon" transform="translate(30.000000, 192.000000)">
                <rect id="Rectangle" x="0" y="0" width="10.7407407" height="3.7037037" rx="1.85185185"></rect>
                <rect id="Rectangle-Copy-14" x="0" y="6.2962963" width="10.7407407" height="18.5185185" rx="2"></rect>
                <rect id="Rectangle-Copy-15" x="13.5" y="6.375" width="15" height="18" rx="1"></rect>
                <path d="M13.8518519,4.81018519 L28,4.81018519 C29.1045695,4.81018519 30,5.70561569 30,6.81018519 L30,23.9305556 C30,25.0351251 29.1045695,25.9305556 28,25.9305556 L13.8518519,25.9305556 C12.7472824,25.9305556 11.8518519,25.0351251 11.8518519,23.9305556 L11.8518519,6.81018519 C11.8518519,5.70561569 12.7472824,4.81018519 13.8518519,4.81018519 Z M14.1018519,5.56018519 C13.2734247,5.56018519 12.6018519,6.23175806 12.6018519,7.06018519 L12.6018519,23.6805556 C12.6018519,24.5089827 13.2734247,25.1805556 14.1018519,25.1805556 L27.75,25.1805556 C28.5784271,25.1805556 29.25,24.5089827 29.25,23.6805556 L29.25,7.06018519 C29.25,6.23175806 28.5784271,5.56018519 27.75,5.56018519 L14.1018519,5.56018519 Z" id="Combined-Shape"></path>
            </g>
        </g>
    </g>
</svg>
