<?xml version="1.0" encoding="UTF-8"?>
<svg width="31px" height="22px" viewBox="0 0 31 22" version="1.1" xmlns="http://www.w3.org/2000/svg" xmlns:xlink="http://www.w3.org/1999/xlink">
    <!-- Generator: Sketch 52.4 (67378) - http://www.bohemiancoding.com/sketch -->
    <title>设备icon</title>
    <desc>Created with Sketch.</desc>
    <g id="Design" stroke="none" stroke-width="1" fill-rule="evenodd">
        <g id="13-01版本设备-设备管理-" transform="translate(-30.000000, -194.000000)">
            <g id="设备icon" transform="translate(31.000000, 194.000000)">
                <path d="M8.32306117,6.875 L20.4266945,6.875 C21.6245475,6.875 22.7503243,7.4472498 23.456266,8.41497815 L28.9273908,15.9149781 C30.1479522,17.5881643 29.7810273,19.9340101 28.1078412,21.1545715 C27.4660687,21.6227338 26.6922046,21.875 25.8978193,21.875 L2.85193632,21.875 C0.780868508,21.875 -0.89806368,20.1960678 -0.89806368,18.125 C-0.89806368,17.3306147 -0.645797513,16.5567507 -0.177635172,15.9149781 L5.29348968,8.41497815 C5.99943137,7.4472498 7.12520816,6.875 8.32306117,6.875 Z M2.83205671,16.875 C2.55591434,16.875 2.33205671,17.0988576 2.33205671,17.375 C2.33205671,17.6511424 2.55591434,17.875 2.83205671,17.875 L25.7060561,17.875 C25.9821984,17.875 26.2060561,17.6511424 26.2060561,17.375 C26.2060561,17.0988576 25.9821984,16.875 25.7060561,16.875 L2.83205671,16.875 Z" id="Shape"></path>
                <path d="M29.8951096,15.61751 L26.25,10.6062515 L26.25,0.75 C26.25,0.335786438 26.5857864,7.6089797e-17 27,0 L29.25,0 C29.6642136,-7.6089797e-17 30,0.335786438 30,0.75 L30,15.2347459 C30,15.3745707 29.9617367,15.5054586 29.8951096,15.61751 Z M27.0535714,1.09965434 C27.2015048,1.09965434 27.3214286,0.976571333 27.3214286,0.824740753 C27.3214286,0.672910173 27.2015048,0.549827168 27.0535714,0.549827168 C26.905638,0.549827168 26.7857143,0.672910173 26.7857143,0.824740753 C26.7857143,0.976571333 26.905638,1.09965434 27.0535714,1.09965434 Z M29.1964286,1.09965434 C29.344362,1.09965434 29.4642857,0.976571333 29.4642857,0.824740753 C29.4642857,0.672910173 29.344362,0.549827168 29.1964286,0.549827168 C29.0484952,0.549827168 28.9285714,0.672910173 28.9285714,0.824740753 C28.9285714,0.976571333 29.0484952,1.09965434 29.1964286,1.09965434 Z M27.0606279,2.01753187 C26.9087973,2.01753187 26.7857143,2.14061488 26.7857143,2.29244546 C26.7857143,2.44427604 26.9087973,2.56735904 27.0606279,2.56735904 L27.5822293,2.56735904 C27.7340599,2.56735904 27.8571429,2.44427604 27.8571429,2.29244546 C27.8571429,2.14061488 27.7340599,2.01753187 27.5822293,2.01753187 L27.0606279,2.01753187 Z M28.125,5.86482313 C28.8646671,5.86482313 29.4642857,5.24940811 29.4642857,4.49025521 C29.4642857,3.73110231 28.8646671,3.11568729 28.125,3.11568729 C27.3853329,3.11568729 26.7857143,3.73110231 26.7857143,4.49025521 C26.7857143,5.24940811 27.3853329,5.86482313 28.125,5.86482313 Z M28.125,5.31499596 C27.6811998,5.31499596 27.3214286,4.94574695 27.3214286,4.49025521 C27.3214286,4.03476347 27.6811998,3.66551446 28.125,3.66551446 C28.5688002,3.66551446 28.9285714,4.03476347 28.9285714,4.49025521 C28.9285714,4.94574695 28.5688002,5.31499596 28.125,5.31499596 Z M28.6677707,2.01753187 C28.5159401,2.01753187 28.3928571,2.14061488 28.3928571,2.29244546 C28.3928571,2.44427604 28.5159401,2.56735904 28.6677707,2.56735904 L29.1893721,2.56735904 C29.3412027,2.56735904 29.4642857,2.44427604 29.4642857,2.29244546 C29.4642857,2.14061488 29.3412027,2.01753187 29.1893721,2.01753187 L28.6677707,2.01753187 Z M27.0606279,6.4146503 C26.9087973,6.4146503 26.7857143,6.5377333 26.7857143,6.68956388 C26.7857143,6.84139446 26.9087973,6.96447747 27.0606279,6.96447747 L27.5,6.96447747 L27.5,6.4146503 L27.0606279,6.4146503 Z M27.6785714,6.4146503 L27.6785714,6.96447747 L28.5714286,6.96447747 L28.5714286,6.4146503 L27.6785714,6.4146503 Z M28.75,6.4146503 L28.75,6.96447747 L29.1893721,6.96447747 C29.3412027,6.96447747 29.4642857,6.84139446 29.4642857,6.68956388 C29.4642857,6.5377333 29.3412027,6.4146503 29.1893721,6.4146503 L28.75,6.4146503 Z M27.2321429,7.33102891 C27.0842094,7.33102891 26.9642857,7.45095264 26.9642857,7.59888606 L26.9642857,7.61299894 C26.9642857,7.76093235 27.0842094,7.88085608 27.2321429,7.88085608 C27.3800763,7.88085608 27.5,7.76093235 27.5,7.61299894 L27.5,7.59888606 C27.5,7.45095264 27.3800763,7.33102891 27.2321429,7.33102891 Z M28.125,7.33102891 C27.9770666,7.33102891 27.8571429,7.45095264 27.8571429,7.59888606 L27.8571429,7.61299894 C27.8571429,7.76093235 27.9770666,7.88085608 28.125,7.88085608 C28.2729334,7.88085608 28.3928571,7.76093235 28.3928571,7.61299894 L28.3928571,7.59888606 C28.3928571,7.45095264 28.2729334,7.33102891 28.125,7.33102891 Z M29.0178571,7.33102891 C28.8699237,7.33102891 28.75,7.45095264 28.75,7.59888606 L28.75,7.61299894 C28.75,7.76093235 28.8699237,7.88085608 29.0178571,7.88085608 C29.1657906,7.88085608 29.2857143,7.76093235 29.2857143,7.61299894 L29.2857143,7.59888606 C29.2857143,7.45095264 29.1657906,7.33102891 29.0178571,7.33102891 Z M27.2321429,8.24740753 C27.0842094,8.24740753 26.9642857,8.36733126 26.9642857,8.51526467 L26.9642857,8.52937755 C26.9642857,8.67731097 27.0842094,8.7972347 27.2321429,8.7972347 C27.3800763,8.7972347 27.5,8.67731097 27.5,8.52937755 L27.5,8.51526467 C27.5,8.36733126 27.3800763,8.24740753 27.2321429,8.24740753 Z M29.0178571,8.24740753 C28.8699237,8.24740753 28.75,8.36733126 28.75,8.51526467 L28.75,8.52937755 C28.75,8.67731097 28.8699237,8.7972347 29.0178571,8.7972347 C29.1657906,8.7972347 29.2857143,8.67731097 29.2857143,8.52937755 L29.2857143,8.51526467 C29.2857143,8.36733126 29.1657906,8.24740753 29.0178571,8.24740753 Z M28.125,8.24740753 C27.9770666,8.24740753 27.8571429,8.36733126 27.8571429,8.51526467 L27.8571429,8.52937755 C27.8571429,8.67731097 27.9770666,8.7972347 28.125,8.7972347 C28.2729334,8.7972347 28.3928571,8.67731097 28.3928571,8.52937755 L28.3928571,8.51526467 C28.3928571,8.36733126 28.2729334,8.24740753 28.125,8.24740753 Z M27.2321429,9.16378614 C27.0842094,9.16378614 26.9642857,9.28370987 26.9642857,9.43164328 L26.9642857,9.44575617 C26.9642857,9.59368958 27.0842094,9.71361331 27.2321429,9.71361331 C27.3800763,9.71361331 27.5,9.59368958 27.5,9.44575617 L27.5,9.43164328 C27.5,9.28370987 27.3800763,9.16378614 27.2321429,9.16378614 Z M29.0178571,9.16378614 C28.8699237,9.16378614 28.75,9.28370987 28.75,9.43164328 L28.75,9.44575617 C28.75,9.59368958 28.8699237,9.71361331 29.0178571,9.71361331 C29.1657906,9.71361331 29.2857143,9.59368958 29.2857143,9.44575617 L29.2857143,9.43164328 C29.2857143,9.28370987 29.1657906,9.16378614 29.0178571,9.16378614 Z M28.125,9.16378614 C27.9770666,9.16378614 27.8571429,9.28370987 27.8571429,9.43164328 L27.8571429,9.44575617 C27.8571429,9.59368958 27.9770666,9.71361331 28.125,9.71361331 C28.2729334,9.71361331 28.3928571,9.59368958 28.3928571,9.44575617 L28.3928571,9.43164328 C28.3928571,9.28370987 28.2729334,9.16378614 28.125,9.16378614 Z M27.2321429,10.0801648 C27.0842094,10.0801648 26.9642857,10.2000885 26.9642857,10.3480219 L26.9642857,10.3621348 C26.9642857,10.5100682 27.0842094,10.6299919 27.2321429,10.6299919 C27.3800763,10.6299919 27.5,10.5100682 27.5,10.3621348 L27.5,10.3480219 C27.5,10.2000885 27.3800763,10.0801648 27.2321429,10.0801648 Z M29.0178571,10.0801648 C28.8699237,10.0801648 28.75,10.2000885 28.75,10.3480219 L28.75,10.3621348 C28.75,10.5100682 28.8699237,10.6299919 29.0178571,10.6299919 C29.1657906,10.6299919 29.2857143,10.5100682 29.2857143,10.3621348 L29.2857143,10.3480219 C29.2857143,10.2000885 29.1657906,10.0801648 29.0178571,10.0801648 Z M28.125,10.0801648 C27.9770666,10.0801648 27.8571429,10.2000885 27.8571429,10.3480219 L27.8571429,10.3621348 C27.8571429,10.5100682 27.9770666,10.6299919 28.125,10.6299919 C28.2729334,10.6299919 28.3928571,10.5100682 28.3928571,10.3621348 L28.3928571,10.3480219 C28.3928571,10.2000885 28.2729334,10.0801648 28.125,10.0801648 Z" id="Shape"></path>
            </g>
        </g>
    </g>
</svg>
