<?xml version="1.0" encoding="UTF-8"?>
<svg width="26px" height="28px" viewBox="0 0 26 28" version="1.1" xmlns="http://www.w3.org/2000/svg" xmlns:xlink="http://www.w3.org/1999/xlink">
    <!-- Generator: Sketch 63.1 (92452) - https://sketch.com -->
    <title>icon_department</title>
    <desc>Created with Sketch.</desc>
    <g id="Design" stroke="none" stroke-width="1" fill-rule="evenodd">
        <g id="00-2.9-说明" transform="translate(-1229.000000, -146.000000)">
            <g id="icon_department" transform="translate(1227.454545, 145.000000)">
                <rect id="矩形" fill-opacity="0" fill-rule="nonzero" x="0" y="0" width="30" height="30"></rect>
                <path d="M14.9999375,7.261875 C16.308,7.261875 17.368375,6.19591875 17.368375,4.88095 C17.368375,3.5659875 16.308,2.5 14.9999375,2.5 C13.6919375,2.5 12.6315,3.5659875 12.6315,4.88095 C12.6315,6.19591875 13.6919375,7.261875 14.9999375,7.261875 Z" id="路径" stroke-width="2.5" stroke-linejoin="round"></path>
                <path d="M6.11841875,25.119125 C7.4264375,25.119125 8.4868125,24.053125 8.4868125,22.7381875 C8.4868125,21.4231875 7.4264375,20.3571875 6.11841875,20.3571875 C4.81038125,20.3571875 3.75,21.4231875 3.75,22.7381875 C3.75,24.053125 4.81038125,25.119125 6.11841875,25.119125 Z" id="路径" stroke-width="2.5" stroke-linejoin="round"></path>
                <path d="M23.881625,25.119125 C25.1896875,25.119125 26.2500625,24.053125 26.2500625,22.7381875 C26.2500625,21.4231875 25.1896875,20.3571875 23.881625,20.3571875 C22.5735625,20.3571875 21.5131875,21.4231875 21.5131875,22.7381875 C21.5131875,24.053125 22.5735625,25.119125 23.881625,25.119125 Z" id="路径" troke-width="2.5" stroke-linejoin="round"></path>
                <path d="M20.714125,6.446375 C24.0275,8.4143125 26.2499375,12.0415 26.2499375,16.1905 C26.2499375,16.551 26.2331875,16.907625 26.200375,17.2595 L26.200375,17.2595" id="路径" stroke-width="2.5" stroke-linecap="round" stroke-linejoin="round"></path>
                <path d="M19.3835625,26.609375 C18.0364375,27.182875 16.555,27.5000625 14.9999375,27.5000625 C13.444875,27.5000625 11.9635,27.182875 10.6163125,26.609375" id="路径" stroke-width="2.5" stroke-linecap="round" stroke-linejoin="round"></path>
                <path d="M3.7996,17.2595 C3.76678125,16.907625 3.75,16.551 3.75,16.1905 C3.75,12.0415 5.9724375,8.4143125 9.2858125,6.446375" id="路径" stroke-width="2.5" stroke-linecap="round" stroke-linejoin="round"></path>
            </g>
        </g>
    </g>
</svg>