<?xml version="1.0" encoding="UTF-8"?>
<svg width="30px" height="27px" viewBox="0 0 30 27" version="1.1" xmlns="http://www.w3.org/2000/svg" xmlns:xlink="http://www.w3.org/1999/xlink">
    <!-- Generator: Sketch 52.4 (67378) - http://www.bohemiancoding.com/sketch -->
    <title>客户端日志</title>
    <desc>Created with Sketch.</desc>
    <g id="Design" stroke="none" stroke-width="1" fill-rule="evenodd">
        <g id="01首页-操控台" transform="translate(-30.000000, -192.000000)" fill-rule="nonzero">
            <g id="客户端日志" transform="translate(30.000000, 192.000000)">
                <path d="M1.5,8.625 L2.625,8.625 C3.45342712,8.625 4.125,7.95342712 4.125,7.125 C4.125,6.29657288 3.45342712,5.625 2.625,5.625 L1.5,5.625 L1.5,1.5 C1.5,0.671572875 2.17157288,1.52179594e-16 3,0 L19.125,0 C19.9534271,-1.52179594e-16 20.625,0.671572875 20.625,1.5 L20.625,24.75 C20.625,25.5784271 19.9534271,26.25 19.125,26.25 L3,26.25 C2.17157288,26.25 1.5,25.5784271 1.5,24.75 L1.5,20.625 L2.625,20.625 C3.45342712,20.625 4.125,19.9534271 4.125,19.125 C4.125,18.2965729 3.45342712,17.625 2.625,17.625 L1.5,17.625 L1.5,14.625 L2.625,14.625 C3.45342712,14.625 4.125,13.9534271 4.125,13.125 C4.125,12.2965729 3.45342712,11.625 2.625,11.625 L1.5,11.625 L1.5,8.625 Z" id="Combined-Shape"></path>
                <rect id="Rectangle" x="0" y="12.375" width="3.375" height="1.5" rx="0.75"></rect>
                <rect id="Rectangle-Copy-13" x="0" y="18.375" width="3.375" height="1.5" rx="0.75"></rect>
                <rect id="Rectangle-Copy-12" x="0" y="6.375" width="3.375" height="1.5" rx="0.75"></rect>
                <path d="M21.375,3 L21.375,22.447931 L29.4691908,7.51539416 C29.7323788,7.02985271 29.5521258,6.42288753 29.0665843,6.15969949 C29.0350346,6.14259792 29.0025871,6.12720707 28.9693827,6.11359374 L21.375,3 Z" id="Path-2"></path>
            </g>
        </g>
    </g>
</svg>
