<?xml version="1.0" encoding="UTF-8"?>
<svg width="30px" height="30px" viewBox="0 0 30 30" version="1.1" xmlns="http://www.w3.org/2000/svg" xmlns:xlink="http://www.w3.org/1999/xlink">
    <!-- Generator: Sketch 63.1 (92452) - https://sketch.com -->
    <g id="Design" stroke="none" stroke-width="1" fill-rule="evenodd">
        <g id="05设备准入-郸城" transform="translate(-31.000000, -241.000000)">
            <g id="icon_allowed" transform="translate(31.000000, 241.000000)">
                <rect id="矩形" fill-opacity="0.01" x="0" y="0" width="30" height="30"></rect>
                <path d="M9.45250724,14 L20.5472543,14 C21.6452615,14 22.6772003,14.5340998 23.3242989,15.4373129 L28.3393837,22.4373129 C29.4582063,23.9989533 29.1218661,26.1884095 27.5881467,27.3276001 C26.9998685,27.7645516 26.2905091,28 25.5623391,28 L4.43742251,28 C2.53898648,28 1,26.4329966 1,24.5 C1,23.7585738 1.23123877,23.0363006 1.66037791,22.4373129 L6.67546264,15.4373129 C7.32256126,14.5340998 8.35450006,14 9.45250724,14 Z M4.4607523,24 C4.20628583,24 4,24.2238576 4,24.5 C4,24.7761424 4.20628583,25 4.4607523,25 L25.5392477,25 C25.7937142,25 26,24.7761424 26,24.5 C26,24.2238576 25.7937142,24 25.5392477,24 L4.4607523,24 Z" id="Shape"></path>
                <path d="M15,2 C17.7614237,2 20,4.23857625 20,7 C20,9.76142375 17.7614237,12 15,12 C12.2385763,12 10,9.76142375 10,7 C10,4.23857625 12.2385763,2 15,2 Z M13.8349121,9.5648021 C14.1140404,9.76564316 14.5054767,9.74053803 14.756528,9.4894867 L14.756528,9.4894867 L17.7869857,6.45902906 C18.0659316,6.18008314 18.0659316,5.72782244 17.7869857,5.44887652 C17.5080397,5.16993059 17.055779,5.16993059 16.7768331,5.44887652 L16.7768331,5.44887652 L14.251,7.974 L13.2412992,6.96410533 C12.9902479,6.713054 12.5988116,6.68794887 12.3196833,6.88878994 L12.2311467,6.96410533 C11.9522008,7.24305126 11.9522008,7.69531196 12.2311467,7.97425788 L12.2311467,7.97425788 L13.7463755,9.4894867 Z" id="checkbox_checked备份-4"></path>
            </g>
        </g>
    </g>
</svg>