<?xml version="1.0" encoding="UTF-8"?>
<svg width="20px" height="30px" viewBox="0 0 20 30" version="1.1" xmlns="http://www.w3.org/2000/svg" xmlns:xlink="http://www.w3.org/1999/xlink">
    <!-- Generator: Sketch 63.1 (92452) - https://sketch.com -->
    <title>icon_code备份</title>
    <desc>Created with Sketch.</desc>
    <g id="Design" stroke="none" stroke-width="1">
        <g id="02-01网络设置密码-2.8" transform="translate(-26.000000, -338.000000)">
            <path d="M44,338 C45.1045695,338 46,338.895431 46,340 L46,366 C46,367.104569 45.1045695,368 44,368 L28,368 C26.8954305,368 26,367.104569 26,366 L26,340 C26,338.895431 26.8954305,338 28,338 L44,338 Z M44,340 L28,340 C27.4477153,340 27,340.447715 27,341 L27,341 L27,364 C27,364.552285 27.4477153,365 28,365 L28,365 L44,365 C44.5522847,365 45,364.552285 45,364 L45,364 L45,341 C45,340.447715 44.5522847,340 44,340 L44,340 Z M31,346 L41,346 C41.5522847,346 42,346.447715 42,347 L42,353 C42,353.552285 41.5522847,354 41,354 L31,354 C30.4477153,354 30,353.552285 30,353 L30,347 C30,346.447715 30.4477153,346 31,346 Z" id="icon_code备份"></path>
        </g>
    </g>
</svg>
