<?xml version="1.0" encoding="UTF-8"?>
<svg width="30px" height="19px" viewBox="0 0 30 19" version="1.1" xmlns="http://www.w3.org/2000/svg" xmlns:xlink="http://www.w3.org/1999/xlink">
    <!-- Generator: Sketch 52.4 (67378) - http://www.bohemiancoding.com/sketch -->
    <title>视频管理icon</title>
    <desc>Created with Sketch.</desc>
    <g id="Design" stroke="none" stroke-width="1" fill-rule="evenodd">
        <g id="02-02内容管理-节目列表-更多筛选" transform="translate(-30.000000, -246.000000)" fill-rule="nonzero">
            <path d="M34,246 L56,246 C58.209139,246 60,247.790861 60,250 L60,261 C60,263.209139 58.209139,265 56,265 L34,265 C31.790861,265 30,263.209139 30,261 L30,250 C30,247.790861 31.790861,246 34,246 Z M46.5,251.750747 C46.0857864,251.750747 45.75,252.086534 45.75,252.500747 L45.75,258.490354 C45.75,258.904567 46.0857864,259.240354 46.5,259.240354 C46.9142136,259.240354 47.25,258.904567 47.25,258.490354 L47.25,252.500747 C47.25,252.086534 46.9142136,251.750747 46.5,251.750747 Z M49.5,251.742092 C49.0857864,251.742092 48.75,252.077879 48.75,252.492092 L48.75,258.481699 C48.75,258.895912 49.0857864,259.231699 49.5,259.231699 C49.9142136,259.231699 50.25,258.895912 50.25,258.481699 L50.25,252.492092 C50.25,252.077879 49.9142136,251.742092 49.5,251.742092 Z M40.0167236,252.690871 L40.0167236,258.313396 C40.0167236,258.589538 40.2405813,258.813396 40.5167236,258.813396 C40.6153271,258.813396 40.7117294,258.784241 40.7938075,258.729598 L45.0165535,255.918336 C45.2464158,255.765307 45.3087013,255.454912 45.1556722,255.225049 C45.1189705,255.169921 45.0716823,255.122632 45.0165535,255.085931 L40.7938075,252.274668 C40.5639452,252.121639 40.2535503,252.183924 40.1005211,252.413787 C40.0458782,252.495865 40.0167236,252.592267 40.0167236,252.690871 Z" id="视频管理icon"></path>
        </g>
    </g>
</svg>
