<?xml version="1.0" encoding="UTF-8"?>
<svg width="30px" height="18px" viewBox="0 0 30 18" version="1.1" xmlns="http://www.w3.org/2000/svg" xmlns:xlink="http://www.w3.org/1999/xlink">
    <!-- Generator: Sketch 52.4 (67378) - http://www.bohemiancoding.com/sketch -->
    <title>操控台icon</title>
    <desc>Created with Sketch.</desc>
    <g id="Design" stroke="none" stroke-width="1" fill-rule="evenodd">
        <g id="01首页-操控台" transform="translate(-30.000000, -147.000000)">
            <g id="操控台icon" transform="translate(30.000000, 147.000000)">
                <path d="M28.9655172,16.5517241 C28.3942241,16.5517241 27.9310345,16.0735929 27.9310345,15.483871 C27.9310345,8.12369299 22.1301724,2.13570634 15,2.13570634 C7.86982759,2.13570634 2.06896552,8.12369299 2.06896552,15.483871 C2.06896552,16.0735929 1.60577586,16.5517241 1.03448276,16.5517241 C0.463189655,16.5517241 0,16.0735929 0,15.483871 C0,6.94611791 6.72905172,0 15,0 C23.2709483,0 30,6.94611791 30,15.483871 C30,16.0735929 29.5368103,16.5517241 28.9655172,16.5517241" id="Fill-1"></path>
                <path d="M16.5517241,11.407563 L22.7586207,7.24137931 L18.592437,13.4482759 C18.2429397,12.5057114 17.4942886,11.7570603 16.5517241,11.407563 Z" id="Combined-Shape"></path>
                <path d="M17.5862069,15 C17.5862069,16.4284483 16.4284483,17.5862069 15,17.5862069 C13.5715517,17.5862069 12.4137931,16.4284483 12.4137931,15 C12.4137931,13.5715517 13.5715517,12.4137931 15,12.4137931 C16.4284483,12.4137931 17.5862069,13.5715517 17.5862069,15" id="Fill-5"></path>
            </g>
        </g>
    </g>
</svg>
