<?xml version="1.0" encoding="UTF-8"?>
<svg width="30px" height="29px" viewBox="0 0 30 29" version="1.1" xmlns="http://www.w3.org/2000/svg" xmlns:xlink="http://www.w3.org/1999/xlink">
    <!-- Generator: Sketch 52.4 (67378) - http://www.bohemiancoding.com/sketch -->
    <title>产品包</title>
    <desc>Created with Sketch.</desc>
    <g id="Design" stroke="none" stroke-width="1" fill-rule="evenodd">
        <g id="15-01产品管理" transform="translate(-30.000000, -141.000000)" fill="#FFFFFF">
            <path d="M32.1942251,145.591785 L41.9884502,149.509475 C43.203357,149.995438 44,151.172106 44,152.480601 L44,167.950843 C44,168.834498 43.2836556,169.550843 42.4,169.550843 C42.1964489,169.550843 41.9947674,169.512002 41.8057749,169.436405 L32.0115498,165.518715 C30.796643,165.032753 30,163.856085 30,162.54759 L30,147.077348 C30,146.193692 30.7163444,145.477348 31.6,145.477348 C31.8035511,145.477348 32.0052326,145.516188 32.1942251,145.591785 Z M57.8429016,145.915303 C58.0211753,145.849087 58.2098262,145.815184 58.4,145.815184 C59.2836556,145.815184 60,146.531528 60,147.415184 L60,162.889061 C60,164.226635 59.1680726,165.423097 57.9141969,165.888822 L48.1570984,169.512887 C47.9788247,169.579103 47.7901738,169.613007 47.6,169.613007 C46.7163444,169.613007 46,168.896663 46,168.013007 L46,152.539129 C46,151.201555 46.8319274,150.005094 48.0858031,149.539368 L57.8429016,145.915303 Z M46.6766522,141.256726 L57.6,144.683273 L46.9366848,148.226574 C45.7383707,148.62476 44.440653,148.606263 43.2541749,148.174084 L32.572583,144.283273 L43.4819708,141.209823 C44.5288251,140.914898 45.6389071,140.931195 46.6766522,141.256726 Z" id="产品包"></path>
        </g>
    </g>
</svg>
