<?xml version="1.0" encoding="UTF-8"?>
<svg width="25px" height="30px" viewBox="0 0 25 30" version="1.1" xmlns="http://www.w3.org/2000/svg" xmlns:xlink="http://www.w3.org/1999/xlink">
    <!-- Generator: Sketch 54.1 (76490) - https://sketchapp.com -->
    <title>订单icon</title>
    <desc>Created with Sketch.</desc>
    <g id="Design" stroke="none" stroke-width="1" fill="none" fill-rule="evenodd">
        <g id="15-03-订单管理--订单详情-2.3" transform="translate(-35.000000, -241.000000)" fill="#FFFFFF">
            <path d="M38.01875,241 L56.98125,241 C58.6484596,241 60,242.35154 60,244.01875 L60,267.98125 C60,269.64846 58.6484596,271 56.98125,271 L38.01875,271 C36.3515404,271 35,269.64846 35,267.98125 L35,244.01875 C35,242.35154 36.3515404,241 38.01875,241 Z M38.3625,246 C37.8861544,246 37.5,246.386154 37.5,246.8625 L37.5,247.1375 C37.5,247.613846 37.8861544,248 38.3625,248 L56.6375,248 C57.1138456,248 57.5,247.613846 57.5,247.1375 L57.5,246.8625 C57.5,246.386154 57.1138456,246 56.6375,246 L38.3625,246 Z M38.3625,254 C37.8861544,254 37.5,254.386154 37.5,254.8625 L37.5,255.1375 C37.5,255.613846 37.8861544,256 38.3625,256 L56.6375,256 C57.1138456,256 57.5,255.613846 57.5,255.1375 L57.5,254.8625 C57.5,254.386154 57.1138456,254 56.6375,254 L38.3625,254 Z M38.3625,250 C37.8861544,250 37.5,250.386154 37.5,250.8625 L37.5,251.1375 C37.5,251.613846 37.8861544,252 38.3625,252 L56.6375,252 C57.1138456,252 57.5,251.613846 57.5,251.1375 L57.5,250.8625 C57.5,250.386154 57.1138456,250 56.6375,250 L38.3625,250 Z M38.3625,258 C37.8861544,258 37.5,258.386154 37.5,258.8625 L37.5,259.1375 C37.5,259.613846 37.8861544,260 38.3625,260 L56.6375,260 C57.1138456,260 57.5,259.613846 57.5,259.1375 L57.5,258.8625 C57.5,258.386154 57.1138456,258 56.6375,258 L38.3625,258 Z" id="订单icon"></path>
        </g>
    </g>
</svg>