<?xml version="1.0" encoding="UTF-8"?>
<svg width="30px" height="24px" viewBox="0 0 30 24" version="1.1" xmlns="http://www.w3.org/2000/svg" xmlns:xlink="http://www.w3.org/1999/xlink">
    <!-- Generator: Sketch 52.4 (67378) - http://www.bohemiancoding.com/sketch -->
    <title>人物icon</title>
    <desc>Created with Sketch.</desc>
    <g id="Design" stroke="none" stroke-width="1" fill-rule="evenodd">
        <g id="02-02内容管理-节目列表-更多筛选" transform="translate(-30.000000, -293.000000)">
            <g id="人物icon" transform="translate(30.000000, 293.000000)">
                <path d="M22.5965761,21.4150746 C22.0312658,20.4977446 20.8223347,19.8302819 19.6409534,19.2951907 C18.3591351,18.7143947 15.8627456,17.8848093 14.7509977,16.8877114 C14.0655101,16.2726368 13.6062768,15.1063018 13.8019445,14.4084411 C14.0642086,13.4742952 14.8234511,13.5820896 16.1955108,11.4451741 C17.0330638,10.1415091 17.5710413,5.28192371 16.7395623,3.34162521 C15.9221835,1.43409619 14.6425344,0 11.641791,0 C8.64104765,0 7.36139861,1.43409619 6.5440198,3.34162521 C5.71254077,5.28192371 6.25051833,10.1415091 7.0880713,11.4451741 C8.46013101,13.5820896 9.21937353,13.4742952 9.48163759,14.4084411 C9.67730524,15.1063018 9.21807197,16.2726368 8.53258444,16.8877114 C7.42083645,17.8848093 4.92444703,18.7143947 3.64262871,19.2951907 C2.46124734,19.8302819 1.25231632,20.4977446 0.687006023,21.4150746 C0.284824411,22.0674461 0,23.2835821 0,23.2835821 L11.641791,23.2835821 L23.2835821,23.2835821 C23.2835821,23.2835821 22.9987577,22.0674461 22.5965761,21.4150746" id="我的"></path>
                <path d="M24.7439142,23.2835821 C24.7439142,23.2835821 24.4262255,21.9271227 23.9776383,21.1994776 C23.3470999,20.1763018 21.9986768,19.4318242 20.6809822,18.8349917 C20.3496976,18.6848856 19.9456773,18.5198805 19.5049887,18.3411042 C19.7956605,17.8999615 19.9530031,17.3406777 19.848673,16.9685779 C19.662062,16.3038972 19.1218318,16.380597 18.1455585,14.8600995 C17.5496074,13.9324917 17.1668156,10.4747098 17.7584449,9.09411277 C18.3400414,7.7368325 19.2505609,6.71641791 21.3857053,6.71641791 C23.5208496,6.71641791 24.4313691,7.7368325 25.0129656,9.09411277 C25.6045949,10.4747098 25.2218032,13.9324917 24.625852,14.8600995 C23.6495787,16.380597 23.1093485,16.3038972 22.9227375,16.9685779 C22.7835125,17.4651327 23.1102746,18.2950249 23.5980253,18.7326741 C24.3890768,19.4421476 26.1653539,20.0324295 27.0774169,20.4456882 C27.9180152,20.8264262 28.7782161,21.3013516 29.1804561,21.9540672 C29.4666238,22.4182546 29.6692874,23.2835821 29.6692874,23.2835821 L24.7439142,23.2835821 Z" id="Combined-Shape"></path>
            </g>
        </g>
    </g>
</svg>
