<?xml version="1.0" encoding="UTF-8"?>
<svg width="31px" height="24px" viewBox="0 0 31 24" version="1.1" xmlns="http://www.w3.org/2000/svg" xmlns:xlink="http://www.w3.org/1999/xlink">
    <!-- Generator: Sketch 63.1 (92452) - https://sketch.com -->
    <title>icon_server</title>
    <desc>Created with Sketch.</desc>
    <g id="Design" stroke="none" stroke-width="1" fill-rule="evenodd">
        <g id="00-2.9-说明" transform="translate(-749.000000, -148.000000)">
            <path d="M765.272727,166 L765.272727,170 L773.272727,170 C773.825012,170 774.272727,170.447715 774.272727,171 C774.272727,171.552285 773.825012,172 773.272727,172 L755.272727,172 C754.720443,172 754.272727,171.552285 754.272727,171 C754.272727,170.447715 754.720443,170 755.272727,170 L763.272727,170 L763.272727,166 L765.272727,166 Z M777.272727,160 C778.377297,160 779.272727,160.895431 779.272727,162 C779.272727,163.104569 778.377297,164 777.272727,164 L751.272727,164 C750.168158,164 749.272727,163.104569 749.272727,162 C749.272727,160.895431 750.168158,160 751.272727,160 L777.272727,160 Z M777.272727,154 C778.377297,154 779.272727,154.895431 779.272727,156 C779.272727,157.104569 778.377297,158 777.272727,158 L751.272727,158 C750.168158,158 749.272727,157.104569 749.272727,156 C749.272727,154.895431 750.168158,154 751.272727,154 L777.272727,154 Z M777.272727,148 C778.377297,148 779.272727,148.895431 779.272727,150 C779.272727,151.104569 778.377297,152 777.272727,152 L751.272727,152 C750.168158,152 749.272727,151.104569 749.272727,150 C749.272727,148.895431 750.168158,148 751.272727,148 L777.272727,148 Z M772.272727,149 C771.720443,149 771.272727,149.447715 771.272727,150 C771.272727,150.552285 771.720443,151 772.272727,151 C772.825012,151 773.272727,150.552285 773.272727,150 C773.272727,149.447715 772.825012,149 772.272727,149 Z M769.272727,149 C768.720443,149 768.272727,149.447715 768.272727,150 C768.272727,150.552285 768.720443,151 769.272727,151 C769.825012,151 770.272727,150.552285 770.272727,150 C770.272727,149.447715 769.825012,149 769.272727,149 Z M775.272727,149 C774.720443,149 774.272727,149.447715 774.272727,150 C774.272727,150.552285 774.720443,151 775.272727,151 C775.825012,151 776.272727,150.552285 776.272727,150 C776.272727,149.447715 775.825012,149 775.272727,149 Z" id="icon_server"></path>
        </g>
    </g>
</svg>