<?xml version="1.0" encoding="UTF-8"?>
<svg width="30px" height="30px" viewBox="0 0 30 30" version="1.1" xmlns="http://www.w3.org/2000/svg" xmlns:xlink="http://www.w3.org/1999/xlink">
    <!-- Generator: Sketch 63.1 (92452) - https://sketch.com -->
    <title>icon_station copy</title>
    <desc>Created with Sketch.</desc>
    <g id="Design" stroke="none" stroke-width="1">
        <g id="02-回看缩略图" transform="translate(-30.000000, -142.000000)">
            <g id="icon_station-copy" transform="translate(30.000000, 142.000000)">
                <path d="M15,0 C23.2842712,0 30,6.71572875 30,15 C30,23.2842712 23.2842712,30 15,30 C6.71572875,30 0,23.2842712 0,15 C0,6.71572875 6.71572875,0 15,0 Z M15,2 C7.82029825,2 2,7.82029825 2,15 C2,22.1797017 7.82029825,28 15,28 C22.1797017,28 28,22.1797017 28,15 C28,7.82029825 22.1797017,2 15,2 Z" id="Combined-Shape"></path>
                <path d="M15,5 C18.8659932,5 22,8.13400675 22,12 C22,14.5773288 19.6666667,19.1591973 15,25.7456055 C10.3333333,19.1591973 8,14.5773288 8,12 C8,8.13400675 11.1340068,5 15,5 Z M15,9 C13.3431458,9 12,10.3431458 12,12 C12,13.6568542 13.3431458,15 15,15 C16.6568542,15 18,13.6568542 18,12 C18,10.3431458 16.6568542,9 15,9 Z" id="Combined-Shape"></path>
            </g>
        </g>
    </g>
</svg>
