<?xml version="1.0" encoding="UTF-8"?>
<svg width="30px" height="25px" viewBox="0 0 30 25" version="1.1" xmlns="http://www.w3.org/2000/svg" xmlns:xlink="http://www.w3.org/1999/xlink">
    <!-- Generator: Sketch 52.4 (67378) - http://www.bohemiancoding.com/sketch -->
    <title>栏目管理icon</title>
    <desc>Created with Sketch.</desc>
    <g id="Design" stroke="none" stroke-width="1" fill-rule="evenodd">
        <g id="02-02内容管理-节目列表-更多筛选" transform="translate(-30.000000, -493.000000)" fill-rule="nonzero">
            <g id="栏目管理icon" transform="translate(30.000000, 493.000000)">
                <path d="M5.68181818,13.6363636 L24.3181818,13.6363636 C27.4561634,13.6363636 30,16.1802003 30,19.3181818 C30,22.4561634 27.4561634,25 24.3181818,25 L5.68181818,25 C2.54383665,25 3.84291904e-16,22.4561634 0,19.3181818 C-3.84291904e-16,16.1802003 2.54383665,13.6363636 5.68181818,13.6363636 Z M8.25,21.2121212 C9.28553391,21.2121212 10.125,20.3641757 10.125,19.3181818 C10.125,18.272188 9.28553391,17.4242424 8.25,17.4242424 C7.21446609,17.4242424 6.375,18.272188 6.375,19.3181818 C6.375,20.3641757 7.21446609,21.2121212 8.25,21.2121212 Z M15,21.2121212 C16.0355339,21.2121212 16.875,20.3641757 16.875,19.3181818 C16.875,18.272188 16.0355339,17.4242424 15,17.4242424 C13.9644661,17.4242424 13.125,18.272188 13.125,19.3181818 C13.125,20.3641757 13.9644661,21.2121212 15,21.2121212 Z M21.75,21.2121212 C22.7855339,21.2121212 23.625,20.3641757 23.625,19.3181818 C23.625,18.272188 22.7855339,17.4242424 21.75,17.4242424 C20.7144661,17.4242424 19.875,18.272188 19.875,19.3181818 C19.875,20.3641757 20.7144661,21.2121212 21.75,21.2121212 Z" id="Combined-Shape"></path>
                <path d="M5.68181818,0 L24.3181818,-1.77635684e-15 C27.4561634,-2.3527947e-15 30,2.54383665 30,5.68181818 C30,8.81979971 27.4561634,11.3636364 24.3181818,11.3636364 L5.68181818,11.3636364 C2.54383665,11.3636364 3.84291904e-16,8.81979971 0,5.68181818 C-3.84291904e-16,2.54383665 2.54383665,5.76437856e-16 5.68181818,0 Z M5.66666667,1.51515152 C3.36548021,1.51515152 1.5,3.38063172 1.5,5.68181818 C1.5,7.98300464 3.36548021,9.84848485 5.66666667,9.84848485 L24.3333333,9.84848485 C26.6345198,9.84848485 28.5,7.98300464 28.5,5.68181818 C28.5,3.38063172 26.6345198,1.51515152 24.3333333,1.51515152 L5.66666667,1.51515152 Z" id="Combined-Shape"></path>
                <rect id="Rectangle" x="6.375" y="3.78787879" width="17.25" height="3.78787879" rx="1.89393939"></rect>
            </g>
        </g>
    </g>
</svg>
