<?xml version="1.0" encoding="UTF-8"?>
<svg width="30px" height="20px" viewBox="0 0 30 20" version="1.1" xmlns="http://www.w3.org/2000/svg" xmlns:xlink="http://www.w3.org/1999/xlink">
    <!-- Generator: Sketch 52.4 (67378) - http://www.bohemiancoding.com/sketch -->
    <title>用户icon</title>
    <desc>Created with Sketch.</desc>
    <g id="Design" stroke="none" stroke-width="1" fill-rule="evenodd">
        <g id="11-02用户管理-添加用户" transform="translate(-30.000000, -145.000000)">
            <g id="用户icon" transform="translate(30.000000, 145.000000)">
                <path d="M23.8761802,17.7137037 C23.4085779,16.9549246 22.4085979,16.4028258 21.4314059,15.9602195 C20.3711364,15.479808 18.3062217,14.7936077 17.3866277,13.9688477 C16.8196195,13.4600823 16.4397599,12.4953361 16.6016084,11.9180933 C16.8185429,11.1454047 17.4465583,11.2345679 18.5814719,9.46699588 C19.2742626,8.38865569 19.7192564,4.36899863 19.0314898,2.76406036 C18.3553863,1.18622771 17.2969112,0 14.8148148,0 C12.3327184,0 11.2742433,1.18622771 10.5981398,2.76406036 C9.91037323,4.36899863 10.355367,8.38865569 11.0481577,9.46699588 C12.1830713,11.2345679 12.8110867,11.1454047 13.0280212,11.9180933 C13.1898698,12.4953361 12.8100102,13.4600823 12.2430019,13.9688477 C11.3234079,14.7936077 9.25849322,15.479808 8.19822375,15.9602195 C7.22103175,16.4028258 6.22105177,16.9549246 5.75344943,17.7137037 C5.42078069,18.2533196 5.18518519,19.2592593 5.18518519,19.2592593 L14.8148148,19.2592593 L24.4444444,19.2592593 C24.4444444,19.2592593 24.2088489,18.2533196 23.8761802,17.7137037" id="我的"></path>
                <path d="M4.07407407,19.2592593 L-2.84217094e-14,19.2592593 C-2.84217094e-14,19.2592593 0.16763526,18.5434945 0.404341864,18.159537 C0.737058914,17.6196365 1.44858314,17.226797 2.14389283,16.9118656 C2.89831533,16.5700343 4.36758157,16.0817764 5.02190808,15.494928 C5.42535623,15.1329218 5.69564095,14.4464678 5.58047949,14.0357373 C5.42612227,13.4859396 4.97926514,13.5493827 4.17173047,12.2916872 C3.67878322,11.5244067 3.36215303,8.66426612 3.85152542,7.52229081 C4.33259904,6.39960219 5.08574481,5.55555556 6.85185185,5.55555556 C8.61795889,5.55555556 9.37110467,6.39960219 9.85217828,7.52229081 C10.3415507,8.66426612 10.0249205,11.5244067 9.53197323,12.2916872 C8.72443856,13.5493827 8.27758144,13.4859396 8.12322422,14.0357373 C8.03692647,14.3435235 8.1670741,14.806141 8.40750625,15.1710368 C8.04298613,15.3189135 7.70879647,15.4553992 7.43477094,15.579561 C6.34482602,16.0732373 5.22946372,16.6890398 4.70790727,17.5353704 C4.33685367,18.1372497 4.07407407,19.2592593 4.07407407,19.2592593 Z" id="Combined-Shape"></path>
                <path d="M25.6523735,19.2592593 C25.6523735,19.2592593 25.3895939,18.1372497 25.0185403,17.5353704 C24.4969838,16.6890398 23.3816215,16.0732373 22.2916766,15.579561 C22.0176511,15.4553992 21.6834614,15.3189135 21.3189413,15.1710368 C21.5593735,14.806141 21.6895211,14.3435235 21.6032233,14.0357373 C21.4488661,13.4859396 21.002009,13.5493827 20.1944743,12.2916872 C19.7015271,11.5244067 19.3848969,8.66426612 19.8742693,7.52229081 C20.3553429,6.39960219 21.1084887,5.55555556 22.8745957,5.55555556 C24.6407028,5.55555556 25.3938485,6.39960219 25.8749221,7.52229081 C26.3642945,8.66426612 26.0476643,11.5244067 25.5547171,12.2916872 C24.7471824,13.5493827 24.3003253,13.4859396 24.1459681,14.0357373 C24.0308066,14.4464678 24.3010913,15.1329218 24.7045395,15.494928 C25.358866,16.0817764 26.8281322,16.5700343 27.5825547,16.9118656 C28.2778644,17.226797 28.9893886,17.6196365 29.3221057,18.159537 C29.5588123,18.5434945 29.7264476,19.2592593 29.7264476,19.2592593 L25.6523735,19.2592593 Z" id="Combined-Shape"></path>
            </g>
        </g>
    </g>
</svg>
