<?xml version="1.0" encoding="UTF-8"?>
<svg width="30px" height="30px" viewBox="0 0 30 30" version="1.1" xmlns="http://www.w3.org/2000/svg"
     xmlns:xlink="http://www.w3.org/1999/xlink">
    <!-- Generator: Sketch 63.1 (92452) - https://sketch.com -->
    <title>icon_netsetting备份</title>
    <desc>Created with Sketch.</desc>
    <g id="Design" stroke="none" stroke-width="1">
        <g id="02-01网络设置密码-2.8" transform="translate(-21.000000, -402.000000)">
            <path
                d="M36,432 C33.5067477,432 31.3179435,429.206791 30.0778933,425.001028 L41.9221067,425.001028 C40.6820565,429.206791 38.4932523,432 36,432 Z M32.2113677,431.517501 C28.4812681,430.546714 25.3159332,428.176394 23.3096402,425.000818 L28.2043741,425.001027 C29.1282866,427.839953 30.528784,430.127369 32.2113677,431.517501 Z M39.7887093,431.517416 C41.4712509,430.127331 42.8717292,427.839935 43.7956331,425.001019 L48.6903655,425.000812 C46.6840805,428.176379 43.5187643,430.546678 39.7887093,431.517416 Z M27,417 C27,419.122199 27.2324077,421.147897 27.6544443,423.001043 L22.2485269,423.000903 C21.4454881,421.163276 21,419.133663 21,417 C21,415.246895 21.3007462,413.564034 21.8534599,412.000194 L27.4480997,412.000412 C27.1573072,413.57339 27,415.254037 27,417 Z M43,417 C43,419.133542 42.7921292,421.163046 42.417419,423.000588 L29.582581,423.000588 C29.2078708,421.163046 29,419.133542 29,417 C29,415.246999 29.1403316,413.564233 29.3982356,412.000471 L42.6017644,412.000471 C42.8596684,413.564233 43,415.246999 43,417 Z M51,417 C51,419.133663 50.5545119,421.163276 49.7514753,423.000901 L44.3455585,423.00104 C44.7675923,421.147897 45,419.122199 45,417 C45,415.254013 44.8426886,413.573346 44.5518888,412.00035 L50.1465046,412.000094 C50.6992409,413.563962 51,415.246858 51,417 Z M32.2113677,402.482499 C30.3352937,404.03249 28.8099138,406.698 27.9048384,409.999721 L22.7299411,410.000288 C24.649269,406.369149 28.0153425,403.620761 32.0606562,402.522629 L32.2113677,402.482499 Z M36,402 L36.177902,402.00475 C38.7889492,402.144321 41.0450167,405.347638 42.1926743,410.000207 L29.8073257,410.000207 C30.9809696,405.242291 33.3137867,402 36,402 Z M39.7887093,402.482584 C43.9012004,403.55285 47.3272127,406.324378 49.2702764,410.000699 L44.0953283,410.000329 C43.1965402,406.721191 41.6859166,404.069532 39.8275548,402.514858 L39.7887093,402.482584 Z"
                id="icon_netsetting备份"></path>
        </g>
    </g>
</svg>
