<?xml version="1.0" encoding="UTF-8"?>
<svg width="45px" height="45px" viewBox="0 0 45 45" version="1.1" xmlns="http://www.w3.org/2000/svg" xmlns:xlink="http://www.w3.org/1999/xlink">
    <!-- Generator: Sketch 49.3 (51167) - http://www.bohemiancoding.com/sketch -->
    <title>avatar_default</title>
    <desc>Created with Sketch.</desc>
    <defs>
        <circle id="path-1" cx="22.5" cy="22.5" r="22.5"></circle>
    </defs>
    <g id="Design" stroke="none" stroke-width="1" fill="none" fill-rule="evenodd">
        <g id="01推荐设置" transform="translate(-1205.000000, -10.000000)">
            <g id="avatar_default" transform="translate(1205.000000, 10.000000)">
                <mask id="mask-2" fill="white">
                    <use xlink:href="#path-1"></use>
                </mask>
                <use id="Mask" fill="#DCDFE6" fill-rule="evenodd" xlink:href="#path-1"></use>
                <g mask="url(#mask-2)" fill="#FFFFFF" fill-rule="evenodd" id="Fill-1">
                    <g transform="translate(12.000000, 9.000000)">
                        <path d="M19.783687,20.9886315 L15.0079264,18.6460682 C14.3904088,18.3419029 14.0022728,17.7237606 14.0022728,17.0461343 L14.0022728,15.2088778 C14.1335265,15.0574084 14.289781,14.8660786 14.4535356,14.6385679 C15.1029291,13.7352705 15.5960681,12.7436672 15.9379528,11.7017784 C16.5510952,11.5171942 16.999858,10.961602 16.999858,10.302986 L16.999858,8.34062927 C16.999858,7.90707109 16.8048524,7.52134535 16.5023438,7.25336101 L16.5023438,4.41468937 C16.5023438,4.41468937 17.0954857,0 11.0015625,0 C4.90763942,0 5.50078127,4.41468937 5.50078127,4.41468937 L5.50078127,7.25336101 C5.19577261,7.52134535 5.00014205,7.90707109 5.00014205,8.34062927 L5.00014205,10.302986 C5.00014205,10.8199443 5.27889997,11.275579 5.69141169,11.5362045 C6.19142589,13.6733336 7.50021307,15.2088778 7.50021307,15.2088778 L7.50021307,17.0001415 C7.50021307,17.6544648 7.13645274,18.2578895 6.5508111,18.5694137 L2.09005938,20.9579697 C0.800647746,21.6478607 0,22.9724515 0,24.4117175 L0,26 L22,26 L22,24.5079957 C22,23.017831 21.1431007,21.6539931 19.783687,20.9886315"></path>
                    </g>
                </g>
            </g>
        </g>
    </g>
</svg>