<?xml version="1.0" encoding="UTF-8"?>
<svg width="40px" height="40px" viewBox="0 0 40 40" version="1.1" xmlns="http://www.w3.org/2000/svg" xmlns:xlink="http://www.w3.org/1999/xlink">
    <!-- Generator: Sketch 52.4 (67378) - http://www.bohemiancoding.com/sketch -->
    <title>avatar</title>
    <desc>Created with Sketch.</desc>
    <defs>
        <rect id="path-1" x="0" y="0" width="40" height="40" rx="20"></rect>
    </defs>
    <g id="Design" stroke="none" stroke-width="1" fill-rule="evenodd">
        <g id="01首页-操控台-copy" transform="translate(-1270.000000, -10.000000)">
            <g id="avatar" transform="translate(1270.000000, 10.000000)">
                <mask id="mask-2" fill="white">
                    <use xlink:href="#path-1"></use>
                </mask>
                <use id="Mask" fill-opacity="0.1" fill-rule="nonzero" xlink:href="#path-1"></use>
                <path d="M29.6195055,28.2037037 C28.0780368,27.5052593 25.0759685,26.5076296 23.7390203,25.3085556 C22.9146775,24.5688889 22.3624201,23.1662963 22.597723,22.3270741 C22.9131123,21.2037037 23.8261501,21.3333333 25.4761399,18.7635556 C26.483351,17.1958148 27.1303035,11.3518519 26.1303967,9.01851852 C25.1474463,6.72459259 23.6085863,5 20,5 C16.3914137,5 14.8525537,6.72459259 13.8696033,9.01851852 C12.8696965,11.3518519 13.516649,17.1958148 14.5238601,18.7635556 C16.1738499,21.3333333 17.0868877,21.2037037 17.402277,22.3270741 C17.6375799,23.1662963 17.0853225,24.5688889 16.2609797,25.3085556 C14.9240315,26.5076296 11.9219632,27.5052593 10.3804945,28.2037037 C8.9598077,28.8471852 7.50599065,29.6498519 6.82616878,30.753 C6.34251961,31.5375185 5,35 5,35 C5,35 11.0361328,40 20,40 C28.9638672,40 35,35 35,35 C35,35 33.6574804,31.5375185 33.1738312,30.753 C32.4940094,29.6498519 31.0401923,28.8471852 29.6195055,28.2037037 Z" fill-opacity="0.2" fill="#FFFFFF" mask="url(#mask-2)"></path>
            </g>
        </g>
    </g>
</svg>
