<?xml version="1.0" encoding="UTF-8"?>
<svg width="30px" height="20px" viewBox="0 0 30 20" version="1.1" xmlns="http://www.w3.org/2000/svg" xmlns:xlink="http://www.w3.org/1999/xlink">
    <!-- Generator: Sketch 63.1 (92452) - https://sketch.com -->
    <title>icon_img</title>
    <desc>Created with Sketch.</desc>
    <g id="Design" stroke="none" stroke-width="1" fill="none" fill-rule="evenodd" opacity="0.9">
        <g id="07-页面布局-2.8" transform="translate(-805.000000, -1835.000000)" fill="#A3D0FD">
            <g id="底部悬浮操作按钮-备份" transform="translate(670.000000, 1806.000000)">
                <g id="btn_bg" transform="translate(115.000000, 18.999834)">
                    <path d="M48,10.000166 C49.1045695,10.000166 50,10.8955965 50,12.000166 L50,28.000166 C50,29.1047355 49.1045695,30.000166 48,30.000166 L22,30.000166 C20.8954305,30.000166 20,29.1047355 20,28.000166 L20,12.000166 C20,10.8955965 20.8954305,10.000166 22,10.000166 L48,10.000166 Z M48.6363636,14.000166 L37.0038201,23.8523914 L33.7243568,20.5872175 L24.3636364,28.6668327 L47.6363636,28.6668327 C48.1886484,28.6668327 48.6363636,28.2191174 48.6363636,27.6668327 L48.6363636,27.6668327 L48.6363636,14.000166 Z M37.7272727,12.6668327 C36.2210416,12.6668327 35,13.86074 35,15.3334994 C35,16.8062587 36.2210416,18.000166 37.7272727,18.000166 C39.2335039,18.000166 40.4545455,16.8062587 40.4545455,15.3334994 C40.4545455,13.86074 39.2335039,12.6668327 37.7272727,12.6668327 Z" id="icon_img"></path>
                </g>
            </g>
        </g>
    </g>
</svg>