<?xml version="1.0" encoding="UTF-8"?>
<svg width="80px" height="50px" viewBox="0 0 80 50" version="1.1" xmlns="http://www.w3.org/2000/svg" xmlns:xlink="http://www.w3.org/1999/xlink">
    <!-- Generator: Sketch 52.4 (67378) - http://www.bohemiancoding.com/sketch -->
    <title>基本信息</title>
    <desc>Created with Sketch.</desc>
    <g id="Design" stroke="none" stroke-width="1" fill-rule="evenodd">
        <g id="UI-库" transform="translate(-220.000000, -5325.000000)" fill-rule="nonzero">
            <path d="M228,5325 L292,5325 C296.418278,5325 300,5328.58172 300,5333 L300,5367 C300,5371.41828 296.418278,5375 292,5375 L228,5375 C223.581722,5375 220,5371.41828 220,5367 L220,5333 C220,5328.58172 223.581722,5325 228,5325 Z M253.173831,5360.753 C252.494009,5359.64985 251.040192,5358.84719 249.619505,5358.2037 C248.078037,5357.50526 245.075968,5356.50763 243.73902,5355.30856 C242.914678,5354.56889 242.36242,5353.1663 242.597723,5352.32707 C242.913112,5351.2037 243.82615,5351.33333 245.47614,5348.76356 C246.483351,5347.19581 247.130304,5341.35185 246.130397,5339.01852 C245.147446,5336.72459 243.608586,5335 240,5335 C236.391414,5335 234.852554,5336.72459 233.869603,5339.01852 C232.869696,5341.35185 233.516649,5347.19581 234.52386,5348.76356 C236.17385,5351.33333 237.086888,5351.2037 237.402277,5352.32707 C237.63758,5353.1663 237.085322,5354.56889 236.26098,5355.30856 C234.924032,5356.50763 231.921963,5357.50526 230.380495,5358.2037 C228.959808,5358.84719 227.505991,5359.64985 226.826169,5360.753 C226.34252,5361.53752 226,5363 226,5363 L254,5363 C254,5363 253.65748,5361.53752 253.173831,5360.753 Z M262,5343 C260.895431,5343 260,5343.89543 260,5345 C260,5346.10457 260.895431,5347 262,5347 L278,5347 C279.104569,5347 280,5346.10457 280,5345 C280,5343.89543 279.104569,5343 278,5343 L262,5343 Z M262,5349 C260.895431,5349 260,5349.89543 260,5351 L260,5361 C260,5362.10457 260.895431,5363 262,5363 L292,5363 C293.104569,5363 294,5362.10457 294,5361 L294,5351 C294,5349.89543 293.104569,5349 292,5349 L262,5349 Z" id="基本信息"></path>
        </g>
    </g>
</svg>
