<?xml version="1.0" encoding="UTF-8"?>
<svg width="14px" height="14px" viewBox="0 0 14 14" version="1.1" xmlns="http://www.w3.org/2000/svg" xmlns:xlink="http://www.w3.org/1999/xlink">
    <!-- Generator: Sketch 53.2 (72643) - https://sketchapp.com -->
    <title>Combined Shape</title>
    <desc>Created with Sketch.</desc>
    <g id="Design" stroke="none" stroke-width="1" fill="none" fill-rule="evenodd">
        <g id="06-05轮播频道-列表-" transform="translate(-338.000000, -428.000000)" fill="#1989FA">
            <path d="M345,442 C341.134007,442 338,438.865993 338,435 C338,431.134007 341.134007,428 345,428 C348.865993,428 352,431.134007 352,435 C352,438.865993 348.865993,442 345,442 Z M348.240287,435.447793 C348.317803,435.403499 348.382045,435.339257 348.426339,435.261741 C348.563344,435.021983 348.480046,434.716555 348.240287,434.57955 L342.748069,431.44114 C342.672521,431.397969 342.587013,431.375262 342.5,431.375262 C342.223858,431.375262 342,431.599119 342,431.875262 L342,438.152082 C342,438.239096 342.022708,438.324603 342.065878,438.400152 C342.202883,438.63991 342.508311,438.723209 342.748069,438.586204 L348.240287,435.447793 Z" id="Combined-Shape"></path>
        </g>
    </g>
</svg>