<?xml version="1.0" encoding="UTF-8"?>
<svg width="65px" height="40px" viewBox="0 0 65 40" version="1.1" xmlns="http://www.w3.org/2000/svg" xmlns:xlink="http://www.w3.org/1999/xlink">
    <!-- Generator: Sketch 63.1 (92452) - https://sketch.com -->
    <title>ICON_轮播</title>
    <desc>Created with Sketch.</desc>
    <defs>
        <linearGradient x1="100%" y1="94.1274033%" x2="11.7757041%" y2="5.8725967%" id="linearGradient-1">
            <stop stop-color="#639E68" stop-opacity="0.5" offset="0%"></stop>
            <stop stop-color="#639E68" stop-opacity="0.9" offset="100%"></stop>
        </linearGradient>
        <linearGradient x1="100%" y1="94.1292363%" x2="0%" y2="17.2309698%" id="linearGradient-2">
            <stop stop-color="#639E68" stop-opacity="0.5" offset="0%"></stop>
            <stop stop-color="#639E68" stop-opacity="0.9" offset="100%"></stop>
        </linearGradient>
    </defs>
    <g id="Design" stroke="none" stroke-width="1" fill="none" fill-rule="evenodd" opacity="0.8">
        <g id="05-01-频道统计-宽度适配2.9" transform="translate(-1092.000000, -83.000000)" fill-rule="nonzero">
            <g id="ICON_轮播" transform="translate(1092.500000, 83.000000)">
                <path d="M53.9192511,9.20612363e-07 C56.5924232,-0.00110585205 59.1565126,0.995753809 61.0471476,2.77116593 C62.9377826,4.54657805 64,6.95502375 64,9.46638944 L64,30.5102292 C64,34.3391197 61.5444371,37.7908521 57.7790687,39.2560622 C54.0137003,40.7212722 49.6796148,39.9114502 46.7975723,37.2041744 L41.1174271,31.8671332 C44.4826149,29.2855024 46.6661945,25.1581457 46.6795977,20.5043082 L46.6795977,20.5043082 L47.5615366,20.5043082 L47.6686736,20.4979204 C48.1255666,20.443074 48.4802124,20.0417591 48.4802124,19.5548354 C48.4802124,19.3443875 48.4125631,19.1399031 48.2878935,18.9735111 L48.2878935,18.9735111 L45.3385756,15.0371614 L45.2623613,14.9475236 C44.9402001,14.613239 44.4200478,14.571419 44.04975,14.8677789 C43.9884207,14.9168625 43.9333531,14.9737761 43.8858616,15.0371614 L43.8858616,15.0371614 L40.9365436,18.9735111 L40.8716481,19.0722075 C40.6391289,19.4782353 40.7301343,20.0091823 41.100432,20.3055422 C41.261427,20.434391 41.4592787,20.5043082 41.6629006,20.5043082 L41.6629006,20.5043082 L42.5455317,20.5043082 L42.5407056,20.7816747 C42.4351433,24.21988 40.6370025,27.2177969 37.9769825,28.9189482 L24.3978834,16.1603347 C24.1654392,15.9419732 23.9461338,15.7147356 23.7401783,15.4796182 C25.3610469,12.610464 28.4760173,10.6689678 32.0525778,10.6689678 C35.2949449,10.6689678 38.1579536,12.2645889 39.8723515,14.7001266 L39.8723515,14.7001266 L42.4802124,11.4672324 L42.2504389,11.2036177 C39.7630524,8.42353718 36.1163893,6.66896779 32.0525778,6.66896779 C27.8833332,6.66896779 24.153163,8.51576066 21.6634694,11.4220583 C21.2525092,9.5923245 21.4177003,7.64934836 22.212747,5.84524876 C23.7715289,2.30810031 27.4445934,0.00119207362 31.5195622,9.20612363e-07 L53.9192511,9.20612363e-07 Z" id="形状结合" fill="url(#linearGradient-1)"></path>
                <path d="M17.2024278,2.79499119 L24.0527413,9.23014826 C20.6746244,11.6554222 18.4802124,15.5771088 18.4802124,20.0023011 L18.4802124,20.0023011 L18.4843963,20.3366462 L18.4968827,20.6689678 L17.4302804,20.6689678 L17.3049117,20.6775042 C17.139394,20.7001476 16.98181,20.7673548 16.8486193,20.8733425 C16.4337752,21.2034585 16.3578961,21.8166573 16.6791387,22.2429603 L16.6791387,22.2429603 L19.7290932,26.2903847 L19.8084673,26.3829802 L19.8084673,26.3829802 L19.8985739,26.4645467 C20.313418,26.7946627 20.9101341,26.7166877 21.2313767,26.2903847 L21.2313767,26.2903847 L24.2813312,22.2429603 L24.3515215,22.1358722 C24.4354395,21.9875261 24.4802124,21.8183414 24.4802124,21.6452324 C24.4802124,21.1060564 24.0548727,20.6689678 23.5301895,20.6689678 L23.5301895,20.6689678 L22.575785,20.6689678 L22.5579213,20.3371174 L22.5579213,20.3371174 L22.551922,20.0023011 C22.551922,16.6454611 24.3558413,13.7025288 27.0633023,12.0580244 L39.6021167,23.8388309 C40.1948483,24.3955127 40.7021724,25.0099049 41.1205901,25.6654953 C39.4232671,28.5102731 36.3761893,30.4066404 32.8995219,30.4066404 C29.7365269,30.4066404 26.9291012,28.8370251 25.1700033,26.4120505 L25.1700033,26.4120505 L22.4802124,29.7597326 L22.7132095,30.0300376 C25.2334354,32.8803494 28.8638883,34.6689678 32.8995219,34.6689678 C36.6594608,34.6689678 40.0676879,33.1163814 42.5540065,30.5990994 C42.5460609,31.7971405 42.2951668,33.0043073 41.7880421,34.1549776 C40.2289516,37.6925675 36.5550701,39.9994839 32.4795489,39.9999994 L10.07986,39.9999994 C7.40668793,40.000885 4.84269219,39.0038129 2.95222391,37.2282442 C1.06175562,35.4526754 -3.51008111e-12,33.0441418 -3.51008111e-12,30.5327762 L-3.51008111e-12,9.48893641 C-3.51008111e-12,5.66004594 2.45556298,2.20831345 6.22093138,0.743103412 C9.98629977,-0.722106624 14.3203853,0.0877153466 17.2024278,2.79499119 Z" id="形状结合" fill="url(#linearGradient-2)"></path>
            </g>
        </g>
    </g>
</svg>