<?xml version="1.0" encoding="UTF-8"?>
<svg width="32px" height="32px" viewBox="0 0 32 32" version="1.1" xmlns="http://www.w3.org/2000/svg" xmlns:xlink="http://www.w3.org/1999/xlink">
    <!-- Generator: Sketch 63.1 (92452) - https://sketch.com -->
    <title>icon_APP1</title>
    <desc>Created with Sketch.</desc>
    <defs>
        <linearGradient x1="50%" y1="0%" x2="50%" y2="100%" id="linearGradient-1">
            <stop stop-color="#EBB24B" offset="0%"></stop>
            <stop stop-color="#D27B25" offset="100%"></stop>
        </linearGradient>
    </defs>
    <g id="Design" stroke="none" stroke-width="1" fill="none" fill-rule="evenodd">
        <g id="05-01-频道统计-宽度适配2.9" transform="translate(-242.000000, -268.000000)">
            <g id="icon_APP1" transform="translate(242.000000, 268.000000)">
                <circle id="椭圆形" fill="url(#linearGradient-1)" cx="16" cy="16" r="16"></circle>
                <path d="M21,6 C22.1045695,6 23,6.8954305 23,8 L23,24 C23,25.1045695 22.1045695,26 21,26 L11,26 C9.8954305,26 9,25.1045695 9,24 L9,8 C9,6.8954305 9.8954305,6 11,6 L21,6 Z M21,7 L11,7 C10.4477153,7 10,7.44771525 10,8 L10,8 L10,23 C10,23.5522847 10.4477153,24 11,24 L11,24 L21,24 C21.5522847,24 22,23.5522847 22,23 L22,23 L22,8 C22,7.44771525 21.5522847,7 21,7 L21,7 Z" id="APP-icon备份" fill="#DBEDFF"></path>
                <rect id="矩形" fill="#DBEDFF" x="12" y="17" width="8" height="5" rx="1"></rect>
            </g>
        </g>
    </g>
</svg>