<?xml version="1.0" encoding="UTF-8"?>
<svg width="32px" height="32px" viewBox="0 0 32 32" version="1.1" xmlns="http://www.w3.org/2000/svg" xmlns:xlink="http://www.w3.org/1999/xlink">
    <!-- Generator: Sketch 63.1 (92452) - https://sketch.com -->
    <title>icon_TV1</title>
    <desc>Created with Sketch.</desc>
    <defs>
        <linearGradient x1="50%" y1="100%" x2="50%" y2="0%" id="linearGradient-1">
            <stop stop-color="#00A2DE" offset="0%"></stop>
            <stop stop-color="#18A8FF" offset="100%"></stop>
        </linearGradient>
    </defs>
    <g id="Design" stroke="none" stroke-width="1" fill="none" fill-rule="evenodd">
        <g id="05-01-频道统计-宽度适配2.9" transform="translate(-242.000000, -226.000000)">
            <g id="icon_TV1" transform="translate(242.000000, 226.000000)">
                <circle id="椭圆形" fill="url(#linearGradient-1)" cx="16" cy="16" r="16"></circle>
                <path d="M22.5,23 C22.7761424,23 23,23.2238576 23,23.5 C23,23.7761424 22.7761424,24 22.5,24 L9.5,24 C9.22385763,24 9,23.7761424 9,23.5 C9,23.2238576 9.22385763,23 9.5,23 L22.5,23 Z M24,8 C25.1045695,8 26,8.8954305 26,10 L26,20 C26,21.1045695 25.1045695,22 24,22 L8,22 C6.8954305,22 6,21.1045695 6,20 L6,10 C6,8.8954305 6.8954305,8 8,8 L24,8 Z M24,9 L8,9 C7.44771525,9 7,9.44771525 7,10 L7,20 C7,20.5522847 7.44771525,21 8,21 L24,21 C24.5522847,21 25,20.5522847 25,20 L25,10 C25,9.44771525 24.5522847,9 24,9 Z M22,17 C22.5522847,17 23,17.4477153 23,18 L23,19 C23,19.5522847 22.5522847,20 22,20 L10,20 C9.44771525,20 9,19.5522847 9,19 L9,18 C9,17.4477153 9.44771525,17 10,17 L22,17 Z" id="TV-icon备份" fill="#DBEDFF"></path>
            </g>
        </g>
    </g>
</svg>