<?xml version="1.0" encoding="UTF-8"?>
<svg width="145px" height="162px" viewBox="0 0 145 162" version="1.1" xmlns="http://www.w3.org/2000/svg" xmlns:xlink="http://www.w3.org/1999/xlink">
    <!-- Generator: Sketch 63.1 (92452) - https://sketch.com -->
    <title>ICON_playback</title>
    <desc>Created with Sketch.</desc>
    <defs>
        <linearGradient x1="30.0181062%" y1="40.446548%" x2="100%" y2="94.9829721%" id="linearGradient-1">
            <stop stop-color="#95E3E2" offset="0%"></stop>
            <stop stop-color="#62CCCA" stop-opacity="0.900000036" offset="100%"></stop>
        </linearGradient>
        <linearGradient x1="45.4386271%" y1="4.43842539%" x2="45.4386271%" y2="100%" id="linearGradient-2">
            <stop stop-color="#95E3E2" stop-opacity="0.457741477" offset="0%"></stop>
            <stop stop-color="#62CCCA" stop-opacity="0.217111014" offset="100%"></stop>
        </linearGradient>
    </defs>
    <g id="Design" stroke="none" stroke-width="1" fill="none" fill-rule="evenodd" opacity="0.2">
        <g id="05-01-频道统计-宽度适配2.9" transform="translate(-878.000000, -145.000000)" fill-rule="nonzero">
            <g id="ICON_playback" transform="translate(877.000000, 144.000000)">
                <g opacity="0.9" transform="translate(0.011000, 0.725000)">
                    <path d="M58.535,97.2551185 L89.935,96.82 C90.5909737,96.809985 91.2003255,96.4788944 91.5656628,95.9339811 C91.931,95.3890679 92.0058628,94.6996289 91.766,94.089 L80.266,64.941 C79.9922692,64.252382 79.3602264,63.7715547 78.6235354,63.6914933 C77.8868445,63.6114319 77.1662673,63.9452603 76.751,64.559 L56.851,94.143 C56.4383626,94.7597703 56.4011399,95.5543089 56.7543074,96.2069558 C57.1074749,96.8596026 57.7929688,97.2630568 58.535,97.2551185 L58.535,97.2551185 Z" id="路径_2208" fill-opacity="0.341291521" fill="#76B5D1"></path>
                    <path d="M51.707,93.0171297 L83.107,92.582 C83.7625362,92.5715379 84.3713192,92.2404505 84.7363715,91.6958644 C85.1014237,91.1512783 85.1763847,90.4623541 84.937,89.852 L73.437,60.702 C73.1630511,60.0135133 72.530899,59.5329122 71.7942268,59.4530624 C71.0575546,59.3732126 70.3371069,59.7072018 69.922,60.321 L50.022,89.905 C49.6092565,90.5219199 49.5721195,91.3166838 49.9255365,91.9694041 C50.2789535,92.6221244 50.9647896,93.0254327 51.707,93.0171297 L51.707,93.0171297 Z" id="路径_2209" fill-opacity="0.341291521" fill="#76B5D1"></path>
                    <path d="M45.888,88.70018 L77.288,88.265 C77.9446712,88.2555578 78.5548611,87.9243288 78.9205351,87.3788118 C79.2862091,86.8332949 79.3607628,86.1430152 79.12,85.532 L67.62,56.39 C67.3470902,55.6994107 66.7140347,55.2168698 65.9758128,55.1367332 C65.237591,55.0565966 64.5157385,55.3920574 64.101,56.008 L44.201,85.585 C43.7863517,86.2023116 43.7484428,86.998712 44.1025807,87.6526181 C44.4567186,88.3065242 45.1444223,88.7099523 45.888,88.70018 L45.888,88.70018 Z" id="路径_2210" fill="url(#linearGradient-1)"></path>
                    <path d="M145.207,62.369 C145.021115,51.9808336 142.650015,41.7482068 138.248,32.337 C133.64248,22.7289201 126.459713,14.5882425 117.5,8.822 C113.018224,5.99324335 108.147548,3.83381389 103.042,2.412 C97.9979985,1.02257189 92.7927928,0.3043806 87.561,0.276 C77.3393057,0.325496406 67.2441653,2.54083781 57.941,6.776 C48.8765531,10.8987682 40.5300749,16.4451942 33.218,23.205 C29.6065552,26.5387248 26.2335976,30.1218658 23.124,33.928 L21.958,35.347 L20.847,36.808 C20.064998,37.6912929 19.4241103,38.6900658 18.947,39.769 L13.147,36.327 C12.6583778,36.0448563 12.0530346,36.0595082 11.5786348,36.364961 C11.1042349,36.6704138 10.8403718,37.2154197 10.895,37.777 L11.051,59.107 L11.301,58.998 C9.01470108,63.6143131 7.07014886,68.392136 5.483,73.293 C2.52053455,82.3097547 1.00179786,91.7380721 0.983,101.229 C0.855998092,110.831943 2.73472408,120.35568 6.499,129.191 C8.42727939,133.656415 10.9362607,137.847913 13.961,141.657 C17.0364086,145.503215 20.6345878,148.900449 24.651,151.75 C32.9014861,157.457688 42.5723918,160.767167 52.59,161.311 C62.6144654,161.811884 72.6311796,160.181003 81.979,156.526 C91.3209706,152.947534 100.015249,147.866217 107.718,141.483 C115.392581,135.057083 122.216595,127.678935 128.025,119.527 L127.907,119.45 C130.669081,115.267175 133.154072,110.907834 135.346,106.4 C137.518834,101.860386 139.370383,97.1738722 140.887,92.375 C143.933716,82.6709565 145.392513,72.5383914 145.207,62.369 Z M128.078,88.413 C126.78527,92.6209201 125.199046,96.7330063 123.331,100.719 C121.482428,104.736863 119.373614,108.629803 117.018,112.373 L116.9,112.297 C107.929224,127.787641 94.5337544,140.243927 78.433,148.067 C70.4060021,151.930896 61.6608243,154.076659 52.757,154.367 C43.7970838,154.595145 34.9494689,152.333653 27.198,147.834 C19.3752548,143.074976 13.0371619,136.22568 8.898,128.058 C4.77107202,119.686663 2.47284027,110.532938 2.156,101.205 C1.85113778,91.7963918 3.06676793,82.4002461 5.756,73.379 C7.25274558,68.4286789 9.1413835,63.6054293 11.404,58.955 L31.871,50.055 C32.3928143,49.8282837 32.7423233,49.3268553 32.7744679,48.7588262 C32.8066125,48.190797 32.5159051,47.653139 32.023,47.369 L25.297,43.488 C25.882,42.918 26.345,42.259 26.89,41.66 L27.99,40.36 L29.137,39.104 C32.1735083,35.7516924 35.4418958,32.6169676 38.918,29.723 C45.78713,23.9860622 53.5291305,19.3840062 61.851,16.091 C69.9188779,12.8004992 78.5869682,11.2378924 87.296,11.504 C95.6887964,11.8335206 103.833319,14.4429208 110.855,19.052 C117.722114,23.7605976 123.156601,30.272985 126.56,37.872 C130.044294,45.6701737 131.850021,54.1138221 131.86,62.655 C131.959209,71.3862924 130.682911,80.0787486 128.078,88.413 Z" id="路径_2211" fill="url(#linearGradient-2)"></path>
                </g>
            </g>
        </g>
    </g>
</svg>