<?xml version="1.0" encoding="UTF-8"?>
<svg width="64px" height="40px" viewBox="0 0 64 40" version="1.1" xmlns="http://www.w3.org/2000/svg" xmlns:xlink="http://www.w3.org/1999/xlink">
    <!-- Generator: Sketch 63.1 (92452) - https://sketch.com -->
    <title>ICON_live</title>
    <desc>Created with Sketch.</desc>
    <defs>
        <linearGradient x1="0%" y1="19.5002633%" x2="88.5610618%" y2="94.127605%" id="linearGradient-1">
            <stop stop-color="#55BDFF" stop-opacity="0.2" offset="0%"></stop>
            <stop stop-color="#55BDFF" stop-opacity="0.7" offset="100%"></stop>
        </linearGradient>
        <linearGradient x1="0%" y1="19.5002622%" x2="88.5610618%" y2="94.1276066%" id="linearGradient-2">
            <stop stop-color="#55BDFF" stop-opacity="0.4" offset="0%"></stop>
            <stop stop-color="#55BDFF" stop-opacity="0.7" offset="100%"></stop>
        </linearGradient>
    </defs>
    <g id="Design" stroke="none" stroke-width="1" fill="none" fill-rule="evenodd" opacity="0.8">
        <g id="05-01-频道统计-宽度适配2.9" transform="translate(-232.000000, -83.000000)" fill-rule="nonzero">
            <g id="ICON_live" transform="translate(232.000000, 83.000000)">
                <path d="M17.2024278,2.79499119 L27.673,12.6312213 L23.4076749,12.6313161 L24.0556659,13.636744 L22.5543534,27.5991647 L26.632519,27.5991647 L28.482,13.3912213 L30.171,14.9782213 L32.2795517,27.5991647 L38.3070235,27.5991647 L39.756,23.9872213 L39.8198399,24.0497192 C42.5270413,26.754253 43.3071559,30.7080951 41.7880421,34.1549776 C40.2289516,37.6925675 36.5550701,39.9994839 32.4795489,39.9999994 L10.07986,39.9999994 C7.40668793,40.000885 4.84269219,39.0038129 2.95222391,37.2282442 C1.06175562,35.4526754 -3.51008111e-12,33.0441418 -3.51008111e-12,30.5327762 L-3.51008111e-12,9.48893641 C-3.51008111e-12,5.66004594 2.45556298,2.20831345 6.22093138,0.743103412 C9.98629977,-0.722106624 14.3203853,0.0877153466 17.2024278,2.79499119 Z M15.0024583,12.6313161 L9.84519663,12.6346564 L10.4949654,13.636744 L9.19542787,25.8288099 C9.17726131,26.2719973 9.28985032,26.7112774 9.52075669,27.0981209 C9.72062075,27.4244253 10.0982931,27.6179591 10.4985209,27.5991647 L10.4985209,27.5991647 L21.6805878,27.5991647 L21.8823628,25.0605427 L13.5011458,25.0605427 L15.0024583,12.6313161 Z M35.156,19.6612213 L36.555,20.9762213 L35.7079485,23.0246348 L35.156,19.6612213 Z" id="形状结合" fill="url(#linearGradient-1)"></path>
                <path d="M53.9192511,9.20618655e-07 C56.5924232,-0.00110585204 59.1565126,0.995753809 61.0471476,2.77116593 C62.9377826,4.54657805 64,6.95502375 64,9.46638944 L64,30.5102292 C64,34.3391197 61.5444371,37.7908521 57.7790687,39.2560622 C54.0137003,40.7212722 49.6796148,39.9114502 46.7975723,37.2041744 L36.5730959,27.599 L38.3070235,27.5991647 L44.3122735,12.6313161 L40.010111,12.6313161 L35.7079485,23.0246348 L34.0048611,12.6313161 L29.4787017,12.6313161 L29.9035847,13.3720259 L31.4800959,22.814 L27.7160959,19.278 L28.5818253,12.6313161 L23.4076749,12.6313161 L24.0556659,13.636744 L23.8446231,15.5969084 C21.4114193,12.9088434 20.7586795,9.1447816 22.212747,5.84524876 C23.7715289,2.30810031 27.4445934,0.00119207363 31.5195622,9.20618655e-07 L53.9192511,9.20618655e-07 Z M57.3103151,12.6313161 L45.0527076,12.6346564 L45.7015875,13.636744 L43.9762781,27.5991647 L56.0312218,27.5991647 L56.2338856,25.0605427 L48.7042125,25.0605427 L49.1299843,20.9878917 L56.0312218,20.9878917 L56.2338856,18.4492698 L49.5779781,18.4492698 L50.0046388,15.1699381 L57.1085402,15.1699381 L57.3103151,12.6313161 Z" id="形状结合" fill="url(#linearGradient-2)"></path>
            </g>
        </g>
    </g>
</svg>