<?xml version="1.0" encoding="UTF-8"?>
<svg width="263px" height="72px" viewBox="0 0 263 72" version="1.1" xmlns="http://www.w3.org/2000/svg" xmlns:xlink="http://www.w3.org/1999/xlink">
    <!-- Generator: Sketch 63.1 (92452) - https://sketch.com -->
    <title>font_carousel</title>
    <desc>Created with Sketch.</desc>
    <defs>
        <linearGradient x1="59.6562123%" y1="46.2239963%" x2="58.5036058%" y2="53.7760037%" id="linearGradient-1">
            <stop stop-color="#9BD5FF" stop-opacity="0.01" offset="0%"></stop>
            <stop stop-color="#62ABFF" stop-opacity="0.0468476836" offset="100%"></stop>
        </linearGradient>
    </defs>
    <g id="Design" stroke="none" stroke-width="1" fill="none" fill-rule="evenodd">
        <g id="05-01-频道统计-宽度适配2.9" transform="translate(-1096.000000, -142.000000)" fill="url(#linearGradient-1)">
            <path d="M1127.5,142 L1127.04026,154.212089 L1107.63906,154.212089 L1105.43229,201.785545 L1122.62671,201.785545 L1124.83348,196.955585 L1123.95997,214 L1099.22575,214 C1098.79589,214 1098.39821,213.789488 1098.03041,213.366097 C1097.66262,212.942707 1097.34769,212.346649 1097.08794,211.582654 C1096.82703,210.81866 1096.65118,209.912746 1096.55923,208.850723 C1096.46728,207.788699 1096.48222,206.667543 1096.60521,205.477792 L1099.68549,142 L1127.5,142 Z M1158.05589,142 L1161.5,214 L1153.70544,214 L1152.79909,194.409869 L1141.92296,194.409869 L1138.88671,214 L1131.5,214 L1141.51511,145.562272 L1140.20091,142 L1158.05589,142 Z M1194.5,142 L1192.77795,178.637472 C1192.77795,179.824896 1192.68051,180.95082 1192.48338,182.008147 C1192.28625,183.067841 1192.02228,183.98088 1191.69033,184.7449 C1191.35838,185.506554 1190.98792,186.097901 1190.58006,186.52367 C1190.17221,186.94944 1189.74169,187.162325 1189.28852,187.162325 L1183.62387,187.162325 L1192.77795,214 L1183.21601,214 L1174.51511,187.162325 L1173.20091,214 L1164.5,214 L1167.53625,146.83485 L1166.22205,142 L1194.5,142 Z M1226.83199,142 C1227.25167,142 1227.64211,142.21525 1228.00216,142.636289 C1228.36221,143.062059 1228.66938,143.655771 1228.92479,144.417425 C1229.17908,145.181445 1229.35236,146.073196 1229.44237,147.090312 C1229.53238,148.105063 1229.51663,149.24991 1229.39736,150.524853 L1226.38192,214 L1202.16837,214 C1201.74756,214 1201.35825,213.789481 1200.9982,213.368442 C1200.63814,212.945038 1200.32985,212.34896 1200.07556,211.58494 C1199.82015,210.820921 1199.648,209.914977 1199.55798,208.852919 C1199.46797,207.788495 1199.4826,206.669667 1199.60299,205.479878 L1202.61843,142 L1226.83199,142 Z M1244.27273,142 L1241.22727,201.787509 L1251.68182,201.787509 L1254.77273,145.562272 L1253,142 L1263.5,142 L1260,214 L1235.13636,214 C1234.25682,214 1233.59773,213.198134 1233.15909,211.58494 C1232.71932,209.976478 1232.5,207.937514 1232.5,205.479878 L1235.54545,145.562272 L1234.22727,142 L1244.27273,142 Z M1297.5,142 L1296.64308,162.736662 L1287.9848,162.736662 L1288.43581,154.212089 L1280.18231,154.212089 L1278.87325,172.531406 L1296.19207,172.531406 L1294.47823,205.477792 C1294.47823,206.667543 1294.38013,207.788699 1294.1862,208.850723 C1293.99001,209.912746 1293.72729,210.81866 1293.3958,211.582654 C1293.06431,212.346649 1292.69673,212.942707 1292.29195,213.366097 C1291.88491,213.789488 1291.45758,214 1291.00544,214 L1268.5,214 L1269.35805,194.408147 L1270.66598,199.370565 L1286.27096,199.370565 L1287.12788,184.743495 L1269.80793,184.743495 L1271.97278,142 L1297.5,142 Z M1328.5,142 L1328.09161,154.212491 L1313.70621,154.212491 L1312.84406,169.984888 L1326.32194,169.984888 L1325.91242,182.197378 L1311.93654,182.197378 L1311.07552,201.787509 L1326.32194,201.787509 L1325.91242,214 L1301.5,214 L1304.99397,146.83485 L1303.67806,142 L1328.5,142 Z M1344.94103,142 L1341.98057,201.787509 L1358.5,201.787509 L1358.10358,214 L1336.06184,214 C1335.20826,214 1334.5667,213.198134 1334.14046,211.58494 C1333.71312,209.976478 1333.5,207.937514 1333.5,205.479878 L1336.06184,146.83485 L1334.78092,142 L1344.94103,142 Z M1220.7561,154.212491 L1210.40458,154.212491 L1208.24426,201.787509 L1218.19072,201.787509 L1220.7561,154.212491 Z M1151.07704,154.212491 L1148.04079,154.212491 L1143.69033,182.197378 L1152.39124,182.197378 L1151.07704,154.212491 Z M1185.39124,154.212491 L1175.82931,154.212491 L1174.92296,174.949834 L1184.53021,174.949834 L1185.39124,154.212491 Z" id="font_carousel"></path>
        </g>
    </g>
</svg>