<?xml version="1.0" encoding="UTF-8"?>
<svg width="30px" height="24px" viewBox="0 0 30 24" version="1.1" xmlns="http://www.w3.org/2000/svg" xmlns:xlink="http://www.w3.org/1999/xlink">
    <!-- Generator: Sketch 63.1 (92452) - https://sketch.com -->
    <title></title>
    <desc></desc>
    <g id="Design" stroke="none" stroke-width="1" fill-rule="evenodd">
        <g id="05-01-频道统计2.9" transform="translate(-30.000000, -343.000000)">
            <path d="M53,365 C53.5522847,365 54,365.447715 54,366 C54,366.552285 53.5522847,367 53,367 L37,367 C36.4477153,367 36,366.552285 36,366 C36,365.447715 36.4477153,365 37,365 L53,365 Z M57,343 C58.6568542,343 60,344.343146 60,346 L60,361 C60,362.656854 58.6568542,364 57,364 L33,364 C31.3431458,364 30,362.656854 30,361 L30,346 C30,344.343146 31.3431458,343 33,343 L57,343 Z M56.5555556,345 L33.4444444,345 C32.6466998,345 32,345.634263 32,346.416667 L32,360.583333 C32,361.365737 32.6466998,362 33.4444444,362 L56.5555556,362 C57.3533002,362 58,361.365737 58,360.583333 L58,346.416667 C58,345.634263 57.3533002,345 56.5555556,345 Z M54,354 C54.5522847,354 55,354.447715 55,355 L55,359 C55,359.552285 54.5522847,360 54,360 L36,360 C35.4477153,360 35,359.552285 35,359 L35,355 C35,354.447715 35.4477153,354 36,354 L54,354 Z" id="icon_ch备份"></path>
        </g>
    </g>
</svg>