<?xml version="1.0" encoding="UTF-8"?>
<svg width="18px" height="14px" viewBox="0 0 18 14" version="1.1" xmlns="http://www.w3.org/2000/svg"
     xmlns:xlink="http://www.w3.org/1999/xlink">
    <!-- Generator: Sketch 49.3 (51167) - http://www.bohemiancoding.com/sketch -->
    <title>频道</title>
    <desc>Created with Sketch.</desc>
    <defs></defs>
    <g id="Design" stroke="none" stroke-width="1">
        <g id="菜单栏-new" transform="translate(-1894.000000, -440.000000)" fill-rule="nonzero">
            <g id="菜单栏1级" transform="translate(1865.000000, 75.000000)">
                <path
                    d="M31,365 L45,365 C46.1045695,365 47,365.895431 47,367 L47,374.25 C47,375.354569 46.1045695,376.25 45,376.25 L31,376.25 C29.8954305,376.25 29,375.354569 29,374.25 L29,367 C29,365.895431 29.8954305,365 31,365 Z M31.925,372.2 C31.1794156,372.2 30.575,372.804416 30.575,373.55 C30.575,374.295584 31.1794156,374.9 31.925,374.9 L44.075,374.9 C44.8205844,374.9 45.425,374.295584 45.425,373.55 C45.425,372.804416 44.8205844,372.2 44.075,372.2 L31.925,372.2 Z M34.0625,377.375 L41.9375,377.375 C42.2481602,377.375 42.5,377.62684 42.5,377.9375 C42.5,378.24816 42.2481602,378.5 41.9375,378.5 L34.0625,378.5 C33.7518398,378.5 33.5,378.24816 33.5,377.9375 C33.5,377.62684 33.7518398,377.375 34.0625,377.375 Z"
                    id="频道"></path>
            </g>
        </g>
    </g>
</svg>
