<?xml version="1.0" encoding="UTF-8"?>
<svg width="19px" height="19px" viewBox="0 0 19 19" version="1.1" xmlns="http://www.w3.org/2000/svg" xmlns:xlink="http://www.w3.org/1999/xlink">
    <!-- Generator: Sketch 54.1 (76490) - https://sketchapp.com -->
    <title>节目单icon</title>
    <desc>Created with Sketch.</desc>
    <g id="Design" stroke="none" stroke-width="1" fill="none" fill-rule="evenodd">
        <g id="06-05轮播频道-列表-" transform="translate(-1006.000000, -312.000000)" fill="#A3D0FD" fill-rule="nonzero">
            <g id="节目单btn" transform="translate(990.000000, 301.000000)">
                <path d="M17.5,30 C16.6715729,30 16,29.3284271 16,28.5 C16,27.6715729 16.6715729,27 17.5,27 C18.3284271,27 19,27.6715729 19,28.5 C19,29.3284271 18.3284271,30 17.5,30 Z M17.5,22 C16.6715729,22 16,21.3284271 16,20.5 C16,19.6715729 16.6715729,19 17.5,19 C18.3284271,19 19,19.6715729 19,20.5 C19,21.3284271 18.3284271,22 17.5,22 Z M17.5,14 C16.6715729,14 16,13.3284271 16,12.5 C16,11.6715729 16.6715729,11 17.5,11 C18.3284271,11 19,11.6715729 19,12.5 C19,13.3284271 18.3284271,14 17.5,14 Z M21.5,28 L34.5,28 C34.7761424,28 35,28.2238576 35,28.5 C35,28.7761424 34.7761424,29 34.5,29 L21.5,29 C21.2238576,29 21,28.7761424 21,28.5 C21,28.2238576 21.2238576,28 21.5,28 Z M21.5,20 L34.5,20 C34.7761424,20 35,20.2238576 35,20.5 C35,20.7761424 34.7761424,21 34.5,21 L21.5,21 C21.2238576,21 21,20.7761424 21,20.5 C21,20.2238576 21.2238576,20 21.5,20 Z M21.5,12 L34.5,12 C34.7761424,12 35,12.2238576 35,12.5 C35,12.7761424 34.7761424,13 34.5,13 L21.5,13 C21.2238576,13 21,12.7761424 21,12.5 C21,12.2238576 21.2238576,12 21.5,12 Z" id="节目单icon"></path>
            </g>
        </g>
    </g>
</svg>