<?xml version="1.0" encoding="UTF-8"?>
<svg width="20px" height="20px" viewBox="0 0 20 20" version="1.1" xmlns="http://www.w3.org/2000/svg" xmlns:xlink="http://www.w3.org/1999/xlink">
    <!-- Generator: Sketch 54.1 (76490) - https://sketchapp.com -->
    <title>时长icon</title>
    <desc>Created with Sketch.</desc>
    <g id="Design" stroke="none" stroke-width="1" fill="none" fill-rule="evenodd">
        <g id="06-01直播频道-列表-copy" transform="translate(-1118.000000, -311.000000)" fill="#A3D0FD">
            <g id="时长btn" transform="translate(1100.000000, 301.000000)">
                <path d="M28,30 C22.4771525,30 18,25.5228475 18,20 C18,14.4771525 22.4771525,10 28,10 C33.5228475,10 38,14.4771525 38,20 C38,25.5228475 33.5228475,30 28,30 Z M28,29 C32.9705627,29 37,24.9705627 37,20 C37,15.0294373 32.9705627,11 28,11 C23.0294373,11 19,15.0294373 19,20 C19,24.9705627 23.0294373,29 28,29 Z M28.506012,19.5755252 L32.1570392,23.1012812 C32.3556794,23.2931058 32.3612046,23.6096401 32.16938,23.8082803 C31.9775553,24.0069205 31.6610211,24.0124456 31.4623809,23.820621 L27.506012,20 L27.506012,13.5 C27.506012,13.2238576 27.7298696,13 28.006012,13 C28.2821543,13 28.506012,13.2238576 28.506012,13.5 L28.506012,19.5755252 Z" id="时长icon"></path>
            </g>
        </g>
    </g>
</svg>