<?xml version="1.0" encoding="UTF-8"?>
<svg width="30px" height="30px" viewBox="0 0 30 30" version="1.1" xmlns="http://www.w3.org/2000/svg"
     xmlns:xlink="http://www.w3.org/1999/xlink">
    <!-- Generator: Sketch 54.1 (76490) - https://sketchapp.com -->
    <title>套餐icon</title>
    <desc>Created with Sketch.</desc>
    <g id="Design" stroke="none" stroke-width="1">
        <g id="3-30-套餐管理-套餐详情-3.0-" transform="translate(-33.000000, -140.000000)">
            <g id="套餐icon" transform="translate(33.000000, 140.000000)">
                <polygon id="Rectangle" fill-opacity="0.5"
                         points="26.5057971 0.0290256076 27.0565603 1.5439634 24.4229159 2.21941913 24.1638365 2.21941913 24.1638365 2.49323156 23.9134758 2.49323156 23.9134758 2.87679036 23.9134758 28.5475441 22.4319943 28.5475441 22.4319943 1.8029333 22.56591 1.5439634 22.9559924 1.5439634 22.9559924 1.07772647 23.2781676 1.07772647"></polygon>
                <polygon id="Rectangle" fill-opacity="0.5"
                         points="15.0245869 5.58458116 29.8394017 5.58458116 27.9875499 29.6586552 16.8764387 29.6586552"></polygon>
                <rect id="Rectangle" x="15.0245869" y="5.58458116" width="14.8148148" height="1.85185185"></rect>
                <path d="M0.37037037,21.8808775 C0.370844754,21.878618 0.371320215,21.8763593 0.371796754,21.8741013 C1.03127731,18.7493215 3.75485474,17.0660626 9.46903001,17.0660626 C15.1818244,17.0660626 17.9054678,18.7485078 18.5657872,21.8718355 C18.5664249,21.8748522 18.5670604,21.8778662 18.5676937,21.8808775 L0.370370367,21.8808775 Z"
                      id="Combined-Shape"></path>
                <path d="M2.03703704,23.3333333 L17.2222222,23.3333333 C17.733597,23.3333333 18.1481481,23.7478845 18.1481481,24.2592593 C18.1481481,24.770634 17.733597,25.1851852 17.2222222,25.1851852 L2.03703704,25.1851852 C1.52566227,25.1851852 1.11111111,24.770634 1.11111111,24.2592593 C1.11111111,23.7478845 1.52566227,23.3333333 2.03703704,23.3333333 Z"
                      id="Rectangle-Copy-64"></path>
                <path d="M1.2162133,26.6666667 L17.7218494,26.6666667 C18.2776915,26.6666667 18.7282906,27.3299485 18.7282906,28.1481481 C18.7282906,28.9663478 18.2776915,29.6296296 17.7218494,29.6296296 L1.2162133,29.6296296 C0.660371161,29.6296296 0.209772076,28.9663478 0.209772076,28.1481481 C0.209772076,27.3299485 0.660371161,26.6666667 1.2162133,26.6666667 Z"
                      id="Rectangle-Copy-63"></path>
            </g>
        </g>
    </g>
</svg>