<?xml version="1.0" encoding="UTF-8"?>
<svg width="48px" height="48px" viewBox="0 0 48 48" version="1.1" xmlns="http://www.w3.org/2000/svg" xmlns:xlink="http://www.w3.org/1999/xlink">
    <!-- Generator: Sketch 52.4 (67378) - http://www.bohemiancoding.com/sketch -->
    <title>Rectangle Copy</title>
    <desc>Created with Sketch.</desc>
    <g id="Design" stroke="none" stroke-width="1" fill="none" fill-rule="evenodd">
        <g id="03-页面布局-3-模块" transform="translate(-1375.000000, -1299.000000)" fill-rule="nonzero">
            <g id="Rectangle-Copy" transform="translate(1378.000000, 1300.000000)">
                <rect fill-opacity="0.5" fill="#2E384D" x="1" y="1" width="40" height="40" rx="20"></rect>
                <path d="M22.2132034,20.2132034 L35.2132034,20.2132034 C35.7654882,20.2132034 36.2132034,20.6609187 36.2132034,21.2132034 C36.2132034,21.7654882 35.7654882,22.2132034 35.2132034,22.2132034 L22.2132034,22.2132034 L22.2132034,35.2132034 C22.2132034,35.7654882 21.7654882,36.2132034 21.2132034,36.2132034 C20.6609187,36.2132034 20.2132034,35.7654882 20.2132034,35.2132034 L20.2132034,22.2132034 L7.21320344,22.2132034 C6.66091869,22.2132034 6.21320344,21.7654882 6.21320344,21.2132034 C6.21320344,20.6609187 6.66091869,20.2132034 7.21320344,20.2132034 L20.2132034,20.2132034 L20.2132034,7.21320344 C20.2132034,6.66091869 20.6609187,6.21320344 21.2132034,6.21320344 C21.7654882,6.21320344 22.2132034,6.66091869 22.2132034,7.21320344 L22.2132034,20.2132034 Z" id="Combined-Shape" fill="#C35757" transform="translate(21.213203, 21.213203) rotate(45.000000) translate(-21.213203, -21.213203) "></path>
            </g>
        </g>
    </g>
</svg>