<?xml version="1.0" encoding="UTF-8"?>
<svg width="21px" height="15px" viewBox="0 0 21 15" version="1.1" xmlns="http://www.w3.org/2000/svg"
     xmlns:xlink="http://www.w3.org/1999/xlink">
    <!-- Generator: Sketch 51.2 (57519) - http://www.bohemiancoding.com/sketch -->
    <title>设备icon</title>
    <desc>Created with Sketch.</desc>
    <defs></defs>
    <g id="Design" stroke="none" stroke-width="1" fill-rule="evenodd">
        <g id="菜单栏-new" transform="translate(-2190.000000, -1305.000000)">
            <g id="设备icon" transform="translate(2191.000000, 1305.000000)">
                <path
                    d="M5.54870745,4.58333333 L13.6177963,4.58333333 C14.416365,4.58333333 15.1668829,4.9648332 15.6375106,5.60998543 L19.2849272,10.6099854 C20.0986348,11.7254429 19.8540182,13.2893401 18.7385608,14.1030477 C18.3107124,14.4151559 17.7948031,14.5833333 17.2652129,14.5833333 L1.90129088,14.5833333 C0.520579005,14.5833333 -0.59870912,13.4640452 -0.59870912,12.0833333 C-0.59870912,11.5537432 -0.430531675,11.0378338 -0.118423448,10.6099854 L3.52899312,5.60998543 C3.99962091,4.9648332 4.75013877,4.58333333 5.54870745,4.58333333 Z M1.88803781,11.25 C1.70394289,11.25 1.55470447,11.3992384 1.55470447,11.5833333 C1.55470447,11.7674282 1.70394289,11.9166667 1.88803781,11.9166667 L17.1373707,11.9166667 C17.3214656,11.9166667 17.470704,11.7674282 17.470704,11.5833333 C17.470704,11.3992384 17.3214656,11.25 17.1373707,11.25 L1.88803781,11.25 Z"
                    id="Combined-Shape"></path>
                <path
                    d="M19.9452492,10.6564973 C19.8834119,10.4267992 19.7792549,10.2043301 19.6309802,10.0004835 L17.5,7.07083432 L17.5,0 L20,0 L20,10.6564973 L19.9452492,10.6564973 Z M18.0357143,0.733102891 C18.1343366,0.733102891 18.2142857,0.651047555 18.2142857,0.549827168 C18.2142857,0.448606782 18.1343366,0.366551446 18.0357143,0.366551446 C17.937092,0.366551446 17.8571429,0.448606782 17.8571429,0.549827168 C17.8571429,0.651047555 17.937092,0.733102891 18.0357143,0.733102891 Z M19.4642857,0.733102891 C19.562908,0.733102891 19.6428571,0.651047555 19.6428571,0.549827168 C19.6428571,0.448606782 19.562908,0.366551446 19.4642857,0.366551446 C19.3656634,0.366551446 19.2857143,0.448606782 19.2857143,0.549827168 C19.2857143,0.651047555 19.3656634,0.733102891 19.4642857,0.733102891 Z M18.0404186,1.34502125 C17.9391982,1.34502125 17.8571429,1.42707659 17.8571429,1.52829697 C17.8571429,1.62951736 17.9391982,1.71157269 18.0404186,1.71157269 L18.3881528,1.71157269 C18.4893732,1.71157269 18.5714286,1.62951736 18.5714286,1.52829697 C18.5714286,1.42707659 18.4893732,1.34502125 18.3881528,1.34502125 L18.0404186,1.34502125 Z M18.75,3.90988209 C19.2431114,3.90988209 19.6428571,3.49960541 19.6428571,2.99350347 C19.6428571,2.48740154 19.2431114,2.07712486 18.75,2.07712486 C18.2568886,2.07712486 17.8571429,2.48740154 17.8571429,2.99350347 C17.8571429,3.49960541 18.2568886,3.90988209 18.75,3.90988209 Z M18.75,3.54333064 C18.4541332,3.54333064 18.2142857,3.29716463 18.2142857,2.99350347 C18.2142857,2.68984231 18.4541332,2.4436763 18.75,2.4436763 C19.0458668,2.4436763 19.2857143,2.68984231 19.2857143,2.99350347 C19.2857143,3.29716463 19.0458668,3.54333064 18.75,3.54333064 Z M19.1118472,1.34502125 C19.0106268,1.34502125 18.9285714,1.42707659 18.9285714,1.52829697 C18.9285714,1.62951736 19.0106268,1.71157269 19.1118472,1.71157269 L19.4595814,1.71157269 C19.5608018,1.71157269 19.6428571,1.62951736 19.6428571,1.52829697 C19.6428571,1.42707659 19.5608018,1.34502125 19.4595814,1.34502125 L19.1118472,1.34502125 Z M18.0404186,4.27643353 C17.9391982,4.27643353 17.8571429,4.35848887 17.8571429,4.45970926 C17.8571429,4.56092964 17.9391982,4.64298498 18.0404186,4.64298498 L18.3333333,4.64298498 L18.3333333,4.27643353 L18.0404186,4.27643353 Z M18.452381,4.27643353 L18.452381,4.64298498 L19.047619,4.64298498 L19.047619,4.27643353 L18.452381,4.27643353 Z M19.1666667,4.27643353 L19.1666667,4.64298498 L19.4595814,4.64298498 C19.5608018,4.64298498 19.6428571,4.56092964 19.6428571,4.45970926 C19.6428571,4.35848887 19.5608018,4.27643353 19.4595814,4.27643353 L19.1666667,4.27643353 Z M18.1547619,4.88735261 C18.0561396,4.88735261 17.9761905,4.96730176 17.9761905,5.06592404 L17.9761905,5.07533263 C17.9761905,5.1739549 18.0561396,5.25390405 18.1547619,5.25390405 C18.2533842,5.25390405 18.3333333,5.1739549 18.3333333,5.07533263 L18.3333333,5.06592404 C18.3333333,4.96730176 18.2533842,4.88735261 18.1547619,4.88735261 Z M18.75,4.88735261 C18.6513777,4.88735261 18.5714286,4.96730176 18.5714286,5.06592404 L18.5714286,5.07533263 C18.5714286,5.1739549 18.6513777,5.25390405 18.75,5.25390405 C18.8486223,5.25390405 18.9285714,5.1739549 18.9285714,5.07533263 L18.9285714,5.06592404 C18.9285714,4.96730176 18.8486223,4.88735261 18.75,4.88735261 Z M19.3452381,4.88735261 C19.2466158,4.88735261 19.1666667,4.96730176 19.1666667,5.06592404 L19.1666667,5.07533263 C19.1666667,5.1739549 19.2466158,5.25390405 19.3452381,5.25390405 C19.4438604,5.25390405 19.5238095,5.1739549 19.5238095,5.07533263 L19.5238095,5.06592404 C19.5238095,4.96730176 19.4438604,4.88735261 19.3452381,4.88735261 Z M18.1547619,5.49827168 C18.0561396,5.49827168 17.9761905,5.57822084 17.9761905,5.67684311 L17.9761905,5.6862517 C17.9761905,5.78487398 18.0561396,5.86482313 18.1547619,5.86482313 C18.2533842,5.86482313 18.3333333,5.78487398 18.3333333,5.6862517 L18.3333333,5.67684311 C18.3333333,5.57822084 18.2533842,5.49827168 18.1547619,5.49827168 Z M19.3452381,5.49827168 C19.2466158,5.49827168 19.1666667,5.57822084 19.1666667,5.67684311 L19.1666667,5.6862517 C19.1666667,5.78487398 19.2466158,5.86482313 19.3452381,5.86482313 C19.4438604,5.86482313 19.5238095,5.78487398 19.5238095,5.6862517 L19.5238095,5.67684311 C19.5238095,5.57822084 19.4438604,5.49827168 19.3452381,5.49827168 Z M18.75,5.49827168 C18.6513777,5.49827168 18.5714286,5.57822084 18.5714286,5.67684311 L18.5714286,5.6862517 C18.5714286,5.78487398 18.6513777,5.86482313 18.75,5.86482313 C18.8486223,5.86482313 18.9285714,5.78487398 18.9285714,5.6862517 L18.9285714,5.67684311 C18.9285714,5.57822084 18.8486223,5.49827168 18.75,5.49827168 Z M18.1547619,6.10919076 C18.0561396,6.10919076 17.9761905,6.18913991 17.9761905,6.28776219 L17.9761905,6.29717078 C17.9761905,6.39579305 18.0561396,6.47574221 18.1547619,6.47574221 C18.2533842,6.47574221 18.3333333,6.39579305 18.3333333,6.29717078 L18.3333333,6.28776219 C18.3333333,6.18913991 18.2533842,6.10919076 18.1547619,6.10919076 Z M19.3452381,6.10919076 C19.2466158,6.10919076 19.1666667,6.18913991 19.1666667,6.28776219 L19.1666667,6.29717078 C19.1666667,6.39579305 19.2466158,6.47574221 19.3452381,6.47574221 C19.4438604,6.47574221 19.5238095,6.39579305 19.5238095,6.29717078 L19.5238095,6.28776219 C19.5238095,6.18913991 19.4438604,6.10919076 19.3452381,6.10919076 Z M18.75,6.10919076 C18.6513777,6.10919076 18.5714286,6.18913991 18.5714286,6.28776219 L18.5714286,6.29717078 C18.5714286,6.39579305 18.6513777,6.47574221 18.75,6.47574221 C18.8486223,6.47574221 18.9285714,6.39579305 18.9285714,6.29717078 L18.9285714,6.28776219 C18.9285714,6.18913991 18.8486223,6.10919076 18.75,6.10919076 Z M18.1547619,6.72010984 C18.0561396,6.72010984 17.9761905,6.80005899 17.9761905,6.89868127 L17.9761905,6.90808985 C17.9761905,7.00671213 18.0561396,7.08666128 18.1547619,7.08666128 C18.2533842,7.08666128 18.3333333,7.00671213 18.3333333,6.90808985 L18.3333333,6.89868127 C18.3333333,6.80005899 18.2533842,6.72010984 18.1547619,6.72010984 Z M19.3452381,6.72010984 C19.2466158,6.72010984 19.1666667,6.80005899 19.1666667,6.89868127 L19.1666667,6.90808985 C19.1666667,7.00671213 19.2466158,7.08666128 19.3452381,7.08666128 C19.4438604,7.08666128 19.5238095,7.00671213 19.5238095,6.90808985 L19.5238095,6.89868127 C19.5238095,6.80005899 19.4438604,6.72010984 19.3452381,6.72010984 Z M18.75,6.72010984 C18.6513777,6.72010984 18.5714286,6.80005899 18.5714286,6.89868127 L18.5714286,6.90808985 C18.5714286,7.00671213 18.6513777,7.08666128 18.75,7.08666128 C18.8486223,7.08666128 18.9285714,7.00671213 18.9285714,6.90808985 L18.9285714,6.89868127 C18.9285714,6.80005899 18.8486223,6.72010984 18.75,6.72010984 Z"
                    id="Combined-Shape"></path>
            </g>
        </g>
    </g>
</svg>
