<?xml version="1.0" encoding="UTF-8"?>
<svg width="80px" height="64px" viewBox="0 0 80 64" version="1.1" xmlns="http://www.w3.org/2000/svg" xmlns:xlink="http://www.w3.org/1999/xlink">
    <!-- Generator: Sketch 52.4 (67378) - http://www.bohemiancoding.com/sketch -->
    <title>文件夹icon</title>
    <desc>Created with Sketch.</desc>
    <g id="Design" stroke="none" stroke-width="1" fill-rule="evenodd">
        <g id="UI-库" transform="translate(-500.000000, -5188.000000)" fill-rule="nonzero">
            <g id="文件夹icon" transform="translate(500.000000, 5188.000000)">
                <path d="M71.5984667,12.3870062 C70.6890909,12.1347872 69.7308786,12 68.741185,12 L11.258815,12 C11.066798,12 10.874816,12.0051849 10.6830789,12.0155491 C9.76868885,12.0649756 8.88743913,12.2281715 8.05231534,12.4906674 L8.84212726,4.79014583 C9.12116334,2.06959512 11.4128041,0.0009765625 14.1476272,0.0009765625 L30.6666667,0.0009765625 C32.8758057,0.0009765625 34.6666667,1.79183756 34.6666667,4.00097656 L65.8931158,4.00097656 C68.6107071,4.00097656 70.893714,6.04436082 71.1938278,8.74532992 L71.5984667,12.3870062 Z" id="Path"></path>
                <path d="M11.258815,14.6666667 L68.741185,14.6666667 C74.6322223,14.6666667 79.4078516,19.442296 79.4078516,25.3333333 C79.4078516,25.5253503 79.4026667,25.7173323 79.3923026,25.9090694 L77.7424251,56.4318021 C77.5130036,60.6761009 74.0045818,64 69.7540869,64 L10.2459131,64 C5.9954182,64 2.48699644,60.6761009 2.25757489,56.4318021 L0.607697446,25.9090694 C0.289727186,20.0266196 4.80062913,15.000186 10.6830789,14.6822158 C10.874816,14.6718516 11.066798,14.6666667 11.258815,14.6666667 Z" id="Rectangle"></path>
            </g>
        </g>
    </g>
</svg>
