<?xml version="1.0" encoding="UTF-8"?>
<svg width="20px" height="17px" viewBox="0 0 20 17" version="1.1" xmlns="http://www.w3.org/2000/svg" xmlns:xlink="http://www.w3.org/1999/xlink">
    <!-- Generator: Sketch 54.1 (76490) - https://sketchapp.com -->
    <title>下载icon</title>
    <desc>Created with Sketch.</desc>
    <g id="Design" stroke="none" stroke-width="1" fill="none" fill-rule="evenodd">
        <g id="06-01直播频道-列表-copy" transform="translate(-1228.000000, -313.000000)" fill-rule="nonzero" stroke="#A3D0FD">
            <g id="下载btn-" transform="translate(1210.000000, 301.000000)">
                <path d="M34.4847556,20.6120034 L31.3643328,20.6120034 L31.3643328,12.5408002 C31.3643328,12.5129981 31.3519489,12.5 31.3490884,12.5 L24.6509116,12.5 C24.6480511,12.5 24.6356672,12.5129981 24.6356672,12.5408002 L24.6356672,20.6120034 L21.5152444,20.6120034 C21.5163699,20.6120034 21.5158281,20.612239 21.5129148,20.6152967 C21.4956951,20.6333706 21.4956951,20.6722367 21.5129148,20.6903106 L27.9976705,27.4967067 C28.001854,27.5010978 27.998146,27.5010978 28.0023295,27.4967067 L34.4870852,20.6903106 C34.4945378,20.6824883 34.5,20.6686473 34.5,20.6528036 C34.5,20.6250015 34.4876161,20.6120034 34.4847556,20.6120034 Z M18.5,28.5 L37.5,28.5 L18.5,28.5 Z" id="下载icon"></path>
            </g>
        </g>
    </g>
</svg>