<?xml version="1.0" encoding="UTF-8"?>
<svg width="20px" height="18px" viewBox="0 0 20 18" version="1.1" xmlns="http://www.w3.org/2000/svg" xmlns:xlink="http://www.w3.org/1999/xlink">
    <!-- Generator: Sketch 54.1 (76490) - https://sketchapp.com -->
    <title>查重icon</title>
    <desc>Created with Sketch.</desc>
    <g id="Design" stroke="none" stroke-width="1" fill="none" fill-rule="evenodd">
        <g id="06-01直播频道-列表-copy" transform="translate(-898.000000, -312.000000)" fill="#A3D0FD">
            <g id="查重btn" transform="translate(880.000000, 301.000000)">
                <path d="M33.2841171,22.7734969 L37.8633773,27.3527571 C38.0586395,27.5480193 38.0586395,27.8646018 37.8633773,28.0598639 L37.8298363,28.0934049 C37.6345742,28.2886671 37.3179917,28.2886671 37.1227295,28.0934049 L32.4626257,23.4333012 C31.3701001,24.1799717 30.0489096,24.6166442 28.6257287,24.6166442 C24.8655962,24.6166442 21.8174066,21.5684546 21.8174066,17.8083221 C21.8174066,14.0481896 24.8655962,11 28.6257287,11 C32.3858612,11 35.4340508,14.0481896 35.4340508,17.8083221 C35.4340508,19.7664223 34.6074315,21.5314553 33.2841171,22.7734969 Z M28.6257287,23.5692101 C31.8073792,23.5692101 34.3866166,20.9899727 34.3866166,17.8083221 C34.3866166,14.6266716 31.8073792,12.0474342 28.6257287,12.0474342 C25.4440781,12.0474342 22.8648407,14.6266716 22.8648407,17.8083221 C22.8648407,20.9899727 25.4440781,23.5692101 28.6257287,23.5692101 Z M23.0377103,23.240864 C23.9297333,24.1703951 25.0829975,24.8473003 26.3794734,25.1535502 L26.3794734,27.4780348 C26.3794734,28.0303196 25.9317581,28.4780348 25.3794734,28.4780348 L19,28.4780348 C18.4477153,28.4780348 18,28.0303196 18,27.4780348 L18,24.240864 C18,23.6885792 18.4477153,23.240864 19,23.240864 L23.0377103,23.240864 Z" id="查重icon"></path>
            </g>
        </g>
    </g>
</svg>