<?xml version="1.0" encoding="UTF-8"?>
<svg width="15px" height="20px" viewBox="0 0 15 20" version="1.1" xmlns="http://www.w3.org/2000/svg" xmlns:xlink="http://www.w3.org/1999/xlink">
    <!-- Generator: Sketch 54.1 (76490) - https://sketchapp.com -->
    <title>edit</title>
    <desc>Created with Sketch.</desc>
    <g id="Design" stroke="none" stroke-width="1" fill="none" fill-rule="evenodd">
        <g id="06-05轮播频道-列表-" transform="translate(-1233.000000, -311.000000)" fill="#A3D0FD">
            <g id="修改btn" transform="translate(1210.000000, 301.000000)">
                <path d="M37.4210303,29.4478056 C37.4210339,29.4486263 37.4210357,29.4494473 37.4210357,29.4502688 C37.4210357,29.753877 37.1749127,30 36.8713046,30 L23.5497312,30 C23.246123,30 23,29.753877 23,29.4502688 C23,29.4494473 23.0000018,29.4486263 23.0000054,29.4478056 C23.0000018,29.4469873 23,29.4461663 23,29.4453448 L23,11.8637958 C23.0000072,11.8621561 23,11.8605148 23,11.8588718 C23,11.5552636 23.246123,11.3091406 23.5497312,11.3091406 L30.2154419,11.3091406 C30.5190501,11.3091406 30.7651731,11.5552636 30.7651731,11.8588718 C30.7651731,12.1624799 30.5190501,12.4086029 30.2154419,12.4086029 L24.1093104,12.4086029 L24.1093104,28.9005377 L36.3117253,28.9005377 L36.3117253,18.4605697 C36.3117253,18.1542421 36.5600529,17.9059145 36.8663805,17.9059145 C37.1727081,17.9059145 37.4210357,18.1542421 37.4210357,18.4605697 L37.4210357,29.4453448 C37.4210357,29.4461663 37.421034,29.4469873 37.4210304,29.447808 Z M36.7901812,10.0905914 L36.9756209,10.1967046 C37.4549739,10.4710022 37.6212041,11.0819567 37.3469064,11.5613097 C37.3456279,11.563544 37.3443408,11.5657733 37.3430451,11.5679976 L31.1944324,22.1231623 L29.0779839,23.55749 L29.2730503,21.0237 L35.4294375,10.4551891 C35.7059119,9.98057256 36.3134438,9.81779049 36.7901812,10.0905914 Z" id="edit"></path>
            </g>
        </g>
    </g>
</svg>