<?xml version="1.0" encoding="UTF-8"?>
<svg width="60px" height="80px" viewBox="0 0 60 80" version="1.1" xmlns="http://www.w3.org/2000/svg" xmlns:xlink="http://www.w3.org/1999/xlink">
    <!-- Generator: Sketch 52.4 (67378) - http://www.bohemiancoding.com/sketch -->
    <title>编辑</title>
    <desc>Created with Sketch.</desc>
    <g id="Design" stroke="none" stroke-width="1" fill-rule="evenodd">
        <g id="UI-库" transform="translate(-930.000000, -5180.000000)" fill-rule="nonzero">
            <g id="编辑" transform="translate(930.000000, 5179.000000)">
                <path d="M56,33 C56,31.8954305 56.8954305,31 58,31 C59.1045695,31 60,31.8954305 60,33 L60,73 C60,77.418278 56.418278,81 52,81 L8,81 C3.581722,81 5.41083001e-16,77.418278 0,73 L0,19 C-5.41083001e-16,14.581722 3.581722,11 8,11 L30,11 C31.1045695,11 32,11.8954305 32,13 C32,14.1045695 31.1045695,15 30,15 L9,15 C6.23857625,15 4,17.2385763 4,20 L4,72 C4,74.7614237 6.23857625,77 9,77 L51,77 C53.7614237,77 56,74.7614237 56,72 L56,33 Z" id="Combined-Shape"></path>
                <g id="Group-Copy" transform="translate(39.123067, 33.877876) rotate(30.000000) translate(-39.123067, -33.877876) translate(32.123067, -0.622124)">
                    <path d="M1,7 L9,7 C9.55228475,7 10,7.44771525 10,8 L10,56 C10,56.5522847 9.55228475,57 9,57 L1,57 C0.44771525,57 3.09796633e-12,56.5522847 3.09796633e-12,56 L3.09796633e-12,8 C3.09796633e-12,7.44771525 0.44771525,7 1,7 Z" id="Rectangle"></path>
                    <path d="M2.5,-7.81597009e-13 L7.5,-7.81597009e-13 C8.88071187,-7.81850642e-13 10,1.11928813 10,2.5 L10,4 C10,4.55228475 9.55228475,5 9,5 L1,5 C0.44771525,5 3.32534e-12,4.55228475 3.32534e-12,4 L3.32534e-12,2.5 C3.32534e-12,1.11928813 1.11928813,-7.81343377e-13 2.5,-7.81597009e-13 Z" id="Rectangle"></path>
                    <path d="M1.61803399,59 L8.38196601,59 C8.93425076,59 9.38196601,59.4477153 9.38196601,60 C9.38196601,60.1552451 9.34582092,60.3083582 9.2763932,60.4472136 L5,69 L0.723606798,60.4472136 C0.476617549,59.9532351 0.676841896,59.3525621 1.17082039,59.1055728 C1.30967583,59.0361451 1.46278889,59 1.61803399,59 Z" id="Path-8"></path>
                    <path d="M13,9 C13.5522847,9 14,9.44771525 14,10 L14,30 C14,30.5522847 13.5522847,31 13,31 C12.4477153,31 12,30.5522847 12,30 L12,10 C12,9.44771525 12.4477153,9 13,9 Z" id="Rectangle"></path>
                </g>
            </g>
        </g>
    </g>
</svg>
