<?xml version="1.0" encoding="UTF-8"?>
<svg width="13px" height="18px" viewBox="0 0 13 18" version="1.1" xmlns="http://www.w3.org/2000/svg" xmlns:xlink="http://www.w3.org/1999/xlink">
    <!-- Generator: Sketch 54.1 (76490) - https://sketchapp.com -->
    <title>edit</title>
    <desc>Created with Sketch.</desc>
    <g id="Design" stroke="none" stroke-width="1">
        <g id="06-08轮播频道-添加轮播-多组01-2.3--" transform="translate(-1039.000000, -1038.000000)">
            <path d="M1051.97893,1055.50303 C1051.97893,1055.50376 1051.97893,1055.5045 1051.97893,1055.50524 C1051.97893,1055.77849 1051.75742,1056 1051.48417,1056 L1039.49476,1056 C1039.22151,1056 1039,1055.77849 1039,1055.50524 C1039,1055.5045 1039,1055.50376 1039,1055.50303 C1039,1055.50229 1039,1055.50155 1039,1055.50081 L1039,1039.67742 C1039.00001,1039.67594 1039,1039.67446 1039,1039.67298 C1039,1039.39974 1039.22151,1039.17823 1039.49476,1039.17823 L1045.4939,1039.17823 C1045.76715,1039.17823 1045.98866,1039.39974 1045.98866,1039.67298 C1045.98866,1039.94623 1045.76715,1040.16774 1045.4939,1040.16774 L1039.99838,1040.16774 L1039.99838,1055.01048 L1050.98055,1055.01048 L1050.98055,1045.61451 C1050.98055,1045.33882 1051.20405,1045.11532 1051.47974,1045.11532 C1051.75544,1045.11532 1051.97893,1045.33882 1051.97893,1045.61451 L1051.97893,1055.50081 C1051.97893,1055.50155 1051.97893,1055.50229 1051.97893,1055.50303 Z M1051.49729,1038.13082 L1051.50064,1038.13274 C1051.97449,1038.40388 1052.13881,1039.00781 1051.86766,1039.48166 C1051.8664,1039.48387 1051.86513,1039.48607 1051.86385,1039.48827 L1046.37499,1048.91085 L1044.47019,1050.20174 L1044.64575,1047.92133 L1050.13655,1038.49541 C1050.41302,1038.0208 1051.02055,1037.85802 1051.49729,1038.13082 Z" id="edit"></path>
        </g>
    </g>
</svg>
