<?xml version="1.0" encoding="UTF-8"?>
<svg width="22px" height="23px" viewBox="0 0 22 23" version="1.1" xmlns="http://www.w3.org/2000/svg"
     xmlns:xlink="http://www.w3.org/1999/xlink">
    <!-- Generator: Sketch 49.3 (51167) - http://www.bohemiancoding.com/sketch -->
    <title>编辑icon copy 3</title>
    <desc>Created with Sketch.</desc>
    <defs></defs>
    <g id="Design" stroke="none" stroke-width="1">
        <g id="01推荐设置" transform="translate(-933.000000, -427.000000)">
            <g id="编辑icon-copy-3" transform="translate(933.000000, 426.000000)">
                <path
                    d="M11,2.28571429 L14.9637111,2.28571429 L14.9637111,17.6190476 L11,17.6190476 L11,2.28571429 Z M11.0105238,18.7281901 L15,18.7281901 L12.9872989,22 L11.0105238,18.7281901 Z M14.9637111,1.19047619 C13.7369058,1.19047619 12.2113221,1.19047619 11,1.19047619 C11,-0.0192904043 11.887307,-1 12.9818556,-1 C14.0764042,-1 14.9637111,-0.0192904043 14.9637111,1.19047619 Z"
                    id="编辑按钮"
                    transform="translate(13.000000, 10.500000) rotate(45.000000) translate(-13.000000, -10.500000) "></path>
                <path
                    d="M4.49999988,6 L13.5000001,6 C15.9852814,6 18,8.01471857 18,10.4999999 L18,19.5000001 C18,21.9852814 15.9852814,24 13.5000001,24 L4.49999988,24 C2.01471857,24 3.0435918e-16,21.9852814 0,19.5000001 L0,10.4999999 C-3.0435918e-16,8.01471857 2.01471857,6 4.49999988,6 Z M4.08461531,7.38461538 C2.59344653,7.38461538 1.38461538,8.59344653 1.38461538,10.0846153 L1.38461538,19.9153847 C1.38461538,21.4065535 2.59344653,22.6153846 4.08461531,22.6153846 L13.9153847,22.6153846 C15.4065535,22.6153846 16.6153846,21.4065535 16.6153846,19.9153847 L16.6153846,10.0846153 C16.6153846,8.59344653 15.4065535,7.38461538 13.9153847,7.38461538 L4.08461531,7.38461538 Z"
                    id="Combined-Shape"></path>
            </g>
        </g>
    </g>
</svg>
