<?xml version="1.0" encoding="UTF-8"?>
<svg width="30px" height="21px" viewBox="0 0 30 21" version="1.1" xmlns="http://www.w3.org/2000/svg" xmlns:xlink="http://www.w3.org/1999/xlink">
    <!-- Generator: Sketch 52.2 (67145) - http://www.bohemiancoding.com/sketch -->
    <title>邮箱</title>
    <desc>Created with Sketch.</desc>
    <g id="Design" stroke="none" stroke-width="1" fill="none" fill-rule="evenodd">
        <g id="01-个人中心-基本信息" transform="translate(-470.000000, -191.000000)" fill="#6F7480">
            <g id="邮箱" transform="translate(470.000000, 191.000000)">
                <path d="M18.2356667,8.84085227 C17.2528889,9.51073864 16.1262222,9.84596591 15.0001111,9.84596591 C13.8734444,9.84596591 12.7470556,9.51102273 11.7642778,8.84085227 L1.48038889,1.82892045 C0.848444444,1.39823864 0.00205555556,1.85988636 0.000111111111,2.63630682 L0.000111111111,17.4090341 C0.000111111111,18.9780682 1.24372222,20.2499432 2.77788889,20.2499432 L27.2223333,20.2499432 C28.7562222,20.2499432 30.0001111,18.9780682 30.0001111,17.4090341 L30.0001111,2.63630682 C29.9978889,1.85988636 29.1515,1.39823864 28.5195556,1.82892045 L18.2356667,8.84085227 Z" id="Fill-1"></path>
                <path d="M12.7643477,7.7188 C14.1663203,8.6873875 15.9776523,8.687675 17.379625,7.7188 L28.2686953,0.1934875 C27.9600117,0.07015 27.6258125,0 27.2749727,0 L2.86872266,0 C2.51816016,0 2.18396094,0.07015 1.875,0.1934875 L12.7643477,7.7188 Z" id="Fill-4"></path>
            </g>
        </g>
    </g>
</svg>