<?xml version="1.0" encoding="UTF-8"?>
<svg width="15px" height="12px" viewBox="0 0 15 12" version="1.1" xmlns="http://www.w3.org/2000/svg" xmlns:xlink="http://www.w3.org/1999/xlink">
    <!-- Generator: Sketch 49.3 (51167) - http://www.bohemiancoding.com/sketch -->
    <title>邮箱</title>
    <desc>Created with Sketch.</desc>
    <defs></defs>
    <g id="Design" stroke="none" stroke-width="1" fill="none" fill-rule="evenodd">
        <g id="04个人中心/我的信息" transform="translate(-472.000000, -328.000000)" fill="#DCDFE6">
            <path d="M473.194935,329.220246 C472.764096,328.876393 472.861556,328.596166 473.410018,328.596166 L485.589775,328.596166 C486.13891,328.596166 486.235697,328.876393 485.804859,329.220246 L480.409631,333.524503 C480.162958,333.72012 479.82689,333.80473 479.498888,333.789161 C479.172903,333.80473 478.834147,333.717413 478.590162,333.524503 L473.194935,329.220246 Z M486.203724,330.340588 C486.642585,330.007562 487,330.187248 487,330.738464 L487,338.119088 C487,338.67098 486.55037,339.124923 486.001122,339.124923 L472.998878,339.124923 C472.44963,339.124923 472,338.67098 472,338.119088 L472,330.738464 C472,330.187248 472.357415,330.007562 472.796949,330.340588 L478.702042,334.839486 C478.922818,335.005662 479.21225,335.087398 479.501683,335.084696 C479.78775,335.087398 480.077182,335.005662 480.297958,334.839486 L486.203724,330.340588 Z" id="邮箱"></path>
        </g>
    </g>
</svg>