<?xml version="1.0" encoding="UTF-8"?>
<svg width="15px" height="15px" viewBox="0 0 15 15" version="1.1" xmlns="http://www.w3.org/2000/svg" xmlns:xlink="http://www.w3.org/1999/xlink">
    <!-- Generator: Sketch 52.3 (67297) - http://www.bohemiancoding.com/sketch -->
    <title>展开</title>
    <desc>Created with Sketch.</desc>
    <g id="Design" stroke="none" stroke-width="1" fill-rule="evenodd">
        <g id="03-01视频管理-视频列表-删除反馈浮窗-收起" transform="translate(-1368.000000, -1029.000000)" fill-rule="nonzero">
            <g id="浮窗口" transform="translate(1050.000000, 1011.000000)">
                <path d="M319.446643,20.2951712 L319.446643,24.3779663 C319.446643,24.7093372 319.178014,24.9779663 318.846643,24.9779663 C318.515272,24.9779663 318.246643,24.7093372 318.246643,24.3779663 L318.246643,18.8666541 C318.245148,18.8493796 318.244385,18.8318956 318.244385,18.8142334 C318.244385,18.6479736 318.312008,18.4975082 318.421251,18.3888417 C318.529918,18.2795988 318.680383,18.2119751 318.846643,18.2119751 C318.864305,18.2119751 318.881789,18.2127383 318.899064,18.2142334 L324.410376,18.2142334 C324.741747,18.2142334 325.010376,18.4828625 325.010376,18.8142334 C325.010376,19.1456042 324.741747,19.4142334 324.410376,19.4142334 L320.262762,19.4142334 L332.5664,31.7178716 C332.800714,31.9521861 332.800714,32.3320851 332.5664,32.5663997 C332.332085,32.8007143 331.952186,32.8007143 331.717872,32.5663997 L319.446643,20.2951712 Z" id="展开"></path>
            </g>
        </g>
    </g>
</svg>
