<?xml version="1.0" encoding="UTF-8"?>
<svg width="60px" height="60px" viewBox="0 0 60 60" version="1.1" xmlns="http://www.w3.org/2000/svg" xmlns:xlink="http://www.w3.org/1999/xlink">
    <!-- Generator: Sketch 52.4 (67378) - http://www.bohemiancoding.com/sketch -->
    <title>导出icon</title>
    <desc>Created with Sketch.</desc>
    <g id="Design" stroke="none" stroke-width="1" fill-rule="evenodd">
        <g id="UI-库" transform="translate(-90.000000, -5190.000000)" fill-rule="nonzero">
            <g id="导出icon" transform="translate(90.000000, 5190.000000)">
                <path d="M54,32 C54,30.3431458 55.3431458,29 57,29 C58.6568542,29 60,30.3431458 60,32 L60,52 C60,56.418278 56.418278,60 52,60 L8,60 C3.581722,60 5.41083001e-16,56.418278 0,52 L0,8 C-5.41083001e-16,3.581722 3.581722,8.11624501e-16 8,0 L30,0 C31.6568542,0 33,1.34314575 33,3 C33,4.65685425 31.6568542,6 30,6 L10,6 C7.790861,6 6,7.790861 6,10 L6,50 C6,52.209139 7.790861,54 10,54 L50,54 C52.209139,54 54,52.209139 54,50 L54,32 Z" id="Path"></path>
                <path d="M54.300283,8.68024177 L32.2568808,30.723644 C31.4758322,31.5046926 30.2095023,31.5046926 29.4284537,30.723644 C28.6474051,29.9425954 28.6474051,28.6762654 29.4284537,27.8952169 L51.4952434,5.82842712 L44.2951903,5.82842712 C43.1906208,5.82842712 42.2951903,4.93299662 42.2951903,3.82842712 C42.2951903,2.72385763 43.1906208,1.82842712 44.2951903,1.82842712 L56.2951903,1.82842712 C57.2571802,1.82842712 58.0605384,2.50761014 58.2519072,3.41261845 C58.2835746,3.55394855 58.300283,3.70093037 58.300283,3.85181465 L58.300283,15.8518146 C58.300283,16.9563841 57.4048525,17.8518146 56.300283,17.8518146 C55.1957135,17.8518146 54.300283,16.9563841 54.300283,15.8518146 L54.300283,8.68024177 Z" id="Path"></path>
            </g>
        </g>
    </g>
</svg>
