<?xml version="1.0" encoding="UTF-8"?>
<svg width="15px" height="19px" viewBox="0 0 15 19" version="1.1" xmlns="http://www.w3.org/2000/svg" xmlns:xlink="http://www.w3.org/1999/xlink">
    <!-- Generator: Sketch 54.1 (76490) - https://sketchapp.com -->
    <title>导出icon</title>
    <desc>Created with Sketch.</desc>
    <g id="Design" stroke="none" stroke-width="1" fill="none" fill-rule="evenodd">
        <g id="11-01用户管理-2.3" transform="translate(-1343.000000, -312.000000)" fill="#A3D0FD">
            <g id="导出btn-" transform="translate(1320.000000, 301.000000)">
                <path d="M37.4210303,29.4478056 C37.4210339,29.4486263 37.4210357,29.4494473 37.4210357,29.4502688 C37.4210357,29.753877 37.1749127,30 36.8713046,30 L23.5497312,30 C23.246123,30 23,29.753877 23,29.4502688 C23,29.4494473 23.0000018,29.4486263 23.0000054,29.4478056 C23.0000018,29.4469873 23,29.4461663 23,29.4453448 L23,11.8637958 C23.0000072,11.8621561 23,11.8605148 23,11.8588718 C23,11.5552636 23.246123,11.3091406 23.5497312,11.3091406 L30.2154419,11.3091406 C30.5190501,11.3091406 30.7651731,11.5552636 30.7651731,11.8588718 C30.7651731,12.1624799 30.5190501,12.4086029 30.2154419,12.4086029 L24.1093104,12.4086029 L24.1093104,28.9005377 L36.3117253,28.9005377 L36.3117253,18.4605697 C36.3117253,18.1542421 36.5600529,17.9059145 36.8663805,17.9059145 C37.1727081,17.9059145 37.4210357,18.1542421 37.4210357,18.4605697 L37.4210357,29.4453448 C37.4210357,29.4461663 37.421034,29.4469873 37.4210304,29.447808 Z M36.4546312,13.1455278 L29.7748124,19.8253467 C29.538131,20.0620281 29.1543946,20.0620281 28.9177132,19.8253467 C28.6810318,19.5886653 28.6810318,19.2049289 28.9177132,18.9682475 L35.6046192,12.2813416 L33.4227849,12.2813416 C33.0880669,12.2813416 32.8167243,12.009999 32.8167243,11.6752809 C32.8167243,11.3405629 33.0880669,11.0692203 33.4227849,11.0692203 L37.0591486,11.0692203 C37.3506607,11.0692203 37.5941026,11.2750334 37.6520931,11.5492783 C37.6616893,11.5921056 37.6667524,11.6366456 37.6667524,11.6823681 L37.6667524,15.3187317 C37.6667524,15.6534497 37.3954098,15.9247923 37.0606918,15.9247923 C36.7259738,15.9247923 36.4546312,15.6534497 36.4546312,15.3187317 L36.4546312,13.1455278 Z" id="导出icon"></path>
            </g>
        </g>
    </g>
</svg>