<?xml version="1.0" encoding="UTF-8"?>
<svg width="60px" height="60px" viewBox="0 0 60 60" version="1.1" xmlns="http://www.w3.org/2000/svg" xmlns:xlink="http://www.w3.org/1999/xlink">
    <!-- Generator: Sketch 52.4 (67378) - http://www.bohemiancoding.com/sketch -->
    <title>导出icon copy</title>
    <desc>Created with Sketch.</desc>
    <g id="Design" stroke="none" stroke-width="1" fill-rule="evenodd">
        <g id="UI-库" transform="translate(-230.000000, -5190.000000)" fill-rule="nonzero">
            <g id="导出icon-copy" transform="translate(230.000000, 5185.000000)">
                <path d="M54,37 C54,35.3431458 55.3431458,34 57,34 C58.6568542,34 60,35.3431458 60,37 L60,57 C60,61.418278 56.418278,65 52,65 L8,65 C3.581722,65 5.41083001e-16,61.418278 0,57 L0,13 C-5.41083001e-16,8.581722 3.581722,5 8,5 L30,5 C31.6568542,5 33,6.34314575 33,8 C33,9.65685425 31.6568542,11 30,11 L10,11 C7.790861,11 6,12.790861 6,15 L6,55 C6,57.209139 7.790861,59 10,59 L50,59 C52.209139,59 54,57.209139 54,55 L54,37 Z" id="Path"></path>
                <path d="M32.8375745,29.4576158 L54.8809768,7.41421356 C55.6620253,6.63316498 56.9283553,6.63316498 57.7094039,7.41421356 C58.4904525,8.19526215 58.4904525,9.4615921 57.7094039,10.2426407 L35.6426141,32.3094304 L42.8426672,32.3094304 C43.9472367,32.3094304 44.8426672,33.2048609 44.8426672,34.3094304 C44.8426672,35.4139999 43.9472367,36.3094304 42.8426672,36.3094304 L30.8426672,36.3094304 C29.8806773,36.3094304 29.0773191,35.6302474 28.8859503,34.7252391 C28.8542829,34.583909 28.8375745,34.4369272 28.8375745,34.2860429 L28.8375745,22.2860429 C28.8375745,21.1814734 29.733005,20.2860429 30.8375745,20.2860429 C31.942144,20.2860429 32.8375745,21.1814734 32.8375745,22.2860429 L32.8375745,29.4576158 Z" id="Path"></path>
            </g>
        </g>
    </g>
</svg>
