<?xml version="1.0" encoding="UTF-8"?>
<svg width="13px" height="8px" viewBox="0 0 13 8" version="1.1" xmlns="http://www.w3.org/2000/svg" xmlns:xlink="http://www.w3.org/1999/xlink">
    <!-- Generator: Sketch 63.1 (92452) - https://sketch.com -->
    <title>icon_eyeopen</title>
    <desc>Created with Sketch.</desc>
    <g id="Design" stroke="none" stroke-width="1" fill="none" fill-rule="evenodd">
        <g id="09-01-直播节目单-2.8" transform="translate(-1218.000000, -203.000000)" fill="#1989FA" fill-rule="nonzero">
            <g id="icon_eyeopen" transform="translate(1218.000000, 203.000000)">
                <path d="M6.5,0 C10.08995,0 13,1.79066667 13,4 C13,6.20933333 10.08995,8 6.5,8 C2.91005,8 0,6.20933333 0,4 C0,1.79066667 2.91005,0 6.5,0 Z M6.5,1.14285714 C4.8682496,1.14285714 3.54545455,2.42204357 3.54545455,4 C3.54545455,5.57795643 4.8682496,6.85714286 6.5,6.85714286 C8.1317504,6.85714286 9.45454545,5.57795643 9.45454545,4 C9.45454545,2.42204357 8.1317504,1.14285714 6.5,1.14285714 Z M6.5,2.28571429 C7.47905024,2.28571429 8.27272727,3.05322614 8.27272727,4 C8.27272727,4.94677386 7.47905024,5.71428571 6.5,5.71428571 C5.52094976,5.71428571 4.72727273,4.94677386 4.72727273,4 C4.72727273,3.05322614 5.52094976,2.28571429 6.5,2.28571429 Z" id="形状结合"></path>
            </g>
        </g>
    </g>
</svg>