<?xml version="1.0" encoding="UTF-8"?>
<svg width="30px" height="27px" viewBox="0 0 30 27" version="1.1" xmlns="http://www.w3.org/2000/svg" xmlns:xlink="http://www.w3.org/1999/xlink">
    <!-- Generator: Sketch 52.3 (67297) - http://www.bohemiancoding.com/sketch -->
    <title>商品管理</title>
    <desc>Created with Sketch.</desc>
    <g id="Design" stroke="none" stroke-width="1">
        <g id="15-01产品管理" transform="translate(-30.000000, -192.000000)">
            <path d="M38.9172569,194.166466 L43.5695138,196.014884 C44.1465946,196.244168 44.525,196.799336 44.525,197.416701 L44.525,204.715769 C44.525,205.132689 44.1847364,205.47067 43.765,205.47067 C43.6683132,205.47067 43.5725145,205.452345 43.4827431,205.416677 L38.8304862,203.568258 C38.2534054,203.338975 37.875,202.783807 37.875,202.166442 L37.875,194.867374 C37.875,194.450454 38.2152636,194.112473 38.635,194.112473 C38.7316868,194.112473 38.8274855,194.130798 38.9172569,194.166466 Z M51.1003782,194.319106 C51.1850583,194.287864 51.2746674,194.271868 51.365,194.271868 C51.7847364,194.271868 52.125,194.609849 52.125,195.02677 L52.125,202.327552 C52.125,202.958638 51.7298345,203.523144 51.1342435,203.74288 L46.4996218,205.452762 C46.4149417,205.484004 46.3253326,205.5 46.235,205.5 C45.8152636,205.5 45.475,205.162019 45.475,204.745099 L45.475,197.444316 C45.475,196.81323 45.8701655,196.248724 46.4657565,196.028988 L51.1003782,194.319106 Z M45.7964098,192.121127 L50.985,193.737817 L45.9199253,195.409594 C45.3507261,195.597464 44.7343102,195.588737 44.1707331,195.384829 L39.0969769,193.549092 L44.2789361,192.098997 C44.7761919,191.959848 45.3034809,191.967537 45.7964098,192.121127 Z M31.0422569,206.916466 L35.6945138,209.139884 C36.2715946,209.369168 36.65,209.924336 36.65,210.541701 L36.65,218.215769 C36.65,218.632689 36.3097364,218.97067 35.89,218.97067 C35.7933132,218.97067 35.6975145,218.952345 35.6077431,218.916677 L30.9554862,216.318258 C30.3784054,216.088975 30,215.533807 30,214.916442 L30,207.617374 C30,207.200454 30.3402636,206.862473 30.76,206.862473 C30.8566868,206.862473 30.9524855,206.880798 31.0422569,206.916466 Z M43.2253782,207.069106 C43.3100583,207.037864 43.3996674,207.021868 43.49,207.021868 C43.9097364,207.021868 44.25,207.359849 44.25,207.77677 L44.25,215.077552 C44.25,215.708638 43.8548345,216.273144 43.2592435,216.49288 L38.6246218,218.952762 C38.5399417,218.984004 38.4503326,219 38.36,219 C37.9402636,219 37.6,218.662019 37.6,218.245099 L37.6,210.569316 C37.6,209.93823 37.9951655,209.373724 38.5907565,209.153988 L43.2253782,207.069106 Z M37.9214098,204.121127 L43.485,206.487817 L38.0449253,208.909594 C37.4757261,209.097464 36.8593102,209.088737 36.2957331,208.884829 L30.8469769,206.299092 L36.4039361,204.098997 C36.9011919,203.959848 37.4284809,203.967537 37.9214098,204.121127 Z M46.7922569,206.916466 L51.4445138,209.139884 C52.0215946,209.369168 52.4,209.924336 52.4,210.541701 L52.4,218.215769 C52.4,218.632689 52.0597364,218.97067 51.64,218.97067 C51.5433132,218.97067 51.4475145,218.952345 51.3577431,218.916677 L46.7054862,216.318258 C46.1284054,216.088975 45.75,215.533807 45.75,214.916442 L45.75,207.617374 C45.75,207.200454 46.0902636,206.862473 46.51,206.862473 C46.6066868,206.862473 46.7024855,206.880798 46.7922569,206.916466 Z M58.9753782,207.069106 C59.0600583,207.037864 59.1496674,207.021868 59.24,207.021868 C59.6597364,207.021868 60,207.359849 60,207.77677 L60,215.077552 C60,215.708638 59.6048345,216.273144 59.0092435,216.49288 L54.3746218,218.952762 C54.2899417,218.984004 54.2003326,219 54.11,219 C53.6902636,219 53.35,218.662019 53.35,218.245099 L53.35,210.569316 C53.35,209.93823 53.7451655,209.373724 54.3407565,209.153988 L58.9753782,207.069106 Z M53.6714098,204.121127 L59.235,206.487817 L53.7949253,208.909594 C53.2257261,209.097464 52.6093102,209.088737 52.0457331,208.884829 L46.5969769,206.299092 L52.1539361,204.098997 C52.6511919,203.959848 53.1784809,203.967537 53.6714098,204.121127 Z" id="商品管理"></path>
        </g>
    </g>
</svg>
