<?xml version="1.0" encoding="UTF-8"?>
<svg width="212px" height="212px" viewBox="0 0 212 212" version="1.1" xmlns="http://www.w3.org/2000/svg" xmlns:xlink="http://www.w3.org/1999/xlink">
    <!-- Generator: Sketch 54.1 (76490) - https://sketchapp.com -->
    <title>商品管理占位icon</title>
    <desc>Created with Sketch.</desc>
    <defs>
        <rect id="path-1" x="0" y="0.473933649" width="200" height="199.052133" rx="8"></rect>
        <filter x="-3.9%" y="-3.9%" width="109.7%" height="109.7%" filterUnits="objectBoundingBox" id="filter-3">
            <feMorphology radius="1.20000005" operator="dilate" in="SourceAlpha" result="shadowSpreadOuter1"></feMorphology>
            <feOffset dx="2" dy="2" in="shadowSpreadOuter1" result="shadowOffsetOuter1"></feOffset>
            <feGaussianBlur stdDeviation="2.5" in="shadowOffsetOuter1" result="shadowBlurOuter1"></feGaussianBlur>
            <feComposite in="shadowBlurOuter1" in2="SourceAlpha" operator="out" result="shadowBlurOuter1"></feComposite>
            <feColorMatrix values="0 0 0 0 0   0 0 0 0 0   0 0 0 0 0  0 0 0 0.5 0" type="matrix" in="shadowBlurOuter1"></feColorMatrix>
        </filter>
    </defs>
    <g id="Design" stroke="none" stroke-width="1" fill="none" fill-rule="evenodd">
        <g id="14-01管理员-管理员管理-查看" transform="translate(-238.000000, -548.000000)">
            <g id="商品管理占位icon" transform="translate(242.000000, 552.000000)">
                <mask id="mask-2" fill="white">
                    <use xlink:href="#path-1"></use>
                </mask>
                <g id="Mask" fill-rule="nonzero">
                    <use fill="black" fill-opacity="1" filter="url(#filter-3)" xlink:href="#path-1"></use>
                    <rect stroke="#3E495E" stroke-width="1.20000005" fill="#2A3040" fill-rule="evenodd" x="-0.600000024" y="-0.126066375" width="201.2" height="200.252133" rx="8"></rect>
                </g>
                <path d="M79.7241897,62.2215528 L95.2317128,68.3829483 C97.1553152,69.1472274 98.4166667,70.9977865 98.4166667,73.0556709 L98.4166667,97.3858954 C98.4166667,98.7756305 97.2824547,99.9022335 95.8833333,99.9022335 C95.5610441,99.9022335 95.241715,99.8411489 94.942477,99.7222567 L79.4349539,93.5608612 C77.5113515,92.7965821 76.25,90.946023 76.25,88.8881386 L76.25,64.5579141 C76.25,63.168179 77.384212,62.041576 78.7833333,62.041576 C79.1056226,62.041576 79.4249517,62.1026606 79.7241897,62.2215528 Z M120.334594,62.7303532 C120.616861,62.6262146 120.915558,62.572894 121.216667,62.572894 C122.615788,62.572894 123.75,63.699497 123.75,65.0892322 L123.75,89.4251746 C123.75,91.5287926 122.432782,93.4104811 120.447478,94.1429325 L104.998739,99.8425408 C104.716472,99.9466794 104.417775,100 104.116667,100 C102.717545,100 101.583333,98.873397 101.583333,97.4836619 L101.583333,73.1477194 C101.583333,71.0441015 102.900552,69.1624129 104.885855,68.4299615 L120.334594,62.7303532 Z M102.654699,55.4037556 L119.95,60.7927245 L103.066418,66.3653146 C101.169087,66.991547 99.1143673,66.9624556 97.235777,66.2827625 L80.3232564,60.16364 L97.5964537,55.3299909 C99.253973,54.8661586 101.011603,54.8917902 102.654699,55.4037556 Z M53.4741897,104.721553 L68.9817128,112.132948 C70.9053152,112.897227 72.1666667,114.747787 72.1666667,116.805671 L72.1666667,142.385895 C72.1666667,143.775631 71.0324547,144.902233 69.6333333,144.902233 C69.3110441,144.902233 68.991715,144.841149 68.692477,144.722257 L53.1849539,136.060861 C51.2613515,135.296582 50,133.446023 50,131.388139 L50,107.057914 C50,105.668179 51.134212,104.541576 52.5333333,104.541576 C52.8556226,104.541576 53.1749517,104.602661 53.4741897,104.721553 Z M94.0845941,105.230353 C94.3668609,105.126215 94.6655581,105.072894 94.9666667,105.072894 C96.365788,105.072894 97.5,106.199497 97.5,107.589232 L97.5,131.925175 C97.5,134.028793 96.1827817,135.910481 94.1974784,136.642933 L78.7487392,144.842541 C78.4664724,144.946679 78.1677752,145 77.8666667,145 C76.4675453,145 75.3333333,143.873397 75.3333333,142.483662 L75.3333333,116.897719 C75.3333333,114.794101 76.6505516,112.912413 78.6358549,112.179961 L94.0845941,105.230353 Z M76.4046992,95.4037556 L94.95,103.292725 L76.8164176,111.365315 C74.9190869,111.991547 72.8643673,111.962456 70.985777,111.282762 L52.8232564,102.66364 L71.3464537,95.3299909 C73.003973,94.8661586 74.7616029,94.8917902 76.4046992,95.4037556 Z M105.97419,104.721553 L121.481713,112.132948 C123.405315,112.897227 124.666667,114.747787 124.666667,116.805671 L124.666667,142.385895 C124.666667,143.775631 123.532455,144.902233 122.133333,144.902233 C121.811044,144.902233 121.491715,144.841149 121.192477,144.722257 L105.684954,136.060861 C103.761351,135.296582 102.5,133.446023 102.5,131.388139 L102.5,107.057914 C102.5,105.668179 103.634212,104.541576 105.033333,104.541576 C105.355623,104.541576 105.674952,104.602661 105.97419,104.721553 Z M146.584594,105.230353 C146.866861,105.126215 147.165558,105.072894 147.466667,105.072894 C148.865788,105.072894 150,106.199497 150,107.589232 L150,131.925175 C150,134.028793 148.682782,135.910481 146.697478,136.642933 L131.248739,144.842541 C130.966472,144.946679 130.667775,145 130.366667,145 C128.967545,145 127.833333,143.873397 127.833333,142.483662 L127.833333,116.897719 C127.833333,114.794101 129.150552,112.912413 131.135855,112.179961 L146.584594,105.230353 Z M128.904699,95.4037556 L147.45,103.292725 L129.316418,111.365315 C127.419087,111.991547 125.364367,111.962456 123.485777,111.282762 L105.323256,102.66364 L123.846454,95.3299909 C125.503973,94.8661586 127.261603,94.8917902 128.904699,95.4037556 Z" id="商品管理" fill="#3E495E" fill-rule="nonzero" mask="url(#mask-2)"></path>
            </g>
        </g>
    </g>
</svg>