<?xml version="1.0" encoding="UTF-8"?>
<svg width="54px" height="59px" viewBox="0 0 54 59" version="1.1" xmlns="http://www.w3.org/2000/svg" xmlns:xlink="http://www.w3.org/1999/xlink">
    <!-- Generator: Sketch 52.2 (67145) - http://www.bohemiancoding.com/sketch -->
    <title>上传icon</title>
    <desc>Created with Sketch.</desc>
    <g id="Design" stroke="none" stroke-width="1" fill-rule="evenodd">
        <g id="UI-库" transform="translate(-793.000000, -5191.000000)" fill-rule="nonzero">
            <path d="M834.905284,5220.08699 L834.905284,5248.0058 C834.905284,5249.10717 834.015507,5250 832.917912,5250 L807.082088,5250 C805.984493,5250 805.094716,5249.10717 805.094716,5248.0058 L805.094716,5220.08699 L794.987371,5220.08699 C794.460288,5220.08699 793.954792,5219.87688 793.582088,5219.5029 C792.805971,5218.72412 792.805971,5217.46146 793.582088,5216.68267 L818.594716,5191.58409 C819.370833,5190.8053 820.629167,5190.8053 821.405284,5191.58409 L846.417912,5216.68267 C846.790617,5217.05666 847,5217.56389 847,5218.09279 C847,5219.19415 846.110224,5220.08699 845.012629,5220.08699 L834.905284,5220.08699 Z" id="上传icon"></path>
        </g>
    </g>
</svg>
