<?xml version="1.0" encoding="UTF-8"?>
<svg width="15px" height="19px" viewBox="0 0 15 19" version="1.1" xmlns="http://www.w3.org/2000/svg" xmlns:xlink="http://www.w3.org/1999/xlink">
    <!-- Generator: Sketch 54.1 (76490) - https://sketchapp.com -->
    <title>导入icon</title>
    <desc>Created with Sketch.</desc>
    <g id="Design" stroke="none" stroke-width="1" fill="none" fill-rule="evenodd">
        <g id="11-01用户管理-2.3" transform="translate(-1233.000000, -312.000000)" fill="#A3D0FD">
            <g id="导入btn-" transform="translate(1210.000000, 301.000000)">
                <path d="M37.4210303,29.4478056 C37.4210339,29.4486263 37.4210357,29.4494473 37.4210357,29.4502688 C37.4210357,29.753877 37.1749127,30 36.8713046,30 L23.5497312,30 C23.246123,30 23,29.753877 23,29.4502688 C23,29.4494473 23.0000018,29.4486263 23.0000054,29.4478056 C23.0000018,29.4469873 23,29.4461663 23,29.4453448 L23,11.8637958 C23.0000072,11.8621561 23,11.8605148 23,11.8588718 C23,11.5552636 23.246123,11.3091406 23.5497312,11.3091406 L30.2154419,11.3091406 C30.5190501,11.3091406 30.7651731,11.5552636 30.7651731,11.8588718 C30.7651731,12.1624799 30.5190501,12.4086029 30.2154419,12.4086029 L24.1093104,12.4086029 L24.1093104,28.9005377 L36.3117253,28.9005377 L36.3117253,18.4605697 C36.3117253,18.1542421 36.5600529,17.9059145 36.8663805,17.9059145 C37.1727081,17.9059145 37.4210357,18.1542421 37.4210357,18.4605697 L37.4210357,29.4453448 C37.4210357,29.4461663 37.421034,29.4469873 37.4210304,29.447808 Z M29.9507802,17.9265502 L36.630599,11.2467314 C36.8672804,11.01005 37.2510168,11.01005 37.4876981,11.2467314 C37.7243795,11.4834128 37.7243795,11.8671491 37.4876981,12.1038305 L30.8007922,18.7907365 L32.9826264,18.7907365 C33.3173445,18.7907365 33.588687,19.0620791 33.588687,19.3967971 C33.588687,19.7315151 33.3173445,20.0028577 32.9826264,20.0028577 L29.3462628,20.0028577 C29.0547507,20.0028577 28.8113088,19.7970447 28.7533183,19.5227997 C28.7437221,19.4799724 28.738659,19.4354325 28.738659,19.38971 L28.738659,15.7533463 C28.738659,15.4186283 29.0100015,15.1472857 29.3447196,15.1472857 C29.6794376,15.1472857 29.9507802,15.4186283 29.9507802,15.7533463 L29.9507802,17.9265502 Z" id="导入icon"></path>
            </g>
        </g>
    </g>
</svg>