<?xml version="1.0" encoding="UTF-8"?>
<svg width="6px" height="14px" viewBox="0 0 6 14" version="1.1" xmlns="http://www.w3.org/2000/svg" xmlns:xlink="http://www.w3.org/1999/xlink">
    <!-- Generator: Sketch 53.2 (72643) - https://sketchapp.com -->
    <title>i 信息</title>
    <desc>Created with Sketch.</desc>
    <g id="Design" stroke="none" stroke-width="1" fill-rule="evenodd">
        <g id="17-02-广告管理-新建广告" transform="translate(-642.000000, -470.000000)" fill-rule="nonzero">
            <path d="M644.912,473.408 C644.16,473.408 643.536,472.864 643.536,472.112 C643.536,471.344 644.16,470.8 644.912,470.8 C645.68,470.8 646.304,471.344 646.304,472.112 C646.304,472.864 645.68,473.408 644.912,473.408 Z M646.288,483.408 L647.264,483.504 L647.264,484 L642.592,484 L642.592,483.504 L643.648,483.408 C643.664,482.464 643.68,481.088 643.68,480.192 L643.68,478.912 C643.68,477.888 643.664,477.296 643.632,476.48 L642.432,476.352 L642.432,475.968 L646.096,475.008 L646.32,475.168 L646.256,477.728 L646.256,480.192 C646.256,481.088 646.272,482.48 646.288,483.408 Z" id="i-信息"></path>
        </g>
    </g>
</svg>
