<?xml version="1.0" encoding="UTF-8"?>
<svg width="6px" height="14px" viewBox="0 0 6 14" version="1.1" xmlns="http://www.w3.org/2000/svg" xmlns:xlink="http://www.w3.org/1999/xlink">
    <!-- Generator: Sketch 53.2 (72643) - https://sketchapp.com -->
    <title>i信息</title>
    <desc>Created with Sketch.</desc>
    <g id="Design" stroke="none" stroke-width="1" fill="none" fill-rule="evenodd">
        <g id="17-02-广告管理-新建广告" transform="translate(-511.000000, -470.000000)" fill="#6F7480" fill-rule="nonzero">
            <path d="M513.912,473.408 C513.16,473.408 512.536,472.864 512.536,472.112 C512.536,471.344 513.16,470.8 513.912,470.8 C514.68,470.8 515.304,471.344 515.304,472.112 C515.304,472.864 514.68,473.408 513.912,473.408 Z M515.288,483.408 L516.264,483.504 L516.264,484 L511.592,484 L511.592,483.504 L512.648,483.408 C512.664,482.464 512.68,481.088 512.68,480.192 L512.68,478.912 C512.68,477.888 512.664,477.296 512.632,476.48 L511.432,476.352 L511.432,475.968 L515.096,475.008 L515.32,475.168 L515.256,477.728 L515.256,480.192 C515.256,481.088 515.272,482.48 515.288,483.408 Z" id="i信息"></path>
        </g>
    </g>
</svg>