<?xml version="1.0" encoding="UTF-8"?>
<svg width="19px" height="20px" viewBox="0 0 19 20" version="1.1" xmlns="http://www.w3.org/2000/svg" xmlns:xlink="http://www.w3.org/1999/xlink">
    <!-- Generator: Sketch 54.1 (76490) - https://sketchapp.com -->
    <title>注入</title>
    <desc>Created with Sketch.</desc>
    <g id="Design" stroke="none" stroke-width="1" fill="none" fill-rule="evenodd">
        <g id="06-01直播频道-列表-copy" transform="translate(-1008.000000, -311.000000)" fill-rule="nonzero" stroke="#A3D0FD">
            <g id="添加btn" transform="translate(990.000000, 301.000000)">
                <path d="M31.7539976,29.3239997 L31.7539976,19.3599958 L35.6919907,19.3599958 C35.7891929,19.3599958 35.8679909,19.2811977 35.8679909,19.1839955 C35.8679909,19.1373173 35.8494481,19.0925509 35.8164417,19.0595445 L27.3084465,10.5515493 C27.2397141,10.4828169 27.1282769,10.4828169 27.0595445,10.5515493 L18.5515493,19.0595445 C18.4828169,19.1282769 18.4828169,19.2397141 18.5515493,19.3084465 C18.5845557,19.3414529 18.6293221,19.3599958 18.6760003,19.3599958 L22.6139934,19.3599958 L22.6139934,29.3239997 C22.6139934,29.421202 22.6927914,29.5 22.7899936,29.5 L31.5779973,29.5 C31.6751996,29.5 31.7539976,29.421202 31.7539976,29.3239997 Z" id="注入"></path>
            </g>
        </g>
    </g>
</svg>