<?xml version="1.0" encoding="UTF-8"?>
<svg width="212px" height="212px" viewBox="0 0 212 212" version="1.1" xmlns="http://www.w3.org/2000/svg" xmlns:xlink="http://www.w3.org/1999/xlink">
    <!-- Generator: Sketch 53.2 (72643) - https://sketchapp.com -->
    <title>轮播插播占位icon</title>
    <desc>Created with Sketch.</desc>
    <defs>
        <rect id="path-1" x="0" y="0.473933649" width="200" height="199.052133" rx="8"></rect>
        <filter x="-3.9%" y="-3.9%" width="109.7%" height="109.7%" filterUnits="objectBoundingBox" id="filter-3">
            <feMorphology radius="1.20000005" operator="dilate" in="SourceAlpha" result="shadowSpreadOuter1"></feMorphology>
            <feOffset dx="2" dy="2" in="shadowSpreadOuter1" result="shadowOffsetOuter1"></feOffset>
            <feGaussianBlur stdDeviation="2.5" in="shadowOffsetOuter1" result="shadowBlurOuter1"></feGaussianBlur>
            <feComposite in="shadowBlurOuter1" in2="SourceAlpha" operator="out" result="shadowBlurOuter1"></feComposite>
            <feColorMatrix values="0 0 0 0 0   0 0 0 0 0   0 0 0 0 0  0 0 0 0.5 0" type="matrix" in="shadowBlurOuter1"></feColorMatrix>
        </filter>
    </defs>
    <g id="Design" stroke="none" stroke-width="1" fill="none" fill-rule="evenodd">
        <g id="06-09轮播频道-插播详情" transform="translate(-238.000000, -127.000000)">
            <g id="轮播插播占位icon" transform="translate(242.000000, 131.000000)">
                <mask id="mask-2" fill="white">
                    <use xlink:href="#path-1"></use>
                </mask>
                <g id="Mask" fill-rule="nonzero">
                    <use fill="black" fill-opacity="1" filter="url(#filter-3)" xlink:href="#path-1"></use>
                    <rect stroke="#3E495E" stroke-width="1.20000005" fill="#2A3040" fill-rule="evenodd" x="-0.600000024" y="-0.126066375" width="201.2" height="200.252133" rx="8"></rect>
                </g>
                <path d="M113.873842,101.251763 L98,101.251763 L98,95.9828847 C98,95.8772135 97.9665209,95.774259 97.904368,95.6887989 C97.7419489,95.4654726 97.4292405,95.4160975 97.2059142,95.5785167 L84.8060061,104.596632 C84.763703,104.627397 84.7264897,104.664611 84.6957239,104.706914 C84.5333047,104.93024 84.5826798,105.242949 84.8060061,105.405368 L97.2059142,114.423483 C97.2913743,114.485636 97.3943287,114.519115 97.5,114.519115 C97.7761424,114.519115 98,114.295257 98,114.019115 L98,108.751763 L113.815657,108.751763 C112.046128,116.52472 105.077298,122.326987 96.75,122.326987 C92.0134117,122.326987 87.7163368,120.449743 84.5655978,117.400373 C81.2872706,114.227519 79.25,109.785688 79.25,104.869174 C79.25,95.2274906 87.0850169,87.4113616 96.75,87.4113616 C105.171724,87.4113616 112.203998,93.3459628 113.873842,101.251763 Z M90.7144661,70.1674978 L74.4193408,53.9116551 C74.4182016,53.9105187 74.4170639,53.9093809 74.4159275,53.9082417 C73.635822,53.1262512 73.6373502,51.8599221 74.4193408,51.0798167 L75.123028,50.3778258 C75.9036844,49.5990514 77.1673834,49.5990514 77.9480398,50.3778258 L96.4413104,68.8265148 L114.934581,50.3778258 C115.715237,49.5990514 116.978936,49.5990514 117.759593,50.3778258 L118.46328,51.0798167 C119.245271,51.8599221 119.246799,53.1262512 118.466693,53.9082417 C118.465557,53.9093809 118.464419,53.9105187 118.46328,53.9116551 L102.168155,70.1674978 L134,70.1674978 C141.731986,70.1674978 148,76.4355113 148,84.1674978 L148,124.751763 C148,132.483749 141.731986,138.751763 134,138.751763 L62,138.751763 C54.2680135,138.751763 48,132.483749 48,124.751763 L48,84.1674978 C48,76.4355113 54.2680135,70.1674978 62,70.1674978 L90.7144661,70.1674978 Z M96.75,129.808907 C110.557119,129.808907 121.75,118.643008 121.75,104.869174 C121.75,91.0953404 110.557119,79.9294418 96.75,79.9294418 C82.9428813,79.9294418 71.75,91.0953404 71.75,104.869174 C71.75,111.892766 74.6603866,118.238239 79.3437111,122.770886 C83.8447669,127.12713 89.9834453,129.808907 96.75,129.808907 Z" id="轮播插播" fill="#3E495E" fill-rule="nonzero" mask="url(#mask-2)"></path>
            </g>
        </g>
    </g>
</svg>