<?xml version="1.0" encoding="UTF-8"?>
<svg width="200px" height="133px" viewBox="0 0 200 133" version="1.1" xmlns="http://www.w3.org/2000/svg" xmlns:xlink="http://www.w3.org/1999/xlink">
    <!-- Generator: Sketch 60.1 (88133) - https://sketch.com -->
    <title>logo</title>
    <desc>Created with Sketch.</desc>
    <g id="Design" stroke="none" stroke-width="1" fill="none" fill-rule="evenodd">
        <g id="03-页面布局-首页推荐（空）" transform="translate(0.000000, -891.000000)" fill="#000000">
            <g id="logo" transform="translate(-2.000000, 884.000000)">
                <path d="M94.7988822,109.044035 L96.1323142,115.044035 L94.7988822,115.044035 C94.016531,115.044035 93.3632885,114.5467 93.2078251,113.883854 L93.2078251,113.883854 L92.1323142,109.044035 L94.7988822,109.044035 Z M82.3332346,96 L81.5490486,99.1666667 L84.737,99.166 L84.7378433,98.5201675 L84.1151825,98.5201675 L84.1151825,97.2780316 L84.7378433,97.2780316 L84.7378433,96.0356197 L87.2287627,96.0356197 L87.2287627,97.2780316 L92.2106016,97.2780316 L92.2106016,96.0356197 L94.7015211,96.0356197 L94.7015211,97.2780316 L95.3241818,97.2780316 L95.3241818,98.5201675 L94.7015211,98.5201675 L94.7015211,104.731399 L84.7378433,104.731399 L84.737,101.39 L82.3119123,110.222148 L84.443,113.006 L85.3332346,109 L88,109 L86.9244096,113.839819 C86.7692308,114.502665 86.1159399,115 85.3332346,115 L85.3332346,115 L84,115 L84.281,113.733 L83.566373,113.733165 C82.5677402,113.733165 81.9318177,113.175383 81.6607726,112.851693 L81.6082772,112.786203 L81.6082772,112.786203 L81.607981,112.785922 L81.3328644,113.787743 C81.1347449,114.486007 80.4642778,115 79.6664692,115 L79.6664692,115 L78.3332346,115 L79.645147,110.222148 C78.3903902,108.583111 77,106.766835 77,106.766835 L77,106.766835 L78.568372,100.433502 L77,100.433502 L77,99.1666667 L78.8822833,99.1666667 L79.3528541,97.2668355 C79.562227,96.4219972 80.6860887,96 82.3332346,96 L82.3332346,96 Z M61,96 L58.120064,103.600169 L58.6000533,103.600169 C59.2631369,103.600169 59.7998934,104.16677 59.7998934,104.866723 L59.7998934,104.866723 L59.7998934,115 L57.3999467,115 L57.3999467,105.5 L55,105.500281 L58.120064,97.2668355 C58.4134944,96.49233 59.4081198,96 61,96 L61,96 Z M67.8093667,96 L67.314105,98.5331083 L73.3809917,98.5331083 C73.3809917,99.5835999 72.2667217,100.433221 70.8898337,100.433221 L70.8898337,100.433221 L66.942865,100.433221 L66.57135,102.333052 L74,102.333052 C74,103.383544 72.886005,104.233165 71.5088421,104.233165 L71.5088421,104.233165 L66.199835,104.233165 L65.5808267,107.399831 L72.7619833,107.399831 L72.7619833,108.666667 L70.544718,113.202855 L72.7617083,113.543266 C73.4876888,113.654673 74,114.194548 74,115 L74,115 L61.6187333,113.099887 L61.6187333,111.833333 L68.24138,112.849502 L70.285675,108.666667 L62.85675,108.666667 L63.7238017,104.233165 L61,104.233165 L61,102.333052 L64.0950417,102.333052 L64.4665567,100.433221 L61.6187333,100.433221 L61.6187333,98.5331083 L64.8380717,98.5331083 C65.122689,97.0774994 66.1671109,96 67.8093667,96 L67.8093667,96 Z M30,97 C30,98.105419 28.8255368,99 27.3739107,99 L27.3739107,99 L23.1566672,98.9997782 C23.3116256,99.2839019 23.4,99.6120137 23.4,99.9616278 L23.4,99.9616278 L23.4,102.577035 L31,102.577035 C31,103.660955 29.8603095,104.538372 28.4516621,104.538372 L28.4516621,104.538372 L23.4,104.538372 L23.4,105.192442 L31,115 L28.4665729,115 C27.6366329,115 26.8964389,114.60355 26.4133857,113.984624 L26.4133857,113.984624 L21.5001407,107.644041 L16.5866143,113.984624 C16.1032798,114.60355 15.3633671,115 14.5334271,115 L14.5334271,115 L12,115 L19.6,105.192442 L19.6,104.538372 L12,104.538372 C12,103.454452 13.1396905,102.577035 14.5483379,102.577035 L14.5483379,102.577035 L19.6,102.577035 L19.6,99 L13,99 C13,97.9406401 14.0786303,97.0749145 15.4461445,97.0046098 L15.6260893,97 Z M40,97 L39.4000533,105.069051 L40,105.069051 L40,115 L37.5999467,115 C36.2737207,115 35.2001599,114.167343 35.2001599,113.137826 L35.2001599,113.137826 L38.2001599,113.137826 L38.2001599,106.310592 L34,106.310592 L34.6002132,101.34498 L36.4000533,101.34498 L35.9501599,105.069051 L37.5999467,105.069051 L38.0287846,98.8621735 L34.0341151,98.8621735 C34.0341151,97.8329325 35.113806,97 36.4482942,97 L36.4482942,97 L40,97 Z M46.4997113,96 C47.2186612,96 47.7998845,96.5666015 47.7998845,97.2668355 L47.7998845,97.2668355 L47.7998845,99.7000711 L52.349769,98.5333896 L52.349769,110.566498 C50.9127354,110.566498 49.75,109.433576 49.75,108.033108 L49.75,108.033108 L49.75,100.466699 L47.7998845,100.966625 L47.7998845,109.933221 L45.1998268,109.933221 L45.1998268,101.633381 L43.2497113,102.133307 L43.2497113,113.099887 L51.0498845,113.099887 C52.1277319,113.099887 53,113.94979 53,115 L53,115 L40.650231,115 L40.650231,102.800062 L40,102.966892 L40,101.700056 L40.650231,101.533508 L40.650231,97.2668355 L43.2497113,97.2668355 L43.2497113,100.866753 L45.1998268,100.366545 L45.1998268,96 Z M90.9650313,105.254118 L90.9650313,106.528104 L95.3242095,106.528104 C95.3242095,107.232163 94.7671065,107.802089 94.0786114,107.802089 L94.0786114,107.802089 L90.9650313,107.802089 L90.9650313,114.809859 L88.4741118,114.809859 L88.4741118,107.802089 L84.1152102,107.802089 L84.1152102,106.528104 L88.4741118,106.528104 L88.4741118,105.254118 L90.9650313,105.254118 Z M38,107 L38,109.666568 L34,111 L34,108.333432 L38,107 Z M82.3332346,100.433502 L81.2351373,100.433502 L79.6664692,106.766835 L80.3493744,107.658656 L82.3332346,100.433502 Z M92.2106016,98.5201675 L87.2287627,98.5201675 L87.2287627,100.383647 L90.9650036,100.383647 L90.9650036,101.625783 L87.2287627,101.625783 L87.2287627,103.489263 L92.2106016,103.489263 L92.2106016,98.5201675 Z" id="logo-font"></path>
                <g id="ENGLISH-NAME" transform="translate(12.000000, 120.000000)">
                    <polygon id="Fill-31" points="115.576007 10.1224568 117.568079 10.1224568 117.568079 0 115.576007 0"></polygon>
                    <polygon id="Fill-33" points="83.692548 0.000674440777 79.7070769 8.09846004 75.7216058 0.000674440777 73.7290915 0.000674440777 73.7290915 10.1226816 75.7216058 10.1226816 75.7216058 4.04911761 78.7108198 10.1226816 80.703334 10.1226816 83.692548 4.04911761 83.692548 10.1226816 85.6850623 10.1226816 85.6850623 0.000674440777"></polygon>
                    <path d="M97.6412987,8.09792049 L89.6725693,8.09792049 L89.6725693,6.0736989 L97.6412987,6.0736989 L97.6412987,4.04902769 L89.6725693,4.04902769 L89.6725693,2.0248061 L97.6412987,2.0248061 C98.7451038,2.0248061 99.6386814,1.11925695 99.6386814,0.000134888156 L87.682268,0.000134888156 L87.682268,10.1221421 L99.6293871,10.1225917 C99.6293871,9.00346964 98.7402354,8.09792049 97.6412987,8.09792049" id="Fill-34"></path>
                    <polygon id="Fill-38" points="65.7587246 10.1224568 67.7507963 10.1224568 67.7507963 0 65.7587246 0"></polygon>
                    <polygon id="Fill-39" points="61.7729437 0.000674440777 61.7729437 4.55539782 57.7874725 4.55539782 57.7874725 0.000674440777 55.7949583 0.000674440777 55.7949583 10.1226816 57.7874725 10.1226816 57.7874725 5.56750862 61.7729437 5.56750862 61.7729437 10.1226816 63.7654579 10.1226816 63.7654579 0.000674440777"></polygon>
                    <path d="M51.8096199,8.09792049 L47.8241488,8.09792049 C46.7229992,8.09792049 45.8316345,7.19237134 45.8316345,6.0736989 L45.8311919,6.0736989 L45.8311919,4.04947732 C45.8311919,2.93035525 46.7225566,2.0248061 47.8241488,2.0248061 L51.8096199,2.0248061 C52.9107695,2.0248061 53.8021342,1.11925695 53.8021342,0.000584515339 L47.8241488,0.000584515339 C45.621407,0.000584515339 43.8386776,1.81168282 43.8386776,4.04947732 L43.8032709,6.0736989 C43.8032709,8.33172663 45.6019333,10.1225917 47.8241488,10.1225917 L53.8021342,10.1225917 C53.8021342,9.00346964 52.9107695,8.09792049 51.8096199,8.09792049" id="Fill-40"></path>
                    <polygon id="Fill-41" points="11.9559708 10.1224568 13.9484851 10.1224568 13.9484851 0.000449627186 11.9559708 0.000449627186"></polygon>
                    <polygon id="Fill-42" points="35.8679124 0.000224813592 35.8679124 7.5917302 29.889927 0.000224813592 27.8969702 0.000224813592 27.8969702 10.122232 29.889927 10.122232 29.889927 2.53072661 35.8679124 10.122232 37.8608693 10.122232 37.8608693 0.000224813592"></polygon>
                    <path d="M19.1292435,7.0858097 L20.9225948,2.53063669 L22.7159462,7.0858097 L19.1292435,7.0858097 Z M18.7309177,8.09792049 L23.1147146,8.09792049 L23.5546434,9.21524404 L23.5546434,9.21434479 C23.778591,9.74670338 24.2972997,10.1198939 24.9023124,10.1221421 L24.9014272,10.1225917 L25.9043231,10.1225917 L21.918852,0.000134888156 L19.9263377,0.000134888156 L15.9413092,10.1221421 L16.9433199,10.1221421 C17.5483326,10.1198939 18.0670413,9.74670338 18.2909889,9.21434479 L18.7309177,8.09792049 Z" id="Fill-43"></path>
                    <path d="M111.590049,6.06448155 L111.580755,6.06448155 C111.580755,7.18854951 110.68585,8.09769568 109.579832,8.09769568 L103.610698,8.09769568 L103.610698,2.02503092 L109.579832,2.02503092 C110.691161,2.02503092 111.590049,2.93822373 111.590049,4.06723759 L111.590049,6.06448155 Z M109.579832,0.000359701748 L103.610698,0.000359701748 L103.601404,0.000359701748 L101.608889,0.000359701748 L101.608889,10.1223669 L103.601404,10.1223669 L103.610698,10.1223669 L109.579832,10.1223669 C111.79231,10.1223669 113.582564,8.3031753 113.582564,6.055489 L113.582564,4.06723759 C113.582564,1.81955129 111.79231,0.000359701748 109.579832,0.000359701748 L109.579832,0.000359701748 Z" id="Fill-44"></path>
                    <path d="M123.041917,7.12708547 L125.538977,2.03325909 L128.035595,7.12708547 L123.041917,7.12708547 Z M130.520705,10.1225018 L130.520705,10.1225018 L131.51652,10.1225018 L126.535234,0.000494589905 L126.535677,4.49627205e-05 L126.534792,4.49627205e-05 L124.543162,4.49627205e-05 L124.542277,4.49627205e-05 L124.54272,0.000494589905 L119.560992,10.1225018 L120.556806,10.1225018 C121.185718,10.1225018 121.73054,9.75920301 122.000516,9.22864293 L122.54578,8.13919626 L128.531732,8.13919626 L129.075668,9.22594517 C129.344759,9.75830376 129.89135,10.1225018 130.520705,10.1225018 L130.520705,10.1225018 Z" id="Fill-45"></path>
                    <path d="M1.99251427,0.000224813592 C0.890922086,0.000224813592 0,0.905773964 0,2.02489603 L3.98547113,2.02489603 L3.98547113,10.122232 L5.97754282,10.122232 L5.97754282,2.02489603 L7.97049968,2.02489603 C9.07164928,2.02489603 9.96301395,1.11934688 9.96301395,0.000224813592 L1.99251427,0.000224813592 Z" id="Fill-46"></path>
                </g>
                <g id="Group" transform="translate(0.000000, 7.000000)" opacity="0.5" stroke="#000000" stroke-width="0.3">
                    <g id="logo-图形">
                        <g transform="translate(0.000000, 0.166618)">
                            <path d="M83.7199627,128.570058 C85.1030597,128.73361 86.0326646,128.822427 86.9601152,128.890665 C87.170165,128.906912 87.3791376,128.925325 87.5891874,128.938322 C88.6114296,129.00331 89.6325947,129.032555 90.6548369,129.039054 C91.247285,129.052051 91.4250194,129.043386 91.6027539,129.042303 C91.856968,129.039054 92.111182,129.031472 92.3675505,129.024973 C118.146583,128.44983 143.836209,110.830527 171.006956,92.1811664 C182.869921,84.0403489 195.045267,75.6839882 207.641791,68.4605832 C197.144688,77.0270714 186.362133,86.8001684 175.107774,97.0011023 C159.157994,111.456577 142.962617,126.125429 126.923432,137.888239 C108.543538,150.407075 90.341378,158.944319 72.9535652,159.13495 C40.2978265,159.4913 12.0746767,134.995195 2.45116534,85.0617421 C0.59195552,73.2350275 -0.210542347,60.3468439 0.0469032776,46.5087539 C13.3091231,41.2891424 26.2331088,36.9544495 38.7779278,33.4429367 C33.0193324,92.622001 47.7605181,123.786948 83.7199627,128.570058 Z M87.5810933,1.46767785 C119.348964,1.46767785 147.432463,7.21465829 171.057239,18.5472778 C188.221172,26.7810669 202.578479,37.9039426 213.164179,51.0844588 C202.597865,41.8589579 189.665411,34.3275417 174.571445,28.6246612 C153.829763,20.7877719 129.959434,16.8144712 103.612037,16.8133956 C84.4610634,16.8133956 64.100634,18.9538581 43.0746269,23.1777758 C43.8834437,17.2425637 44.8871951,10.9846688 46.0643413,4.54069359 C60.3376432,2.50133837 74.298619,1.46875346 87.5810933,1.46767785 Z M39.8324896,61.5115382 C39.5819592,52.6870966 39.9923107,42.9562201 41.0538251,32.3590742 C108.337427,11.4383411 163.247852,19.3324658 199.617951,42.3939049 C207.291523,47.4319456 214.085,53.1224024 219.791045,59.3393512 C219.271626,59.6563321 218.752208,59.9765695 218.236029,60.2989781 C201.48181,68.7076538 185.552614,79.6380637 170.147156,90.2069853 C169.007891,90.9896674 167.871866,91.7690928 166.73692,92.5452615 C140.348081,109.130305 115.810143,122.394649 89.6847932,118.875294 C62.7786956,115.251725 42.9846367,101.159106 39.8324896,61.5115382 Z M76.3968796,163.244881 C76.7048475,163.212511 77.0138921,163.175825 77.32186,163.139139 C77.8667263,163.07224 78.4105157,162.999946 78.9553819,162.91902 C79.2644266,162.872623 79.5723945,162.827305 79.8814392,162.775512 C80.4596866,162.680559 81.0390108,162.573737 81.6183349,162.46152 C81.885384,162.409728 82.1524331,162.36333 82.4184053,162.307222 C83.2615482,162.133501 84.1057678,161.945753 84.9510642,161.736425 C85.8006679,161.527098 86.648118,161.297268 87.4966449,161.053412 C87.7658476,160.976802 88.0350503,160.89264 88.3042529,160.812793 C88.8921916,160.636914 89.4812071,160.45672 90.0702226,160.266814 C90.3792673,160.166466 90.6893888,160.061802 90.9984335,159.958217 C91.5605287,159.76939 92.1226239,159.57301 92.6857959,159.370157 C92.992687,159.259018 93.2995781,159.148959 93.6075459,159.033505 C94.2084063,158.809071 94.8092667,158.574926 95.4122808,158.336465 C95.6717922,158.23288 95.9313036,158.133611 96.1918918,158.027868 C97.914789,157.325433 99.6441471,156.563651 101.376736,155.744683 C101.634093,155.623834 101.891451,155.496511 102.148809,155.373503 C102.763668,155.076776 103.378527,154.775732 103.995539,154.466056 C104.293816,154.316074 104.592092,154.161775 104.892523,154.009635 C105.481538,153.707512 106.069477,153.398915 106.659569,153.084923 C106.954615,152.928467 107.247508,152.77201 107.543631,152.612317 C108.176796,152.269192 108.811037,151.915276 109.446355,151.558124 C109.685407,151.424327 109.924459,151.293767 110.162435,151.156732 C111.920867,150.15649 113.683606,149.104455 115.446345,148.007102 C115.680013,147.863594 115.913681,147.713611 116.148426,147.566866 C116.796666,147.157921 117.447059,146.745739 118.097453,146.326004 C118.378501,146.144731 118.659548,145.961299 118.940596,145.777867 C119.561916,145.37216 120.183235,144.961057 120.805632,144.54348 C121.075912,144.363285 121.346191,144.182012 121.616471,143.999659 C122.301322,143.537843 122.98402,143.068473 123.668872,142.594788 C123.865928,142.458833 124.060831,142.325035 124.257887,142.188001 C126.051854,140.936349 127.847974,139.645853 129.645172,138.320829 C129.832537,138.182716 130.020979,138.041366 130.207267,137.902173 C130.914732,137.378853 131.620043,136.851218 132.32643,136.316029 C132.567636,136.134755 132.807765,135.952402 133.047894,135.76897 C133.723054,135.255362 134.398214,134.738516 135.072298,134.216275 C135.298428,134.041475 135.525635,133.866676 135.751765,133.690797 C136.503379,133.105974 137.254993,132.515755 138.007684,131.921221 C140.246374,130.147328 142.081259,128.66369 143.916145,127.154155 C145.023106,126.241312 145.82533,125.575563 146.627554,124.905498 C146.793383,124.767384 146.959212,124.628192 147.123964,124.490079 C147.89173,123.848068 148.658419,123.201741 149.425108,122.553256 C150.73128,121.445113 151.611034,120.695201 152.490789,119.939894 C175.491466,100.187536 198.196021,77.8282907 219.292898,62.133011 C220.189881,61.5751628 221.092249,61.0248677 222,60.4842837 C221.281767,59.6825793 220.545229,58.8884279 219.791461,58.1018296 C198.106646,25.0895182 153.312395,0.361845684 87.9015257,0.365082714 C74.6093737,0.365082714 60.4525427,1.38798421 45.4805659,3.56866345 C44.1991611,10.5423052 43.1460401,17.1641896 42.2975133,23.4731612 C40.3915582,23.8637628 37.3732577,24.5974896 33.7185619,25.5275963 C32.8043496,25.7595834 31.8502953,26.0045187 30.8671671,26.258086 C28.8998338,26.7662998 26.8118977,27.3122788 24.6830429,27.872285 C20.9572776,28.8552631 17.1044487,29.8824807 13.5445124,30.8384836 C11.0021622,31.5193389 8.60948866,32.1645869 6.51939898,32.7278301 C5.68379383,32.9533432 4.89556835,33.1669872 4.16656747,33.363367 C2.7085657,33.7582847 1.48423187,34.0873827 0.571096343,34.333397 C0.434341376,36.5000491 0.329890733,38.6300149 0.241592251,40.7405585 C0.235131386,40.9142791 0.225440089,41.0890787 0.220056035,41.2638783 C0.133911175,43.4111082 0.0746865829,45.5302839 0.0391518279,47.6203263 C-0.010381467,50.5066781 -0.0125350886,53.3315263 0.0305373418,56.1045821 C0.0682257184,58.4859572 0.136064796,60.7497202 0.232977765,62.9778759 C0.337428408,65.3214856 0.466645699,67.5097179 0.624936881,69.6591059 C1.76312585,84.9821271 4.379776,98.3478241 8.203531,109.85115 C8.75485811,111.510667 9.31695333,113.08818 9.90166157,114.630085 C10.5305191,116.283129 11.1313795,117.771083 11.7559297,119.222352 C12.4450886,120.819287 13.0900982,122.23279 13.7566441,123.608528 C14.4921058,125.116984 15.1866488,126.467904 15.9016511,127.781059 C18.8445749,133.169635 22.0965434,137.907568 25.6370972,142.044493 C26.5330037,143.091132 27.4062973,144.050372 28.2935893,144.978321 C29.3090219,146.034672 30.1898531,146.89788 31.083606,147.729796 C32.1948747,148.755935 33.0897045,149.533901 33.9963791,150.282734 C35.1776405,151.245211 36.0940065,151.950884 37.0211405,152.624186 C38.2508584,153.503579 39.1941447,154.142353 40.1503526,154.746599 C41.4005299,155.526723 42.3815045,156.103993 43.3754008,156.646735 C44.6169636,157.314642 45.6474715,157.836883 46.6898243,158.32028 C48.9242067,159.349655 51.1069021,160.192362 53.3294395,160.896956 C54.5882313,161.294031 55.6531971,161.586443 56.7246238,161.852959 C58.1158633,162.193926 59.1689842,162.412965 60.2274892,162.606108 C61.7070272,162.867228 62.7569177,163.01721 63.8121922,163.141297 C65.3520316,163.31178 66.408383,163.397022 67.4701184,163.454209 C68.8839709,163.520029 69.7971064,163.549162 70.7134724,163.549162 C70.9385258,163.549162 71.1646561,163.549162 71.3897095,163.544846 C72.217777,163.535135 73.0479981,163.501686 73.8803728,163.45313 C74.1463451,163.438024 74.414471,163.413207 74.68152,163.393785 C75.2522297,163.351703 75.8240162,163.304227 76.3968796,163.244881 Z" id="Fill-3" opacity="0.3"></path>
                        </g>
                    </g>
                </g>
            </g>
        </g>
    </g>
</svg>