<?xml version="1.0" encoding="UTF-8"?>
<svg width="20px" height="20px" viewBox="0 0 20 20" version="1.1" xmlns="http://www.w3.org/2000/svg" xmlns:xlink="http://www.w3.org/1999/xlink">
    <!-- Generator: Sketch 52.2 (67145) - http://www.bohemiancoding.com/sketch -->
    <title>节目管理 copy</title>
    <desc>Created with Sketch.</desc>
    <g id="Design" stroke="none" stroke-width="1" fill="none" fill-rule="evenodd">
        <g id="05-04专题管理-添加节目专题" transform="translate(-370.000000, -556.000000)" fill="#A3D0FD">
            <g id="新建btn-copy" transform="translate(350.000000, 549.000000)">
                <g id="节目管理-copy" transform="translate(20.000000, 7.000000)">
                    <path d="M17,3.41056692 L18.1259844,3.08966801 C18.2151283,3.06426251 18.3073716,3.05137469 18.4000651,3.05137469 C18.9523499,3.05137469 19.4000651,3.49908994 19.4000651,4.05137469 L19.4000651,15.9110649 C19.4000651,16.0014837 19.387802,16.0914848 19.3636112,16.1786074 C19.2158515,16.7107592 18.6646744,17.0223706 18.1325226,16.874611 L17,16.5601497 L17,3.41056692 Z" id="Path"></path>
                    <path d="M13.25,17.2601244 L13.25,2.48987556 L14.7401932,2.08894555 C15.2735128,1.94545822 15.8221733,2.26147974 15.9656606,2.79479937 C15.9884544,2.87952032 16,2.9668725 16,3.05460617 L16,16.6953938 C16,17.2476786 15.5522847,17.6953938 15,17.6953938 C14.9122663,17.6953938 14.8249141,17.6838483 14.7401932,17.6610545 L13.25,17.2601244 Z" id="Path"></path>
                    <path d="M9.5,18.2768639 L9.5,1.72312465 L10.9956907,1.32982616 C11.529818,1.18937504 12.0766718,1.5085126 12.217123,2.04263986 C12.2389502,2.12564744 12.25,2.21111972 12.25,2.29694911 L12.25,17.7030457 C12.25,18.2553304 11.8022847,18.7030457 11.25,18.7030457 C11.1641693,18.7030457 11.0786957,18.6919955 10.995687,18.6701676 L9.5,18.2768639 Z" id="Path"></path>
                    <path d="M6.79273784,0.498813475 C6.91420992,0.463322786 7.04011606,0.445306306 7.16666667,0.445306306 C7.90304633,0.445306306 8.5,1.04225997 8.5,1.77863964 L8.5,18.2213532 C8.5,18.3479056 8.48198303,18.4738134 8.44649139,18.595287 C8.23997349,19.3021147 7.4995606,19.7076959 6.79273292,19.501178 L0.959399585,17.7968194 C0.390810947,17.6306916 8.85795515e-17,17.1093556 -1.03620816e-15,16.5169947 L2.96059473e-16,3.48297383 C2.23515947e-16,2.89061099 0.390813408,2.36927382 0.959404506,2.20314767 L6.79273784,0.498813475 Z" id="Fill-4"></path>
                </g>
            </g>
        </g>
    </g>
</svg>