<?xml version="1.0" encoding="UTF-8"?>
<svg width="275px" height="125px" viewBox="0 0 275 125" version="1.1" xmlns="http://www.w3.org/2000/svg" xmlns:xlink="http://www.w3.org/1999/xlink">
    <!-- Generator: Sketch 52.2 (67145) - http://www.bohemiancoding.com/sketch -->
    <title>login_footer_info</title>
    <desc>Created with Sketch.</desc>
    <defs>
        <polygon id="path-1" points="0.158777098 0.0566162376 5.14061601 0.0566162376 5.14061601 8.33825848 0.158777098 8.33825848"></polygon>
        <polygon id="path-3" points="0.153576733 0.0474928933 15.0987615 0.0474928933 15.0987615 11.6418656 0.153576733 11.6418656"></polygon>
        <polygon id="path-5" points="0.153613615 0.330353355 15.0987615 0.330353355 15.0987615 12.7528167 0.153613615 12.7528167"></polygon>
        <polygon id="path-7" points="0 37.1555556 159.676282 37.1555556 159.676282 0.0735753575 0 0.0735753575"></polygon>
        <linearGradient x1="88.7999149%" y1="0%" x2="13.6449493%" y2="87.9512981%" id="linearGradient-9">
            <stop stop-color="#FFFFFF" stop-opacity="0" offset="0%"></stop>
            <stop stop-color="#FFFFFF" stop-opacity="0.3" offset="100%"></stop>
        </linearGradient>
    </defs>
    <g id="Design" stroke="none" stroke-width="1" fill="none" fill-rule="evenodd" opacity="0.4">
        <g id="00-登陆" transform="translate(-1145.000000, -880.000000)">
            <g id="login_footer" transform="translate(1145.000000, 879.000000)">
                <g id="logo-copy">
                    <g id="login_footer_info">
                        <g id="login_logo_words" transform="translate(32.000000, 0.000000)">
                            <g id="文字" stroke-width="1">
                                <path d="M144.731244,27.0998643 L146.391673,27.0998643 C147.366465,27.0998643 148.180082,26.4134062 148.373344,25.4984966 L149.712899,18.818222 L146.391673,18.818222 L144.731244,27.0998643 Z" id="Fill-2" fill="#FEFEFE"></path>
                                <g id="Group-6" transform="translate(154.535666, 18.761716)">
                                    <mask id="mask-2" fill="white">
                                        <use xlink:href="#path-1"></use>
                                    </mask>
                                    <g id="Clip-5"></g>
                                    <path d="M0.158777098,0.0566162376 L1.49833208,6.73689083 C1.69196269,7.6518004 2.50558006,8.33825848 3.48000304,8.33825848 L5.14080042,8.33825848 L3.48000304,0.0566162376 L0.158777098,0.0566162376 Z" id="Fill-4" fill="#FEFEFE" mask="url(#mask-2)"></path>
                                </g>
                                <g id="Group-9" transform="translate(144.577520, 2.207261)">
                                    <mask id="mask-4" fill="white">
                                        <use xlink:href="#path-3"></use>
                                    </mask>
                                    <g id="Clip-8"></g>
                                    <path d="M10.9474688,9.98568431 L4.30501696,9.98568431 L4.30501696,7.50104449 L9.28667146,7.50104449 L9.28667146,5.84486319 L4.30501696,5.84486319 L4.30501696,3.36022337 L10.9474688,3.36022337 L10.9474688,9.98568431 Z M14.2686948,1.70404207 L14.2686948,0.0474928933 L10.9474688,0.0474928933 L10.9474688,1.70404207 L4.30501696,1.70404207 L4.30501696,0.0474928933 L0.983791014,0.0474928933 L0.983791014,1.70404207 L0.153576733,1.70404207 L0.153576733,3.36022337 L0.983791014,3.36022337 L0.983791014,11.6418656 L4.30501696,11.6418656 L10.9474688,11.6418656 L14.2686948,11.6418656 L14.2686948,3.36022337 L15.0989091,3.36022337 L15.0989091,1.70404207 L14.2686948,1.70404207 Z" id="Fill-7" fill="#FEFEFE" mask="url(#mask-4)"></path>
                                </g>
                                <g id="Group-12" transform="translate(144.577520, 14.347195)">
                                    <mask id="mask-6" fill="white">
                                        <use xlink:href="#path-5"></use>
                                    </mask>
                                    <g id="Clip-11"></g>
                                    <path d="M9.28670834,0.330353355 L5.9654824,0.330353355 L5.9654824,1.98653465 L0.153613615,1.98653465 L0.153613615,3.64271595 L5.9654824,3.64271595 L5.9654824,12.7528167 L9.28670834,12.7528167 L9.28670834,3.64271595 L13.4381486,3.64271595 C14.3561421,3.64271595 15.0989459,2.9018121 15.0989459,1.98653465 L9.28670834,1.98653465 L9.28670834,0.330353355 Z" id="Fill-10" fill="#FEFEFE" mask="url(#mask-6)"></path>
                                </g>
                                <path d="M141.383427,20.8520657 L144.731208,8.0521607 L144.731208,6.39561153 L140.433346,6.39561153 L141.409982,2.25479041 C139.358604,2.25479041 137.958931,2.80660559 137.698175,3.91133958 L137.11212,6.39561153 L134.767899,6.39561153 L134.767899,8.0521607 L136.72117,8.0521607 L134.767899,16.3338029 L138.088756,16.3338029 L140.042396,8.0521607 L141.409982,8.0521607 L138.939255,17.4999724 L138.088756,16.3338029 L134.767899,16.3338029 C134.767899,16.3338029 136.499509,18.7088155 138.062201,20.8520657 L136.428327,27.0997171 L138.088756,27.0997171 C139.082357,27.0997171 139.917366,26.4276062 140.164107,25.5145361 L140.506741,24.2045268 C140.506741,24.2045268 140.506741,24.2048947 140.50711,24.2048947 C140.799215,24.6058804 141.613202,25.443168 142.945749,25.443168 L144.731208,25.443168 L141.383427,20.8520657 Z" id="Fill-13" fill="#FEFEFE"></path>
                                <path d="M111.519796,12.192945 L110.855551,12.192945 L114.841022,2.25475362 C112.638059,2.25475362 111.261622,2.898538 110.855551,3.91130279 L106.537773,14.6775849 L109.858999,14.6775849 L109.858999,14.677217 L109.858999,27.0996804 L113.180225,27.0996804 L113.180225,13.8491263 C113.180225,12.9338489 112.437421,12.192945 111.519796,12.192945" id="Fill-15" fill="#FEFEFE"></path>
                                <path d="M129.785728,25.1950719 L126.812299,24.7499409 L129.786097,18.8182956 L129.786097,17.1617464 L120.154726,17.1617464 L120.98494,13.0209253 L128.105383,13.0209253 C129.952434,13.0209253 131.446525,11.9099374 131.446525,10.5362855 L121.483216,10.5362855 L121.981492,8.05201355 L127.275169,8.05201355 C129.121851,8.05201355 130.616311,6.94102565 130.616311,5.56737373 L122.479399,5.56737373 L123.143645,2.25501113 C120.94105,2.25501113 119.540271,3.66397923 119.158542,5.56737373 L114.840764,5.56737373 L114.840764,8.05201355 L118.660266,8.05201355 L118.16199,10.5362855 L114.010919,10.5362855 L114.010919,13.0209253 L117.664083,13.0209253 L116.501193,18.8182956 L126.464871,18.8182956 L123.723061,24.2878877 L114.840764,22.9591167 L114.840764,24.615298 L131.446525,27.0999379 C131.446525,26.0467066 130.759413,25.3407511 129.785728,25.1950719" id="Fill-17" fill="#FEFEFE"></path>
                                <path d="M65.0237397,13.8490895 L71.6462753,13.8490895 C73.4929581,13.8490895 74.9870487,12.7377338 74.9870487,11.3648176 L65.0237397,11.3648176 L65.0237397,8.05208713 C65.0237397,6.67880308 63.9095339,5.5674473 62.5330969,5.5674473 L60.0420852,5.5674473 L60.0420852,11.3648176 L53.4195496,11.3648176 C51.5728668,11.3648176 50.0787762,12.4761734 50.0787762,13.8490895 L60.0420852,13.8490895 L60.0420852,14.6775481 L50.0787762,27.1000114 L53.4000021,27.1000114 C54.4880217,27.1000114 55.4580189,26.5978596 56.091652,25.8139142 L62.5330969,17.782796 L68.9741729,25.8139142 C69.6074372,26.5978596 70.5778032,27.1000114 71.6658228,27.1000114 L74.9870487,27.1000114 L65.0237397,14.6775481 L65.0237397,13.8490895 Z" id="Fill-19" fill="#FEFEFE"></path>
                                <path d="M73.3461676,3.08295463 L55.0604307,3.08295463 C53.2137479,3.08295463 51.7196573,4.19431041 51.7196573,5.56759446 L70.0053942,5.56759446 C71.852077,5.56759446 73.3461676,4.45623868 73.3461676,3.08295463" id="Fill-21" fill="#FEFEFE"></path>
                                <polygon id="Fill-23" fill="#FEFEFE" points="83.2898923 17.1617832 78.3082378 18.8183324 78.3082378 22.1310629 83.2898923 20.4745137"></polygon>
                                <path d="M86.6110813,3.08295463 L81.6961833,3.08295463 C79.8495005,3.08295463 78.3554099,4.19431041 78.3554099,5.56759446 L83.8832871,5.56759446 L83.2898554,13.8492367 L81.0068583,13.8492367 L81.6294268,8.88032493 L79.138784,8.88032493 L78.3082009,15.5057859 L84.1204385,15.5057859 L84.1204385,24.6151509 L79.9689983,24.6151509 C79.9689983,25.9888028 81.4546061,27.0997907 83.2898554,27.0997907 L86.6110813,27.0997907 L86.6110813,24.6151509 L86.6110813,13.8492367 L85.780867,13.8492367 L86.6110813,3.08295463 Z" id="Fill-25" fill="#FEFEFE"></path>
                                <path d="M103.21699,27.0998643 C103.21699,25.7265802 102.102784,24.6152245 100.725978,24.6152245 L90.7623003,24.6152245 L90.7623003,10.2750194 L93.2533119,9.62130235 L93.2533119,20.4744033 L96.5745379,20.4744033 L96.5745379,8.74943437 L99.0655495,8.09571732 L99.0655495,17.9897635 C99.0655495,19.8210542 100.550788,21.302494 102.386407,21.302494 L102.386407,5.56766803 L96.5745379,7.09325307 L96.5745379,3.91148673 C96.5745379,2.99584141 95.8321028,2.25493756 94.9137405,2.25493756 L93.2533119,2.25493756 L93.2533119,7.96475318 L90.7623003,8.61883811 L90.7623003,3.91148673 L87.441812,3.91148673 L87.441812,9.49070609 L86.6112289,9.70848915 L86.6112289,11.3650383 L87.441812,11.1468874 L87.441812,27.0998643 L103.21699,27.0998643 Z" id="Fill-27" fill="#FEFEFE"></path>
                                <polygon id="Fill-29" fill="#FEFEFE" points="78.3083115 5.58239397 78.3625409 5.58239397 78.3083115 5.4671273"></polygon>
                                <mask id="mask-8" fill="white">
                                    <use xlink:href="#path-7"></use>
                                </mask>
                                <g id="Clip-32"></g>
                                <polygon id="Fill-31" fill="#FEFEFE" mask="url(#mask-8)" points="146.392116 37.037835 148.052175 37.037835 148.052175 28.7558249 146.392116 28.7558249"></polygon>
                                <polygon id="Fill-33" fill="#FEFEFE" mask="url(#mask-8)" points="119.822566 28.7563767 116.50134 35.3818376 113.180114 28.7563767 111.519686 28.7563767 111.519686 37.0380189 113.180114 37.0380189 113.180114 32.0687393 115.671126 37.0380189 117.331555 37.0380189 119.822566 32.0687393 119.822566 37.0380189 121.482995 37.0380189 121.482995 28.7563767"></polygon>
                                <path d="M131.446525,35.3813962 L124.805917,35.3813962 L124.805917,33.7252149 L131.446525,33.7252149 L131.446525,32.0686657 L124.805917,32.0686657 L124.805917,30.4124844 L131.446525,30.4124844 C132.366363,30.4124844 133.111011,29.6715806 133.111011,28.7559352 L123.147333,28.7559352 L123.147333,37.0375775 L133.103265,37.0379453 C133.103265,36.1223 132.362306,35.3813962 131.446525,35.3813962" id="Fill-34" fill="#FEFEFE" mask="url(#mask-8)"></path>
                                <polygon id="Fill-35" fill="#00B8EE" mask="url(#mask-8)" points="104.877713 37.037835 106.537773 37.037835 106.537773 28.7558249 104.877713 28.7558249"></polygon>
                                <polygon id="Fill-36" fill="#00B8EE" mask="url(#mask-8)" points="101.556229 28.7563767 101.556229 32.4829685 98.2350033 32.4829685 98.2350033 28.7563767 96.5745747 28.7563767 96.5745747 37.0380189 98.2350033 37.0380189 98.2350033 33.3110592 101.556229 33.3110592 101.556229 37.0380189 103.216658 37.0380189 103.216658 28.7563767"></polygon>
                                <path d="M93.2534594,35.3813962 L89.9322335,35.3813962 C89.0146088,35.3813962 88.2718049,34.6404923 88.2718049,33.7252149 L88.2714361,33.7252149 L88.2714361,32.0690336 C88.2714361,31.1533883 89.01424,30.4124844 89.9322335,30.4124844 L93.2534594,30.4124844 C94.1710841,30.4124844 94.913888,29.6715806 94.913888,28.7563031 L89.9322335,28.7563031 C88.0966153,28.7563031 86.6110076,30.2381108 86.6110076,32.0690336 L86.5815019,33.7252149 C86.5815019,35.5726921 88.0803873,37.0379453 89.9322335,37.0379453 L94.913888,37.0379453 C94.913888,36.1223 94.1710841,35.3813962 93.2534594,35.3813962" id="Fill-37" fill="#00B8EE" mask="url(#mask-8)"></path>
                                <polygon id="Fill-38" fill="#FEFEFE" mask="url(#mask-8)" points="104.877713 37.037835 106.537773 37.037835 106.537773 28.7558249 104.877713 28.7558249"></polygon>
                                <polygon id="Fill-39" fill="#FEFEFE" mask="url(#mask-8)" points="101.556229 28.7563767 101.556229 32.4829685 98.2350033 32.4829685 98.2350033 28.7563767 96.5745747 28.7563767 96.5745747 37.0380189 98.2350033 37.0380189 98.2350033 33.3110592 101.556229 33.3110592 101.556229 37.0380189 103.216658 37.0380189 103.216658 28.7563767"></polygon>
                                <path d="M93.2534594,35.3813962 L89.9322335,35.3813962 C89.0146088,35.3813962 88.2718049,34.6404923 88.2718049,33.7252149 L88.2714361,33.7252149 L88.2714361,32.0690336 C88.2714361,31.1533883 89.01424,30.4124844 89.9322335,30.4124844 L93.2534594,30.4124844 C94.1710841,30.4124844 94.913888,29.6715806 94.913888,28.7563031 L89.9322335,28.7563031 C88.0966153,28.7563031 86.6110076,30.2381108 86.6110076,32.0690336 L86.5815019,33.7252149 C86.5815019,35.5726921 88.0803873,37.0379453 89.9322335,37.0379453 L94.913888,37.0379453 C94.913888,36.1223 94.1710841,35.3813962 93.2534594,35.3813962" id="Fill-40" fill="#FEFEFE" mask="url(#mask-8)"></path>
                                <polygon id="Fill-41" fill="#FEFEFE" mask="url(#mask-8)" points="60.0420852 37.037835 61.7025138 37.037835 61.7025138 28.7561927 60.0420852 28.7561927"></polygon>
                                <polygon id="Fill-42" fill="#FEFEFE" mask="url(#mask-8)" points="79.9687032 28.7560088 79.9687032 34.9672405 74.9870487 28.7560088 73.3262513 28.7560088 73.3262513 37.037651 74.9870487 37.037651 74.9870487 30.8264194 79.9687032 37.037651 81.6295006 37.037651 81.6295006 28.7560088"></polygon>
                                <path d="M66.0198124,34.5533055 L67.5142719,30.8263458 L69.0087314,34.5533055 L66.0198124,34.5533055 Z M65.6878742,35.3813962 L69.3410384,35.3813962 L69.7076457,36.29557 L69.7076457,36.2948342 C69.8942687,36.7304004 70.326526,37.0357381 70.8307032,37.0375775 L70.8299655,37.0379453 L71.6657121,37.0379453 L68.3444862,28.7559352 L66.6840576,28.7559352 L63.3632005,37.0375775 L64.1982094,37.0375775 C64.7023867,37.0357381 65.1346439,36.7304004 65.321267,36.2948342 L65.6878742,35.3813962 Z" id="Fill-43" fill="#FEFEFE" mask="url(#mask-8)"></path>
                                <path d="M143.070484,33.7176734 L143.062739,33.7176734 C143.062739,34.6373654 142.316984,35.3812122 141.395303,35.3812122 L136.421024,35.3812122 L136.421024,30.4126683 L141.395303,30.4126683 C142.32141,30.4126683 143.070484,31.1598261 143.070484,32.0835647 L143.070484,33.7176734 Z M141.395303,28.7561192 L136.421024,28.7561192 L136.413279,28.7561192 L134.752851,28.7561192 L134.752851,37.0377614 L136.413279,37.0377614 L136.421024,37.0377614 L141.395303,37.0377614 C143.239035,37.0377614 144.730913,35.5493319 144.730913,33.7103159 L144.730913,32.0835647 C144.730913,30.2445486 143.239035,28.7561192 141.395303,28.7561192 Z" id="Fill-44" fill="#FEFEFE" mask="url(#mask-8)"></path>
                                <path d="M152.613707,34.5870766 L154.69459,30.4194005 L156.775105,34.5870766 L152.613707,34.5870766 Z M158.846031,37.0378718 L159.675876,37.0378718 L155.524805,28.7562295 L155.525173,28.7558617 L155.524436,28.7558617 L153.864745,28.7558617 L153.864007,28.7558617 L153.864376,28.7562295 L149.712936,37.0378718 L150.542781,37.0378718 C151.066875,37.0378718 151.520892,36.7406273 151.745873,36.3065327 L152.200259,35.4151673 L157.188553,35.4151673 L157.641833,36.3043255 C157.866075,36.7398916 158.321568,37.0378718 158.846031,37.0378718 Z" id="Fill-45" fill="#FEFEFE" mask="url(#mask-8)"></path>
                                <path d="M51.7392048,28.7560088 C50.8212113,28.7560088 50.0787762,29.4969127 50.0787762,30.412558 L53.4000021,30.412558 L53.4000021,37.037651 L55.0600619,37.037651 L55.0600619,30.412558 L56.7208593,30.412558 C57.6384839,30.412558 58.3812878,29.6716541 58.3812878,28.7560088 L51.7392048,28.7560088 Z" id="Fill-46" fill="#FEFEFE" mask="url(#mask-8)"></path>
                            </g>
                            <g id="logo-图形" stroke-width="1" transform="translate(0.000000, 1.000000)"></g>
                            <path d="M9.04095375,4.03606647 L9.49870012,1.97252546 C11.593963,1.69618303 13.1857049,1.52243483 14.2739258,1.45128087 C15.4162713,1.37658793 17.0750925,1.3375545 19.2503893,1.33418056 C19.8541788,1.28166677 22.6985918,1.28166677 26.2153287,1.97252546 C28.7456748,2.46960885 31.406362,3.20892483 33.2207889,3.88659668 C36.0909421,4.9586282 38.5881041,6.38706598 40.6415488,8.06337193 C43.8052865,10.6460529 45.6369827,13.5249895 45.6369827,13.5249895 C44.7627667,14.0387225 44.0617206,14.5090601 43.5338442,14.9360025 C40.6614818,17.2591473 36.7570207,20.8984549 32.019584,25.1585345 C30.8129638,26.2435723 28.9533095,27.7318085 26.440621,29.6232431 C26.0933112,29.9780912 23.7421147,31.5334444 21.4723527,32.5592739 C19.031083,33.6626171 16.3269244,34.4448822 15.887471,34.3946359 C10.0190771,33.7231206 7.82551204,31.8297331 5.84615904,29.9780912 C3.86680604,28.1264492 3.31750093,26.6567743 3.11172637,26.21705 C1.78877433,23.3916191 0.718350969,20.0359826 0.323521306,16.946937 C-0.189294794,12.934796 0.0611433007,9.60054961 0.0611433007,9.60054961 L8.62961699,6.85731692 L9.04095375,4.03606647 Z" id="Fill-1" fill="url(#linearGradient-9)"></path>
                            <path d="M17.4940667,27.6528 C17.7794,27.6863556 17.9711778,27.7045778 18.1625111,27.7185778 C18.2058444,27.7219111 18.2489556,27.7256889 18.2922889,27.7283556 C18.5031778,27.7416889 18.7138444,27.7476889 18.9247333,27.7490222 C19.0469556,27.7516889 19.0836222,27.7499111 19.1202889,27.7496889 C19.1727333,27.7490222 19.2251778,27.7474667 19.2780667,27.7461333 C24.5962889,27.6281333 29.8960667,24.0132444 35.5014,20.1870222 C37.9487333,18.5168 40.4605111,16.8023556 43.0591778,15.3203556 C40.8936222,17.0779111 38.6691778,19.0830222 36.3474,21.1759111 C33.0569556,24.1416889 29.7158444,27.1512444 26.4069556,29.5645778 C22.6151778,32.1330222 18.8600667,33.8845778 15.2729556,33.9236889 C8.53606667,33.9968 2.71362222,28.9710222 0.728288889,18.7263556 C0.344733333,16.2999111 0.179177778,13.6556889 0.232288889,10.8165778 C2.96828889,9.74568889 5.63451111,8.85635556 8.22251111,8.13591111 C7.03451111,20.2774667 10.0756222,26.6714667 17.4940667,27.6528 Z M18.1420667,1.39235556 C24.6969556,1.39235556 30.4916222,2.57968889 35.3662889,4.92102222 C38.9078444,6.62213333 41.8702889,8.92013333 44.0545111,11.6432444 C41.8742889,9.73724444 39.2058444,8.18124444 36.0914,7.00302222 C31.8116222,5.38391111 26.8862889,4.56302222 21.4498444,4.5628 C17.4982889,4.5628 13.2971778,5.00502222 8.95873333,5.87768889 C9.12562222,4.65146667 9.33273333,3.35857778 9.57562222,2.02724444 C12.5207333,1.60591111 15.4014,1.39257778 18.1420667,1.39235556 Z M38.7774,17.7101333 C39.0898444,17.5043556 39.4036222,17.3001333 39.7185111,17.0974667 C39.4036222,17.3001333 39.0898444,17.5043556 38.7774,17.7101333 Z M42.0798444,15.6334667 C42.1231778,15.6076889 42.1667333,15.5821333 42.2100667,15.5563556 C42.1667333,15.5821333 42.1231778,15.6076889 42.0798444,15.6334667 Z M38.6276222,17.8088 C38.2278444,18.0730222 37.8298444,18.3388 37.4338444,18.6054667 C37.8309556,18.3379111 38.2282889,18.0725778 38.6276222,17.8088 Z M8.43428889,13.9454667 C8.38273333,12.1390222 8.46717778,10.1470222 8.68562222,7.97768889 C22.5316222,3.69502222 33.8314,5.31102222 41.3158444,10.0319111 C42.8949556,11.0632444 44.2929556,12.2281333 45.4671778,13.5008 C45.3602889,13.5656889 45.2534,13.6312444 45.1471778,13.6972444 C41.6994,15.4185778 38.4214,17.6561333 35.2511778,19.8196889 C35.0167333,19.9799111 34.7829556,20.1394667 34.5494,20.2983556 C29.1189556,23.6934667 24.0694,26.4088 18.6931778,25.6883556 C13.1562889,24.9465778 9.08295556,22.0616889 8.43428889,13.9454667 Z M15.7660667,34.7152444 C15.8296222,34.7085778 15.8934,34.7010222 15.9569556,34.6934667 C16.0694,34.6796889 16.1816222,34.6648 16.2940667,34.6481333 C16.3578444,34.6385778 16.4214,34.6292444 16.4851778,34.6185778 C16.6045111,34.5990222 16.7240667,34.5770222 16.8436222,34.5539111 C16.8987333,34.5432444 16.9538444,34.5336889 17.0087333,34.5221333 C17.1827333,34.4863556 17.3569556,34.4476889 17.5314,34.4045778 C17.7067333,34.3614667 17.8816222,34.3141333 18.0567333,34.2639111 C18.1122889,34.2481333 18.1678444,34.2308 18.2234,34.2143556 C18.3447333,34.1781333 18.4662889,34.1410222 18.5878444,34.1019111 C18.6516222,34.0812444 18.7156222,34.0596889 18.7794,34.0383556 C18.8954,33.9994667 19.0114,33.9590222 19.1276222,33.9172444 C19.1909556,33.8943556 19.2542889,33.8716889 19.3178444,33.8479111 C19.4418444,33.8016889 19.5658444,33.7534667 19.6902889,33.7043556 C19.7438444,33.6830222 19.7974,33.6625778 19.8511778,33.6408 C20.2067333,33.4961333 20.5636222,33.3392444 20.9211778,33.1705778 C20.9742889,33.1456889 21.0274,33.1194667 21.0805111,33.0941333 C21.2074,33.0330222 21.3342889,32.9710222 21.4616222,32.9072444 C21.5231778,32.8763556 21.5847333,32.8445778 21.6467333,32.8132444 C21.7682889,32.7510222 21.8896222,32.6874667 22.0114,32.6228 C22.0722889,32.5905778 22.1327333,32.5583556 22.1938444,32.5254667 C22.3245111,32.4548 22.4554,32.3819111 22.5865111,32.3083556 C22.6358444,32.2808 22.6851778,32.2539111 22.7342889,32.2256889 C23.0971778,32.0196889 23.4609556,31.8030222 23.8247333,31.5770222 C23.8729556,31.5474667 23.9211778,31.5165778 23.9696222,31.4863556 C24.1034,31.4021333 24.2376222,31.3172444 24.3718444,31.2308 C24.4298444,31.1934667 24.4878444,31.1556889 24.5458444,31.1179111 C24.6740667,31.0343556 24.8022889,30.9496889 24.9307333,30.8636889 C24.9865111,30.8265778 25.0422889,30.7892444 25.0980667,30.7516889 C25.2394,30.6565778 25.3802889,30.5599111 25.5216222,30.4623556 C25.5622889,30.4343556 25.6025111,30.4068 25.6431778,30.3785778 C26.0134,30.1208 26.3840667,29.8550222 26.7549556,29.5821333 C26.7936222,29.5536889 26.8325111,29.5245778 26.8709556,29.4959111 C27.0169556,29.3881333 27.1625111,29.2794667 27.3082889,29.1692444 C27.3580667,29.1319111 27.4076222,29.0943556 27.4571778,29.0565778 C27.5965111,28.9508 27.7358444,28.8443556 27.8749556,28.7368 C27.9216222,28.7008 27.9685111,28.6648 28.0151778,28.6285778 C28.1702889,28.5081333 28.3254,28.3865778 28.4807333,28.2641333 C28.9427333,27.8988 29.3214,27.5932444 29.7000667,27.2823556 C29.9285111,27.0943556 30.0940667,26.9572444 30.2596222,26.8192444 C30.2938444,26.7908 30.3280667,26.7621333 30.3620667,26.7336889 C30.5205111,26.6014667 30.6787333,26.4683556 30.8369556,26.3348 C31.1065111,26.1065778 31.2880667,25.9521333 31.4696222,25.7965778 C36.2162889,21.7285778 40.9018444,17.1236889 45.2556222,13.8912444 C45.4407333,13.7763556 45.6269556,13.6630222 45.8142889,13.5516889 C45.6660667,13.3865778 45.5140667,13.2230222 45.3585111,13.0610222 C40.8834,6.26213333 31.6391778,1.16946667 18.1402889,1.17013333 C15.3971778,1.17035556 12.4756222,1.3808 9.38584444,1.82991111 C9.1214,3.26613333 8.90406667,4.62991111 8.72895556,5.92924444 C8.33562222,6.00968889 7.71273333,6.1608 6.95851111,6.35235556 C6.76984444,6.40013333 6.57295556,6.45057778 6.37006667,6.5028 C5.96406667,6.60746667 5.53317778,6.71991111 5.09384444,6.83524444 C4.32495556,7.03768889 3.52984444,7.24924444 2.79517778,7.44613333 C2.27051111,7.58635556 1.77673333,7.71924444 1.3454,7.83524444 C1.17295556,7.88168889 1.01028889,7.92568889 0.859844444,7.96613333 C0.558955556,8.04746667 0.306288889,8.11524444 0.117844444,8.16591111 C0.0896222222,8.61213333 0.0680666667,9.0508 0.0498444444,9.48546667 C0.0485111111,9.52124444 0.0465111111,9.55724444 0.0454,9.59324444 C0.0276222222,10.0354667 0.0154,10.4719111 0.00806666667,10.9023556 C-0.00215555556,11.4968 -0.0026,12.0785778 0.00628888889,12.6496889 C0.0140666667,13.1401333 0.0280666667,13.6063556 0.0480666667,14.0652444 C0.0696222222,14.5479111 0.0962888889,14.9985778 0.128955556,15.4412444 C0.363844444,18.5970222 0.903844444,21.3496889 1.69295556,23.7188 C1.80673333,24.0605778 1.92273333,24.3854667 2.0434,24.7030222 C2.17317778,25.0434667 2.29717778,25.3499111 2.42606667,25.6488 C2.56828889,25.9776889 2.7014,26.2688 2.83895556,26.5521333 C2.99073333,26.8628 3.13406667,27.1410222 3.28162222,27.4114667 C3.88895556,28.5212444 4.56006667,29.4970222 5.29073333,30.3490222 C5.47562222,30.5645778 5.65584444,30.7621333 5.83895556,30.9532444 C6.04851111,31.1708 6.23028889,31.3485778 6.41473333,31.5199111 C6.64406667,31.7312444 6.82873333,31.8914667 7.01584444,32.0456889 C7.25962222,32.2439111 7.44873333,32.3892444 7.64006667,32.5279111 C7.89384444,32.7090222 8.08851111,32.8405778 8.28584444,32.9650222 C8.54384444,33.1256889 8.74628889,33.2445778 8.9514,33.3563556 C9.20762222,33.4939111 9.42028889,33.6014667 9.6354,33.7010222 C10.0965111,33.9130222 10.5469556,34.0865778 11.0056222,34.2316889 C11.2654,34.3134667 11.4851778,34.3736889 11.7062889,34.4285778 C11.9934,34.4988 12.2107333,34.5439111 12.4291778,34.5836889 C12.7345111,34.6374667 12.9511778,34.6683556 13.1689556,34.6939111 C13.4867333,34.7290222 13.7047333,34.7465778 13.9238444,34.7583556 C14.2156222,34.7719111 14.4040667,34.7779111 14.5931778,34.7779111 C14.6396222,34.7779111 14.6862889,34.7776889 14.7327333,34.7770222 C14.9036222,34.7750222 15.0749556,34.7681333 15.2467333,34.7581333 C15.3016222,34.7550222 15.3569556,34.7499111 15.4120667,34.7459111 C15.5298444,34.7372444 15.6478444,34.7274667 15.7660667,34.7152444 Z" id="Fill-3" stroke="#FFFFFF" stroke-width="0.3" fill="#FFFFFF"></path>
                        </g>
                        <text id="后台操作系统" font-family="PingFangSC-Regular, PingFang SC" font-size="12" font-weight="normal" fill="#6F7480">
                            <tspan x="202" y="36">后台操作系统</tspan>
                        </text>
                        <text id="©2018-北京天驰传媒股份有限公司" font-family="PingFangSC-Regular, PingFang SC" font-size="12" font-weight="normal" fill="#6F7480">
                            <tspan x="0" y="103">©2018  北京天驰传媒股份有限公司</tspan>
                        </text>
                        <text id="北京朝阳区东三环中路9号-3302/33" font-family="PingFangSC-Regular, PingFang SC" font-size="12" font-weight="normal" fill="#6F7480">
                            <tspan x="67" y="83">北京朝阳区东三环中路9号 3302/3304</tspan>
                        </text>
                        <text id="保留所有权" font-family="PingFangSC-Regular, PingFang SC" font-size="12" font-weight="normal" fill="#6F7480">
                            <tspan x="215" y="103">保留所有权</tspan>
                        </text>
                        <text id="All-Rights-Reserved." font-family="PingFangSC-Regular, PingFang SC" font-size="12" font-weight="normal" fill="#6F7480">
                            <tspan x="162.7" y="123">All Rights Reserved.</tspan>
                        </text>
                    </g>
                </g>
            </g>
        </g>
    </g>
</svg>