<?xml version="1.0" encoding="UTF-8"?>
<svg width="344px" height="76px" viewBox="0 0 344 76" version="1.1" xmlns="http://www.w3.org/2000/svg" xmlns:xlink="http://www.w3.org/1999/xlink">
    <!-- Generator: Sketch 49.3 (51167) - http://www.bohemiancoding.com/sketch -->
    <title>logo</title>
    <desc>Created with Sketch.</desc>
    <defs>
        <polygon id="path-1" points="0 75.5706215 343.501966 75.5706215 343.501966 0.428949153 0 0.428949153"></polygon>
        <path d="M1.42424859,3.31909605 C-2.75661017,35.5177627 5.12720904,48.9929492 20.7325424,51.0896045 C40.0155028,53.680904 59.1340113,32.284113 81.399435,20.9987571 C81.804339,20.7428475 82.2113898,20.4908023 82.6205876,20.2439096 C72.2850169,8.53561582 53.6774689,0.34779661 28.7361582,0.34779661 C20.327209,0.348225989 11.1981921,1.27868927 1.42424859,3.31909605" id="path-3"></path>
        <linearGradient x1="50.0001283%" y1="100.000099%" x2="50.0001283%" y2="0.000319353566%" id="linearGradient-5">
            <stop stop-color="#0069B6" offset="0%"></stop>
            <stop stop-color="#00A1E2" offset="100%"></stop>
        </linearGradient>
        <path d="M0.565491525,3.31909605 C0.355954802,4.93227119 0.17819209,6.49649718 0.0287683616,8.01692655 C37.2060791,-3.82189831 66.3527232,4.05548023 81.7618305,20.2439096 C81.7618305,20.2439096 81.7618305,20.2439096 81.7618305,20.2439096 C81.7592542,20.2456271 81.756678,20.2469153 81.7553898,20.247774 C81.756678,20.2473446 81.7588249,20.2456271 81.7618305,20.2439096 C81.776,20.2348927 81.7691299,20.2396158 81.7618305,20.2439096 C71.4271186,8.5360452 52.8152768,0.349084746 27.8774011,0.34779661 C19.4667345,0.347367232 10.3415819,1.27825989 0.565491525,3.31909605 M81.7553898,20.247774 C81.7528136,20.2494915 81.7532429,20.2490621 81.7553898,20.247774" id="path-6"></path>
        <linearGradient x1="50.0002593%" y1="99.9999172%" x2="50.0002593%" y2="0.000810478555%" id="linearGradient-8">
            <stop stop-color="#0069B6" offset="0%"></stop>
            <stop stop-color="#00A1E2" offset="100%"></stop>
        </linearGradient>
        <path d="M20.3551186,0.428949153 C14.4739209,0.431096045 8.22989831,0.887525424 1.64237288,1.8600678 C1.03050847,5.23712994 0.529853107,8.44029379 0.136112994,11.4772881 C38.9008362,3.38564972 67.5124746,12.7461017 81.332452,28.4021017 C71.7817853,12.6799774 50.944904,0.435819209 20.4208136,0.428949153 L20.3551186,0.428949153 Z" id="path-9"></path>
        <linearGradient x1="27.7140461%" y1="119.939838%" x2="68.4456697%" y2="1.71009164%" id="linearGradient-11">
            <stop stop-color="#A3D4BD" offset="0%"></stop>
            <stop stop-color="#00B8ED" offset="100%"></stop>
        </linearGradient>
        <path d="M23.291209,43.7141695 C42.5462599,46.3346667 60.4023955,28.671322 82.6210169,17.2382599 C82.6210169,17.2382599 82.4801808,17.0789605 82.6210169,17.2382599 C82.2113898,17.4851525 81.804339,17.7367684 81.399435,17.9931073 C59.1344407,29.2784633 40.0155028,50.6752542 20.732113,48.0839548 C5.12677966,45.9872994 -2.75661017,32.512113 1.42424859,0.313446328 C1.6659887,0.262779661 1.18293785,0.36239548 1.42424859,0.313446328" id="path-12"></path>
        <radialGradient cx="34.1843856%" cy="48.1656592%" fx="34.1843856%" fy="48.1656592%" r="69.6468509%" gradientTransform="translate(0.341844,0.481657),scale(0.583193,1.000000),rotate(-51.339913),scale(1.000000,0.991928),translate(-0.341844,-0.481657)" id="radialGradient-14">
            <stop stop-color="#0069B6" offset="0%"></stop>
            <stop stop-color="#00A1E2" offset="100%"></stop>
        </radialGradient>
        <polygon id="path-15" points="0.428734463 0.142897175 11.1629831 0.142897175 11.1629831 18.0338124 0.428734463 18.0338124"></polygon>
        <polygon id="path-17" points="0.428734463 0.429077966 32.6319096 0.429077966 32.6319096 25.4760158 0.428734463 25.4760158"></polygon>
        <polygon id="path-19" points="0.428734463 0.214388701 32.6319096 0.214388701 32.6319096 27.0505469 0.428734463 27.0505469"></polygon>
        <polygon id="path-21" points="0.357457627 0.428949153 37.9280791 0.428949153 37.9280791 54.1011797 0.357457627 54.1011797"></polygon>
    </defs>
    <g id="Design" stroke="none" stroke-width="1" fill="none" fill-rule="evenodd">
        <g id="菜单栏-new" transform="translate(-85.000000, -1139.000000)">
            <g id="logo" transform="translate(85.000000, 1139.000000)">
                <polygon id="Fill-1" fill="#00A2DF" points="314.877446 75.5706215 318.454169 75.5706215 318.454169 57.6801356 314.877446 57.6801356"></polygon>
                <polygon id="Fill-2" fill="#00A2DF" points="257.626088 57.6803932 250.470066 71.9928678 243.314043 57.6803932 239.736032 57.6803932 239.736032 75.5704497 243.314043 75.5704497 243.314043 64.8355571 248.681275 75.5704497 252.258856 75.5704497 252.259286 75.5704497 257.626088 64.8355571 257.626088 75.5704497 261.204099 75.5704497 261.204099 57.6803932"></polygon>
                <g id="Group-15" transform="translate(0.000000, 0.000429)">
                    <path d="M282.673842,71.9920949 L268.364802,71.9920949 L268.364802,68.4140836 L282.673842,68.4140836 L282.673842,64.8356429 L268.364802,64.8356429 L268.364802,61.2576316 L282.673412,61.2576316 C284.655424,61.2576316 286.259582,59.6569085 286.259582,57.6796203 L264.790655,57.6796203 L264.790655,75.5701062 L286.243266,75.5701062 C286.243266,73.5923887 284.646836,71.9920949 282.673842,71.9920949" id="Fill-3" fill="#00A2DF"></path>
                    <mask id="mask-2" fill="white">
                        <use xlink:href="#path-1"></use>
                    </mask>
                    <g id="Clip-6"></g>
                    <polygon id="Fill-5" fill="#00B8EE" mask="url(#mask-2)" points="225.423729 75.5701921 229.000881 75.5701921 229.000881 57.6792768 225.423729 57.6792768"></polygon>
                    <polygon id="Fill-7" fill="#00B8EE" mask="url(#mask-2)" points="218.267062 57.679835 218.267062 65.7302531 211.11061 65.7302531 211.11061 57.679835 207.532599 57.679835 207.532599 75.5703209 211.11061 75.5703209 211.11061 67.5194734 218.267062 67.5194734 218.267062 75.5703209 221.845073 75.5703209 221.845073 57.679835"></polygon>
                    <path d="M200.376362,71.9920949 L193.21991,71.9920949 C191.242621,71.9920949 189.641898,70.3913718 189.641898,68.4140836 L189.641898,64.8360723 C189.641898,62.8583548 191.242192,61.258061 193.21991,61.258061 L200.376362,61.258061 C202.354079,61.258061 203.954373,59.6573379 203.954373,57.6796203 L193.21991,57.6796203 C189.264475,57.6796203 186.063458,60.8806373 186.063458,64.8360723 L185.99991,68.4140836 C185.99991,72.4042983 189.229266,75.5701062 193.21991,75.5701062 L203.954373,75.5701062 C203.954373,73.5923887 202.354079,71.9920949 200.376362,71.9920949" id="Fill-8" fill="#00B8EE" mask="url(#mask-2)"></path>
                    <polygon id="Fill-9" fill="#00A2DF" mask="url(#mask-2)" points="225.423729 75.5701921 229.000881 75.5701921 229.000881 57.6792768 225.423729 57.6792768"></polygon>
                    <polygon id="Fill-10" fill="#00A2DF" mask="url(#mask-2)" points="218.267062 57.679835 218.267062 65.7302531 211.11061 65.7302531 211.11061 57.679835 207.532599 57.679835 207.532599 75.5703209 211.11061 75.5703209 211.11061 67.5194734 218.267062 67.5194734 218.267062 75.5703209 221.845073 75.5703209 221.845073 57.679835"></polygon>
                    <path d="M200.376362,71.9920949 L193.21991,71.9920949 C191.242621,71.9920949 189.641898,70.3913718 189.641898,68.4140836 L189.641898,64.8360723 C189.641898,62.8583548 191.242192,61.258061 193.21991,61.258061 L200.376362,61.258061 C202.354079,61.258061 203.954373,59.6573379 203.954373,57.6796203 L193.21991,57.6796203 C189.264475,57.6796203 186.063458,60.8806373 186.063458,64.8360723 L185.99991,68.4140836 C185.99991,72.4042983 189.229266,75.5701062 193.21991,75.5701062 L203.954373,75.5701062 C203.954373,73.5923887 202.354079,71.9920949 200.376362,71.9920949" id="Fill-11" fill="#00A2DF" mask="url(#mask-2)"></path>
                    <polygon id="Fill-12" fill="#00A2DF" mask="url(#mask-2)" points="128.813559 75.5706215 132.391571 75.5706215 132.391571 57.6797062 128.813559 57.6797062"></polygon>
                    <path d="M99.0037831,29.1569492 C78.1188113,44.9069831 53.745139,75.3254463 32.2319864,75.5684746 C13.3049808,75.7801582 -2.21619435,56.2915254 0.260461017,16.4336045 C3.55808814,15.5353446 15.8645062,12.1368136 19.0285966,11.4772881 C14.8477379,43.6759548 22.7315571,57.1511412 38.336461,59.2477966 C57.6198508,61.839096 76.7387887,40.4423051 99.0037831,29.1569492" id="Fill-13" fill="#00B8EE" mask="url(#mask-2)"></path>
                    <path d="M33.413722,73.6724678 C15.4274847,73.8699819 0.411688136,57.2049424 0.0110779661,23.1590893 C-0.401984181,58.4827729 14.4025582,75.767835 32.2320723,75.5686034 C45.1439141,75.4226147 59.0862644,64.4064791 72.6859706,52.2159932 C59.4379254,63.6726712 45.9567277,73.5333492 33.413722,73.6724678" id="Fill-14" fill="#00A2E3" mask="url(#mask-2)"></path>
                </g>
                <g id="Group-18" transform="translate(17.604520, 8.158621)">
                    <mask id="mask-4" fill="white">
                        <use xlink:href="#path-3"></use>
                    </mask>
                    <g id="Clip-17"></g>
                    <path d="M1.42424859,3.31909605 C-2.75661017,35.5177627 5.12720904,48.9929492 20.7325424,51.0896045 C40.0155028,53.680904 59.1340113,32.284113 81.399435,20.9987571 C81.804339,20.7428475 82.2113898,20.4908023 82.6205876,20.2439096 C72.2850169,8.53561582 53.6774689,0.34779661 28.7361582,0.34779661 C20.327209,0.348225989 11.1981921,1.27868927 1.42424859,3.31909605" id="Fill-16" fill="url(#linearGradient-5)" mask="url(#mask-4)"></path>
                </g>
                <g id="Group-21" transform="translate(18.463277, 8.158621)">
                    <mask id="mask-7" fill="white">
                        <use xlink:href="#path-6"></use>
                    </mask>
                    <g id="Clip-20"></g>
                    <path d="M0.565491525,3.31909605 C0.355954802,4.93227119 0.17819209,6.49649718 0.0287683616,8.01692655 C37.2060791,-3.82189831 66.3527232,4.05548023 81.7618305,20.2439096 C81.7618305,20.2439096 81.7618305,20.2439096 81.7618305,20.2439096 C81.7592542,20.2456271 81.756678,20.2469153 81.7553898,20.247774 C81.756678,20.2473446 81.7588249,20.2456271 81.7618305,20.2439096 C81.776,20.2348927 81.7691299,20.2396158 81.7618305,20.2439096 C71.4271186,8.5360452 52.8152768,0.349084746 27.8774011,0.34779661 C19.4667345,0.347367232 10.3415819,1.27825989 0.565491525,3.31909605 M81.7553898,20.247774 C81.7528136,20.2494915 81.7532429,20.2490621 81.7553898,20.247774" id="Fill-19" fill="url(#linearGradient-8)" mask="url(#mask-7)"></path>
                </g>
                <path d="M18.487365,16.2248836 C18.6376475,14.6889966 18.8171277,13.1084542 19.0288113,11.4776746 C15.8647209,12.1372 3.55830282,15.5361605 0.260675706,16.433991 C0.13100339,18.5186237 0.0537152542,20.5444316 0.0206531073,22.517426 C6.35312768,19.9797989 12.5164271,17.8934486 18.487365,16.2248836" id="Fill-22" fill="#00A2E3"></path>
                <g id="Group-26" transform="translate(18.892655, 0.000429)">
                    <mask id="mask-10" fill="white">
                        <use xlink:href="#path-9"></use>
                    </mask>
                    <g id="Clip-25"></g>
                    <path d="M20.3551186,0.428949153 C14.4739209,0.431096045 8.22989831,0.887525424 1.64237288,1.8600678 C1.03050847,5.23712994 0.529853107,8.44029379 0.136112994,11.4772881 C38.9008362,3.38564972 67.5124746,12.7461017 81.332452,28.4021017 C71.7817853,12.6799774 50.944904,0.435819209 20.4208136,0.428949153 L20.3551186,0.428949153 Z" id="Fill-24" fill="url(#linearGradient-11)" mask="url(#mask-10)"></path>
                </g>
                <g id="Group-70" transform="translate(17.604520, 0.000429)">
                    <g id="Group-29" transform="translate(0.000000, 11.163842)">
                        <mask id="mask-13" fill="white">
                            <use xlink:href="#path-12"></use>
                        </mask>
                        <g id="Clip-28"></g>
                        <path d="M23.291209,43.7141695 C7.90528814,41.6205198 -2.31864407,31.8470056 1.42424859,0.313446328 C1.18293785,0.36239548 1.6659887,0.262779661 1.42424859,0.313446328 C-2.75661017,32.512113 5.12677966,45.9872994 20.732113,48.0839548 C40.0155028,50.6752542 59.1344407,29.2784633 81.399435,17.9931073 C81.804339,17.7367684 82.2113898,17.4851525 82.6210169,17.2382599 C82.4801808,17.0789605 82.6210169,17.2382599 82.6210169,17.2382599 C60.4023955,28.671322 42.5462599,46.3346667 23.291209,43.7141695" id="Fill-27" fill="url(#radialGradient-14)" mask="url(#mask-13)"></path>
                    </g>
                    <polygon id="Fill-30" fill="#00A2DF" points="154.146463 57.6794056 154.146463 71.0974847 143.412 57.6794056 139.833989 57.6794056 139.833989 75.5703209 143.412 75.5703209 143.412 62.1522418 154.146463 75.5703209 157.724475 75.5703209 157.724475 57.6794056"></polygon>
                    <path d="M124.089751,70.2030893 L127.31009,62.1518124 L130.530429,70.2030893 L124.089751,70.2030893 Z M123.373977,71.9923096 L131.246203,71.9923096 L132.035831,73.9670215 L132.035831,73.9657333 C132.438158,74.9065017 133.36991,75.5660271 134.456667,75.5703209 L134.454949,75.5703209 L136.255333,75.5703209 L129.098881,57.6794056 L125.52087,57.6794056 L118.365277,75.5703209 L120.163944,75.5703209 C121.250701,75.5660271 122.182452,74.9065017 122.58478,73.9657333 L123.373977,71.9923096 Z" id="Fill-32" fill="#00A2DF"></path>
                    <path d="M290.115831,68.397939 L290.099944,68.397939 C290.099944,70.3846734 288.49235,71.9922667 286.506045,71.9922667 L275.787469,71.9922667 L275.787469,61.2578034 L286.506045,61.2578034 C288.500938,61.2578034 290.115831,62.8722667 290.115831,64.8675887 L290.115831,68.397939 Z M286.506045,57.6793627 L275.787469,57.6793627 L275.771582,57.6793627 L272.193571,57.6793627 L272.193571,75.570278 L275.771582,75.570278 L275.787469,75.570278 L286.506045,75.570278 C290.479085,75.570278 293.693842,72.3550915 293.693842,68.382052 L293.693842,64.8675887 C293.693842,60.8941198 290.479085,57.6793627 286.506045,57.6793627 Z" id="Fill-34" fill="#00A2DF"></path>
                    <path d="M310.679455,70.275826 L315.162597,61.2726169 L319.646167,70.275826 L310.679455,70.275826 Z M324.108698,75.5700633 L325.896631,75.5700633 L316.951388,57.6804362 L316.951817,57.6795774 L316.950958,57.6795774 L313.374235,57.6795774 L313.373376,57.6795774 L313.373806,57.6804362 L304.428133,75.5700633 L306.216495,75.5700633 C307.34576,75.5700633 308.324744,74.9285718 308.809941,73.9899503 L309.788495,72.0650463 L320.537128,72.0650463 L321.513105,73.9852271 C321.997015,74.9264249 322.978145,75.5700633 324.108698,75.5700633 Z" id="Fill-36" fill="#00A2DF"></path>
                    <path d="M293.694271,54.1013944 L297.272282,54.1013944 C299.372373,54.1013944 301.125525,52.6178915 301.542452,50.6418915 L304.428734,36.2104791 L297.272282,36.2104791 L293.694271,54.1013944 Z" id="Fill-38" fill="#00A2DF"></path>
                    <g id="Group-42" transform="translate(314.734463, 36.067797)">
                        <mask id="mask-16" fill="white">
                            <use xlink:href="#path-15"></use>
                        </mask>
                        <g id="Clip-41"></g>
                        <path d="M0.428734463,0.142897175 L3.31501695,14.5743096 C3.7319435,16.5503096 5.48466667,18.0338124 7.58475706,18.0338124 L11.1631977,18.0338124 L7.58475706,0.142897175 L0.428734463,0.142897175 Z" id="Fill-40" fill="#00A2DF" mask="url(#mask-16)"></path>
                    </g>
                    <g id="Group-45" transform="translate(293.265537, 0.000000)">
                        <mask id="mask-18" fill="white">
                            <use xlink:href="#path-17"></use>
                        </mask>
                        <g id="Clip-44"></g>
                        <path d="M23.686452,21.8980045 L9.3739774,21.8980045 L9.3739774,16.5307729 L20.1084407,16.5307729 L20.1084407,12.9527616 L9.3739774,12.9527616 L9.3739774,7.58552994 L23.686452,7.58552994 L23.686452,21.8980045 Z M30.842904,4.00708927 L30.842904,0.429077966 L23.686452,0.429077966 L23.686452,4.00708927 L9.3739774,4.00708927 L9.3739774,0.429077966 L2.2179548,0.429077966 L2.2179548,4.00708927 L0.428734463,4.00708927 L0.428734463,7.58552994 L2.2179548,7.58552994 L2.2179548,25.4760158 L9.3739774,25.4760158 L23.686452,25.4760158 L30.842904,25.4760158 L30.842904,7.58552994 L32.6321243,7.58552994 L32.6321243,4.00708927 L30.842904,4.00708927 Z" id="Fill-43" fill="#00A2DF" mask="url(#mask-18)"></path>
                    </g>
                    <g id="Group-48" transform="translate(293.265537, 27.050847)">
                        <mask id="mask-20" fill="white">
                            <use xlink:href="#path-19"></use>
                        </mask>
                        <g id="Clip-47"></g>
                        <path d="M20.1084407,0.214388701 L12.9524181,0.214388701 L12.9524181,3.7924 L0.428734463,3.7924 L0.428734463,7.37084068 L12.9524181,7.37084068 L12.9524181,27.0505469 L20.1084407,27.0505469 L20.1084407,7.37084068 L29.0536836,7.37084068 C31.0314011,7.37084068 32.6321243,5.77011751 32.6321243,3.7924 L20.1084407,3.7924 L20.1084407,0.214388701 Z" id="Fill-46" fill="#00A2DF" mask="url(#mask-20)"></path>
                    </g>
                    <path d="M279.381797,30.8434621 L283.591424,12.9525469 L286.537819,12.9525469 L281.213955,33.362626 L279.381797,30.8434621 Z M286.480712,40.6045243 L293.694271,12.9525469 L293.694271,9.37453559 L284.433435,9.37453559 L286.537819,0.429292655 C282.116938,0.429292655 279.101412,1.62124746 278.539785,4.00730395 L277.276983,9.37453559 L272.225345,9.37453559 L272.225345,12.9525469 L276.434972,12.9525469 L272.225345,30.8434621 C272.225345,30.8434621 275.956644,35.9736768 279.32426,40.6045243 L275.803785,54.101609 L279.381797,54.101609 C281.521819,54.101609 283.322203,52.6490215 283.853345,50.6764565 L284.591446,47.846852 C284.591876,47.846852 284.591876,47.8472814 284.592305,47.8477107 C285.222203,48.7137672 286.975785,50.5231684 289.847469,50.5231684 L293.694271,50.5231684 L286.480712,40.6045243 Z" id="Fill-49" fill="#00A2DF"></path>
                    <path d="M222.131469,21.8980045 L220.699921,21.8980045 L229.287921,0.429077966 C224.541141,0.429077966 221.575424,1.81983503 220.70035,4.00708927 L211.397006,27.2652362 L218.553028,27.2652362 L218.553458,27.2648068 L218.553458,54.1013944 L225.70948,54.1013944 L225.70948,25.4760158 C225.70948,23.4982983 224.109186,21.8980045 222.131469,21.8980045" id="Fill-51" fill="#00A2DF"></path>
                    <g id="Group-55" transform="translate(227.141243, 0.000000)">
                        <mask id="mask-22" fill="white">
                            <use xlink:href="#path-21"></use>
                        </mask>
                        <g id="Clip-54"></g>
                        <path d="M34.349209,49.9864452 L27.942452,49.025496 L34.3496384,36.2106938 L34.3496384,32.6322531 L13.5964859,32.6322531 L15.3857062,23.6870102 L30.7286893,23.6870102 C34.7081695,23.6870102 37.9280791,21.2863548 37.9280791,18.3197785 L16.4591525,18.3197785 L17.5325989,12.9525469 L28.9398983,12.9525469 C32.9189492,12.9525469 36.1388588,10.5523209 36.1388588,7.58531525 L18.6060452,7.58531525 L20.0371638,0.428863277 C15.2903842,0.428863277 12.2722825,3.47272768 11.4495932,7.58531525 L2.14624859,7.58531525 L2.14624859,12.9525469 L10.3761469,12.9525469 L9.30270056,18.3197785 L0.357457627,18.3197785 L0.357457627,23.6870102 L8.22925424,23.6870102 L5.72468927,36.2106938 L27.1936158,36.2106938 L21.2853672,48.0267616 L2.14624859,45.1559367 L2.14624859,48.733948 L20.4862938,51.4849763 L26.2781808,52.3540384 L37.9280791,54.1011797 C37.9280791,51.8267616 36.4467232,50.3007503 34.349209,49.9864452" id="Fill-53" fill="#00A2DF" mask="url(#mask-22)"></path>
                    </g>
                    <path d="M121.94346,25.4762305 L136.213426,25.4762305 C140.192477,25.4762305 143.412386,23.0755751 143.412386,20.1089989 L121.94346,20.1089989 L121.94346,16.5309876 L121.94346,12.9525469 C121.94346,9.98597062 119.542805,7.58531525 116.576228,7.58531525 L111.208997,7.58531525 L111.208997,20.1089989 L96.9386011,20.1089989 C92.9599797,20.1089989 89.7400701,22.5096542 89.7400701,25.4762305 L111.208997,25.4762305 L111.208997,27.2654508 L89.7400701,54.101609 L96.8969514,54.101609 C99.2413582,54.101609 101.332002,53.0174282 102.696567,51.3239593 L116.576228,33.9744904 L130.455889,51.3239593 C131.820454,53.0174282 133.911098,54.101609 136.255505,54.101609 L143.412386,54.101609 L121.94346,27.2654508 L121.94346,25.4762305 Z" id="Fill-56" fill="#00A2DF"></path>
                    <path d="M139.87654,2.21829831 L100.474619,2.21829831 C96.4955684,2.21829831 93.2760881,4.61895367 93.2760881,7.58552994 L132.67758,7.58552994 C136.656631,7.58552994 139.87654,5.18487458 139.87654,2.21829831" id="Fill-58" fill="#00A2DF"></path>
                    <polygon id="Fill-60" fill="#00A2DF" points="161.303087 32.6324678 150.568624 36.2104791 150.568624 43.3669311 161.303087 39.7889198"></polygon>
                    <path d="M168.288045,2.82651299 L168.459367,2.21808362 L168.331412,2.21808362 L162.964181,2.21808362 L157.868316,2.21808362 C153.889695,2.21808362 150.669785,4.61873898 150.669785,7.58531525 L162.580746,7.58531525 L161.302915,25.4762305 L156.383096,25.4762305 L157.724904,14.7417672 L152.357672,14.7417672 L150.568452,29.0542418 L155.935684,29.0542418 L163.092136,29.0542418 L163.092136,48.7343774 L154.146463,48.7343774 C154.146463,51.7009537 157.34748,54.101609 161.302915,54.101609 L163.092136,54.101609 L168.459367,54.101609 L168.459367,48.7343774 L168.459367,29.0542418 L168.459367,25.4762305 L166.670147,25.4762305 L168.288045,2.82651299 Z" id="Fill-62" fill="#00A2DF"></path>
                    <path d="M204.240768,54.1013944 C204.240768,51.1348181 201.840113,48.7341627 198.873537,48.7341627 L177.40461,48.7341627 L177.40461,17.7549311 L182.771842,16.3427051 L182.771842,39.7889198 L189.928294,39.7889198 L189.928294,14.4594508 L195.295525,13.0467955 L195.295525,34.4216881 C195.295525,38.3771232 198.496113,41.5777107 202.451548,41.5777107 L202.451548,7.58552994 L189.928294,10.8810102 L189.928294,4.00708927 C189.928294,2.02980113 188.327571,0.429077966 186.349853,0.429077966 L182.771842,0.429077966 L182.771842,12.7642644 L177.40461,14.1769198 L177.40461,4.00708927 L170.248158,4.00708927 L170.248158,16.060174 L168.459367,16.5307729 L168.459367,20.1087842 L170.248158,19.6381853 L170.248158,54.1013944 L204.240768,54.1013944 Z" id="Fill-64" fill="#00A2DF"></path>
                    <path d="M93.3179096,57.6794056 C91.3406215,57.6794056 89.7398983,59.2796994 89.7398983,61.2574169 L96.897209,61.2574169 L96.897209,75.5703209 L100.474362,75.5703209 L100.474362,61.2574169 L104.052373,61.2574169 C106.03009,61.2574169 107.630384,59.6571232 107.630384,57.6794056 L93.3179096,57.6794056 Z" id="Fill-68" fill="#00A2DF"></path>
                </g>
            </g>
        </g>
    </g>
</svg>