<?xml version="1.0" encoding="UTF-8"?>
<svg width="1462px" height="813px" viewBox="0 0 1462 813" version="1.1" xmlns="http://www.w3.org/2000/svg" xmlns:xlink="http://www.w3.org/1999/xlink">
    <!-- Generator: Sketch 52.3 (67297) - http://www.bohemiancoding.com/sketch -->
    <title>Group</title>
    <desc>Created with Sketch.</desc>
    <defs>
        <linearGradient x1="100.475803%" y1="0%" x2="-0.983615451%" y2="92.3529731%" id="linearGradient-1">
            <stop stop-color="#425EFE" offset="0%"></stop>
            <stop stop-color="#6F1BFA" offset="100%"></stop>
        </linearGradient>
        <linearGradient x1="0%" y1="100%" x2="58.0244565%" y2="34.9132935%" id="linearGradient-2">
            <stop stop-color="#80C3F3" offset="0%"></stop>
            <stop stop-color="#4A90E2" stop-opacity="0" offset="100%"></stop>
        </linearGradient>
        <linearGradient x1="50%" y1="0%" x2="57.3113208%" y2="100%" id="linearGradient-3">
            <stop stop-color="#6CB1E3" stop-opacity="0.3" offset="0%"></stop>
            <stop stop-color="#3A79C2" offset="100%"></stop>
        </linearGradient>
        <linearGradient x1="37.603184%" y1="24.1647013%" x2="50%" y2="100%" id="linearGradient-4">
            <stop stop-color="#83D1FF" stop-opacity="0.492300725" offset="0%"></stop>
            <stop stop-color="#4BA5FF" stop-opacity="0.338541667" offset="100%"></stop>
        </linearGradient>
        <linearGradient x1="0.893461794%" y1="75.5893883%" x2="101.912995%" y2="70.1068352%" id="linearGradient-5">
            <stop stop-color="#FBD249" offset="0%"></stop>
            <stop stop-color="#C6932A" offset="38.5247507%"></stop>
            <stop stop-color="#B58122" offset="65.867741%"></stop>
            <stop stop-color="#F5A623" offset="100%"></stop>
        </linearGradient>
        <linearGradient x1="46.09563%" y1="29.0677924%" x2="49.1992083%" y2="77.2643253%" id="linearGradient-6">
            <stop stop-color="#CBE9FF" stop-opacity="0.191887455" offset="0%"></stop>
            <stop stop-color="#9CCEFF" stop-opacity="0" offset="100%"></stop>
        </linearGradient>
        <linearGradient x1="2.45290669%" y1="100%" x2="99.4401821%" y2="-0.709488437%" id="linearGradient-7">
            <stop stop-color="#D1D1D1" offset="0%"></stop>
            <stop stop-color="#BEBEBE" offset="8.33254194%"></stop>
            <stop stop-color="#BFBFBF" offset="13.5282471%"></stop>
            <stop stop-color="#BEBEBE" offset="100%"></stop>
        </linearGradient>
        <linearGradient x1="103.886943%" y1="40.7349777%" x2="-1.04009054%" y2="78.8960977%" id="linearGradient-8">
            <stop stop-color="#858585" offset="0%"></stop>
            <stop stop-color="#626262" offset="100%"></stop>
        </linearGradient>
        <linearGradient x1="103.219308%" y1="8.24712265%" x2="-1.04009054%" y2="78.8960977%" id="linearGradient-9">
            <stop stop-color="#C1C1C1" offset="0%"></stop>
            <stop stop-color="#878787" offset="100%"></stop>
        </linearGradient>
        <linearGradient x1="50%" y1="-2.48949813e-15%" x2="50%" y2="100%" id="linearGradient-10">
            <stop stop-color="#A7A7A7" stop-opacity="0" offset="0%"></stop>
            <stop stop-color="#6E6E6E" offset="100%"></stop>
        </linearGradient>
        <linearGradient x1="50%" y1="100%" x2="50%" y2="3.061617e-15%" id="linearGradient-11">
            <stop stop-color="#CDCDCD" offset="0%"></stop>
            <stop stop-color="#676767" offset="100%"></stop>
        </linearGradient>
        <linearGradient x1="1.921875%" y1="21.3643165%" x2="100%" y2="75.7603703%" id="linearGradient-12">
            <stop stop-color="#D8EDFF" offset="0%"></stop>
            <stop stop-color="#A3B1C5" offset="100%"></stop>
        </linearGradient>
        <linearGradient x1="-1.30718428%" y1="86.7849439%" x2="110.02537%" y2="70.3959908%" id="linearGradient-13">
            <stop stop-color="#FFFFFF" offset="0%"></stop>
            <stop stop-color="#B7D7EE" offset="86.3619678%"></stop>
            <stop stop-color="#5184BA" offset="89.4011467%"></stop>
            <stop stop-color="#6DA0E2" offset="90.8687616%"></stop>
            <stop stop-color="#75B4FF" offset="100%"></stop>
        </linearGradient>
        <linearGradient x1="107.886905%" y1="73.2128544%" x2="-4.66162008%" y2="50%" id="linearGradient-14">
            <stop stop-color="#8F00C6" offset="0%"></stop>
            <stop stop-color="#0076FF" offset="100%"></stop>
        </linearGradient>
        <linearGradient x1="-6.15052407%" y1="100%" x2="103.203853%" y2="-6.38760171%" id="linearGradient-15">
            <stop stop-color="#000D82" offset="0%"></stop>
            <stop stop-color="#0028FF" offset="100%"></stop>
            <stop stop-color="#0028FF" offset="100%"></stop>
        </linearGradient>
        <linearGradient x1="3.03846403%" y1="21.6475024%" x2="100%" y2="76.5076255%" id="linearGradient-16">
            <stop stop-color="#FFFFFF" stop-opacity="0" offset="0%"></stop>
            <stop stop-color="#FFFFFF" stop-opacity="0.6" offset="31.133121%"></stop>
            <stop stop-color="#FFFFFF" stop-opacity="0.6" offset="44.1654624%"></stop>
            <stop stop-color="#FFFFFF" stop-opacity="0.2" offset="64.3943732%"></stop>
            <stop stop-color="#FFFFFF" stop-opacity="0.6" offset="93.4714885%"></stop>
            <stop stop-color="#C6C6C6" stop-opacity="0" offset="100%"></stop>
        </linearGradient>
        <filter x="-7.9%" y="-20.0%" width="115.9%" height="140.0%" filterUnits="objectBoundingBox" id="filter-17">
            <feOffset dx="1" dy="2" in="SourceAlpha" result="shadowOffsetOuter1"></feOffset>
            <feGaussianBlur stdDeviation="2" in="shadowOffsetOuter1" result="shadowBlurOuter1"></feGaussianBlur>
            <feColorMatrix values="0 0 0 0 0   0 0 0 0 0   0 0 0 0 0  0 0 0 0.15661798 0" type="matrix" in="shadowBlurOuter1" result="shadowMatrixOuter1"></feColorMatrix>
            <feMerge>
                <feMergeNode in="shadowMatrixOuter1"></feMergeNode>
                <feMergeNode in="SourceGraphic"></feMergeNode>
            </feMerge>
        </filter>
        <linearGradient x1="0%" y1="34.9650312%" x2="83.3933853%" y2="92.0995534%" id="linearGradient-18">
            <stop stop-color="#4B4B4B" offset="0%"></stop>
            <stop stop-color="#7D7D7D" offset="56.1191736%"></stop>
            <stop stop-color="#BBA9BC" offset="85.0320461%"></stop>
            <stop stop-color="#7D6F7D" offset="100%"></stop>
        </linearGradient>
        <linearGradient x1="5.88941125%" y1="42.9476051%" x2="100%" y2="48.2022261%" id="linearGradient-19">
            <stop stop-color="#989898" offset="0%"></stop>
            <stop stop-color="#5E5E5E" offset="47.8604318%"></stop>
            <stop stop-color="#444444" offset="75.2374728%"></stop>
            <stop stop-color="#676767" offset="100%"></stop>
        </linearGradient>
        <path d="M0.722218067,19.1141595 C51.7773576,6.37138651 80.5960168,0 87.1781955,0 C92.1586737,0 112.648062,6.14130108 148.64636,18.4239032 L148.646362,18.4238964 C149.691759,18.7805854 150.250068,19.917201 149.893379,20.9625983 C149.722612,21.4630877 149.360579,21.8755752 148.886473,22.1098296 C138.652573,27.1663784 129.418434,31.3758623 121.184055,34.7382813 C110.553395,37.864127 95.1008909,39.597237 74.8265437,39.9376113 L74.8265437,39.9376118 C69.9001882,40.0203175 64.9886608,39.3744186 60.2511844,38.020854 L0.69119781,20.9544926 C0.185295873,20.8099492 -0.107643091,20.282659 0.036900319,19.7767571 C0.130469698,19.4492643 0.391757804,19.1966386 0.722218067,19.1141595 Z" id="path-20"></path>
        <filter x="-0.5%" y="-1.9%" width="101.0%" height="103.8%" filterUnits="objectBoundingBox" id="filter-21">
            <feGaussianBlur stdDeviation="0.5" in="SourceAlpha" result="shadowBlurInner1"></feGaussianBlur>
            <feOffset dx="0" dy="-0.5" in="shadowBlurInner1" result="shadowOffsetInner1"></feOffset>
            <feComposite in="shadowOffsetInner1" in2="SourceAlpha" operator="arithmetic" k2="-1" k3="1" result="shadowInnerInner1"></feComposite>
            <feColorMatrix values="0 0 0 0 0.71611926   0 0 0 0 0.71611926   0 0 0 0 0.71611926  0 0 0 0.5 0" type="matrix" in="shadowInnerInner1"></feColorMatrix>
        </filter>
        <linearGradient x1="0%" y1="75.4548424%" x2="100%" y2="16.92378%" id="linearGradient-22">
            <stop stop-color="#FD00FF" offset="0%"></stop>
            <stop stop-color="#920094" offset="100%"></stop>
        </linearGradient>
        <linearGradient x1="0%" y1="0%" x2="100%" y2="100%" id="linearGradient-23">
            <stop stop-color="#95E3E2" stop-opacity="0.900000036" offset="0%"></stop>
            <stop stop-color="#62CCCA" stop-opacity="0.900000036" offset="100%"></stop>
        </linearGradient>
        <linearGradient x1="50%" y1="100%" x2="50%" y2="3.061617e-15%" id="linearGradient-24">
            <stop stop-color="#80C3F3" offset="0%"></stop>
            <stop stop-color="#4A90E2" offset="100%"></stop>
        </linearGradient>
    </defs>
    <g id="Design" stroke="none" stroke-width="1" fill="none" fill-rule="evenodd">
        <g id="00-登陆" transform="translate(-19.000000, -79.000000)" fill-rule="nonzero">
            <g id="Group" transform="translate(19.000000, 32.000000)">
                <path d="M315,133 C589.263805,58.7895588 820.5,369.7597 1115.5,229.166715 C1410.5,88.5737294 1392.5,252.894376 1406,316 C1419.5,379.105624 1419.10572,439.932649 1361,523.5625 C1302.89428,607.192351 1260.21233,635.561016 1111,690.835171 C961.787667,746.109326 629.913888,771.046523 315,846 C0.0861119892,920.953477 -68.5842423,663.644523 65.078125,506.085449 C177.90625,373.085449 40.7361947,207.210441 315,133 Z" id="bg" fill-opacity="0.5" fill="url(#linearGradient-1)"></path>
                <path d="M1421,230.625 C1445,219.625 1459.50078,239.35038 1467.5,174 C1478,88.2192383 1445.60121,-0.0124573009 1443,-2.84217094e-14 C1287.83755,0.743078643 1180,197.526299 1180,225.5 C1180,253.942665 1397,241.625 1421,230.625 Z" id="Oval" fill-opacity="0.18" fill="url(#linearGradient-2)"></path>
                <circle id="Oval" fill-opacity="0.2" fill="url(#linearGradient-3)" cx="1252.5" cy="558.5" r="79.5"></circle>
                <ellipse id="Oval-Copy-2" fill-opacity="0.2" fill="url(#linearGradient-3)" transform="translate(385.374155, 479.810148) rotate(-70.000000) translate(-385.374155, -479.810148) " cx="385.374155" cy="479.810148" rx="196" ry="168.5"></ellipse>
                <circle id="Oval-Copy" fill="url(#linearGradient-4)" opacity="0.5" cx="595.5" cy="238.5" r="79.5"></circle>
                <path d="M396.702514,719 C381,716 378.341784,691 349.170892,701 C320,711 306.372057,645 343.419617,645 C380.467178,645 361.337265,685.228242 441.537773,671.186693 C521.738281,657.145144 488.130995,688.446473 475,686 C461.869005,683.553527 491.140625,667 523.070313,665 C555,663 602.117463,642 643,645 C683.882537,648 726.074167,667 790.287083,664 C854.5,661 843,627.871506 883,612 C923,596.128494 1014.46,611 1073,604 C1131.54,597 1257,581.631682 1193,520.641734 C1150.33333,479.981768 1056.97385,454.10119 912.921559,443" id="Path-60" stroke="url(#linearGradient-5)" stroke-width="3" opacity="0.5" stroke-linecap="round"></path>
                <g id="TV" transform="translate(485.000000, 199.000000)">
                    <path d="M24.4870569,497.421796 C22.2835422,496.573692 20.6560496,494.671903 20.158588,492.36381 C19.3440569,488.584598 21.7474057,484.860634 25.5266176,484.046103 L460.601314,390.274743 C476.16344,386.920648 492.301464,387.3304 507.673324,391.469923 L599.137551,416.10053 L107.651223,529.430608 L24.4870569,497.421796 Z" id="Path-57" fill="url(#linearGradient-6)"></path>
                    <path d="M3.30640222,87.6272072 L496.306402,0.826385686 C498.482076,0.44332221 500.556343,1.89652019 500.939406,4.07219422 C500.979725,4.30119287 501,4.53327103 501,4.765792 L501,348.059577 C501,349.959162 499.663991,351.596747 497.803085,351.978129 L4.80308476,453.015635 C2.63892789,453.459167 0.524978818,452.064324 0.0814473508,449.900168 C0.0272880264,449.635904 1.21867774e-14,449.366839 1.59872116e-14,449.097083 L-2.66453526e-15,91.5666135 C-2.90230729e-15,89.6250576 1.39425777,87.9638719 3.30640222,87.6272072 Z" id="TV-back" fill="url(#linearGradient-7)"></path>
                    <polygon id="tv-corner-down-left" fill="#D1D1D1" points="2.0970459 452.661621 11.0302734 456.299988 10 451.023071"></polygon>
                    <path d="M508.118652,4.34814453 C507.843018,4.22344971 504.731974,3.1720988 498.785522,1.1940918 L497.239746,1.77148438 L502.679199,8.50805664 L508.118652,6.20825195 C508.394287,5.09287516 508.394287,4.47283936 508.118652,4.34814453 Z" id="TV-corner-up-right" fill="#BDBDBD"></path>
                    <path d="M188.084747,428.85874 L292.79239,406.677579 C298.234899,405.524644 303.890797,405.907784 309.128094,407.784189 L338.064382,418.151408 C340.144073,418.896514 341.225967,421.186464 340.480861,423.266154 C340.012929,424.572213 338.901656,425.542537 337.544439,425.830132 L223.406767,450.015986 C217.304605,451.309038 210.951136,450.667849 205.230377,448.181631 L186.936695,440.231277 C183.897585,438.910493 182.504606,435.3761 183.82539,432.336989 C184.599013,430.55689 186.185945,429.26098 188.084747,428.85874 Z" id="Rectangle-62" fill="url(#linearGradient-8)"></path>
                    <path d="M188.084747,426.85874 L292.79239,404.677579 C298.234899,403.524644 303.890797,403.907784 309.128094,405.784189 L338.064382,416.151408 C340.144073,416.896514 341.225967,419.186464 340.480861,421.266154 C340.012929,422.572213 338.901656,423.542537 337.544439,423.830132 L223.406767,448.015986 C217.304605,449.309038 210.951136,448.667849 205.230377,446.181631 L186.936695,438.231277 C183.897585,436.910493 182.504606,433.3761 183.82539,430.336989 C184.599013,428.55689 186.185945,427.26098 188.084747,426.85874 Z" id="Rectangle-62" fill="url(#linearGradient-9)"></path>
                    <polygon id="Path-56" fill="url(#linearGradient-10)" points="246.694336 429.373047 333.989258 414.992188 308.178711 405.726562 246.694336 417.549805"></polygon>
                    <polygon id="Path-57" points="198.415039 443.100586 227.504883 453.947266 356.978516 424.490234 330.785156 413.5625"></polygon>
                    <path d="M246,395.425781 L278,389 L278,419.723374 C278,421.628933 276.655767,423.26993 274.787502,423.645088 L246,429.425781 L246,395.425781 Z" id="Rectangle-2" fill="#D0D0D0"></path>
                    <polygon id="Rectangle-2" fill="#BBBBBB" points="246 379.425781 278 373 278 411 246 413.425781"></polygon>
                    <path d="M238.427734,401.425781 L246,395 L246,429.367188 L239.961707,424.639113 C238.993433,423.880939 238.427734,422.719504 238.427734,421.489714 L238.427734,401.425781 Z" id="Rectangle-2" fill="url(#linearGradient-11)"></path>
                    <path d="M14.114235,93.2594377 L507.645694,4.42377508 C508.732793,4.22809728 509.772689,4.95073685 509.968367,6.03783573 C509.989414,6.15476374 510,6.27333459 510,6.39214173 L510,349.746388 C510,351.641571 508.670036,353.276633 506.814566,353.66257 L12.4072829,456.499285 C11.3258591,456.724221 10.2668451,456.029901 10.0419089,454.948477 C10.0140432,454.814507 10,454.678031 10,454.541194 L10,98.1803543 C10,95.7606033 11.7327564,93.6881038 14.114235,93.2594377 Z" id="TV-front" fill="url(#linearGradient-12)"></path>
                    <path d="M23.2428233,104.245678 L502.607728,15.291366 C503.775209,15.07472 504.897266,15.8455243 505.113912,17.0130054 C505.13792,17.142383 505.15,17.2736914 505.15,17.4052777 L505.15,345.734012 C505.15,347.70606 503.762202,349.405757 501.829998,349.800166 L22.4299991,447.657073 C21.2665774,447.894555 20.1309206,447.143932 19.8934386,445.98051 C19.8645531,445.839 19.85,445.69494 19.85,445.550511 L19.85,108.326019 C19.85,106.326056 21.2764296,104.610576 23.2428233,104.245678 Z" id="TV-screen-inner-shadow" stroke="#DADADA" stroke-width="0.3" fill="url(#linearGradient-13)"></path>
                    <path d="M23.269868,104.392942 L500.634934,15.7691574 C501.720946,15.567537 502.764779,16.2844784 502.966399,17.3704908 C502.988753,17.4908942 503,17.6130961 503,17.7355568 L503,343.736716 C503,345.636265 501.66404,347.27383 499.803178,347.655249 L22.4015888,445.507749 C21.3195157,445.72954 20.2625246,445.032144 20.0407332,443.950071 C20.0136472,443.817924 20,443.683376 20,443.548482 L20,108.325741 C20,106.398189 21.3746994,104.744784 23.269868,104.392942 Z" id="TV-screen" fill="url(#linearGradient-14)"></path>
                    <path d="M23.2700078,104.393037 L500.946776,15.7289465 C501.922732,15.547794 502.860755,16.1921102 503.041907,17.1680671 C503.093279,17.4448335 503.078925,17.7297971 503,18 L20,109 L20,108.325862 C20,106.398256 21.374774,104.744821 23.2700078,104.393037 Z" id="TV-screen-up-shade" fill-opacity="0.3" fill="url(#linearGradient-15)"></path>
                    <path d="M23.2672704,104.391192 L500.633635,15.4409375 C501.719514,15.2385998 502.76382,15.9548516 502.966158,17.0407306 C502.988671,17.161553 503,17.2841934 503,17.4070954 L503,343.736716 C503,345.636265 501.66404,347.27383 499.803178,347.655249 L20,446 L20,108.323508 C20,106.396951 21.3733135,104.744103 23.2672704,104.391192 Z" id="TV-screen-reflection" fill="url(#linearGradient-16)" opacity="0.5"></path>
                </g>
                <g id="T-box" filter="url(#filter-17)" transform="translate(380.000000, 703.000000)">
                    <path d="M0,39.2584979 L0,20 L87.9697266,0 L150,20 L150.000011,37.2369761 C150.000011,37.7251675 149.821451,38.196501 149.497984,38.5621505 C142.944376,45.9703815 135.170959,51.5229068 126.177734,55.2197266 C117.564644,58.1291931 100.063908,59.7105459 73.6755278,59.9637851 L73.6755278,59.9637859 C68.5940851,60.0125506 63.5349016,59.2863887 58.6723228,57.8103246 L0.709532078,40.2153826 C0.288117135,40.0874596 2.71846908e-15,39.6989009 2.66453526e-15,39.2584979 Z" id="Rectangle-32" fill="url(#linearGradient-18)"></path>
                    <g id="Rectangle-32">
                        <use fill="url(#linearGradient-19)" xlink:href="#path-20"></use>
                        <use fill="black" fill-opacity="1" filter="url(#filter-21)" xlink:href="#path-20"></use>
                    </g>
                    <path d="M116.624083,39.2392267 L125.624083,35.9664994 C126.19502,35.758886 126.826159,36.0534179 127.033773,36.6243548 C127.077587,36.7448436 127.1,36.8720644 127.1,37.0002722 L127.1,38.8721449 C127.1,39.334702 126.810625,39.747842 126.375917,39.9059177 L117.375917,43.178645 C116.80498,43.3862584 116.173841,43.0917265 115.966227,42.5207896 C115.922413,42.4003007 115.9,42.27308 115.9,42.1448722 L115.9,40.2729994 C115.9,39.8104424 116.189375,39.3973024 116.624083,39.2392267 Z" id="Rectangle-34" stroke="#BEBEBE" stroke-width="0.2" fill="url(#linearGradient-22)"></path>
                    <polygon id="Path-12" fill-opacity="0.6" fill="#FF25F1" points="126.924316 38.9688721 120.832275 37.8640137 126.312622 36.09021 126.737305 36.8862305 125.197632 36.8862305 126.924316 37.2524414 124.703491 37.529541 126.737305 37.8640137 122.918457 37.8640137"></polygon>
                </g>
                <g id="positions" opacity="0.297521391" transform="translate(535.000000, 247.000000)">
                    <path d="M441.823303,178.035339 L502.215535,165.956893 C504.381774,165.523645 506.489075,166.928512 506.922323,169.094751 C506.973981,169.353044 507,169.615808 507,169.879216 L507,260.081177 C507,262.941263 504.981242,265.403752 502.176697,265.964661 L441.784465,278.043107 C439.618226,278.476355 437.510925,277.071488 437.077677,274.905249 C437.026019,274.646956 437,274.384192 437,274.120784 L437,183.918823 C437,181.058737 439.018758,178.596248 441.823303,178.035339 Z" id="Rectangle" fill="#A3D0FD"></path>
                    <path d="M353.823303,196.035339 L414.215535,183.956893 C416.381774,183.523645 418.489075,184.928512 418.922323,187.094751 C418.973981,187.353044 419,187.615808 419,187.879216 L419,278.081177 C419,280.941263 416.981242,283.403752 414.176697,283.964661 L353.784465,296.043107 C351.618226,296.476355 349.510925,295.071488 349.077677,292.905249 C349.026019,292.646956 349,292.384192 349,292.120784 L349,201.918823 C349,199.058737 351.018758,196.596248 353.823303,196.035339 Z" id="Rectangle" fill="#A3D0FD"></path>
                    <path d="M265.823303,215.035339 L323.823303,203.435339 C327.072662,202.785468 330.233612,204.892768 330.883484,208.142127 C330.960972,208.529566 331,208.923712 331,209.318823 L331,297.081177 C331,299.941263 328.981242,302.403752 326.176697,302.964661 L268.176697,314.564661 C264.927338,315.214532 261.766388,313.107232 261.116516,309.857873 C261.039028,309.470434 261,309.076288 261,308.681177 L261,220.918823 C261,218.058737 263.018758,215.596248 265.823303,215.035339 Z" id="Rectangle" fill="#A3D0FD"></path>
                    <path d="M180.823303,232.035339 L241.215535,219.956893 C243.381774,219.523645 245.489075,220.928512 245.922323,223.094751 C245.973981,223.353044 246,223.615808 246,223.879216 L246,314.081177 C246,316.941263 243.981242,319.403752 241.176697,319.964661 L180.784465,332.043107 C178.618226,332.476355 176.510925,331.071488 176.077677,328.905249 C176.026019,328.646956 176,328.384192 176,328.120784 L176,237.918823 C176,235.058737 178.018758,232.596248 180.823303,232.035339 Z" id="Rectangle" fill="#A3D0FD"></path>
                    <path d="M93.8233032,250.035339 L154.215535,237.956893 C156.381774,237.523645 158.489075,238.928512 158.922323,241.094751 C158.973981,241.353044 159,241.615808 159,241.879216 L159,332.081177 C159,334.941263 156.981242,337.403752 154.176697,337.964661 L93.7844645,350.043107 C91.6182255,350.476355 89.5109251,349.071488 89.0776773,346.905249 C89.0260187,346.646956 89,346.384192 89,346.120784 L89,255.918823 C89,253.058737 91.018758,250.596248 93.8233032,250.035339 Z" id="Rectangle" fill="#A3D0FD"></path>
                    <path d="M5.82330319,267.035339 L66.2155355,254.956893 C68.3817745,254.523645 70.4890749,255.928512 70.9223227,258.094751 C70.9739813,258.353044 71,258.615808 71,258.879216 L71,349.081177 C71,351.941263 68.981242,354.403752 66.1766968,354.964661 L5.78446454,367.043107 C3.61822553,367.476355 1.5109251,366.071488 1.0776773,363.905249 C1.02601875,363.646956 1,363.384192 1,363.120784 L1,272.918823 C1,270.058737 3.01875801,267.596248 5.82330319,267.035339 Z" id="Rectangle" fill="#A3D0FD"></path>
                    <path d="M12.9327964,98.5715866 L237.629873,54.6831307 C243.050291,53.6243996 248.302679,57.1602455 249.36141,62.5806637 C249.484765,63.212209 249.546875,63.8541864 249.546875,64.4976659 L249.546875,194.084532 C249.546875,201.738515 244.126107,208.320518 236.614079,209.787788 L11.9170022,253.676244 C6.49658409,254.734975 1.24419584,251.199129 0.185464738,245.778711 C0.0621095591,245.147166 7.88035201e-17,244.505189 0,243.861709 L3.55271368e-15,114.274843 C2.61537111e-15,106.62086 5.42076791,100.038857 12.9327964,98.5715866 Z" id="Rectangle-29" fill="url(#linearGradient-23)"></path>
                    <path d="M273.87441,138.435585 L495.046506,94.3809805 C500.462949,93.3020956 505.728452,96.8183809 506.807337,102.234824 C506.935468,102.878094 507,103.53241 507,104.188318 L507,137.924886 C507,145.532991 501.642533,152.088916 494.186872,153.604294 L272.991795,198.562643 C267.579608,199.662681 262.300408,196.166994 261.20037,190.754808 C261.067126,190.09925 261,189.431975 261,188.763013 L261,154.127324 C261,146.495725 266.389843,139.926413 273.87441,138.435585 Z" id="Rectangle-29-Copy" fill="url(#linearGradient-24)"></path>
                    <path d="M273.87441,44.4355851 L495.046506,0.380980508 C500.462949,-0.697904425 505.728452,2.81838092 506.807337,8.23482364 C506.935468,8.87809406 507,9.5324103 507,10.1883176 L507,63.9248859 C507,71.5329907 501.642533,78.0889161 494.186872,79.6042944 L272.991795,124.562643 C267.579608,125.662681 262.300408,122.166994 261.20037,116.754808 C261.067126,116.09925 261,115.431975 261,114.763013 L261,60.1273245 C261,52.4957249 266.389843,45.9264134 273.87441,44.4355851 Z" id="Rectangle-29-Copy-2" fill="url(#linearGradient-24)"></path>
                </g>
            </g>
        </g>
    </g>
</svg>