<?xml version="1.0" encoding="UTF-8"?>
<svg width="29px" height="30px" viewBox="0 0 29 30" version="1.1" xmlns="http://www.w3.org/2000/svg" xmlns:xlink="http://www.w3.org/1999/xlink">
    <!-- Generator: Sketch 52.4 (67378) - http://www.bohemiancoding.com/sketch -->
    <title>退出icon</title>
    <desc>Created with Sketch.</desc>
    <g id="Design" stroke="none" stroke-width="1" fill-rule="evenodd">
        <g id="01首页-操控台-copy" transform="translate(-1400.000000, -15.000000)" fill-rule="nonzero">
            <g id="退出icon" transform="translate(1400.000000, 15.000000)">
                <path d="M24.4277182,6.2469716 L24.4320098,6.24267997 C26.7911832,8.76591514 28.2352941,12.155489 28.2352941,15.8823529 C28.2352941,23.6793141 21.9146082,30 14.1176471,30 C6.32068589,30 0,23.6793141 0,15.8823529 C0,12.1547079 1.44471629,8.76449441 3.80476769,6.24109366 L3.80892017,6.24524614 C4.05113441,5.93486801 4.4287313,5.73529412 4.85294118,5.73529412 C5.58390629,5.73529412 6.17647059,6.32785842 6.17647059,7.05882353 C6.17647059,7.34163011 6.01025296,7.69340349 5.6778177,8.11414367 C3.79618296,10.1574121 2.64705882,12.8856864 2.64705882,15.8823529 C2.64705882,22.2173839 7.78261611,27.3529412 14.1176471,27.3529412 C20.452678,27.3529412 25.5882353,22.2173839 25.5882353,15.8823529 C25.5882353,12.8864676 24.4397102,10.1588347 22.5589479,8.11574188 C22.2255317,7.69445995 22.0588235,7.34215383 22.0588235,7.05882353 C22.0588235,6.32785842 22.6513878,5.73529412 23.3823529,5.73529412 C23.8073484,5.73529412 24.1855581,5.93560786 24.4277182,6.2469716 Z" id="Path"></path>
                <rect id="Rectangle" x="12.7941176" y="0" width="2.64705882" height="16.7647059" rx="1.32352941"></rect>
            </g>
        </g>
    </g>
</svg>
