<?xml version="1.0" encoding="UTF-8"?>
<svg width="64px" height="64px" viewBox="0 0 64 64" version="1.1" xmlns="http://www.w3.org/2000/svg" xmlns:xlink="http://www.w3.org/1999/xlink">
    <!-- Generator: Sketch 49.3 (51167) - http://www.bohemiancoding.com/sketch -->
    <title>logo_simple</title>
    <desc>Created with Sketch.</desc>
    <defs>
        <rect id="path-1" x="0" y="0" width="64" height="64"></rect>
    </defs>
    <g id="Design" stroke="none" stroke-width="1" fill="none" fill-rule="evenodd">
        <g id="菜单栏-new" transform="translate(-1501.000000, -75.000000)">
            <g id="菜单栏收起" transform="translate(1501.000000, 75.000000)">
                <g id="logo_simple">
                    <mask id="mask-2" fill="white">
                        <use xlink:href="#path-1"></use>
                    </mask>
                    <use id="Mask" fill="#427F9B" fill-rule="evenodd" xlink:href="#path-1"></use>
                    <g id="logo-图形" stroke-width="1" fill-rule="evenodd" mask="url(#mask-2)" fill="#FFFFFF">
                        <g transform="translate(14.000000, 18.000000)">
                            <path d="M7.32991685,2.22161155 L7.70103288,0.537495098 C9.3997588,0.31196392 10.6902571,0.17016291 11.5725279,0.112092069 C12.4986799,0.0511329697 13.8435625,0.0192766359 15.6071756,0.0165230675 C16.0966955,-0.0263349782 18.4027919,-0.0263349782 21.2539722,0.537495098 C23.3054401,0.94317946 25.4625816,1.54655696 26.9336209,2.09962486 C29.260586,2.97454129 31.28515,4.14033133 32.9499721,5.50841388 C35.5149597,7.61621567 37,9.96580049 37,9.96580049 C36.2912329,10.385073 35.7228626,10.7689294 35.2948889,11.1173697 C32.9661327,13.0133563 29.8006066,15.9835023 25.9597489,19.4602783 C24.9814864,20.3458096 23.4737791,21.5604029 21.4366271,23.1040582 C21.155047,23.3936602 19.2488239,24.6630296 17.4086235,25.5002392 C15.429374,26.4007101 13.2369883,27.0391396 12.8807031,26.9981321 C8.12292644,26.4500887 6.34450238,24.9048396 4.73974991,23.3936602 C3.13499743,21.8824808 2.68965052,20.6830359 2.52281963,20.324164 C1.45024159,18.0182468 0.582400156,15.2796132 0.262293596,12.7585524 C-0.153469993,9.48412617 0.0495716849,6.76294975 0.0495716849,6.76294975 L6.99642724,4.52411695 L7.32991685,2.22161155 Z" id="Fill-1" stroke="none" fill-opacity="0.3"></path>
                            <path d="M14.12836,22.0637815 C14.3587975,22.091738 14.5136788,22.1069197 14.6682011,22.1185837 C14.7031975,22.1213608 14.7380144,22.1245082 14.7730107,22.1267299 C14.9433263,22.1378385 15.1134624,22.1428373 15.283778,22.1439482 C15.3824856,22.1461699 15.4120979,22.1446887 15.4417102,22.1445036 C15.4840648,22.1439482 15.5264193,22.1426522 15.5691328,22.1415413 C19.864172,22.0432307 24.1443153,19.0315205 28.6712277,15.8437399 C30.6477139,14.4522101 32.6762459,13.0238371 34.77495,11.7891229 C33.0260299,13.2534136 31.2295506,14.9239528 29.3544641,16.6676232 C26.6970747,19.1385327 23.9987664,21.6459153 21.326481,23.656561 C18.2642107,25.796436 15.2315526,27.2557278 12.3345727,27.2883129 C6.89380692,27.3492247 2.1915538,23.1620458 0.588182583,14.6267994 C0.278420021,12.6052303 0.144716019,10.4022217 0.187608981,8.03684332 C2.39722466,7.14464244 4.55048724,6.40370285 6.64057692,5.80347142 C5.68113854,15.9190928 8.13716441,21.246193 14.12836,22.0637815 Z M14.65169,0.185142328 C19.9454712,0.185142328 24.6252908,1.17435779 28.5621109,3.12501736 C31.4222997,4.54228188 33.8147938,6.45683869 35.5787893,8.72557278 C33.8180242,7.13760704 31.6629669,5.84124045 29.1477165,4.85961583 C25.6913334,3.51066883 21.7135945,2.82675307 17.3230781,2.82656792 C14.1317699,2.82656792 10.7389187,3.19500116 7.23515593,3.92205508 C7.36993674,2.90043971 7.53720135,1.82328165 7.73336038,0.71409396 C10.1118559,0.363064106 12.4383055,0.18532747 14.65169,0.185142328 Z M31.3169517,13.7801435 C31.5692844,13.6087017 31.8226939,13.4385559 32.0770007,13.2697061 C31.8226939,13.4385559 31.5692844,13.6087017 31.3169517,13.7801435 Z M33.9840325,12.0499884 C34.0190289,12.0285119 34.0542047,12.0072206 34.089201,11.985744 C34.0542047,12.0072206 34.0190289,12.0285119 33.9840325,12.0499884 Z M31.19599,13.8623467 C30.8731262,14.0824809 30.5516982,14.3039111 30.2318854,14.5260819 C30.5525956,14.3031706 30.8734852,14.0821106 31.19599,13.8623467 Z M6.81161037,10.6436473 C6.76997368,9.13862532 6.8381717,7.47900949 7.01458919,5.67165008 C18.1967305,2.10358713 27.3225222,3.44994214 33.36702,7.38310576 C34.6423228,8.24235131 35.7713589,9.21286739 36.7196703,10.2731775 C36.6333459,10.3272391 36.5470216,10.3818561 36.4612357,10.4368433 C33.6767825,11.8709558 31.0294433,13.7351539 28.4691462,15.5376996 C28.279807,15.6711872 28.0910062,15.8041194 27.9023848,15.9364962 C23.5167141,18.7651007 19.4386523,21.0273548 15.0967718,20.4271234 C10.6251357,19.8091183 7.3354788,17.4056006 6.81161037,10.6436473 Z M12.7328133,27.9477899 C12.7841412,27.9422356 12.8356487,27.9359408 12.8869767,27.9296459 C12.9777877,27.9181671 13.0684193,27.9057626 13.1592303,27.8918769 C13.2107378,27.8839158 13.2620658,27.8761398 13.3135732,27.867253 C13.4099478,27.8509604 13.5065018,27.8326313 13.6030558,27.8133765 C13.647564,27.8044897 13.6920722,27.7965286 13.7364009,27.7869012 C13.8769247,27.7570933 14.017628,27.7248785 14.1585107,27.6889609 C14.3001113,27.6530433 14.441353,27.613608 14.5827741,27.5717658 C14.6276413,27.5586207 14.6725084,27.5441796 14.7173755,27.5304791 C14.8153653,27.5003009 14.9135345,27.4693821 15.0117038,27.436797 C15.0632112,27.4195788 15.1148981,27.40162 15.1664056,27.3838463 C15.2600881,27.3514464 15.3537707,27.3177505 15.4476327,27.2829438 C15.4987812,27.2638741 15.5499297,27.2449896 15.6012577,27.2251794 C15.7014011,27.1866698 15.8015445,27.1464939 15.9020468,27.1055774 C15.9452987,27.0878037 15.9885506,27.0707707 16.031982,27.0526267 C16.3191315,26.9320991 16.6073578,26.8013886 16.8961226,26.6608655 C16.9390156,26.6401296 16.9819085,26.6182828 17.0248015,26.5971766 C17.127278,26.5462624 17.2297545,26.4946077 17.3325899,26.4414719 C17.3823027,26.4157371 17.4320154,26.3892617 17.4820871,26.3631567 C17.5802564,26.3113168 17.6782461,26.2583661 17.7765949,26.2044897 C17.8257692,26.1776441 17.8745846,26.1507984 17.9239385,26.1233974 C18.0294659,26.0645221 18.1351728,26.0037954 18.2410592,25.9425133 C18.2809012,25.9195557 18.3207432,25.8971534 18.3604058,25.8736404 C18.6534778,25.7020134 18.9472676,25.5214997 19.2410575,25.3332099 C19.2800021,25.308586 19.3189468,25.2828512 19.3580709,25.2576718 C19.4661109,25.1875029 19.5745099,25.1167785 19.6829088,25.0447582 C19.7297501,25.0136542 19.7765914,24.9821801 19.8234326,24.9507059 C19.9269859,24.8810923 20.0305392,24.8105531 20.134272,24.738903 C20.1793186,24.7079843 20.2243652,24.6768804 20.2694118,24.6455913 C20.3835537,24.5663504 20.4973367,24.4858135 20.6114787,24.404536 C20.6443214,24.3812081 20.6768052,24.3582504 20.7096479,24.3347373 C21.0086424,24.1199722 21.3079957,23.898542 21.6075286,23.6711872 C21.6387561,23.647489 21.6701631,23.6232354 21.7012111,23.599352 C21.8191219,23.509558 21.9366738,23.4190234 22.0544051,23.3271928 C22.094606,23.2960889 22.1346275,23.2647998 22.1746489,23.2333256 C22.2871757,23.1451979 22.3997024,23.0565147 22.5120496,22.9669058 C22.549738,22.9369128 22.5876059,22.9069197 22.6252942,22.8767415 C22.7505632,22.7763944 22.8758322,22.6751215 23.0012807,22.5731081 C23.3743956,22.2687341 23.6802098,22.0141634 23.9860241,21.7551493 C24.1705177,21.5985189 24.3042217,21.484286 24.4379257,21.3693127 C24.4655638,21.3456144 24.493202,21.3217311 24.5206606,21.2980329 C24.6486217,21.1878732 24.7764032,21.0769729 24.9041847,20.9657024 C25.12188,20.7755612 25.2685057,20.6468873 25.4151314,20.5172877 C29.2485777,17.1280722 33.0326702,13.2915529 36.5488163,10.5984726 C36.6983135,10.502754 36.8487081,10.4083314 37,10.3155751 C36.8802945,10.1780143 36.7575381,10.0417496 36.6319102,9.90678084 C33.0177743,4.24235131 25.5520659,-0.000555426984 14.6502543,0 C12.4348956,0.000185142328 10.0754238,0.175514927 7.58009431,0.549687572 C7.36652684,1.74626244 7.19100669,2.88248091 7.04958554,3.9650081 C6.73192637,4.03202962 6.22887628,4.15792641 5.61976032,4.31751909 C5.4673916,4.35732469 5.30838255,4.399352 5.14452784,4.44286045 C4.81663897,4.53006249 4.46864962,4.6237445 4.11384048,4.71983337 C3.49287961,4.88849803 2.85074146,5.06475353 2.25741873,5.22878963 C1.83369369,5.34561444 1.43491478,5.45632955 1.0865665,5.55297385 C0.947298971,5.5916686 0.815928059,5.62832678 0.694427911,5.66202268 C0.451427617,5.72978477 0.247371978,5.78625318 0.0951827238,5.82846563 C0.0723902294,6.20023143 0.0549817888,6.56570238 0.0402653751,6.92784078 C0.0391885643,6.95764869 0.0375733482,6.98764175 0.0366760059,7.01763481 C0.0223185291,7.38606804 0.0124477638,7.74968757 0.00652530465,8.10830826 C-0.00173024451,8.60356399 -0.00208918143,9.0882666 0.00508955697,9.56408239 C0.0113709531,9.97269151 0.022677466,10.3611201 0.0388296274,10.743439 C0.056238068,11.1455682 0.0777742832,11.5210368 0.104156147,11.8898403 C0.293854309,14.5190465 0.729962666,16.8124045 1.36725517,18.7862069 C1.45914302,19.0709558 1.55282555,19.3416339 1.65027693,19.6062023 C1.75508651,19.8898403 1.85522991,20.1451516 1.95932162,20.394168 C2.07418143,20.6681787 2.18168304,20.9107151 2.29277401,21.1467716 C2.41535097,21.4056006 2.53110813,21.6373988 2.65027519,21.862717 C3.14076249,22.7873178 3.68275724,23.6002777 4.27284953,24.3101134 C4.42216729,24.4897015 4.56771621,24.654293 4.71559822,24.8135154 C4.88483698,24.9947697 5.03164218,25.1428836 5.180601,25.2856283 C5.36581245,25.4616987 5.51495074,25.5951863 5.66606319,25.7236751 C5.86294009,25.888822 6.01566775,26.0099051 6.17019009,26.1254339 C6.37514307,26.2763249 6.53235744,26.3859292 6.69172543,26.4896089 C6.90008832,26.6234668 7.06358408,26.7225179 7.22923347,26.8156445 C7.43616061,26.9302476 7.60791192,27.0198565 7.78163739,27.1028003 C8.15403445,27.2794261 8.51781701,27.4240222 8.88823991,27.5449202 C9.09803854,27.6130525 9.27553285,27.6632261 9.45410397,27.7089563 C9.68597722,27.7674612 9.86149737,27.8050451 10.0379149,27.8381856 C10.2845045,27.88299 10.4594863,27.9087248 10.6353654,27.9300162 C10.8920053,27.9592687 11.0680638,27.9738949 11.2450197,27.9837075 C11.4806618,27.9950012 11.6328511,28 11.7855787,28 C11.8230876,28 11.860776,27.9998149 11.8982849,27.9992594 C12.0362962,27.9975931 12.1746664,27.9918537 12.3133955,27.9835223 C12.3577242,27.9809303 12.4024118,27.9766721 12.44692,27.9733395 C12.5420383,27.966119 12.637336,27.9579727 12.7328133,27.9477899 Z" id="Fill-3" stroke="#FFFFFF" stroke-width="0.3"></path>
                        </g>
                    </g>
                </g>
            </g>
        </g>
    </g>
</svg>