<?xml version="1.0" encoding="UTF-8"?>
<svg width="240px" height="64px" viewBox="0 0 240 64" version="1.1" xmlns="http://www.w3.org/2000/svg" xmlns:xlink="http://www.w3.org/1999/xlink">
    <!-- Generator: Sketch 49.3 (51167) - http://www.bohemiancoding.com/sketch -->
    <title>logo_home</title>
    <desc>Created with Sketch.</desc>
    <defs>
        <rect id="path-1" x="0" y="0" width="240" height="64"></rect>
        <polygon id="path-3" points="0.127572988 0.0461869307 4.13034217 0.0461869307 4.13034217 6.8022635 0.127572988 6.8022635"></polygon>
        <polygon id="path-5" points="0.123394639 0.0387442024 12.1314355 0.0387442024 12.1314355 9.49731142 0.123394639 9.49731142"></polygon>
        <polygon id="path-7" points="0.123424273 0.26949879 12.1314355 0.26949879 12.1314355 10.4036136 0.123424273 10.4036136"></polygon>
        <polygon id="path-9" points="0 30.3111111 128.295457 30.3111111 128.295457 0.0600220022 0 0.0600220022"></polygon>
    </defs>
    <g id="Design" stroke="none" stroke-width="1" fill="none" fill-rule="evenodd">
        <g id="菜单栏-new" transform="translate(-2165.000000, -75.000000)">
            <g id="logo_home" transform="translate(2165.000000, 75.000000)">
                <g id="Logo-bg" stroke-width="1" fill-rule="evenodd">
                    <mask id="mask-2" fill="white">
                        <use xlink:href="#path-1"></use>
                    </mask>
                    <use id="Mask" fill="#427F9B" xlink:href="#path-1"></use>
                    <path d="M-4.91308594,67.4511719 C12.7846334,47.1951459 29.6539875,26.5015935 45.6949766,5.37051467 C69.7564601,-26.3261035 84.8132875,-35 111.361572,-35 C137.909857,-35 180.800526,-15.9808032 213,25.1146454 C245.199474,66.2100939 248.247581,74.9938991 277.039346,74.9938991 C296.233857,74.9938991 202.249713,72.4796567 -4.91308594,67.4511719 Z" id="Path-2" fill-opacity="0.300000012" fill="#12B8FF" style="mix-blend-mode: multiply;" mask="url(#mask-2)"></path>
                    <path d="M64,65.6112608 C77.8149718,53.8252829 90.9833155,41.78473 103.505031,29.4896022 C122.287605,11.0469106 134.041077,6 154.764866,6 C175.488655,6 208.969432,17.0663283 234.104581,40.9777336 C259.239731,64.889139 261.619106,70 284.094173,70 C299.077551,70 225.712827,68.5370869 64,65.6112608 Z" id="Path-2" fill-opacity="0.200000018" fill="#00B3FF" style="mix-blend-mode: multiply;" mask="url(#mask-2)"></path>
                </g>
                <g id="logo" opacity="0.900000036" stroke-width="1" fill-rule="evenodd" transform="translate(14.000000, 17.000000)"></g>
                <g id="文字" stroke-width="1" fill-rule="evenodd" transform="translate(14.000000, 17.000000)">
                    <path d="M116.287535,22.107784 L117.621643,22.107784 C118.404861,22.107784 119.05858,21.5477787 119.21386,20.8014051 L120.290156,15.3517075 L117.621643,15.3517075 L116.287535,22.107784 Z" id="Fill-2" fill="#FEFEFE"></path>
                    <g id="Group-6" transform="translate(124.165115, 15.305611)">
                        <mask id="mask-4" fill="white">
                            <use xlink:href="#path-3"></use>
                        </mask>
                        <g id="Clip-5"></g>
                        <path d="M0.127572988,0.0461869307 L1.20386821,5.49588462 C1.35944502,6.24225822 2.01316398,6.8022635 2.79608578,6.8022635 L4.13049034,6.8022635 L2.79608578,0.0461869307 L0.127572988,0.0461869307 Z" id="Fill-4" fill="#FEFEFE" mask="url(#mask-4)"></path>
                    </g>
                    <g id="Group-9" transform="translate(116.164021, 1.800660)">
                        <mask id="mask-6" fill="white">
                            <use xlink:href="#path-5"></use>
                        </mask>
                        <g id="Clip-8"></g>
                        <path d="M8.79598712,8.14621615 L3.45896154,8.14621615 L3.45896154,6.11927314 L7.46158255,6.11927314 L7.46158255,4.76817787 L3.45896154,4.76817787 L3.45896154,2.74123485 L8.79598712,2.74123485 L8.79598712,8.14621615 Z M11.4644999,1.39013958 L11.4644999,0.0387442024 L8.79598712,0.0387442024 L8.79598712,1.39013958 L3.45896154,1.39013958 L3.45896154,0.0387442024 L0.790448752,0.0387442024 L0.790448752,1.39013958 L0.123394639,1.39013958 L0.123394639,2.74123485 L0.790448752,2.74123485 L0.790448752,9.49731142 L3.45896154,9.49731142 L8.79598712,9.49731142 L11.4644999,9.49731142 L11.4644999,2.74123485 L12.131554,2.74123485 L12.131554,1.39013958 L11.4644999,1.39013958 Z" id="Fill-7" fill="#FEFEFE" mask="url(#mask-6)"></path>
                    </g>
                    <g id="Group-12" transform="translate(116.164021, 11.704290)">
                        <mask id="mask-8" fill="white">
                            <use xlink:href="#path-7"></use>
                        </mask>
                        <g id="Clip-11"></g>
                        <path d="M7.46161219,0.26949879 L4.7930994,0.26949879 L4.7930994,1.62059406 L0.123424273,1.62059406 L0.123424273,2.97168933 L4.7930994,2.97168933 L4.7930994,10.4036136 L7.46161219,10.4036136 L7.46161219,2.97168933 L10.7971791,2.97168933 C11.5347614,2.97168933 12.1315837,2.36726777 12.1315837,1.62059406 L7.46161219,1.62059406 L7.46161219,0.26949879 Z" id="Fill-10" fill="#FEFEFE" mask="url(#mask-8)"></path>
                    </g>
                    <path d="M113.597656,17.0108957 L116.287505,6.56886794 L116.287505,5.21747256 L112.834292,5.21747256 L113.618992,1.83943428 C111.970767,1.83943428 110.846169,2.2895993 110.636659,3.19082966 L110.16578,5.21747256 L108.282263,5.21747256 L108.282263,6.56886794 L109.851663,6.56886794 L108.282263,13.3249445 L110.950479,13.3249445 L112.520175,6.56886794 L113.618992,6.56886794 L111.633832,14.2762932 L110.950479,13.3249445 L108.282263,13.3249445 C108.282263,13.3249445 109.673564,15.2624547 110.929143,17.0108957 L109.616371,22.107664 L110.950479,22.107664 C111.748811,22.107664 112.419717,21.559363 112.617967,20.8144899 L112.893263,19.7457982 C112.893263,19.7457982 112.893263,19.7460983 112.89356,19.7460983 C113.128258,20.0732182 113.782274,20.7562686 114.852939,20.7562686 L116.287505,20.7562686 L113.597656,17.0108957 Z" id="Fill-13" fill="#FEFEFE"></path>
                    <path d="M89.6030587,9.94687622 L89.0693561,9.94687622 L92.2715714,1.83940427 C90.5015518,1.83940427 89.3956229,2.36459679 89.0693561,3.19079965 L85.6001413,11.9738192 L88.2686541,11.9738192 L88.2686541,11.9735191 L88.2686541,22.107634 L90.9371669,22.107634 L90.9371669,11.2979715 C90.9371669,10.5512978 90.3403446,9.94687622 89.6030587,9.94687622" id="Fill-15" fill="#FEFEFE"></path>
                    <path d="M104.279227,20.5538744 L101.89016,20.1907413 L104.279523,15.3517675 L104.279523,14.0003721 L96.5409845,14.0003721 L97.2080386,10.6223338 L102.929117,10.6223338 C104.413171,10.6223338 105.613632,9.71600158 105.613632,8.5953908 L97.6083896,8.5953908 L98.0087406,6.5687479 L102.262063,6.5687479 C103.745821,6.5687479 104.946578,5.66241567 104.946578,4.54180488 L98.4087953,4.54180488 L98.9424978,1.83961435 C97.1727745,1.83961435 96.0472874,2.98903569 95.7405788,4.54180488 L92.271364,4.54180488 L92.271364,6.5687479 L95.3402278,6.5687479 L94.9398768,8.5953908 L91.6046062,8.5953908 L91.6046062,10.6223338 L94.5398221,10.6223338 L93.6054722,15.3517675 L101.611011,15.3517675 L99.4080429,19.8138031 L92.271364,18.7298058 L92.271364,20.080901 L105.613632,22.107844 C105.613632,21.2486291 105.061556,20.672718 104.279227,20.5538744" id="Fill-17" fill="#FEFEFE"></path>
                    <path d="M52.2447686,11.2979415 L57.565792,11.2979415 C59.0495503,11.2979415 60.2500107,10.3913091 60.2500107,9.27129857 L52.2447686,9.27129857 L52.2447686,6.56880792 C52.2447686,5.44849725 51.3495352,4.54186491 50.2436063,4.54186491 L48.2421476,4.54186491 L48.2421476,9.27129857 L42.9211242,9.27129857 C41.4373659,9.27129857 40.2369056,10.1779309 40.2369056,11.2979415 L48.2421476,11.2979415 L48.2421476,11.9737892 L40.2369056,22.1079041 L42.9054184,22.1079041 C43.7796119,22.1079041 44.5589777,21.6982539 45.0680843,21.0587195 L50.2436063,14.5070178 L55.418832,21.0587195 C55.9276423,21.6982539 56.7073043,22.1079041 57.5814979,22.1079041 L60.2500107,22.1079041 L52.2447686,11.9737892 L52.2447686,11.2979415 Z" id="Fill-19" fill="#FEFEFE"></path>
                    <path d="M58.9316083,2.51504194 L44.2395266,2.51504194 C42.7557683,2.51504194 41.555308,3.42167428 41.555308,4.54198495 L56.2473896,4.54198495 C57.731148,4.54198495 58.9316083,3.63535261 58.9316083,2.51504194" id="Fill-21" fill="#FEFEFE"></path>
                    <polygon id="Fill-23" fill="#FEFEFE" points="66.9211148 14.0004021 62.9184938 15.3517975 62.9184938 18.0542881 66.9211148 16.7028928"></polygon>
                    <path d="M69.589598,2.51504194 L65.6406139,2.51504194 C64.1568556,2.51504194 62.9563953,3.42167428 62.9563953,4.54198495 L67.3978911,4.54198495 L66.9210852,11.2980615 L65.0867605,11.2980615 L65.586977,7.2444756 L63.5858146,7.2444756 L62.9184642,12.6494569 L67.5884356,12.6494569 L67.5884356,20.080781 L64.2528687,20.080781 C64.2528687,21.2013918 65.4465133,22.107724 66.9210852,22.107724 L69.589598,22.107724 L69.589598,20.080781 L69.589598,11.2980615 L68.9225439,11.2980615 L69.589598,2.51504194 Z" id="Fill-25" fill="#FEFEFE"></path>
                    <path d="M82.9319841,22.107784 C82.9319841,20.9874734 82.0367507,20.080841 80.9305254,20.080841 L72.9249871,20.080841 L72.9249871,8.38225267 L74.9264458,7.84895718 L74.9264458,16.7028027 L77.5949585,16.7028027 L77.5949585,7.13769646 L79.5964172,6.60440097 L79.5964172,14.6758597 C79.5964172,16.1698073 80.7897655,17.3783504 82.2646337,17.3783504 L82.2646337,4.54204497 L77.5949585,5.78660119 L77.5949585,3.1909497 C77.5949585,2.44397589 76.9984326,1.83955432 76.260554,1.83955432 L74.9264458,1.83955432 L74.9264458,6.4975618 L72.9249871,7.0311574 L72.9249871,3.1909497 L70.257067,3.1909497 L70.257067,7.74241813 L69.5897165,7.92008326 L69.5897165,9.27147864 L70.257067,9.0935134 L70.257067,22.107784 L82.9319841,22.107784 Z" id="Fill-27" fill="#FEFEFE"></path>
                    <polygon id="Fill-29" fill="#FEFEFE" points="62.9185531 4.55405824 62.9621249 4.55405824 62.9185531 4.46002491"></polygon>
                    <mask id="mask-10" fill="white">
                        <use xlink:href="#path-9"></use>
                    </mask>
                    <g id="Clip-32"></g>
                    <polygon id="Fill-31" fill="#FEFEFE" mask="url(#mask-10)" points="117.621998 30.2150759 118.95581 30.2150759 118.95581 23.4586992 117.621998 23.4586992"></polygon>
                    <polygon id="Fill-33" fill="#FEFEFE" mask="url(#mask-10)" points="96.2741036 23.4591494 93.6055908 28.8641307 90.937078 23.4591494 89.6029698 23.4591494 89.6029698 30.215226 90.937078 30.215226 90.937078 26.1613399 92.9385367 30.215226 94.2726449 30.215226 96.2741036 26.1613399 96.2741036 30.215226 97.6082118 30.215226 97.6082118 23.4591494"></polygon>
                    <path d="M105.613632,28.8637706 L100.278088,28.8637706 L100.278088,27.5126753 L105.613632,27.5126753 L105.613632,26.1612799 L100.278088,26.1612799 L100.278088,24.8101846 L105.613632,24.8101846 C106.352696,24.8101846 106.951,24.2057631 106.951,23.4587893 L98.9454612,23.4587893 L98.9454612,30.2148658 L106.944776,30.2151659 C106.944776,29.4681921 106.349436,28.8637706 105.613632,28.8637706" id="Fill-34" fill="#FEFEFE" mask="url(#mask-10)"></path>
                    <polygon id="Fill-35" fill="#00B8EE" mask="url(#mask-10)" points="84.2663294 30.2150759 85.6001413 30.2150759 85.6001413 23.4586992 84.2663294 23.4586992"></polygon>
                    <polygon id="Fill-36" fill="#00B8EE" mask="url(#mask-10)" points="81.5976092 23.4591494 81.5976092 26.4992638 78.9290964 26.4992638 78.9290964 23.4591494 77.5949882 23.4591494 77.5949882 30.215226 78.9290964 30.215226 78.9290964 27.1748114 81.5976092 27.1748114 81.5976092 30.215226 82.9317174 30.215226 82.9317174 23.4591494"></polygon>
                    <path d="M74.9265643,28.8637706 L72.2580515,28.8637706 C71.5207656,28.8637706 70.9239433,28.259349 70.9239433,27.5126753 L70.9236469,27.5126753 L70.9236469,26.16158 C70.9236469,25.4146062 71.5204692,24.8101846 72.2580515,24.8101846 L74.9265643,24.8101846 C75.6638502,24.8101846 76.2606725,24.2057631 76.2606725,23.4590894 L72.2580515,23.4590894 C70.7831833,23.4590894 69.5895387,24.6679325 69.5895387,26.16158 L69.5658318,27.5126753 C69.5658318,29.0198278 70.7701445,30.2151659 72.2580515,30.2151659 L76.2606725,30.2151659 C76.2606725,29.4681921 75.6638502,28.8637706 74.9265643,28.8637706" id="Fill-37" fill="#00B8EE" mask="url(#mask-10)"></path>
                    <polygon id="Fill-38" fill="#FEFEFE" mask="url(#mask-10)" points="84.2663294 30.2150759 85.6001413 30.2150759 85.6001413 23.4586992 84.2663294 23.4586992"></polygon>
                    <polygon id="Fill-39" fill="#FEFEFE" mask="url(#mask-10)" points="81.5976092 23.4591494 81.5976092 26.4992638 78.9290964 26.4992638 78.9290964 23.4591494 77.5949882 23.4591494 77.5949882 30.215226 78.9290964 30.215226 78.9290964 27.1748114 81.5976092 27.1748114 81.5976092 30.215226 82.9317174 30.215226 82.9317174 23.4591494"></polygon>
                    <path d="M74.9265643,28.8637706 L72.2580515,28.8637706 C71.5207656,28.8637706 70.9239433,28.259349 70.9239433,27.5126753 L70.9236469,27.5126753 L70.9236469,26.16158 C70.9236469,25.4146062 71.5204692,24.8101846 72.2580515,24.8101846 L74.9265643,24.8101846 C75.6638502,24.8101846 76.2606725,24.2057631 76.2606725,23.4590894 L72.2580515,23.4590894 C70.7831833,23.4590894 69.5895387,24.6679325 69.5895387,26.16158 L69.5658318,27.5126753 C69.5658318,29.0198278 70.7701445,30.2151659 72.2580515,30.2151659 L76.2606725,30.2151659 C76.2606725,29.4681921 75.6638502,28.8637706 74.9265643,28.8637706" id="Fill-40" fill="#FEFEFE" mask="url(#mask-10)"></path>
                    <polygon id="Fill-41" fill="#FEFEFE" mask="url(#mask-10)" points="48.2421476 30.2150759 49.5762558 30.2150759 49.5762558 23.4589993 48.2421476 23.4589993"></polygon>
                    <polygon id="Fill-42" fill="#FEFEFE" mask="url(#mask-10)" points="64.2526317 23.4588493 64.2526317 28.5259067 60.2500107 23.4588493 58.9156061 23.4588493 58.9156061 30.2149259 60.2500107 30.2149259 60.2500107 25.1478684 64.2526317 30.2149259 65.5870362 30.2149259 65.5870362 23.4588493"></polygon>
                    <path d="M53.0450854,28.1882229 L54.2458421,25.1478084 L55.4465987,28.1882229 L53.0450854,28.1882229 Z M52.7783823,28.8637706 L55.7135982,28.8637706 L56.008157,29.6095439 L56.008157,29.6089437 C56.1581034,29.964274 56.5054101,30.2133653 56.9105025,30.2148658 L56.9099098,30.2151659 L57.581409,30.2151659 L54.9128962,23.4587893 L53.578788,23.4587893 L50.9105715,30.2148658 L51.581478,30.2148658 C51.9865704,30.2133653 52.3338771,29.964274 52.4838235,29.6089437 L52.7783823,28.8637706 Z" id="Fill-43" fill="#FEFEFE" mask="url(#mask-10)"></path>
                    <path d="M114.95316,27.506523 L114.946937,27.506523 C114.946937,28.2567981 114.347744,28.8636205 113.607198,28.8636205 L109.610504,28.8636205 L109.610504,24.8103347 L113.607198,24.8103347 C114.3513,24.8103347 114.95316,25.4198581 114.95316,26.1734344 L114.95316,27.506523 Z M113.607198,23.4589393 L109.610504,23.4589393 L109.604281,23.4589393 L108.270172,23.4589393 L108.270172,30.2150159 L109.604281,30.2150159 L109.610504,30.2150159 L113.607198,30.2150159 C115.088586,30.2150159 116.287268,29.0007708 116.287268,27.5005208 L116.287268,26.1734344 C116.287268,24.6731844 115.088586,23.4589393 113.607198,23.4589393 Z" id="Fill-44" fill="#FEFEFE" mask="url(#mask-10)"></path>
                    <path d="M122.620874,28.215773 L124.292806,24.8158267 L125.964442,28.215773 L122.620874,28.215773 Z M127.628373,30.2151059 L128.295131,30.2151059 L124.95986,23.4590294 L124.960157,23.4587292 L124.959564,23.4587292 L123.626048,23.4587292 L123.625456,23.4587292 L123.625752,23.4590294 L120.290185,30.2151059 L120.956943,30.2151059 C121.378038,30.2151059 121.742828,29.972617 121.923594,29.6184872 L122.288681,28.8913207 L126.296636,28.8913207 L126.660834,29.6166866 C126.841006,29.9720168 127.206982,30.2151059 127.628373,30.2151059 Z" id="Fill-45" fill="#FEFEFE" mask="url(#mask-10)"></path>
                    <path d="M41.5710138,23.4588493 C40.8334316,23.4588493 40.2369056,24.0632708 40.2369056,24.8102447 L42.9054184,24.8102447 L42.9054184,30.2149259 L44.2392303,30.2149259 L44.2392303,24.8102447 L45.5736348,24.8102447 C46.3109208,24.8102447 46.9077431,24.2058231 46.9077431,23.4588493 L41.5710138,23.4588493 Z" id="Fill-46" fill="#FEFEFE" mask="url(#mask-10)"></path>
                </g>
                <g id="logo-图形" stroke-width="1" fill-rule="evenodd" transform="translate(14.000000, 18.000000)" fill="#FFFFFF">
                    <path d="M7.27207149,2.50029004 L7.64025879,0.80090332 C9.32557891,0.5733272 10.605893,0.430240449 11.4812012,0.371643066 C12.4000443,0.310131238 13.7343135,0.277986055 15.4840088,0.27520752 C15.9696655,0.23196087 18.2575629,0.23196087 21.0862427,0.80090332 C23.121521,1.21026611 25.261639,1.81911457 26.7210693,2.37719727 C29.0296708,3.26004676 31.0382576,4.43640728 32.6899414,5.81689453 C35.234687,7.94380823 36.7080078,10.3146973 36.7080078,10.3146973 C36.0048341,10.7377715 35.4409492,11.1251084 35.0163529,11.476708 C32.7059745,13.389886 29.5654297,16.3869629 25.7548828,19.8952637 C24.7843405,20.7888243 23.2885315,22.0144305 21.2674561,23.5720825 C20.9880981,23.8643104 19.0969183,25.1451895 17.2712402,25.9899902 C15.3076103,26.8986258 13.1325262,27.5428441 12.7790527,27.5014648 C8.0588229,26.9484522 6.29443359,25.389192 4.70234531,23.8643104 C3.11025703,22.3394288 2.66842466,21.1291083 2.50291034,20.7669824 C1.43879674,18.4401569 0.57780404,15.6766915 0.260223659,13.1327717 C-0.152258856,9.8286555 0.049180481,7.08280556 0.049180481,7.08280556 L6.94121367,4.82367276 L7.27207149,2.50029004 Z" id="Fill-1" fill-opacity="0.3"></path>
                    <path d="M14.0713145,21.9493647 C14.3008217,21.9769987 14.4550778,21.9920052 14.6089763,22.0035346 C14.6438314,22.0062797 14.6785077,22.0093908 14.7133628,22.0115869 C14.8829908,22.0225673 15.0524401,22.0275085 15.2220681,22.0286065 C15.3203773,22.0308026 15.34987,22.0293386 15.3793628,22.0291556 C15.4215464,22.0286065 15.46373,22.0273255 15.506271,22.0262275 C19.7839715,21.929051 24.0468362,18.9520837 28.5554739,15.8010771 C30.5239812,14.4256 32.5443242,13.0137046 34.634556,11.793234 C32.8926961,13.2406327 31.1034691,14.8919007 29.2359522,16.6154562 C26.5892903,19.0578614 23.9018749,21.536319 21.2403773,23.5237699 C18.1904691,25.6389595 15.1700536,27.081417 12.2847686,27.1136261 C6.86596667,27.1738353 2.18269614,23.0349595 0.585797585,14.5981752 C0.277285507,12.5999268 0.144121256,10.422332 0.186841063,8.08424052 C2.38753671,7.20233203 4.53210676,6.46993987 6.61375894,5.87663268 C5.65819372,15.8755608 8.10430483,21.1412078 14.0713145,21.9493647 Z M14.5925319,0.32311634 C19.8649425,0.32311634 24.52587,1.30092026 28.4467976,3.22907712 C31.2954401,4.62999216 33.6782758,6.52246275 35.4351502,8.76502484 C33.6814932,7.19537778 31.5351357,5.91396601 29.0300391,4.94366536 C25.5876092,3.61027974 21.625928,2.93425359 17.2531357,2.93407059 C14.0747106,2.93407059 10.695556,3.29825359 7.20593768,4.01692026 C7.3401744,3.0070902 7.50676377,1.94235817 7.70213092,0.845966013 C10.0710246,0.498985621 12.3880826,0.323299346 14.5925319,0.32311634 Z M31.1905174,13.7612863 C31.4418314,13.5918222 31.6942179,13.4236392 31.9474981,13.2567373 C31.6942179,13.4236392 31.4418314,13.5918222 31.1905174,13.7612863 Z M33.8468314,12.0510902 C33.8816865,12.0298614 33.9167203,12.0088157 33.9515754,11.9875869 C33.9167203,12.0088157 33.8816865,12.0298614 33.8468314,12.0510902 Z M31.070044,13.8425412 C30.7484836,14.0601359 30.4283531,14.2790118 30.1098314,14.4986196 C30.4292469,14.2782797 30.7488411,14.0597699 31.070044,13.8425412 Z M6.78410193,10.6609725 C6.74263333,9.17331242 6.81055604,7.53284183 6.98626135,5.74633203 C18.1232614,2.21943007 27.212213,3.55025359 33.2323097,7.43804444 C34.5024643,8.28737778 35.6269425,9.24669804 36.5714256,10.2947765 C36.4854498,10.3482144 36.3994739,10.4022013 36.3140343,10.4565542 C33.5408217,11.8741229 30.9041696,13.7168157 28.3542082,15.4985673 C28.1656333,15.630515 27.9775947,15.7619137 27.7897348,15.8927634 C23.4217686,18.6887373 19.3601696,20.9248941 15.0358169,20.3315869 C10.5822324,19.7207111 7.30585556,17.3449203 6.78410193,10.6609725 Z M12.6814014,27.7654954 C12.7325222,27.7600052 12.7838217,27.753783 12.8349425,27.7475608 C12.925387,27.7362144 13.0156527,27.7239529 13.1060971,27.7102275 C13.1573966,27.7023582 13.2085174,27.6946719 13.2598169,27.6858876 C13.3558024,27.669783 13.4519667,27.6516654 13.5481309,27.6326327 C13.5924594,27.6238484 13.6367879,27.6159791 13.6809377,27.6064627 C13.8208942,27.5769987 13.9610295,27.5451556 14.1013435,27.5096523 C14.2423725,27.474149 14.383044,27.4351686 14.5238942,27.3938092 C14.5685802,27.3808157 14.6132662,27.3665412 14.6579522,27.3529987 C14.7555464,27.3231686 14.8533193,27.2926065 14.9510923,27.2603974 C15.0023918,27.2433778 15.05387,27.2256261 15.1051696,27.2080575 C15.1984739,27.1760314 15.2917783,27.1427242 15.3852614,27.108319 C15.4362034,27.0894693 15.4871454,27.0708026 15.5382662,27.0512209 C15.6380053,27.0131556 15.7377444,26.9734431 15.8378411,26.9329987 C15.8809184,26.9154301 15.9239957,26.8985935 15.9672517,26.8806588 C16.253242,26.7615216 16.5403048,26.632319 16.8279039,26.493417 C16.8706237,26.4729203 16.9133435,26.4513255 16.9560633,26.4304627 C17.0581261,26.3801359 17.1601889,26.3290771 17.2626092,26.2765542 C17.3121213,26.2511163 17.3616333,26.2249464 17.4115029,26.1991425 C17.5092758,26.1479007 17.60687,26.0955608 17.7048217,26.0423059 C17.7537976,26.0157699 17.8024159,25.989234 17.8515705,25.962149 C17.956672,25.9039529 18.0619522,25.8439268 18.1674111,25.7833516 C18.2070923,25.7606588 18.2467734,25.738515 18.2862758,25.7152732 C18.5781647,25.5456261 18.8707686,25.3671948 19.1633725,25.1810771 C19.2021599,25.1567373 19.2409473,25.1312993 19.2799135,25.1064105 C19.3875174,25.037051 19.4954787,24.9671425 19.6034401,24.8959529 C19.6500923,24.8652078 19.6967444,24.8340967 19.7433966,24.8029856 C19.8465319,24.7341752 19.9496671,24.6644497 20.0529812,24.5936261 C20.0978459,24.5630641 20.1427106,24.532319 20.1875754,24.5013908 C20.3012565,24.4230641 20.4145802,24.3434562 20.5282614,24.2631163 C20.5609715,24.2400575 20.5933242,24.2173647 20.6260343,24.1941229 C20.9238217,23.9818353 21.2219667,23.7629595 21.5202903,23.5382275 C21.5513918,23.5148026 21.582672,23.4908288 21.6135947,23.4672209 C21.7310295,23.3784627 21.8481068,23.2889725 21.9653628,23.1982013 C22.0054014,23.1674562 22.0452614,23.1365281 22.0851213,23.105417 C22.1971937,23.0183059 22.3092662,22.9306458 22.4211599,22.8420706 C22.4586961,22.8124235 22.4964111,22.7827765 22.5339473,22.7529464 C22.6587106,22.6537569 22.7834739,22.5536523 22.9084159,22.4528157 C23.2800246,22.1519529 23.5846043,21.900319 23.8891841,21.6442928 C24.0729329,21.4894693 24.2060971,21.3765542 24.3392614,21.2629072 C24.3667879,21.2394824 24.3943145,21.2158745 24.4216623,21.1924497 C24.5491068,21.0835608 24.6763725,20.9739399 24.8036382,20.8639529 C25.0204546,20.6760052 25.1664884,20.5488157 25.3125222,20.4207111 C29.1304932,17.0705935 32.8993097,13.278332 36.4012614,10.616319 C36.5501551,10.5217046 36.6999425,10.4283712 36.8506237,10.336685 C36.7314014,10.2007111 36.6091406,10.0660183 36.4840198,9.93260654 C32.8844739,4.33352157 25.4489039,0.139560784 14.5911019,0.140109804 C12.3846865,0.14029281 10.0347396,0.3136 7.54948357,0.683456209 C7.33677826,1.86622745 7.16196667,2.98933856 7.02111643,4.05937778 C6.70473961,4.12562614 6.20372029,4.25007059 5.59706329,4.40782222 C5.44530966,4.44716863 5.28694251,4.48871111 5.12374928,4.53171765 C4.79718406,4.61791373 4.45059952,4.71051503 4.09722271,4.80549542 C3.4787686,4.97221438 2.83922271,5.1464366 2.24829517,5.30858039 C1.82628068,5.42405752 1.42911159,5.53349542 1.08216957,5.62902484 C0.943464251,5.6672732 0.812623671,5.7035085 0.69161401,5.73681569 C0.449594686,5.80379608 0.246362802,5.85961307 0.0947879227,5.90133856 C0.0720874396,6.26881569 0.0547492754,6.63007059 0.0400922705,6.98803137 C0.0390198068,7.01749542 0.0374111111,7.04714248 0.0365173913,7.07678954 C0.0222178744,7.44097255 0.0123869565,7.80039739 0.0064884058,8.15488105 C-0.00173381643,8.64442353 -0.00209130435,9.12353464 0.00505845411,9.59386144 C0.0113144928,9.99775686 0.0225753623,10.3817046 0.0386623188,10.7596131 C0.0560004831,11.1571033 0.0774497585,11.5282405 0.103725121,11.8927895 C0.292657488,14.4916654 0.727005314,16.7585673 1.36172512,18.7096 C1.45324203,18.9910641 1.54654638,19.2586196 1.64360435,19.5201359 C1.74799082,19.800502 1.84772995,20.052868 1.95140145,20.2990118 C2.06579758,20.5698614 2.17286522,20.8096 2.28350773,21.0429333 C2.40558986,21.2987765 2.52087971,21.5279007 2.6395657,21.7506196 C3.12807295,22.6645542 3.66787971,23.4681359 4.25558986,24.169783 C4.40430483,24.3472993 4.54926618,24.5099922 4.69655121,24.6673778 C4.86510676,24.8465412 5.01131932,24.9929464 5.15967681,25.1340444 C5.34414058,25.3080837 5.49267681,25.4400314 5.64317923,25.5670379 C5.83926135,25.7302797 5.99137246,25.849966 6.14527101,25.9641621 C6.34939662,26.1133124 6.50597633,26.2216523 6.66470097,26.3241359 C6.87222271,26.4564497 7.03505845,26.5543582 7.20003913,26.6464105 C7.40613092,26.7596915 7.57718889,26.8482667 7.75021304,26.9302536 C8.12110676,27.1048418 8.48342077,27.2477699 8.85234831,27.3672732 C9.0613,27.4346196 9.23807778,27.4842144 9.41592802,27.529417 C9.64686522,27.5872471 9.82167681,27.6243974 9.99738213,27.6571556 C10.2429763,27.7014431 10.4172517,27.726881 10.5924208,27.7479268 C10.8480246,27.7768418 11.0233725,27.7912993 11.199614,27.8009987 C11.4343048,27.8121621 11.5858797,27.8171033 11.7379908,27.8171033 C11.7753483,27.8171033 11.8128845,27.8169203 11.850242,27.8163712 C11.9876961,27.8147242 12.1255077,27.809051 12.2636768,27.8008157 C12.3078266,27.7982536 12.3523338,27.7940444 12.3966623,27.7907503 C12.4913966,27.7836131 12.5863097,27.7755608 12.6814014,27.7654954 Z" id="Fill-3" stroke="#FFFFFF" stroke-width="0.3"></path>
                </g>
                <text id="后台管理系统" font-family="PingFangSC-Regular, PingFang SC" font-size="12" font-weight="normal" fill="#FFFFFF">
                    <tspan x="154" y="47">后台管理系统</tspan>
                </text>
            </g>
        </g>
    </g>
</svg>