<?xml version="1.0" encoding="UTF-8"?>
<svg width="18px" height="18px" viewBox="0 0 18 18" version="1.1" xmlns="http://www.w3.org/2000/svg" xmlns:xlink="http://www.w3.org/1999/xlink">
    <!-- Generator: Sketch 51.2 (57519) - http://www.bohemiancoding.com/sketch -->
    <title>Combined Shape</title>
    <desc>Created with Sketch.</desc>
    <defs></defs>
    <g id="Design" stroke="none" stroke-width="1" fill-rule="evenodd">
        <g id="菜单栏-new" transform="translate(-1171.000000, -573.000000)" fill-rule="nonzero">
            <path d="M1175,573 L1185,573 C1187.20914,573 1189,574.790861 1189,577 L1189,587 C1189,589.209139 1187.20914,591 1185,591 L1175,591 C1172.79086,591 1171,589.209139 1171,587 L1171,577 C1171,574.790861 1172.79086,573 1175,573 Z M1175.5,574.5 C1173.84315,574.5 1172.5,575.843146 1172.5,577.5 L1172.5,586.5 C1172.5,588.156854 1173.84315,589.5 1175.5,589.5 L1184.5,589.5 C1186.15685,589.5 1187.5,588.156854 1187.5,586.5 L1187.5,577.5 C1187.5,575.843146 1186.15685,574.5 1184.5,574.5 L1175.5,574.5 Z" id="Combined-Shape"></path>
        </g>
    </g>
</svg>
