<?xml version="1.0" encoding="UTF-8"?>
<svg width="13px" height="19px" viewBox="0 0 13 19" version="1.1" xmlns="http://www.w3.org/2000/svg" xmlns:xlink="http://www.w3.org/1999/xlink">
    <!-- Generator: Sketch 49.3 (51167) - http://www.bohemiancoding.com/sketch -->
    <title>手机</title>
    <desc>Created with Sketch.</desc>
    <defs></defs>
    <g id="Design" stroke="none" stroke-width="1" fill="none" fill-rule="evenodd">
        <g id="04个人中心/我的信息" transform="translate(-474.000000, -407.000000)" fill="#DCDFE6">
            <path d="M476,407 L485,407 C486.104569,407 487,407.895431 487,409 L487,424 C487,425.104569 486.104569,426 485,426 L476,426 C474.895431,426 474,425.104569 474,424 L474,409 C474,407.895431 474.895431,407 476,407 Z M476,409 C475.447715,409 475,409.447715 475,410 L475,422 C475,422.552285 475.447715,423 476,423 L485,423 C485.552285,423 486,422.552285 486,422 L486,410 C486,409.447715 485.552285,409 485,409 L476,409 Z M479.5,424 C479.223858,424 479,424.223858 479,424.5 C479,424.776142 479.223858,425 479.5,425 L481.5,425 C481.776142,425 482,424.776142 482,424.5 C482,424.223858 481.776142,424 481.5,424 L479.5,424 Z" id="手机"></path>
        </g>
    </g>
</svg>