<?xml version="1.0" encoding="UTF-8"?>
<svg width="370px" height="113px" viewBox="0 0 370 113" version="1.1" xmlns="http://www.w3.org/2000/svg" xmlns:xlink="http://www.w3.org/1999/xlink">
    <!-- Generator: Sketch 52.3 (67297) - http://www.bohemiancoding.com/sketch -->
    <title>儿童版式</title>
    <desc>Created with Sketch.</desc>
    <g id="Design" stroke="none" stroke-width="1" fill="none" fill-rule="evenodd">
        <g id="07-03栏目管理-添加栏目" transform="translate(-350.000000, -751.000000)" fill-rule="nonzero">
            <g id="儿童版式" transform="translate(350.000000, 751.000000)">
                <rect id="Rectangle" stroke="#3E495E" stroke-width="0.5" x="0.25" y="0.25" width="369.5" height="112.5" rx="4"></rect>
                <rect id="Rectangle-Copy-3" fill="#2A3040" x="266" y="9" width="94" height="94" rx="4"></rect>
                <path d="M15,9 L101,9 C103.209139,9 105,10.790861 105,13 L105,28 L11,28 L11,13 C11,10.790861 12.790861,9 15,9 Z" id="Rectangle-Copy-3" fill="#2A3040"></path>
                <path d="M11,29 L105,29 L105,99 C105,101.209139 103.209139,103 101,103 L15,103 C12.790861,103 11,101.209139 11,99 L11,29 Z" id="Rectangle-Copy-3" fill="#2A3040"></path>
                <rect id="Rectangle" fill="#2A3040" x="113" y="9" width="145" height="94" rx="4"></rect>
            </g>
        </g>
    </g>
</svg>