<?xml version="1.0" encoding="UTF-8"?>
<svg width="40px" height="80px" viewBox="0 0 40 80" version="1.1" xmlns="http://www.w3.org/2000/svg" xmlns:xlink="http://www.w3.org/1999/xlink">
    <!-- Generator: Sketch 52.4 (67378) - http://www.bohemiancoding.com/sketch -->
    <title>密码</title>
    <desc>Created with Sketch.</desc>
    <g id="Design" stroke="none" stroke-width="1" fill-rule="evenodd">
        <g id="UI-库" transform="translate(-240.000000, -5051.000000)">
            <path d="M249,5071 C249,5064.92507 253.925067,5060 260,5060 C266.074933,5060 271,5064.92507 271,5071 C271,5077.07493 266.074933,5082 260,5082 C253.925067,5082 249,5077.07493 249,5071 M280,5071 C280,5059.95407 271.045926,5051 260,5051 C248.954074,5051 240,5059.95407 240,5071 C240,5079.70741 245.566667,5087.11111 253.333333,5089.85778 L253.333333,5129.51852 C253.333333,5130.3363 253.997037,5131 254.814815,5131 L265.185185,5131 C266.002963,5131 266.666667,5130.3363 266.666667,5129.51852 L266.666667,5126.97259 L269.62963,5126.97259 C270.447407,5126.97259 271.111111,5126.30889 271.111111,5125.49111 L271.111111,5114.67333 C271.111111,5113.85481 270.447407,5113.19185 269.62963,5113.19185 L266.666667,5113.19185 L266.666667,5089.85778 C274.433333,5087.11111 280,5079.70741 280,5071" id="密码"></path>
        </g>
    </g>
</svg>
