<?xml version="1.0" encoding="UTF-8"?>
<svg width="11px" height="14px" viewBox="0 0 11 14" version="1.1" xmlns="http://www.w3.org/2000/svg" xmlns:xlink="http://www.w3.org/1999/xlink">
    <!-- Generator: Sketch 52.2 (67145) - http://www.bohemiancoding.com/sketch -->
    <title>Path</title>
    <desc>Created with Sketch.</desc>
    <g id="Design" stroke="none" stroke-width="1" fill="none" fill-rule="evenodd">
        <g id="05-02专题管理-添加人物专题-关联节目弹窗" transform="translate(-1325.000000, -734.000000)" fill="#1989FA" fill-rule="nonzero">
            <g id="置顶" transform="translate(1292.000000, 731.000000)">
                <path d="M38.2476456,15.9923096 L42.739502,15.9923096 C43.0156443,15.9923096 43.239502,16.2161672 43.239502,16.4923096 C43.239502,16.7684519 43.0156443,16.9923096 42.739502,16.9923096 L33.739502,16.9923096 C33.4633596,16.9923096 33.239502,16.7684519 33.239502,16.4923096 C33.239502,16.2161672 33.4633596,15.9923096 33.739502,15.9923096 L38.2322689,15.9923096 L33.2928932,11.0502525 C32.9023689,10.6597282 32.9023689,10.0265633 33.2928932,9.63603897 C33.6834175,9.24551468 34.3165825,9.24551468 34.7071068,9.63603897 L37.245771,12.1747032 C37.2407891,12.117132 37.2382462,12.0588629 37.2382462,12 L37.2382462,4 C37.2382462,3.44771525 37.6859614,3 38.2382462,3 C38.7905309,3 39.2382462,3.44771525 39.2382462,4 L39.2382462,12.1732819 L41.775489,9.63603897 C42.1660133,9.24551468 42.7991783,9.24551468 43.1897026,9.63603897 C43.5802269,10.0265633 43.5802269,10.6597282 43.1897026,11.0502525 L38.2476456,15.9923096 Z" id="Path" transform="translate(38.241298, 9.996155) scale(1, -1) translate(-38.241298, -9.996155) "></path>
            </g>
        </g>
    </g>
</svg>