<?xml version="1.0" encoding="UTF-8"?>
<svg width="11px" height="14px" viewBox="0 0 11 14" version="1.1" xmlns="http://www.w3.org/2000/svg" xmlns:xlink="http://www.w3.org/1999/xlink">
    <!-- Generator: Sketch 52.2 (67145) - http://www.bohemiancoding.com/sketch -->
    <title>Path</title>
    <desc>Created with Sketch.</desc>
    <g id="Symbols" stroke="none" stroke-width="1" fill="none" fill-rule="evenodd">
        <g id="down" fill="#1989FA" fill-rule="nonzero">
            <path d="M6.23824616,3.82671814 L6.23824616,13 C6.23824616,13.5522847 5.79053091,14 5.23824616,14 C4.68596141,14 4.23824616,13.5522847 4.23824616,13 L4.23824616,4 C4.23824616,3.94113706 4.24078906,3.88286804 4.245771,3.82529681 L1.70710678,6.36396103 C1.31658249,6.75448532 0.683417511,6.75448532 0.292893219,6.36396103 C-0.0976310729,5.97343674 -0.0976310729,5.34027176 0.292893219,4.94974747 L5.23995514,2.76934031e-12 L10.1897026,4.94974747 C10.5802269,5.34027176 10.5802269,5.97343674 10.1897026,6.36396103 C9.79917832,6.75448532 9.16601334,6.75448532 8.77548905,6.36396103 L6.23824616,3.82671814 Z" id="Path" transform="translate(5.241298, 7.000000) scale(1, -1) translate(-5.241298, -7.000000) "></path>
        </g>
    </g>
</svg>