<?xml version="1.0" encoding="UTF-8"?>
<svg width="11px" height="14px" viewBox="0 0 11 14" version="1.1" xmlns="http://www.w3.org/2000/svg" xmlns:xlink="http://www.w3.org/1999/xlink">
    <!-- Generator: Sketch 52.2 (67145) - http://www.bohemiancoding.com/sketch -->
    <title>Path</title>
    <desc>Created with Sketch.</desc>
    <g id="Design" stroke="none" stroke-width="1" fill="none" fill-rule="evenodd">
        <g id="05-02专题管理-添加人物专题-关联节目弹窗" transform="translate(-1240.000000, -734.000000)" fill="#1989FA" fill-rule="nonzero">
            <g id="上移" transform="translate(1240.000000, 731.000000)">
                <path d="M6.23824616,6.82671814 L6.23824616,16 C6.23824616,16.5522847 5.79053091,17 5.23824616,17 C4.68596141,17 4.23824616,16.5522847 4.23824616,16 L4.23824616,7 C4.23824616,6.94113706 4.24078906,6.88286804 4.245771,6.82529681 L1.70710678,9.36396103 C1.31658249,9.75448532 0.683417511,9.75448532 0.292893219,9.36396103 C-0.0976310729,8.97343674 -0.0976310729,8.34027176 0.292893219,7.94974747 L5.23995514,3 L10.1897026,7.94974747 C10.5802269,8.34027176 10.5802269,8.97343674 10.1897026,9.36396103 C9.79917832,9.75448532 9.16601334,9.75448532 8.77548905,9.36396103 L6.23824616,6.82671814 Z" id="Path"></path>
            </g>
        </g>
    </g>
</svg>