<?xml version="1.0" encoding="UTF-8"?>
<svg width="14px" height="14px" viewBox="0 0 14 14" version="1.1" xmlns="http://www.w3.org/2000/svg"
     xmlns:xlink="http://www.w3.org/1999/xlink">
    <!-- Generator: Sketch 49.3 (51167) - http://www.bohemiancoding.com/sketch -->
    <title>内容管理icon</title>
    <desc>Created with Sketch.</desc>
    <defs></defs>
    <g id="Design" stroke="none" stroke-width="1">
        <g id="菜单栏-new" transform="translate(-1895.000000, -216.000000)">
            <g id="菜单栏1级" transform="translate(1865.000000, 75.000000)">
                <path
                    d="M31,141 L35,141 C35.5522847,141 36,141.447715 36,142 L36,146 C36,146.552285 35.5522847,147 35,147 L31,147 C30.4477153,147 30,146.552285 30,146 L30,142 C30,141.447715 30.4477153,141 31,141 Z M31,149 L35,149 C35.5522847,149 36,149.447715 36,150 L36,154 C36,154.552285 35.5522847,155 35,155 L31,155 C30.4477153,155 30,154.552285 30,154 L30,150 C30,149.447715 30.4477153,149 31,149 Z M39,141 L43,141 C43.5522847,141 44,141.447715 44,142 L44,146 C44,146.552285 43.5522847,147 43,147 L39,147 C38.4477153,147 38,146.552285 38,146 L38,142 C38,141.447715 38.4477153,141 39,141 Z M39,149 L43,149 C43.5522847,149 44,149.447715 44,150 L44,154 C44,154.552285 43.5522847,155 43,155 L39,155 C38.4477153,155 38,154.552285 38,154 L38,150 C38,149.447715 38.4477153,149 39,149 Z"
                    id="内容管理icon"></path>
            </g>
        </g>
    </g>
</svg>
