<?xml version="1.0" encoding="UTF-8"?>
<svg width="118px" height="150px" viewBox="0 0 118 150" version="1.1" xmlns="http://www.w3.org/2000/svg" xmlns:xlink="http://www.w3.org/1999/xlink">
    <!-- Generator: Sketch 63.1 (92452) - https://sketch.com -->
    <title>icon_programlist</title>
    <desc>Created with Sketch.</desc>
    <g id="Design" stroke="none" stroke-width="1" fill="none" fill-rule="evenodd">
        <g id="09-01-暂无节目单2-2.8" transform="translate(-930.000000, -430.000000)" fill="#2A3040">
            <path d="M1013.85786,430 C1016.51003,430 1019.05357,431.053568 1020.92893,432.928932 L1045.07107,457.071068 C1046.94643,458.946432 1048,461.489971 1048,464.142136 L1048,564 C1048,572.836556 1040.83656,580 1032,580 L946,580 C937.163444,580 930,572.836556 930,564 L930,446 C930,437.163444 937.163444,430 946,430 L1013.85786,430 Z M956,535 C953.238576,535 951,537.238576 951,540 C951,542.761424 953.238576,545 956,545 C958.761424,545 961,542.761424 961,540 C961,537.238576 958.761424,535 956,535 Z M1027,538 L969,538 C967.895431,538 967,538.895431 967,540 C967,541.104569 967.895431,542 969,542 L969,542 L1027,542 C1028.10457,542 1029,541.104569 1029,540 C1029,538.895431 1028.10457,538 1027,538 L1027,538 Z M956,508 C953.238576,508 951,510.238576 951,513 C951,515.761424 953.238576,518 956,518 C958.761424,518 961,515.761424 961,513 C961,510.238576 958.761424,508 956,508 Z M1027,511 L969,511 C967.895431,511 967,511.895431 967,513 C967,514.104569 967.895431,515 969,515 L969,515 L1027,515 C1028.10457,515 1029,514.104569 1029,513 C1029,511.895431 1028.10457,511 1027,511 L1027,511 Z M956,481 C953.238576,481 951,483.238576 951,486 C951,488.761424 953.238576,491 956,491 C958.761424,491 961,488.761424 961,486 C961,483.238576 958.761424,481 956,481 Z M1027,484 L969,484 C967.895431,484 967,484.895431 967,486 C967,487.104569 967.895431,488 969,488 L969,488 L1027,488 C1028.10457,488 1029,487.104569 1029,486 C1029,484.895431 1028.10457,484 1027,484 L1027,484 Z M1015,434 C1013.94564,434 1013.08183,434.815878 1013.00549,435.850738 L1013,436 L1013,464 C1013,465.054362 1013.81588,465.918165 1014.85074,465.994514 L1015,466 L1043,466 C1044.10457,466 1045,465.104569 1045,464 C1045,462.945638 1044.18412,462.081835 1043.14926,462.005486 L1043,462 L1017,462 L1017,436 C1017,434.895431 1016.10457,434 1015,434 Z" id="icon_programlist"></path>
        </g>
    </g>
</svg>