<?xml version="1.0" encoding="UTF-8"?>
<svg width="270px" height="179px" viewBox="0 0 270 179" version="1.1" xmlns="http://www.w3.org/2000/svg" xmlns:xlink="http://www.w3.org/1999/xlink">
    <!-- Generator: Sketch 63.1 (92452) - https://sketch.com -->
    <title>OFF_DEACTIVE</title>
    <desc>Created with Sketch.</desc>
    <defs>
        <path d="M1067,349 C1069.20914,349 1071,350.790861 1071,353 C1071,355.209139 1069.20914,357 1067,357 L955,357 C952.790861,357 951,355.209139 951,353 C951,350.790861 952.790861,349 955,349 L1067,349 Z M1137,180 C1141.41828,180 1145,183.581722 1145,188 L1145,329 C1145,333.418278 1141.41828,337 1137,337 L885,337 C880.581722,337 877,333.418278 877,329 L877,188 C877,183.581722 880.581722,180 885,180 L1137,180 Z" id="path-1"></path>
    </defs>
    <g id="Design" stroke="none" stroke-width="1" fill="none" fill-rule="evenodd">
        <g id="02-回看缩略图" transform="translate(-876.000000, -179.000000)">
            <mask id="mask-2" fill="white">
                <use xlink:href="#path-1"></use>
            </mask>
            <path stroke="#3E495E" d="M1067,348.5 L955,348.5 C953.757359,348.5 952.632359,349.00368 951.818019,349.818019 C951.00368,350.632359 950.5,351.757359 950.5,353 C950.5,354.242641 951.00368,355.367641 951.818019,356.181981 C952.632359,356.99632 953.757359,357.5 955,357.5 L1067,357.5 C1068.24264,357.5 1069.36764,356.99632 1070.18198,356.181981 C1070.99632,355.367641 1071.5,354.242641 1071.5,353 C1071.5,351.757359 1070.99632,350.632359 1070.18198,349.818019 C1069.36764,349.00368 1068.24264,348.5 1067,348.5 Z M1137,179.5 L885,179.5 C882.65279,179.5 880.52779,180.451395 878.989592,181.989592 C877.451395,183.52779 876.5,185.65279 876.5,188 L876.5,329 C876.5,331.34721 877.451395,333.47221 878.989592,335.010408 C880.52779,336.548605 882.65279,337.5 885,337.5 L1137,337.5 C1139.34721,337.5 1141.47221,336.548605 1143.01041,335.010408 C1144.54861,333.47221 1145.5,331.34721 1145.5,329 L1145.5,188 C1145.5,185.65279 1144.54861,183.52779 1143.01041,181.989592 C1141.47221,180.451395 1139.34721,179.5 1137,179.5 Z"></path>
        </g>
    </g>
</svg>