<?xml version="1.0" encoding="UTF-8"?>
<svg width="40px" height="40px" viewBox="0 0 40 40" version="1.1" xmlns="http://www.w3.org/2000/svg" xmlns:xlink="http://www.w3.org/1999/xlink">
    <!-- Generator: Sketch 63.1 (92452) - https://sketch.com -->
    <title>ICON_ON备份</title>
    <desc>Created with Sketch.</desc>
    <g id="Design" stroke="none" stroke-width="1" fill="none" fill-rule="evenodd">
        <g id="07-缩略图开关2.9" transform="translate(-376.000000, -469.000000)" fill="#3AC26F" fill-rule="nonzero">
            <path d="M396,469 C407.045695,469 416,477.954305 416,489 C416,500.045695 407.045695,509 396,509 C384.954305,509 376,500.045695 376,489 C376,477.954305 384.954305,469 396,469 Z M408.309718,481.664192 C407.463569,480.954189 406.202057,481.064557 405.492054,481.910706 L405.492054,481.910706 L393.921877,495.699506 L386.261432,489.27163 C385.415283,488.561626 384.153772,488.671994 383.443768,489.518144 C382.733765,490.364293 382.844133,491.625804 383.690282,492.335808 L383.690282,492.335808 L392.882815,500.049259 C393.728965,500.759263 394.990476,500.648895 395.700479,499.802745 L395.700479,499.802745 L408.556232,484.481856 C409.266235,483.635707 409.155867,482.374196 408.309718,481.664192 Z" id="ICON_ON备份"></path>
        </g>
    </g>
</svg>