<?xml version="1.0" encoding="UTF-8"?>
<svg width="40px" height="40px" viewBox="0 0 40 40" version="1.1" xmlns="http://www.w3.org/2000/svg" xmlns:xlink="http://www.w3.org/1999/xlink">
    <!-- Generator: Sketch 63.1 (92452) - https://sketch.com -->
    <title>Combined Shape备份</title>
    <desc>Created with Sketch.</desc>
    <g id="Design" stroke="none" stroke-width="1" fill="none" fill-rule="evenodd">
        <g id="07-缩略图开关2.9" transform="translate(-376.000000, -585.000000)" fill="#ED4242" fill-rule="nonzero">
            <path d="M396,585 C407.045695,585 416,593.954305 416,605 C416,616.045695 407.045695,625 396,625 C384.954305,625 376,616.045695 376,605 C376,593.954305 384.954305,585 396,585 Z M390.343146,596.514719 C389.562097,595.73367 388.295767,595.73367 387.514719,596.514719 C386.73367,597.295767 386.73367,598.562097 387.514719,599.343146 L387.514719,599.343146 L393.171573,605 L387.514719,610.656854 C386.73367,611.437903 386.73367,612.704233 387.514719,613.485281 C388.295767,614.26633 389.562097,614.26633 390.343146,613.485281 L390.343146,613.485281 L396,607.828427 L401.656854,613.485281 C402.437903,614.26633 403.704233,614.26633 404.485281,613.485281 C405.26633,612.704233 405.26633,611.437903 404.485281,610.656854 L404.485281,610.656854 L398.828427,605 L404.485281,599.343146 C405.26633,598.562097 405.26633,597.295767 404.485281,596.514719 C403.704233,595.73367 402.437903,595.73367 401.656854,596.514719 L401.656854,596.514719 L396,602.171573 Z" id="Combined-Shape备份"></path>
        </g>
    </g>
</svg>