<?xml version="1.0" encoding="UTF-8"?>
<svg width="15px" height="30px" viewBox="0 0 15 30" version="1.1" xmlns="http://www.w3.org/2000/svg" xmlns:xlink="http://www.w3.org/1999/xlink">
    <!-- Generator: Sketch 52.2 (67145) - http://www.bohemiancoding.com/sketch -->
    <title>密码</title>
    <desc>Created with Sketch.</desc>
    <g id="Design" stroke="none" stroke-width="1" fill="none" fill-rule="evenodd">
        <g id="00-登陆" transform="translate(-1017.000000, -415.000000)" fill="#637497">
            <path d="M1020.375,422.5 C1020.375,420.2219 1022.2219,418.375 1024.5,418.375 C1026.7781,418.375 1028.625,420.2219 1028.625,422.5 C1028.625,424.7781 1026.7781,426.625 1024.5,426.625 C1022.2219,426.625 1020.375,424.7781 1020.375,422.5 M1032,422.5 C1032,418.357778 1028.64222,415 1024.5,415 C1020.35778,415 1017,418.357778 1017,422.5 C1017,425.765278 1019.0875,428.541667 1022,429.571667 L1022,444.444444 C1022,444.751111 1022.24889,445 1022.55556,445 L1026.44444,445 C1026.75111,445 1027,444.751111 1027,444.444444 L1027,443.489722 L1028.11111,443.489722 C1028.41778,443.489722 1028.66667,443.240833 1028.66667,442.934167 L1028.66667,438.8775 C1028.66667,438.570556 1028.41778,438.321944 1028.11111,438.321944 L1027,438.321944 L1027,429.571667 C1029.9125,428.541667 1032,425.765278 1032,422.5" id="密码"></path>
        </g>
    </g>
</svg>