<?xml version="1.0" encoding="UTF-8"?>
<svg width="17px" height="21px" viewBox="0 0 17 21" version="1.1" xmlns="http://www.w3.org/2000/svg" xmlns:xlink="http://www.w3.org/1999/xlink">
    <!-- Generator: Sketch 49.3 (51167) - http://www.bohemiancoding.com/sketch -->
    <title>password</title>
    <desc>Created with Sketch.</desc>
    <defs></defs>
    <g id="Design" stroke="none" stroke-width="1" fill="none" fill-rule="evenodd">
        <g id="00登陆" transform="translate(-972.000000, -421.000000)" fill="#DCDFE6">
            <g id="password" transform="translate(972.000000, 421.000000)">
                <path d="M14,7 L15,7 C16.1045695,7 17,7.8954305 17,9 L17,19 C17,20.1045695 16.1045695,21 15,21 L2,21 C0.8954305,21 1.3527075e-16,20.1045695 0,19 L0,9 C-1.3527075e-16,7.8954305 0.8954305,7 2,7 L3,7 L3,5.5 C3,2.46243388 5.46243388,5.57991845e-16 8.5,0 C11.5375661,-5.57991845e-16 14,2.46243388 14,5.5 L14,7 Z M11.9645556,7 C11.987914,6.83669851 12,6.66976067 12,6.5 L12,5.5 C12,3.56700338 10.4329966,2 8.5,2 C6.56700338,2 5,3.56700338 5,5.5 L5,6.5 C5,6.66976067 5.01208598,6.83669851 5.03544443,7 L11.9645556,7 Z" id="lock"></path>
            </g>
        </g>
    </g>
</svg>