<?xml version="1.0" encoding="UTF-8"?>
<svg width="212px" height="212px" viewBox="0 0 212 212" version="1.1" xmlns="http://www.w3.org/2000/svg" xmlns:xlink="http://www.w3.org/1999/xlink">
    <!-- Generator: Sketch 52.3 (67297) - http://www.bohemiancoding.com/sketch -->
    <title>用户查看</title>
    <desc>Created with Sketch.</desc>
    <defs>
        <path d="M8,0.473933649 L192,0.473933649 C196.418278,0.473933649 200,4.05565565 200,8.47393365 L200,191.526066 C200,195.944344 196.418278,199.526066 192,199.526066 L8,199.526066 C3.581722,199.526066 5.41083001e-16,195.944344 0,191.526066 L0,8.47393365 C-5.41083001e-16,4.05565565 3.581722,0.473933649 8,0.473933649 Z" id="path-1"></path>
        <filter x="-3.8%" y="-3.8%" width="109.5%" height="109.5%" filterUnits="objectBoundingBox" id="filter-3">
            <feMorphology radius="1" operator="dilate" in="SourceAlpha" result="shadowSpreadOuter1"></feMorphology>
            <feOffset dx="2" dy="2" in="shadowSpreadOuter1" result="shadowOffsetOuter1"></feOffset>
            <feGaussianBlur stdDeviation="2.5" in="shadowOffsetOuter1" result="shadowBlurOuter1"></feGaussianBlur>
            <feComposite in="shadowBlurOuter1" in2="SourceAlpha" operator="out" result="shadowBlurOuter1"></feComposite>
            <feColorMatrix values="0 0 0 0 0   0 0 0 0 0   0 0 0 0 0  0 0 0 0.5 0" type="matrix" in="shadowBlurOuter1"></feColorMatrix>
        </filter>
    </defs>
    <g id="Design" stroke="none" stroke-width="1" fill="none" fill-rule="evenodd">
        <g id="01-个人中心-基本信息" transform="translate(-238.000000, -167.000000)">
            <g id="用户查看" transform="translate(242.000000, 171.000000)">
                <mask id="mask-2" fill="white">
                    <use xlink:href="#path-1"></use>
                </mask>
                <g id="Mask" fill-rule="nonzero">
                    <use fill="black" fill-opacity="1" filter="url(#filter-3)" xlink:href="#path-1"></use>
                    <path stroke="#3E495E" stroke-width="1" d="M8,-0.0260663507 L192,-0.0260663507 C196.69442,-0.0260663507 200.5,3.77951328 200.5,8.47393365 L200.5,191.526066 C200.5,196.220487 196.69442,200.026066 192,200.026066 L8,200.026066 C3.30557963,200.026066 -0.5,196.220487 -0.5,191.526066 L-0.5,8.47393365 C-0.5,3.77951328 3.30557963,-0.0260663507 8,-0.0260663507 Z" fill="#2A3040" fill-rule="evenodd"></path>
                </g>
                <path d="M184.688915,184.555 C180.318632,177.463333 170.972665,172.303333 161.839678,168.166667 C151.930236,163.676667 132.631226,157.263333 124.036559,149.555 C118.737213,144.8 115.186986,135.783333 116.699648,130.388333 C118.727151,123.166667 124.59668,124 135.203756,107.48 C141.678685,97.4016667 145.837666,59.8333333 139.409693,44.8333333 C133.090726,30.0866667 123.198055,19 100,19 C76.8019453,19 66.9092739,30.0866667 60.5903069,44.8333333 C54.1623344,59.8333333 58.3213148,97.4016667 64.7962435,107.48 C75.4033205,124 81.2728492,123.166667 83.3003522,130.388333 C84.8130136,135.783333 81.2627872,144.8 75.9634412,149.555 C67.3687741,157.263333 48.0697635,163.676667 38.160322,168.166667 C29.0273352,172.303333 19.6813684,177.463333 15.311085,184.555 C12.2019118,189.598333 10,199 10,199 L100,199 L190,199 C190,199 187.798088,189.598333 184.688915,184.555" id="我的" fill-opacity="0.5" fill="#3E495E"></path>
            </g>
        </g>
    </g>
</svg>