<?xml version="1.0" encoding="UTF-8"?>
<svg width="14px" height="16px" viewBox="0 0 14 16" version="1.1" xmlns="http://www.w3.org/2000/svg" xmlns:xlink="http://www.w3.org/1999/xlink">
    <!-- Generator: Sketch 49.3 (51167) - http://www.bohemiancoding.com/sketch -->
    <title>个人中心icon</title>
    <desc>Created with Sketch.</desc>
    <defs></defs>
    <g id="Design" stroke="none" stroke-width="1" fill="none" fill-rule="evenodd">
        <g id="菜单栏" transform="translate(-493.000000, -438.000000)" fill="#B8C7CE">
            <g id="菜单栏1级" transform="translate(462.000000, 75.000000)">
                <path d="M43.589619,375.916081 L40.5504986,374.474504 C40.1575329,374.287325 39.9105372,373.90693 39.9105372,373.489929 L39.9105372,372.359309 C39.9940623,372.266097 40.093497,372.148356 40.1977045,372.008349 C40.6109549,371.452474 40.9247706,370.842257 41.1423336,370.201094 C41.5325151,370.087504 41.8180914,369.745601 41.8180914,369.340299 L41.8180914,368.132695 C41.8180914,367.86589 41.693997,367.62852 41.5014915,367.463607 L41.5014915,365.716732 C41.5014915,365.716732 41.8789454,363 38.0009943,363 C34.1230433,363 34.5004972,365.716732 34.5004972,365.716732 L34.5004972,367.463607 C34.3064008,367.62852 34.1819086,367.86589 34.1819086,368.132695 L34.1819086,369.340299 C34.1819086,369.658427 34.3593,369.938818 34.6218074,370.099203 C34.9399983,371.414359 35.7728629,372.359309 35.7728629,372.359309 L35.7728629,373.461626 C35.7728629,373.864286 35.541379,374.235624 35.168698,374.427331 L32.3300378,375.897212 C31.5095031,376.32176 31,377.136893 31,378.022595 L31,379 L45,379 L45,378.081843 C45,377.164819 44.4547004,376.325534 43.589619,375.916081" id="个人中心icon"></path>
            </g>
        </g>
    </g>
</svg>