<?xml version="1.0" encoding="UTF-8"?>
<svg width="18px" height="18px" viewBox="0 0 18 18" version="1.1" xmlns="http://www.w3.org/2000/svg"
     xmlns:xlink="http://www.w3.org/1999/xlink">
    <!-- Generator: Sketch 49.3 (51167) - http://www.bohemiancoding.com/sketch -->
    <title>人物 copy</title>
    <desc>Created with Sketch.</desc>
    <defs></defs>
    <g id="Design" stroke="none" stroke-width="1">
        <g id="菜单栏-new" transform="translate(-1894.000000, -327.000000)">
            <path
                d="M1902.8213,336.166715 L1902.13299,336.166715 C1902.34404,335.980442 1902.47714,335.707909 1902.47714,335.404287 C1902.47714,334.842851 1902.02201,334.387717 1901.46057,334.387717 C1900.89914,334.387717 1900.444,334.842851 1900.444,335.404287 C1900.444,335.707909 1900.57711,335.980442 1900.78816,336.166715 L1899.93572,336.166715 L1899.93572,338.962283 L1905.27271,338.962283 L1905.27271,338.115141 L1906.28928,338.453998 L1906.28928,336.675 L1905.27271,337.013857 L1905.27271,336.166715 L1904.16613,336.166715 C1904.37718,335.980442 1904.51028,335.707909 1904.51028,335.404287 C1904.51028,334.842851 1904.05515,334.387717 1903.49371,334.387717 C1902.93228,334.387717 1902.47714,334.842851 1902.47714,335.404287 C1902.47714,335.707909 1902.61025,335.980442 1902.8213,336.166715 Z M1903,327 L1905.12461,333.538875 L1912,333.538875 L1906.43769,337.580127 L1908.56231,344.119003 L1903,340.077751 L1897.43769,344.119003 L1899.56231,337.580127 L1894,333.538875 L1900.87541,333.538875 L1903,327 Z"
                id="人物-copy"></path>
        </g>
    </g>
</svg>
