<?xml version="1.0" encoding="UTF-8"?>
<svg width="30px" height="30px" viewBox="0 0 30 30" version="1.1" xmlns="http://www.w3.org/2000/svg" xmlns:xlink="http://www.w3.org/1999/xlink">
    <!-- Generator: Sketch 52.2 (67145) - http://www.bohemiancoding.com/sketch -->
    <title>我的</title>
    <desc>Created with Sketch.</desc>
    <g id="Design" stroke="none" stroke-width="1" fill="none" fill-rule="evenodd">
        <g id="00-登陆" transform="translate(-1010.000000, -345.000000)" fill="#637497">
            <path d="M1039.11482,372.5925 C1038.38644,371.410556 1036.82878,370.550556 1035.30661,369.861111 C1033.65504,369.112778 1030.43854,368.043889 1029.00609,366.759167 C1028.12287,365.966667 1027.53116,364.463889 1027.78327,363.564722 C1028.12119,362.361111 1029.09945,362.5 1030.86729,359.746667 C1031.94645,358.066944 1032.63961,351.805556 1031.56828,349.305556 C1030.51512,346.847778 1028.86634,345 1025,345 C1021.13366,345 1019.48488,346.847778 1018.43172,349.305556 C1017.36039,351.805556 1018.05355,358.066944 1019.13271,359.746667 C1020.90055,362.5 1021.87881,362.361111 1022.21673,363.564722 C1022.46884,364.463889 1021.87713,365.966667 1020.99391,366.759167 C1019.56146,368.043889 1016.34496,369.112778 1014.69339,369.861111 C1013.17122,370.550556 1011.61356,371.410556 1010.88518,372.5925 C1010.36699,373.433056 1010,375 1010,375 L1025,375 L1040,375 C1040,375 1039.63301,373.433056 1039.11482,372.5925" id="我的"></path>
        </g>
    </g>
</svg>