<?xml version="1.0" encoding="UTF-8"?>
<svg width="20px" height="30px" viewBox="0 0 20 30" version="1.1" xmlns="http://www.w3.org/2000/svg" xmlns:xlink="http://www.w3.org/1999/xlink">
    <!-- Generator: Sketch 52.2 (67145) - http://www.bohemiancoding.com/sketch -->
    <title>手机</title>
    <desc>Created with Sketch.</desc>
    <g id="Design" stroke="none" stroke-width="1" fill="none" fill-rule="evenodd">
        <g id="01-个人中心-基本信息" transform="translate(-476.000000, -262.000000)" fill="#6F7480">
            <path d="M493.645813,287.619505 C493.645813,288.381815 493.04435,289 492.302063,289 L479.21875,289 C478.476463,289 477.875,288.381815 477.875,287.619505 L477.875,265.255495 C477.875,264.493185 478.476463,263.875 479.21875,263.875 L492.302063,263.875 C493.04435,263.875 493.645813,264.493185 493.645813,265.255495 L493.645813,287.619505 Z M487.959009,291.25 L483.915991,291.25 C483.479364,291.25 483.125,290.91425 483.125,290.5 C483.125,290.08575 483.479364,289.75 483.915991,289.75 L487.959009,289.75 C488.395636,289.75 488.75,290.08575 488.75,290.5 C488.75,290.91425 488.395636,291.25 487.959009,291.25 Z M492.791667,262 L478.708333,262 C477.212792,262 476,263.243611 476,264.777778 L476,289.222222 C476,290.756389 477.212792,292 478.708333,292 L492.791667,292 C494.287208,292 495.5,290.756389 495.5,289.222222 L495.5,264.777778 C495.5,263.243611 494.287208,262 492.791667,262 Z" id="手机"></path>
        </g>
    </g>
</svg>