<?xml version="1.0" encoding="UTF-8"?>
<svg width="20px" height="20px" viewBox="0 0 20 20" version="1.1" xmlns="http://www.w3.org/2000/svg" xmlns:xlink="http://www.w3.org/1999/xlink">
    <!-- Generator: Sketch 52.3 (67297) - http://www.bohemiancoding.com/sketch -->
    <title>节目单icon</title>
    <desc>Created with Sketch.</desc>
    <g id="Design" stroke="none" stroke-width="1" fill-rule="evenodd">
        <g id="06-02直播频道-频道详情" transform="translate(-1178.000000, -84.000000)" fill-rule="nonzero">
            <g id="节目单按钮" transform="translate(1163.000000, 77.000000)">
                <path d="M17,11 C15.8954305,11 15,10.1045695 15,9 C15,7.8954305 15.8954305,7 17,7 C18.1045695,7 19,7.8954305 19,9 C19,10.1045695 18.1045695,11 17,11 Z M17,19 C15.8954305,19 15,18.1045695 15,17 C15,15.8954305 15.8954305,15 17,15 C18.1045695,15 19,15.8954305 19,17 C19,18.1045695 18.1045695,19 17,19 Z M17,27 C15.8954305,27 15,26.1045695 15,25 C15,23.8954305 15.8954305,23 17,23 C18.1045695,23 19,23.8954305 19,25 C19,26.1045695 18.1045695,27 17,27 Z M22,8 L34,8 C34.5522847,8 35,8.44771525 35,9 C35,9.55228475 34.5522847,10 34,10 L22,10 C21.4477153,10 21,9.55228475 21,9 C21,8.44771525 21.4477153,8 22,8 Z M22,16 L34,16 C34.5522847,16 35,16.4477153 35,17 C35,17.5522847 34.5522847,18 34,18 L22,18 C21.4477153,18 21,17.5522847 21,17 C21,16.4477153 21.4477153,16 22,16 Z M22,24 L34,24 C34.5522847,24 35,24.4477153 35,25 C35,25.5522847 34.5522847,26 34,26 L22,26 C21.4477153,26 21,25.5522847 21,25 C21,24.4477153 21.4477153,24 22,24 Z" id="节目单icon"></path>
            </g>
        </g>
    </g>
</svg>
