<?xml version="1.0" encoding="UTF-8"?>
<svg width="21px" height="20px" viewBox="0 0 21 20" version="1.1" xmlns="http://www.w3.org/2000/svg" xmlns:xlink="http://www.w3.org/1999/xlink">
    <!-- Generator: Sketch 54.1 (76490) - https://sketchapp.com -->
    <title>拉取icon</title>
    <desc>Created with Sketch.</desc>
    <g id="Design" stroke="none" stroke-width="1" fill="none" fill-rule="evenodd">
        <g id="06-01直播频道-列表-copy" transform="translate(-1338.000000, -311.000000)" fill="#A3D0FD">
            <g id="拉取btn-" transform="translate(1320.000000, 301.000000)">
                <path d="M38.5,10 C38.7761424,10 39,10.2238576 39,10.5 L39,29.5 C39,29.7761424 38.7761424,30 38.5,30 C38.2238576,30 38,29.7761424 38,29.5 L38,10.5 C38,10.2238576 38.2238576,10 38.5,10 Z M18.5,12 C18.7761424,12 19,12.2238576 19,12.5 L19,27.5 C19,27.7761424 18.7761424,28 18.5,28 C18.2238576,28 18,27.7761424 18,27.5 L18,12.5 C18,12.2238576 18.2238576,12 18.5,12 Z M34.2928932,17 L33.0251263,15.732233 C32.8298641,15.5369709 32.8298641,15.2203884 33.0251263,15.0251263 C33.2203884,14.8298641 33.5369709,14.8298641 33.732233,15.0251263 L35.8535534,17.1464466 C35.9440356,17.2369288 36,17.3619288 36,17.5 C36,17.7761424 35.7761424,18 35.5,18 L24.5,18 C24.2238576,18 24,17.7761424 24,17.5 C24,17.2238576 24.2238576,17 24.5,17 L34.2928932,17 Z M22.7071068,23 L23.9748737,24.267767 C24.1701359,24.4630291 24.1701359,24.7796116 23.9748737,24.9748737 C23.7796116,25.1701359 23.4630291,25.1701359 23.267767,24.9748737 L21.1464466,22.8535534 C21.0559644,22.7630712 21,22.6380712 21,22.5 C21,22.2238576 21.2238576,22 21.5,22 L32.5,22 C32.7761424,22 33,22.2238576 33,22.5 C33,22.7761424 32.7761424,23 32.5,23 L22.7071068,23 Z" id="拉取icon"></path>
            </g>
        </g>
    </g>
</svg>