<?xml version="1.0" encoding="UTF-8"?>
<svg width="20px" height="20px" viewBox="0 0 20 20" version="1.1" xmlns="http://www.w3.org/2000/svg" xmlns:xlink="http://www.w3.org/1999/xlink">
    <!-- Generator: Sketch 52.2 (67145) - http://www.bohemiancoding.com/sketch -->
    <title>remove_image_default</title>
    <desc>Created with Sketch.</desc>
    <g id="Design" stroke="none" stroke-width="1" fill="none" fill-rule="evenodd">
        <g id="03-新增人物模块" transform="translate(-845.000000, -345.000000)" fill-rule="nonzero">
            <g id="remove_image_default" transform="translate(843.000000, 343.000000)">
                <circle id="Oval" fill-opacity="0.5" fill="#000000" cx="12" cy="12" r="10"></circle>
                <path d="M12.675469,11.6088023 L19.6088023,11.6088023 C19.9033542,11.6088023 20.1421356,11.8475838 20.1421356,12.1421356 C20.1421356,12.4366875 19.9033542,12.675469 19.6088023,12.675469 L12.675469,12.675469 L12.675469,19.6088023 C12.675469,19.9033542 12.4366875,20.1421356 12.1421356,20.1421356 C11.8475838,20.1421356 11.6088023,19.9033542 11.6088023,19.6088023 L11.6088023,12.675469 L4.67546896,12.675469 C4.38091709,12.675469 4.14213562,12.4366875 4.14213562,12.1421356 C4.14213562,11.8475838 4.38091709,11.6088023 4.67546896,11.6088023 L11.6088023,11.6088023 L11.6088023,4.67546896 C11.6088023,4.38091709 11.8475838,4.14213562 12.1421356,4.14213562 C12.4366875,4.14213562 12.675469,4.38091709 12.675469,4.67546896 L12.675469,11.6088023 Z" id="Combined-Shape" fill="#C35757" transform="translate(12.142136, 12.142136) rotate(45.000000) translate(-12.142136, -12.142136) "></path>
            </g>
        </g>
    </g>
</svg>