<?xml version="1.0" encoding="UTF-8"?>
<svg width="19px" height="27px" viewBox="0 0 19 27" version="1.1" xmlns="http://www.w3.org/2000/svg"
     xmlns:xlink="http://www.w3.org/1999/xlink">
    <!-- Generator: Sketch 49.3 (51167) - http://www.bohemiancoding.com/sketch -->
    <title>删除icon copy</title>
    <desc>Created with Sketch.</desc>
    <defs></defs>
    <g id="Design" stroke="none" stroke-width="1">
        <g id="01推荐设置" transform="translate(-1353.000000, -1421.000000)">
            <path
                d="M1360,1422 C1360,1421.44772 1360.44772,1421 1361,1421 L1364,1421 C1364.55228,1421 1365,1421.44772 1365,1422 L1371,1422 C1371.55228,1422 1372,1422.44772 1372,1423 C1372,1423.55228 1371.55228,1424 1371,1424 L1354,1424 C1353.44772,1424 1353,1423.55228 1353,1423 C1353,1422.44772 1353.44772,1422 1354,1422 L1360,1422 Z M1356.01039,1425 L1368.98965,1425 C1370.6465,1425 1371.98965,1426.34315 1371.98965,1428 C1371.98965,1428.04179 1371.98878,1428.08358 1371.98703,1428.12534 L1371.27616,1445.12534 C1371.20897,1446.73204 1369.88688,1448 1368.27878,1448 L1356.72127,1448 C1355.11317,1448 1353.79107,1446.73204 1353.72389,1445.12534 L1353.01301,1428.12534 C1352.94379,1426.46993 1354.22965,1425.07184 1355.88506,1425.00262 C1355.92681,1425.00087 1355.9686,1425 1356.01039,1425 Z M1362.5,1430 C1362.22386,1430 1362,1430.22386 1362,1430.5 L1362,1443.5 C1362,1443.77614 1362.22386,1444 1362.5,1444 C1362.77614,1444 1363,1443.77614 1363,1443.5 L1363,1430.5 C1363,1430.22386 1362.77614,1430 1362.5,1430 Z M1357.48336,1430 C1357.47157,1430 1357.45979,1430.00043 1357.44804,1430.0013 C1357.18371,1430.02081 1356.98524,1430.25091 1357.00475,1430.51524 L1357.96197,1443.48476 C1357.98341,1443.77526 1358.22535,1444 1358.51664,1444 C1358.52843,1444 1358.54021,1443.99957 1358.55196,1443.9987 C1358.81629,1443.97919 1359.01476,1443.74909 1358.99525,1443.48476 L1358.03803,1430.51524 C1358.01659,1430.22474 1357.77465,1430 1357.48336,1430 Z M1367.51665,1430 C1367.22536,1430 1366.98341,1430.22475 1366.96197,1430.51525 L1366.00473,1443.48475 C1366.00386,1443.49651 1366.00343,1443.50829 1366.00343,1443.52008 C1366.00343,1443.78513 1366.2183,1444 1366.48335,1444 C1366.77464,1444 1367.01659,1443.77525 1367.03803,1443.48475 L1367.99527,1430.51525 C1367.99614,1430.50349 1367.99657,1430.49171 1367.99657,1430.47992 C1367.99657,1430.21487 1367.7817,1430 1367.51665,1430 Z"
                id="删除icon-copy"></path>
        </g>
    </g>
</svg>
