<?xml version="1.0" encoding="UTF-8"?>
<svg width="21px" height="19px" viewBox="0 0 21 19" version="1.1" xmlns="http://www.w3.org/2000/svg" xmlns:xlink="http://www.w3.org/1999/xlink">
    <!-- Generator: Sketch 52.2 (67145) - http://www.bohemiancoding.com/sketch -->
    <title>重置</title>
    <desc>Created with Sketch.</desc>
    <g id="Design" stroke="none" stroke-width="1" fill="none" fill-rule="evenodd">
        <g id="04-01人物管理-人物列表-" transform="translate(-1319.000000, -171.000000)" fill="#A3D0FD" fill-rule="nonzero">
            <path d="M1323.31854,180.220073 L1324.65358,180.220073 L1322.23179,183.502738 L1319.72217,180.220073 L1321.12074,180.220073 C1321.16414,175.120545 1325.31151,171 1330.42128,171 C1335.55802,171 1339.72217,175.164148 1339.72217,180.300884 C1339.72217,185.437621 1335.55802,189.601768 1330.42128,189.601768 L1330.42128,189.601535 C1330.41369,189.60169 1330.40608,189.601768 1330.39844,189.601768 C1329.79412,189.601768 1329.30422,189.111869 1329.30422,188.507547 C1329.30422,187.903225 1329.79412,187.413325 1330.39844,187.413325 C1330.40608,187.413325 1330.41369,187.413403 1330.42128,187.413559 C1334.27384,187.413325 1337.52638,184.153437 1337.52638,180.300884 C1337.52638,176.448332 1334.27384,173.188443 1330.42128,173.188443 C1326.5957,173.188443 1323.3636,176.402856 1323.31854,180.220073 Z" id="重置"></path>
        </g>
    </g>
</svg>