<?xml version="1.0" encoding="UTF-8"?>
<svg width="30px" height="30px" viewBox="0 0 30 30" version="1.1" xmlns="http://www.w3.org/2000/svg" xmlns:xlink="http://www.w3.org/1999/xlink">
    <!-- Generator: Sketch 52.4 (67378) - http://www.bohemiancoding.com/sketch -->
    <title>搜索</title>
    <desc>Created with Sketch.</desc>
    <g id="Design" stroke="none" stroke-width="1" fill-rule="evenodd">
        <g id="10-01搜索管理" transform="translate(-31.000000, -641.000000)">
            <path d="M33.4999942,652.249974 C33.4999942,647.417485 37.4174851,643.499994 42.249974,643.499994 C47.0824628,643.499994 50.9999537,647.417485 50.9999537,652.249974 C50.9999537,657.082463 47.0824628,660.999954 42.249974,660.999954 C37.4174851,660.999954 33.4999942,657.082463 33.4999942,652.249974 M60.3435432,667.174106 L51.6296745,658.460237 C52.8105051,656.680241 53.4999479,654.54608 53.4999479,652.249974 C53.4999479,646.036655 48.4632929,641 42.249974,641 C36.036655,641 31,646.036655 31,652.249974 C31,658.463293 36.036655,663.499948 42.249974,663.499948 C44.5460798,663.499948 46.6802415,662.810505 48.4602374,661.629674 L57.1741061,670.343543 C58.0493818,671.218819 59.4682674,671.218819 60.3435432,670.343543 C61.2188189,669.468267 61.2188189,668.049382 60.3435432,667.174106" id="搜索"></path>
        </g>
    </g>
</svg>
