<?xml version="1.0" encoding="UTF-8"?>
<svg width="80px" height="80px" viewBox="0 0 80 80" version="1.1" xmlns="http://www.w3.org/2000/svg" xmlns:xlink="http://www.w3.org/1999/xlink">
    <!-- Generator: Sketch 52.3 (67297) - http://www.bohemiancoding.com/sketch -->
    <title>版本 80</title>
    <desc>Created with Sketch.</desc>
    <g id="版本-80" stroke="none" stroke-width="1" fill-rule="evenodd">
        <g fill-rule="nonzero">
            <rect id="Rectangle" fill-opacity="0" x="0" y="0" width="80" height="80"></rect>
            <path d="M37,15 L37,43.7573593 L32.363961,39.1213203 C31.1923882,37.9497475 29.2928932,37.9497475 28.1213203,39.1213203 C26.9497475,40.2928932 26.9497475,42.1923882 28.1213203,43.363961 L38.0208153,53.263456 C38.6193827,53.8620233 39.4079582,54.1547771 40.1923882,54.1417173 C40.9768181,54.1547771 41.7653936,53.8620233 42.363961,53.263456 L52.263456,43.363961 C53.4350288,42.1923882 53.4350288,40.2928932 52.263456,39.1213203 C51.0918831,37.9497475 49.1923882,37.9497475 48.0208153,39.1213203 L43,44.1421356 L43,15 L60,15 C64.418278,15 68,18.581722 68,23 L68,71 C68,75.418278 64.418278,79 60,79 L20,79 C15.581722,79 12,75.418278 12,71 L12,23 C12,18.581722 15.581722,15 20,15 L37,15 Z M40,1 C41.6568542,1 43,2.34314575 43,4 L43,15 L37,15 L37,4 C37,2.34314575 38.3431458,1 40,1 Z" id="版本"></path>
        </g>
    </g>
</svg>
