<?xml version="1.0" encoding="UTF-8"?>
<svg width="80px" height="80px" viewBox="0 0 80 80" version="1.1" xmlns="http://www.w3.org/2000/svg" xmlns:xlink="http://www.w3.org/1999/xlink">
    <!-- Generator: Sketch 52.3 (67297) - http://www.bohemiancoding.com/sketch -->
    <title>人物专题 80</title>
    <desc>Created with Sketch.</desc>
    <g id="人物专题-80" stroke="none" stroke-width="1" fill-rule="evenodd">
        <g>
            <rect id="Rectangle" fill-opacity="0" fill-rule="nonzero" x="0" y="0" width="80" height="80"></rect>
            <path d="M64.5246986,71.7306289 C65.3883578,73.1315548 66,75.7431289 66,75.7431289 L41,75.7431289 L16,75.7431289 C16,75.7431289 16.6116422,73.1315548 17.4753014,71.7306289 C18.689269,69.7607215 21.2853709,68.3273881 23.8223117,67.178314 C26.5749343,65.9310918 31.9357706,64.1496103 34.3231781,62.0084066 C35.7952187,60.6875733 36.7813927,58.1829437 36.3612089,56.6843326 C35.7980137,54.678314 34.167589,54.9097955 31.2211788,50.3209066 C29.4225874,47.5213696 28.2673151,37.0857215 30.052863,32.9190548 C31.8081316,28.8227585 34.5560959,25.7431289 41,25.7431289 C47.4439041,25.7431289 50.1918684,28.8227585 51.947137,32.9190548 C53.7326849,37.0857215 52.5774126,47.5213696 50.7788212,50.3209066 C47.832411,54.9097955 46.2019863,54.678314 45.6387911,56.6843326 C45.2186073,58.1829437 46.2047813,60.6875733 47.6768219,62.0084066 C50.0642294,64.1496103 55.4250657,65.9310918 58.1776883,67.178314 C60.7146291,68.3273881 63.310731,69.7607215 64.5246986,71.7306289 Z M68.5089793,75.7431289 C68.5089793,75.7431289 67.8323038,72.8774557 66.8768153,71.3402235 C65.5337716,69.1786494 62.661637,67.6058566 59.8549539,66.3449807 C59.1493194,66.0278646 58.288758,65.6792728 57.3500937,65.3015878 C57.969223,64.3696241 58.3043621,63.1880741 58.0821394,62.4019715 C57.684659,60.9977585 56.5339712,61.1597955 54.4545139,57.9475733 C53.1851409,55.9878974 52.3697964,48.6829437 53.6299639,45.766277 C54.8687615,42.8988696 56.8081636,40.7431289 61.3560106,40.7431289 C65.9038576,40.7431289 67.8432598,42.8988696 69.0820574,45.766277 C70.3422249,48.6829437 69.5268804,55.9878974 68.2575074,57.9475733 C66.1780501,61.1597955 65.0273623,60.9977585 64.6298818,62.4019715 C64.3333332,63.4509992 65.0293349,65.20424 66.0682416,66.1288233 C67.7531773,67.6276659 71.5366389,68.8747029 73.4793287,69.7477585 C75.2697989,70.5521103 77.1020226,71.5554437 77.9587919,72.9343789 C78.5683277,73.915027 79,75.7431289 79,75.7431289 L68.5089793,75.7431289 Z M16.5065787,27.6834225 L13.5682852,27.6834225 L12.2865274,34.9526323 C12.0947209,36.0404209 11.0574041,36.766758 9.96961551,36.5749515 C8.8818269,36.383145 8.15548987,35.3458282 8.34729636,34.2580396 L9.50657874,27.6834225 L3,27.6834225 C1.8954305,27.6834225 1,26.787992 1,25.6834225 C1,24.578853 1.8954305,23.6834225 3,23.6834225 L10.2118867,23.6834225 L10.9066667,19.7431289 L3,19.7431289 C1.8954305,19.7431289 1,18.8476984 1,17.7431289 C1,16.6385594 1.8954305,15.7431289 3,15.7431289 L11.6119747,15.7431289 L12.862149,8.65303804 C13.0539555,7.56524944 14.0912722,6.83891241 15.1790608,7.03071889 C16.2668494,7.22252537 16.9931865,8.25984215 16.80138,9.34763076 L15.6736811,15.7431289 L18.6119747,15.7431289 L19.862149,8.65303804 C20.0539555,7.56524944 21.0912722,6.83891241 22.1790608,7.03071889 C23.2668494,7.22252537 23.9931865,8.25984215 23.80138,9.34763076 L22.6736811,15.7431289 L29,15.7431289 C30.1045695,15.7431289 31,16.6385594 31,17.7431289 C31,18.8476984 30.1045695,19.7431289 29,19.7431289 L21.9683732,19.7431289 L21.2735931,23.6834225 L29,23.6834225 C30.1045695,23.6834225 31,24.578853 31,25.6834225 C31,26.787992 30.1045695,27.6834225 29,27.6834225 L20.5682852,27.6834225 L19.2865274,34.9526323 C19.0947209,36.0404209 18.0574041,36.766758 16.9696155,36.5749515 C15.8818269,36.383145 15.1554899,35.3458282 15.3472964,34.2580396 L16.5065787,27.6834225 Z M17.2118867,23.6834225 L17.9066667,19.7431289 L14.9683732,19.7431289 L14.2735931,23.6834225 L17.2118867,23.6834225 Z" id="人物专题"></path>
        </g>
    </g>
</svg>
