<?xml version="1.0" encoding="UTF-8"?>
<svg width="30px" height="27px" viewBox="0 0 30 27" version="1.1" xmlns="http://www.w3.org/2000/svg"
     xmlns:xlink="http://www.w3.org/1999/xlink">
    <!-- Generator: Sketch 53.2 (72643) - https://sketchapp.com -->
    <title>轮播插播</title>
    <desc>Created with Sketch.</desc>
    <g id="Design" stroke="none" stroke-width="1">
        <g id="06-09轮播频道-插播详情" transform="translate(-30.000000, -492.000000)">
            <path
                d="M49.7621527,507.375529 L45,507.375529 L45,505.868507 C45,505.82888 44.9874453,505.790272 44.964138,505.758225 C44.9032308,505.674477 44.7859652,505.655962 44.7022178,505.716869 L41.0835023,508.348662 C41.0676386,508.360199 41.0536836,508.374154 41.0421464,508.390018 C40.9812393,508.473765 40.9997549,508.591031 41.0835023,508.651938 L44.7022178,511.283731 C44.7342654,511.307038 44.7728733,511.319593 44.8125,511.319593 C44.9160534,511.319593 45,511.235646 45,511.132093 L45,509.625529 L49.7446972,509.625529 C49.2138385,511.957416 47.1231893,513.698096 44.625,513.698096 C43.2040235,513.698096 41.9149011,513.134923 40.9696793,512.220112 C39.9861812,511.268256 39.375,509.935707 39.375,508.460752 C39.375,505.568247 41.7255051,503.223408 44.625,503.223408 C47.1515172,503.223408 49.2611995,505.003789 49.7621527,507.375529 L49.7621527,507.375529 Z M42.8143398,498.050249 L38.0303301,493.277772 L38.0290547,493.276497 C37.7375719,492.98431 37.7381429,492.511152 38.0303301,492.219669 L38.0309705,492.21903 C38.3237166,491.92699 38.7976038,491.92699 39.0903499,492.21903 L44.5323931,497.647954 L49.9744364,492.21903 C50.2671825,491.92699 50.7410697,491.92699 51.0338158,492.21903 L51.0344562,492.219669 C51.3266433,492.511152 51.3272143,492.98431 51.0357315,493.276497 L51.0344562,493.277772 L46.2504464,498.050249 L57,498.050249 C58.6568542,498.050249 60,499.393395 60,501.050249 L60,515.625529 C60,517.282383 58.6568542,518.625529 57,518.625529 L33,518.625529 C31.3431458,518.625529 30,517.282383 30,515.625529 L30,501.050249 C30,499.393395 31.3431458,498.050249 33,498.050249 L42.8143398,498.050249 Z M44.625,515.942672 C48.7671356,515.942672 52.125,512.592903 52.125,508.460752 C52.125,504.328602 48.7671356,500.978833 44.625,500.978833 C40.4828644,500.978833 37.125,504.328602 37.125,508.460752 C37.125,510.56783 37.998116,512.471472 39.4031133,513.831266 C40.7534301,515.138139 42.5950336,515.942672 44.625,515.942672 Z"
                id="轮播插播"></path>
        </g>
    </g>
</svg>
