<?xml version="1.0" encoding="UTF-8"?>
<svg width="80px" height="80px" viewBox="0 0 80 80" version="1.1" xmlns="http://www.w3.org/2000/svg" xmlns:xlink="http://www.w3.org/1999/xlink">
    <!-- Generator: Sketch 52.3 (67297) - http://www.bohemiancoding.com/sketch -->
    <title>节目专题 80</title>
    <desc>Created with Sketch.</desc>
    <g id="节目专题-80" stroke="none" stroke-width="1" fill-rule="evenodd">
        <g fill-rule="nonzero">
            <rect id="Rectangle" fill-opacity="0" x="0" y="0" width="80" height="80"></rect>
            <path d="M16.5065787,21.6834225 L13.5682852,21.6834225 L12.2865274,28.9526323 C12.0947209,30.0404209 11.0574041,30.766758 9.96961551,30.5749515 C8.8818269,30.383145 8.15548987,29.3458282 8.34729636,28.2580396 L9.50657874,21.6834225 L3,21.6834225 C1.8954305,21.6834225 1,20.787992 1,19.6834225 C1,18.578853 1.8954305,17.6834225 3,17.6834225 L10.2118867,17.6834225 L10.9066667,13.7431289 L3,13.7431289 C1.8954305,13.7431289 1,12.8476984 1,11.7431289 C1,10.6385594 1.8954305,9.74312886 3,9.74312886 L11.6119747,9.74312886 L12.862149,2.65303804 C13.0539555,1.56524944 14.0912722,0.838912413 15.1790608,1.03071889 C16.2668494,1.22252537 16.9931865,2.25984215 16.80138,3.34763076 L15.6736811,9.74312886 L18.6119747,9.74312886 L19.862149,2.65303804 C20.0539555,1.56524944 21.0912722,0.838912413 22.1790608,1.03071889 C23.2668494,1.22252537 23.9931865,2.25984215 23.80138,3.34763076 L22.6736811,9.74312886 L29,9.74312886 C30.1045695,9.74312886 31,10.6385594 31,11.7431289 C31,12.8476984 30.1045695,13.7431289 29,13.7431289 L21.9683732,13.7431289 L21.2735931,17.6834225 L29,17.6834225 C30.1045695,17.6834225 31,18.578853 31,19.6834225 C31,20.787992 30.1045695,21.6834225 29,21.6834225 L20.5682852,21.6834225 L19.2865274,28.9526323 C19.0947209,30.0404209 18.0574041,30.766758 16.9696155,30.5749515 C15.8818269,30.383145 15.1554899,29.3458282 15.3472964,28.2580396 L16.5065787,21.6834225 Z M17.2118867,17.6834225 L17.9066667,13.7431289 L14.9683732,13.7431289 L14.2735931,17.6834225 L17.2118867,17.6834225 Z M72,33.1875586 L76.598869,31.8152786 C76.7593777,31.7673837 76.9247881,31.7431289 77.0909091,31.7431289 C78.1452709,31.7431289 79,32.6992664 79,33.8787218 L79,69.6070075 C79,69.7928342 78.9783185,69.9778661 78.9355049,70.157415 C78.6637636,71.2970246 77.6176202,71.9744349 76.598878,71.6704532 L72,70.2981975 L72,33.1875586 Z M62,72.253548 L62,29.2332532 L66.5949143,27.8186859 C67.61307,27.5052416 68.6605126,28.1955823 68.934443,29.3606051 C68.9779584,29.5456757 69,29.7364943 69,29.9281462 L69,71.5586551 C69,72.7651066 68.1452709,73.7431289 67.0909091,73.7431289 C66.9234175,73.7431289 66.7566543,73.7179078 66.5949143,73.6681154 L62,72.253548 Z M52,73.3463223 L52,27.1404276 L56.6054096,25.8124686 C57.6251071,25.5184412 58.6691008,26.1865397 58.9372347,27.3047082 C58.9789049,27.4784804 59,27.6574124 59,27.8370919 L59,72.6496791 C59,73.8058595 58.1452709,74.7431289 57.0909091,74.7431289 C56.9270505,74.7431289 56.7638737,74.7199959 56.6054024,74.6743003 L52,73.3463223 Z M45.3846213,23.857299 C45.6418563,23.7815713 45.9084811,23.7431289 46.1764706,23.7431289 C47.7358628,23.7431289 49,25.0168699 49,26.5881092 L49,75.8974081 C49,76.1674372 48.9618464,76.4360912 48.8866877,76.6952837 C48.4493556,78.2034668 46.8814224,79.0688697 45.3846109,78.6282152 L27.0316697,73.2251925 C25.8275997,72.8707198 25,71.7583268 25,70.4943854 L25,31.9910546 C25,30.7271092 25.8276049,29.6147137 27.0316801,29.2602445 L45.3846213,23.857299 Z" id="节目专题"></path>
        </g>
    </g>
</svg>
