<?xml version="1.0" encoding="UTF-8"?>
<svg width="56px" height="80px" viewBox="0 0 56 80" version="1.1" xmlns="http://www.w3.org/2000/svg" xmlns:xlink="http://www.w3.org/1999/xlink">
    <!-- Generator: Sketch 52.4 (67378) - http://www.bohemiancoding.com/sketch -->
    <title>版本</title>
    <desc>Created with Sketch.</desc>
    <g id="Design" stroke="none" stroke-width="1"  fill-rule="evenodd">
        <g id="01首页-操控台" transform="translate(-1186.000000, -270.000000)"  fill-rule="nonzero">
            <path d="M1211,286 L1211,314.757359 L1206.36396,310.12132 C1205.19239,308.949747 1203.29289,308.949747 1202.12132,310.12132 C1200.94975,311.292893 1200.94975,313.192388 1202.12132,314.363961 L1212.02082,324.263456 C1212.61938,324.862023 1213.40796,325.154777 1214.19239,325.141717 C1214.97682,325.154777 1215.76539,324.862023 1216.36396,324.263456 L1226.26346,314.363961 C1227.43503,313.192388 1227.43503,311.292893 1226.26346,310.12132 C1225.09188,308.949747 1223.19239,308.949747 1222.02082,310.12132 L1217,315.142136 L1217,286 L1234,286 C1238.41828,286 1242,289.581722 1242,294 L1242,342 C1242,346.418278 1238.41828,350 1234,350 L1194,350 C1189.58172,350 1186,346.418278 1186,342 L1186,294 C1186,289.581722 1189.58172,286 1194,286 L1211,286 Z M1214,270 C1215.65685,270 1217,271.343146 1217,273 L1217,286 L1211,286 L1211,273 C1211,271.343146 1212.34315,270 1214,270 Z" id="版本"></path>
        </g>
    </g>
</svg>
