<?xml version="1.0" encoding="UTF-8"?>
<svg width="80px" height="80px" viewBox="0 0 80 80" version="1.1" xmlns="http://www.w3.org/2000/svg" xmlns:xlink="http://www.w3.org/1999/xlink">
    <!-- Generator: Sketch 52.3 (67297) - http://www.bohemiancoding.com/sketch -->
    <title>直播频道 80</title>
    <desc>Created with Sketch.</desc>
    <g id="直播频道-80" stroke="none" stroke-width="1" fill-rule="evenodd">
        <g fill-rule="nonzero">
            <rect id="Rectangle" fill-opacity="0" x="0" y="0" width="80" height="80"></rect>
            <path d="M34.1715729,21.1325882 L21.4142136,8.40598294 L21.4108125,8.40258192 C20.6335252,7.62341621 20.6350478,6.36166167 21.4142136,5.58437429 L21.4159213,5.5826707 C22.1965776,4.80389631 23.4602767,4.80389631 24.240933,5.5826707 L38.7530483,20.0598018 L53.2651637,5.5826707 C54.04582,4.80389631 55.3095191,4.80389631 56.0901754,5.5826707 L56.0918831,5.58437429 C56.8710488,6.36166167 56.8725715,7.62341621 56.0952841,8.40258192 L56.0918831,8.40598294 L43.3345238,21.1325882 L71,21.1325882 C75.418278,21.1325882 79,24.7143102 79,29.1325882 L79,68 C79,72.418278 75.418278,76 71,76 L9,76 C4.581722,76 1,72.418278 1,68 L1,29.1325882 C1,24.7143102 4.581722,21.1325882 9,21.1325882 L34.1715729,21.1325882 Z M42.173156,35.7799498 C41.6281194,35.2085276 40.8592552,34.8524821 40.0072321,34.8524821 L11.9927679,34.8524821 C10.3399078,34.8524821 9,36.1923899 9,37.84525 C9,39.4981101 10.3399078,40.8380179 11.9927679,40.8380179 L23.0000085,40.8380179 C23.0000028,40.840428 23,40.8428387 23,40.84525 L23,60.782572 C23,62.4394262 24.3431458,63.782572 26,63.782572 C27.6568542,63.782572 29,62.4394262 29,60.782572 L29,40.84525 C29,40.8428387 28.9999972,40.840428 28.9999915,40.8380179 L38.3094011,40.8380179 L50.5004216,61.902582 C51.1455367,63.0172605 52.3983388,63.5615927 53.5980762,63.358531 C54.7978136,63.5615927 56.0506157,63.0172605 56.6957308,61.902582 L69.6943411,39.4426034 C70.5220367,38.0124486 70.033647,36.1820993 68.6034922,35.3544037 C68.601688,35.3533595 68.5998826,35.3523172 68.5980762,35.3512768 L68.5942133,35.3490519 C67.1605926,34.5233459 65.3291225,35.0140856 64.5004216,36.4459773 L53.5980762,55.2838714 L42.6957308,36.4459773 C42.5500078,36.1941861 42.3732776,35.9714967 42.173156,35.7799498 Z" id="直播"></path>
        </g>
    </g>
</svg>
