<?xml version="1.0" encoding="UTF-8"?>
<svg width="70px" height="70px" viewBox="0 0 70 70" version="1.1" xmlns="http://www.w3.org/2000/svg" xmlns:xlink="http://www.w3.org/1999/xlink">
    <!-- Generator: Sketch 52.4 (67378) - http://www.bohemiancoding.com/sketch -->
    <title>导入</title>
    <desc>Created with Sketch.</desc>
    <g id="Design" stroke="none" stroke-width="1" fill-rule="evenodd">
        <g id="01首页-操控台" transform="translate(-870.000000, -280.000000)" fill-rule="nonzero">
            <g id="导入" transform="translate(870.000000, 280.000000)">
                <path d="M62.1818182,37.6060606 C62.1818182,35.6981678 63.7284709,34.1515152 65.6363636,34.1515152 C67.5442564,34.1515152 69.0909091,35.6981678 69.0909091,37.6060606 L69.0909091,60.6363636 C69.0909091,65.7240777 64.9665019,69.8484848 59.8787879,69.8484848 L9.21212121,69.8484848 C4.12440715,69.8484848 6.23065274e-16,65.7240777 0,60.6363636 L0,9.96969697 C-6.23065274e-16,4.88198291 4.12440715,0.757575758 9.21212121,0.757575758 L34.5454545,0.757575758 C36.4533473,0.757575758 38,2.30422844 38,4.21212121 C38,6.12001398 36.4533473,7.66666667 34.5454545,7.66666667 L11.5151515,7.66666667 C8.97129449,7.66666667 6.90909091,9.72887024 6.90909091,12.2727273 L6.90909091,58.3333333 C6.90909091,60.8771904 8.97129449,62.9393939 11.5151515,62.9393939 L57.5757576,62.9393939 C60.1196146,62.9393939 62.1818182,60.8771904 62.1818182,58.3333333 L62.1818182,37.6060606 Z" id="Path"></path>
                <path d="M37.8129646,28.9208909 L63.1962763,3.53757925 C64.0956655,2.63818998 65.5538637,2.63818998 66.453253,3.53757925 C67.3526422,4.43696853 67.3526422,5.89516666 66.453253,6.79455594 L41.0430102,32.2047987 L49.3339804,32.2047987 C50.605909,32.2047987 51.6370108,33.2359005 51.6370108,34.507829 C51.6370108,35.7797575 50.605909,36.8108593 49.3339804,36.8108593 L35.5157986,36.8108593 C34.4080527,36.8108593 33.4829735,36.0287697 33.2626095,34.986639 C33.2261439,34.8238952 33.206904,34.6546434 33.206904,34.4808979 L33.206904,20.6627161 C33.206904,19.3907875 34.2380058,18.3596858 35.5099343,18.3596858 C36.7818628,18.3596858 37.8129646,19.3907875 37.8129646,20.6627161 L37.8129646,28.9208909 Z" id="Path"></path>
            </g>
        </g>
    </g>
</svg>
