<?xml version="1.0" encoding="UTF-8"?>
<svg width="80px" height="76px" viewBox="0 0 80 76" version="1.1" xmlns="http://www.w3.org/2000/svg" xmlns:xlink="http://www.w3.org/1999/xlink">
    <!-- Generator: Sketch 52.4 (67378) - http://www.bohemiancoding.com/sketch -->
    <title>专题</title>
    <desc>Created with Sketch.</desc>
    <g id="Design" stroke="none" stroke-width="1" fill-rule="evenodd">
        <g id="01首页-操控台" transform="translate(-871.000000, -164.000000)" fill-rule="nonzero">
            <g id="专题" transform="translate(871.000000, 163.000000)">
                <rect id="Rectangle" x="0" y="10" width="30" height="4" rx="2"></rect>
                <rect id="Rectangle-Copy-33" x="0" y="17.9402937" width="30" height="4" rx="2"></rect>
                <rect id="Rectangle" transform="translate(11.574338, 16.059706) rotate(10.000000) translate(-11.574338, -16.059706) " x="9.57433817" y="1.05970633" width="4" height="30" rx="2"></rect>
                <rect id="Rectangle" transform="translate(18.574338, 16.059706) rotate(10.000000) translate(-18.574338, -16.059706) " x="16.5743382" y="1.05970633" width="4" height="30" rx="2"></rect>
                <path d="M28.0718349,35.9402937 C28.5598987,39.3293736 31.4758126,41.9337019 35,41.9337019 L66.9999967,41.9337019 C66.9999988,41.9358989 67,41.9380961 67,41.9402937 L67,51.9402937 C67,55.2540022 64.3137085,57.9402937 61,57.9402937 L23,57.9402937 C19.6862915,57.9402937 17,55.2540022 17,51.9402937 L17,41.9402937 C17,38.6265852 19.6862915,35.9402937 23,35.9402937 L28.0718349,35.9402937 Z" id="Combined-Shape"></path>
                <path d="M15.038039,53.9402937 C15.4050066,57.4612276 18.3819502,60.2061295 22,60.2061295 L54,60.2061295 L54,70.9402937 C54,74.2540022 51.3137085,76.9402937 48,76.9402937 L10,76.9402937 C6.6862915,76.9402937 4,74.2540022 4,70.9402937 L4,59.9402937 C4,56.6265852 6.6862915,53.9402937 10,53.9402937 L15.038039,53.9402937 Z" id="Combined-Shape"></path>
                <path d="M36,17.9402937 L74,17.9402937 C77.3137085,17.9402937 80,20.6265852 80,23.9402937 L80,33.9402937 C80,37.2540022 77.3137085,39.9402937 74,39.9402937 L36,39.9402937 C32.6862915,39.9402937 30,37.2540022 30,33.9402937 L30,23.9402937 C30,20.6265852 32.6862915,17.9402937 36,17.9402937 Z" id="Rectangle"></path>
            </g>
        </g>
    </g>
</svg>
