<?xml version="1.0" encoding="UTF-8"?>
<svg width="80px" height="71px" viewBox="0 0 80 71" version="1.1" xmlns="http://www.w3.org/2000/svg" xmlns:xlink="http://www.w3.org/1999/xlink">
    <!-- Generator: Sketch 52.4 (67378) - http://www.bohemiancoding.com/sketch -->
    <title>轮播频道</title>
    <desc>Created with Sketch.</desc>
    <g id="Design" stroke="none" stroke-width="1" fill-rule="evenodd">
        <g id="01首页-操控台" transform="translate(-565.000000, -279.000000)" fill-rule="nonzero">
            <path d="M617.999871,323.952041 C617.967186,331.637548 611.711753,337.857769 604,337.857769 C599.409342,337.857769 595.334745,335.653577 592.781653,332.248214 L590.764743,334.677014 L588.877786,336.949324 C592.544971,341.172133 597.959789,343.843305 604,343.843305 C615.025465,343.843305 623.967194,334.943276 623.99991,323.952041 L626.979209,323.952041 C627.255351,323.952041 627.479209,323.728184 627.479209,323.452041 C627.479209,323.341218 627.44239,323.233535 627.374537,323.145911 L621.394718,315.423731 C621.225647,315.205398 620.911593,315.165462 620.69326,315.334533 C620.65988,315.360381 620.629909,315.390352 620.604061,315.423731 L614.624242,323.145911 C614.455171,323.364245 614.495107,323.678299 614.713441,323.84737 C614.801064,323.915223 614.908747,323.952041 615.019571,323.952041 L617.999871,323.952041 Z M599.171573,295.132588 L586.414214,282.405983 C586.413079,282.404851 586.411945,282.403717 586.410813,282.402582 C585.633525,281.623416 585.635048,280.361662 586.414214,279.584374 L586.415921,279.582671 C587.196578,278.803896 588.460277,278.803896 589.240933,279.582671 L603.753048,294.059802 L618.265164,279.582671 C619.04582,278.803896 620.309519,278.803896 621.090175,279.582671 L621.091883,279.584374 C621.871049,280.361662 621.872571,281.623416 621.095284,282.402582 C621.094152,282.403717 621.093018,282.404851 621.091883,282.405983 L608.334524,295.132588 L637,295.132588 C641.418278,295.132588 645,298.71431 645,303.132588 L645,342 C645,346.418278 641.418278,350 637,350 L573,350 C568.581722,350 565,346.418278 565,342 L565,303.132588 C565,298.71431 568.581722,295.132588 573,295.132588 L599.171573,295.132588 Z M584.024565,323.891519 L590.035164,323.891519 C590.011853,323.562013 590,323.229352 590,322.893929 C590,315.180582 596.268014,308.927679 604,308.927679 C608.777895,308.927679 612.996775,311.315341 615.523082,314.959841 L619.36598,310.12219 C615.697274,305.734311 610.175498,302.942143 604,302.942143 C592.954305,302.942143 584,311.874862 584,322.893929 C584,323.228446 584.008252,323.561039 584.024565,323.891519 Z M581.019571,323.891519 C580.908747,323.891519 580.801064,323.928338 580.713441,323.996191 C580.495107,324.165262 580.455171,324.479315 580.624242,324.697649 L586.604061,332.419829 C586.629909,332.453208 586.65988,332.483179 586.69326,332.509027 C586.911593,332.678098 587.225647,332.638163 587.394718,332.419829 L593.374537,324.697649 C593.44239,324.610025 593.479209,324.502342 593.479209,324.391519 C593.479209,324.115376 593.255351,323.891519 592.979209,323.891519 L581.019571,323.891519 Z" id="轮播频道"></path>
        </g>
    </g>
</svg>
