<?xml version="1.0" encoding="UTF-8"?>
<svg width="80px" height="72px" viewBox="0 0 80 72" version="1.1" xmlns="http://www.w3.org/2000/svg" xmlns:xlink="http://www.w3.org/1999/xlink">
    <!-- Generator: Sketch 52.4 (67378) - http://www.bohemiancoding.com/sketch -->
    <title>直播频道</title>
    <desc>Created with Sketch.</desc>
    <g id="Design" stroke="none" stroke-width="1" fill-rule="evenodd">
        <g id="01首页-操控台" transform="translate(-260.000000, -279.000000)" fill-rule="nonzero">
            <path d="M294.171573,295.474642 L281.414214,282.748037 C281.413079,282.746905 281.411945,282.745771 281.410813,282.744636 C280.633525,281.96547 280.635048,280.703716 281.414214,279.926428 L281.415921,279.924725 C282.196578,279.14595 283.460277,279.14595 284.240933,279.924725 L298.753048,294.401856 L313.265164,279.924725 C314.04582,279.14595 315.309519,279.14595 316.090175,279.924725 L316.091883,279.926428 C316.871049,280.703716 316.872571,281.96547 316.095284,282.744636 C316.094152,282.745771 316.093018,282.746905 316.091883,282.748037 L303.334524,295.474642 L332,295.474642 C336.418278,295.474642 340,299.056364 340,303.474642 L340,342.342054 C340,346.760332 336.418278,350.342054 332,350.342054 L268,350.342054 C263.581722,350.342054 260,346.760332 260,342.342054 L260,303.474642 C260,299.056364 263.581722,295.474642 268,295.474642 L294.171573,295.474642 Z M300.173156,310.122004 C299.628119,309.550582 298.859255,309.194536 298.007232,309.194536 L269.992768,309.194536 C268.339908,309.194536 267,310.534444 267,312.187304 C267,313.840164 268.339908,315.180072 269.992768,315.180072 L281.000009,315.180072 C281.000003,315.182482 281,315.184893 281,315.187304 L281,335.124626 C281,336.78148 282.343146,338.124626 284,338.124626 C285.656854,338.124626 287,336.78148 287,335.124626 L287,315.187304 C287,315.184893 286.999997,315.182482 286.999991,315.180072 L296.309401,315.180072 L308.500422,336.244636 C309.145537,337.359315 310.398339,337.903647 311.598076,337.700585 C312.797814,337.903647 314.050616,337.359315 314.695731,336.244636 L327.694341,313.784658 C328.522037,312.354503 328.033647,310.524153 326.603492,309.696458 C326.601688,309.695414 326.599883,309.694371 326.598076,309.693331 L326.594213,309.691106 C325.160593,308.8654 323.329122,309.35614 322.500422,310.788031 L311.598076,329.625925 L300.695731,310.788031 C300.550008,310.53624 300.373278,310.313551 300.173156,310.122004 Z" id="直播频道"></path>
        </g>
    </g>
</svg>
