<?xml version="1.0" encoding="UTF-8"?>
<svg width="80px" height="80px" viewBox="0 0 80 80" version="1.1" xmlns="http://www.w3.org/2000/svg" xmlns:xlink="http://www.w3.org/1999/xlink">
    <!-- Generator: Sketch 52.3 (67297) - http://www.bohemiancoding.com/sketch -->
    <title>人物 80</title>
    <desc>Created with Sketch.</desc>
    <g id="人物-80" stroke="none" stroke-width="1" fill-rule="evenodd">
        <g>
            <rect id="Rectangle" fill-opacity="0" fill-rule="nonzero" x="0" y="0" width="80" height="80"></rect>
            <path d="M61.2575362,66.1068657 C62.3300205,67.8465229 63.0895522,71.0895522 63.0895522,71.0895522 L32.0447761,71.0895522 L1,71.0895522 C1,71.0895522 1.75953176,67.8465229 2.83201606,66.1068657 C4.33951017,63.6606523 7.56332625,61.8807518 10.7136766,60.4538419 C14.1318587,58.9050525 20.7888972,56.6928248 23.7535585,54.0338972 C25.5815253,52.3936982 26.8061473,49.2834715 26.2843669,47.4225097 C25.5849961,44.9314538 23.5603494,45.2189055 19.9015235,39.5204643 C17.6680489,36.0440243 16.233442,23.0851299 18.4507195,17.9110006 C20.6303963,12.8242565 24.0427937,9 32.0447761,9 C40.0467585,9 43.459156,12.8242565 45.6388328,17.9110006 C47.8561102,23.0851299 46.4215034,36.0440243 44.1880288,39.5204643 C40.5292029,45.2189055 38.5045562,44.9314538 37.8051853,47.4225097 C37.2834049,49.2834715 38.508027,52.3936982 40.3359937,54.0338972 C43.300655,56.6928248 49.9576935,58.9050525 53.3758757,60.4538419 C56.526226,61.8807518 59.7500421,63.6606523 61.2575362,66.1068657 Z M66.4166071,71.1791045 C66.4166071,71.1791045 65.569437,67.5618795 64.3732045,65.6214925 C62.6917688,62.8930238 59.0959739,60.9077501 55.5821217,59.3161968 C54.6986961,58.9159138 53.6213085,58.4759002 52.4461391,57.9991635 C53.2212637,56.8227828 53.6408441,55.3313595 53.3626305,54.3390934 C52.8650012,52.5666114 51.4243872,52.7711443 48.8209919,48.7164842 C47.2317888,46.2428635 46.2110109,37.0221117 47.788689,33.3405196 C49.3396129,29.7211056 51.767665,27 57.4613832,27 C63.1551014,27 65.5831534,29.7211056 67.1340773,33.3405196 C68.7117555,37.0221117 67.6909776,46.2428635 66.1017745,48.7164842 C63.4983792,52.7711443 62.0577651,52.5666114 61.5601359,54.3390934 C61.1888691,55.6632394 62.0602348,57.8762852 63.3609034,59.0433499 C65.4703739,60.9352792 70.2071129,62.5093643 72.6392809,63.6113875 C74.8808764,64.6266888 77.1747455,65.8931564 78.2473855,67.6337313 C79.0104994,68.8715644 79.5509354,71.1791045 79.5509354,71.1791045 L66.4166071,71.1791045 Z" id="人物icon"></path>
        </g>
    </g>
</svg>
