<?xml version="1.0" encoding="UTF-8"?>
<svg width="79px" height="78px" viewBox="0 0 79 78" version="1.1" xmlns="http://www.w3.org/2000/svg" xmlns:xlink="http://www.w3.org/1999/xlink">
    <!-- Generator: Sketch 52.4 (67378) - http://www.bohemiancoding.com/sketch -->
    <title>节目</title>
    <desc>Created with Sketch.</desc>
    <g id="Design" stroke="none" stroke-width="1" fill-rule="evenodd">
        <g id="01首页-操控台" transform="translate(-565.000000, -161.000000)">
            <g id="节目" transform="translate(565.000000, 160.000000)">
                <path d="M68,13.9342188 L75.2267942,12.0064919 C75.4790221,11.9392109 75.7389528,11.9051387 76,11.9051387 C77.6568542,11.9051387 79,13.2482844 79,14.9051387 L79,65.0948811 C79,65.3559234 78.9659291,65.6158492 78.8986505,65.8680727 C78.4716285,67.4689532 76.8276888,68.4205535 75.2268084,67.9935315 L68,66.0658387 L68,13.9342188 Z" id="Combined-Shape"></path>
                <path d="M53,69.0404978 L53,9.95950224 L60.2205796,8.01683665 C61.8205385,7.58637465 63.4665199,8.53443921 63.8969819,10.1343981 C63.9653633,10.3885609 64,10.6506175 64,10.9138185 L64,68.0861815 C64,69.7430357 62.6568542,71.0861815 61,71.0861815 C60.736799,71.0861815 60.4747424,71.0515448 60.2205796,70.9831634 L53,69.0404978 Z" id="Combined-Shape"></path>
                <path d="M38,73.1074555 L38,6.8924986 L45.2370722,4.98947848 C46.839454,4.56812511 48.4800155,5.5255378 48.9013689,7.12791958 C48.9668505,7.37694231 49,7.63335915 49,7.89084733 L49,72.109137 C49,73.7659912 47.6568542,75.109137 46,75.109137 C45.7425079,75.109137 45.4860872,75.0759864 45.2370609,75.0105028 L38,73.1074555 Z" id="Combined-Shape"></path>
                <path d="M28.8782135,1.49644043 L2.87821352,9.09290139 C1.17244022,9.59127987 -1.18637999e-16,11.1552914 8.8817842e-16,12.9323799 L-4.4408921e-15,67.0674902 C-4.22326222e-15,68.844573 1.17243284,70.408581 2.87819875,70.9069644 L28.8781988,78.5035339 C30.9986818,79.1230876 33.2199205,77.906344 33.8394742,75.7858609 C33.9459491,75.4214402 34,75.0437167 34,74.6640597 L34,5.33591892 C34,3.12677992 32.209139,1.33591892 30,1.33591892 C29.6203482,1.33591892 29.2426298,1.38996836 28.8782135,1.49644043 Z" id="Fill-4"></path>
            </g>
        </g>
    </g>
</svg>
