<?xml version="1.0" encoding="UTF-8"?>
<svg width="80px" height="80px" viewBox="0 0 80 80" version="1.1" xmlns="http://www.w3.org/2000/svg" xmlns:xlink="http://www.w3.org/1999/xlink">
    <!-- Generator: Sketch 52.3 (67297) - http://www.bohemiancoding.com/sketch -->
    <title>轮播频道 80</title>
    <desc>Created with Sketch.</desc>
    <g id="轮播频道-80" stroke="none" stroke-width="1" fill-rule="evenodd">
        <g fill-rule="nonzero">
            <rect id="Rectangle" fill-opacity="0" x="0" y="0" width="80" height="80"></rect>
            <path d="M53.9998713,48.9520415 C53.9671857,56.6375482 47.7117535,62.8577691 40,62.8577691 C35.4093419,62.8577691 31.3347445,60.653577 28.7816527,57.2482139 L24.8777862,61.9493242 C28.5449707,66.172133 33.9597887,68.8433049 40,68.8433049 C51.025465,68.8433049 59.9671937,59.9432763 59.9999099,48.9520415 L62.9792087,48.9520415 C63.2553511,48.9520415 63.4792087,48.7281838 63.4792087,48.4520415 C63.4792087,48.3412179 63.4423898,48.2335348 63.374537,48.1459114 L57.3947179,40.4237314 C57.2256469,40.2053977 56.9115934,40.1654623 56.6932596,40.3345332 C56.6598804,40.360381 56.6299092,40.3903522 56.6040614,40.4237314 L50.6242423,48.1459114 C50.4551714,48.3642452 50.4951068,48.6782987 50.7134405,48.8473697 C50.8010639,48.9152225 50.908747,48.9520415 51.0195706,48.9520415 L53.9998713,48.9520415 Z M35.1715729,20.1325882 L22.4142136,7.40598294 L22.4108125,7.40258192 C21.6335252,6.62341621 21.6350478,5.36166167 22.4142136,4.58437429 L22.4159213,4.5826707 C23.1965776,3.80389631 24.4602767,3.80389631 25.240933,4.5826707 L39.7530483,19.0598018 L54.2651637,4.5826707 C55.04582,3.80389631 56.3095191,3.80389631 57.0901754,4.5826707 L57.0918831,4.58437429 C57.8710488,5.36166167 57.8725715,6.62341621 57.0952841,7.40258192 L57.0918831,7.40598294 L44.3345238,20.1325882 L71,20.1325882 C75.418278,20.1325882 79,23.7143102 79,28.1325882 L79,67 C79,71.418278 75.418278,75 71,75 L9,75 C4.581722,75 1,71.418278 1,67 L1,28.1325882 C1,23.7143102 4.581722,20.1325882 9,20.1325882 L35.1715729,20.1325882 Z M20.024565,48.8915188 L26.0351641,48.8915188 C26.011853,48.5620135 26,48.2293524 26,47.8939295 C26,40.1805824 32.2680135,33.9276792 40,33.9276792 C44.7778955,33.9276792 48.996775,36.3153411 51.5230817,39.9598405 L55.3659799,35.1221895 C51.6972739,30.7343112 46.1754978,27.9421433 40,27.9421433 C28.954305,27.9421433 20,36.8748623 20,47.8939295 C20,48.2284459 20.0082523,48.5610395 20.024565,48.8915188 Z M17.0195706,48.8915188 C16.908747,48.8915188 16.8010639,48.9283377 16.7134405,48.9961906 C16.4951068,49.1652615 16.4551714,49.4793151 16.6242423,49.6976488 L22.6040614,57.4198288 C22.6299092,57.453208 22.6598804,57.4831792 22.6932596,57.509027 C22.9115934,57.678098 23.2256469,57.6381626 23.3947179,57.4198288 L29.374537,49.6976488 C29.4423898,49.6100254 29.4792087,49.5023423 29.4792087,49.3915188 C29.4792087,49.1153764 29.2553511,48.8915188 28.9792087,48.8915188 L17.0195706,48.8915188 Z" id="轮播"></path>
        </g>
    </g>
</svg>
