<?xml version="1.0" encoding="UTF-8"?>
<svg width="80px" height="63px" viewBox="0 0 80 63" version="1.1" xmlns="http://www.w3.org/2000/svg" xmlns:xlink="http://www.w3.org/1999/xlink">
    <!-- Generator: Sketch 52.4 (67378) - http://www.bohemiancoding.com/sketch -->
    <title>人物icon</title>
    <desc>Created with Sketch.</desc>
    <g id="Design" stroke="none" stroke-width="1" fill-rule="evenodd">
        <g id="01首页-操控台" transform="translate(-1175.000000, -173.000000)">
            <g id="人物icon" transform="translate(1175.000000, 173.000000)">
                <path d="M60.2575362,57.1068657 C58.7500421,54.6606523 55.526226,52.8807518 52.3758757,51.4538419 C48.9576935,49.9050525 42.300655,47.6928248 39.3359937,45.0338972 C37.508027,43.3936982 36.2834049,40.2834715 36.8051853,38.4225097 C37.5045562,35.9314538 39.5292029,36.2189055 43.1880288,30.5204643 C45.4215034,27.0440243 46.8561102,14.0851299 44.6388328,8.91100055 C42.459156,3.8242565 39.0467585,0 31.0447761,0 C23.0427937,0 19.6303963,3.8242565 17.4507195,8.91100055 C15.233442,14.0851299 16.6680489,27.0440243 18.9015235,30.5204643 C22.5603494,36.2189055 24.5849961,35.9314538 25.2843669,38.4225097 C25.8061473,40.2834715 24.5815253,43.3936982 22.7535585,45.0338972 C19.7888972,47.6928248 13.1318587,49.9050525 9.71367657,51.4538419 C6.56332625,52.8807518 3.33951017,54.6606523 1.83201606,57.1068657 C0.759531762,58.8465229 0,62.0895522 0,62.0895522 L31.0447761,62.0895522 L62.0895522,62.0895522 C62.0895522,62.0895522 61.3300205,58.8465229 60.2575362,57.1068657" id="我的"></path>
                <path d="M66.4166071,62.1791045 C66.4166071,62.1791045 65.569437,58.5618795 64.3732045,56.6214925 C62.6917688,53.8930238 59.0959739,51.9077501 55.5821217,50.3161968 C54.6986961,49.9159138 53.6213085,49.4759002 52.4461391,48.9991635 C53.2212637,47.8227828 53.6408441,46.3313595 53.3626305,45.3390934 C52.8650012,43.5666114 51.4243872,43.7711443 48.8209919,39.7164842 C47.2317888,37.2428635 46.2110109,28.0221117 47.788689,24.3405196 C49.3396129,20.7211056 51.767665,18 57.4613832,18 C63.1551014,18 65.5831534,20.7211056 67.1340773,24.3405196 C68.7117555,28.0221117 67.6909776,37.2428635 66.1017745,39.7164842 C63.4983792,43.7711443 62.0577651,43.5666114 61.5601359,45.3390934 C61.1888691,46.6632394 62.0602348,48.8762852 63.3609034,50.0433499 C65.4703739,51.9352792 70.2071129,53.5093643 72.6392809,54.6113875 C74.8808764,55.6266888 77.1747455,56.8931564 78.2473855,58.6337313 C79.0104994,59.8715644 79.5509354,62.1791045 79.5509354,62.1791045 L66.4166071,62.1791045 Z" id="Combined-Shape"></path>
            </g>
        </g>
    </g>
</svg>
