<?xml version="1.0" encoding="UTF-8"?>
<svg width="80px" height="80px" viewBox="0 0 80 80" version="1.1" xmlns="http://www.w3.org/2000/svg" xmlns:xlink="http://www.w3.org/1999/xlink">
    <!-- Generator: Sketch 52.3 (67297) - http://www.bohemiancoding.com/sketch -->
    <title>新建节目 80</title>
    <desc>Created with Sketch.</desc>
    <g id="新建节目-80" stroke="none" stroke-width="1" fill-rule="evenodd">
        <g>
            <rect id="Rectangle" fill-opacity="0" fill-rule="nonzero" x="0" y="0" width="80" height="80"></rect>
            <path d="M68,13.9342188 L75.2267942,12.0064919 C75.4790221,11.9392109 75.7389528,11.9051387 76,11.9051387 C77.6568542,11.9051387 79,13.2482844 79,14.9051387 L79,65.0948811 C79,65.3559234 78.9659291,65.6158492 78.8986505,65.8680727 C78.4716285,67.4689532 76.8276888,68.4205535 75.2268084,67.9935315 L68,66.0658387 L68,13.9342188 Z M54,69.0404978 L54,9.95950224 L61.2205796,8.01683665 C62.8205385,7.58637465 64.4665199,8.53443921 64.8969819,10.1343981 C64.9653633,10.3885609 65,10.6506175 65,10.9138185 L65,68.0861815 C65,69.7430357 63.6568542,71.0861815 62,71.0861815 C61.736799,71.0861815 61.4747424,71.0515448 61.2205796,70.9831634 L54,69.0404978 Z M39,73.1074555 L39,6.8924986 L46.2370722,4.98947848 C47.839454,4.56812511 49.4800155,5.5255378 49.9013689,7.12791958 C49.9668505,7.37694231 50,7.63335915 50,7.89084733 L50,72.109137 C50,73.7659912 48.6568542,75.109137 47,75.109137 C46.7425079,75.109137 46.4860872,75.0759864 46.2370609,75.0105028 L39,73.1074555 Z M29.8782135,1.49644043 C30.2426298,1.38996836 30.6203482,1.33591892 31,1.33591892 C33.209139,1.33591892 35,3.12677992 35,5.33591892 L35,74.6640597 C35,75.0437167 34.9459491,75.4214402 34.8394742,75.7858609 C34.2199205,77.906344 31.9986818,79.1230876 29.8781988,78.5035339 L3.87819875,70.9069644 C2.17243284,70.408581 1,68.844573 1,67.0674902 L1,12.9323799 C1,11.1552914 2.17244022,9.59127987 3.87821352,9.09290139 L29.8782135,1.49644043 Z" id="节目"></path>
        </g>
    </g>
</svg>
