<?xml version="1.0" encoding="UTF-8"?>
<svg width="30px" height="30px" viewBox="0 0 30 30" version="1.1" xmlns="http://www.w3.org/2000/svg"
     xmlns:xlink="http://www.w3.org/1999/xlink">
    <!-- Generator: Sketch 52.3 (67297) - http://www.bohemiancoding.com/sketch -->
    <title>Combined Shape</title>
    <desc>Created with Sketch.</desc>
    <g id="Design" stroke="none" stroke-width="1">
        <g id="16-01-中心运营平台" transform="translate(-30.000000, -140.000000)" fill-rule="nonzero">
            <path
                d="M45,166.625 C39.5,157.485329 36.75,151.383767 36.75,148.320312 C36.75,143.725131 40.4436508,140 45,140 C49.5563492,140 53.25,143.725131 53.25,148.320312 C53.25,151.383767 50.5,157.485329 45,166.625 Z M45,151.625 C46.863961,151.625 48.375,150.113961 48.375,148.25 C48.375,146.386039 46.863961,144.875 45,144.875 C43.136039,144.875 41.625,146.386039 41.625,148.25 C41.625,150.113961 43.136039,151.625 45,151.625 Z M55.5,170 C52.5,164.979618 51,161.628055 51,159.945312 C51,157.421199 53.0147186,155.375 55.5,155.375 C57.9852814,155.375 60,157.421199 60,159.945312 C60,161.628055 58.5,164.979618 55.5,170 Z M55.5,161.760563 C56.516706,161.760563 57.3409091,160.930556 57.3409091,159.90669 C57.3409091,158.882824 56.516706,158.052817 55.5,158.052817 C54.483294,158.052817 53.6590909,158.882824 53.6590909,159.90669 C53.6590909,160.930556 54.483294,161.760563 55.5,161.760563 Z M34.5,170 C31.5,164.979618 30,161.628055 30,159.945312 C30,157.421199 32.0147186,155.375 34.5,155.375 C36.9852814,155.375 39,157.421199 39,159.945312 C39,161.628055 37.5,164.979618 34.5,170 Z M34.5,161.760563 C35.516706,161.760563 36.3409091,160.930556 36.3409091,159.90669 C36.3409091,158.882824 35.516706,158.052817 34.5,158.052817 C33.483294,158.052817 32.6590909,158.882824 32.6590909,159.90669 C32.6590909,160.930556 33.483294,161.760563 34.5,161.760563 Z"
                id="Combined-Shape"></path>
        </g>
    </g>
</svg>
