<?xml version="1.0" encoding="UTF-8"?>
<svg width="30px" height="30px" viewBox="0 0 30 30" version="1.1" xmlns="http://www.w3.org/2000/svg"
     xmlns:xlink="http://www.w3.org/1999/xlink">
    <!-- Generator: Sketch 52.3 (67297) - http://www.bohemiancoding.com/sketch -->
    <title>站点分配</title>
    <desc>Created with Sketch.</desc>
    <g id="Design" stroke="none" stroke-width="1">
        <g id="16-01-中心运营平台" transform="translate(-30.000000, -190.000000)" fill-rule="nonzero">
            <path
                d="M41.590478,212.597298 C41.7916031,212.96136 41.9978138,213.331063 42.2091102,213.706407 C37.3459474,213.996052 33.75,215.02504 33.75,216.25 C33.75,217.699747 38.7867966,218.875 45,218.875 C51.2132034,218.875 56.25,217.699747 56.25,216.25 C56.25,215.02504 52.6540526,213.996052 47.7908898,213.706407 C48.0021862,213.331063 48.2083969,212.96136 48.409522,212.597298 C55.0511776,212.983236 60,214.472135 60,216.25 C60,218.321068 53.2842712,220 45,220 C36.7157288,220 30,218.321068 30,216.25 C30,214.472135 34.9488224,212.983236 41.590478,212.597298 Z M45,216.625 C39.5,207.485329 36.75,201.383767 36.75,198.320312 C36.75,193.725131 40.4436508,190 45,190 C49.5563492,190 53.25,193.725131 53.25,198.320312 C53.25,201.383767 50.5,207.485329 45,216.625 Z M45,201.625 C46.863961,201.625 48.375,200.113961 48.375,198.25 C48.375,196.386039 46.863961,194.875 45,194.875 C43.136039,194.875 41.625,196.386039 41.625,198.25 C41.625,200.113961 43.136039,201.625 45,201.625 Z"
                id="站点分配"></path>
        </g>
    </g>
</svg>
