<?xml version="1.0" encoding="UTF-8"?>
<svg width="80px" height="72px" viewBox="0 0 80 72" version="1.1" xmlns="http://www.w3.org/2000/svg" xmlns:xlink="http://www.w3.org/1999/xlink">
    <!-- Generator: Sketch 52.4 (67378) - http://www.bohemiancoding.com/sketch -->
    <title>Shape</title>
    <desc>Created with Sketch.</desc>
    <g id="Design" stroke="none" stroke-width="1" fill-rule="evenodd">
        <g id="UI-库" transform="translate(-81.000000, -5314.000000)">
            <path d="M102.052632,5331.26581 L102.052632,5379.68452 C102.052632,5383.17246 99.2249563,5386 95.7368421,5386 C92.2487279,5386 89.4210526,5383.17246 89.4210526,5379.68452 L89.4210526,5331.26581 L81,5331.26581 L95.7368421,5314 L110.473684,5331.26581 L102.052632,5331.26581 Z M114.684211,5377.57936 C112.358801,5377.57936 110.473684,5375.69433 110.473684,5373.36903 C110.473684,5371.04374 112.358801,5369.15871 114.684211,5369.15871 L156.789474,5369.15871 C159.114883,5369.15871 161,5371.04374 161,5373.36903 C161,5375.69433 159.114883,5377.57936 156.789474,5377.57936 L114.684211,5377.57936 Z M114.684211,5360.73807 C112.358801,5360.73807 110.473684,5358.85304 110.473684,5356.52775 C110.473684,5354.20245 112.358801,5352.31742 114.684211,5352.31742 L148.368421,5352.31742 C150.693831,5352.31742 152.578947,5354.20245 152.578947,5356.52775 C152.578947,5358.85304 150.693831,5360.73807 148.368421,5360.73807 L114.684211,5360.73807 Z M114.684211,5343.89678 C112.358801,5343.89678 110.473684,5342.01176 110.473684,5339.68646 C110.473684,5337.36116 112.358801,5335.47614 114.684211,5335.47614 L139.947368,5335.47614 C142.272778,5335.47614 144.157895,5337.36116 144.157895,5339.68646 C144.157895,5342.01176 142.272778,5343.89678 139.947368,5343.89678 L114.684211,5343.89678 Z M114.684211,5327.05549 C112.358801,5327.05549 110.473684,5325.17047 110.473684,5322.84517 C110.473684,5320.51987 112.358801,5318.63485 114.684211,5318.63485 L131.526316,5318.63485 C133.851725,5318.63485 135.736842,5320.51987 135.736842,5322.84517 C135.736842,5325.17047 133.851725,5327.05549 131.526316,5327.05549 L114.684211,5327.05549 Z" id="Shape"></path>
        </g>
    </g>
</svg>
