<?xml version="1.0" encoding="UTF-8"?>
<svg width="29px" height="29px" viewBox="0 0 29 29" version="1.1" xmlns="http://www.w3.org/2000/svg"
     xmlns:xlink="http://www.w3.org/1999/xlink">
    <!-- Generator: Sketch 51.2 (57519) - http://www.bohemiancoding.com/sketch -->
    <title>排序</title>
    <desc>Created with Sketch.</desc>
    <defs></defs>
    <g id="Design" stroke="none" stroke-width="1" fill-rule="evenodd">
        <g id="01推荐设置" transform="translate(-423.000000, -1990.000000)">
            <g id="模块排序按钮-灰" transform="translate(415.000000, 1984.000000)">
                <g id="排序" transform="translate(8.000000, 6.000000)">
                    <path
                        d="M10,19 L12,19 L8.5,23.1008301 L5,19 L7,19 L7,7.5 C7,6.67157288 7.67157288,6 8.5,6 C9.32842712,6 10,6.67157288 10,7.5 L10,19 Z M13,8 L23,8 C23.5522847,8 24,8.44771525 24,9 C24,9.55228475 23.5522847,10 23,10 L13,10 C12.4477153,10 12,9.55228475 12,9 C12,8.44771525 12.4477153,8 13,8 Z M13,12 L21,12 C21.5522847,12 22,12.4477153 22,13 C22,13.5522847 21.5522847,14 21,14 L13,14 C12.4477153,14 12,13.5522847 12,13 C12,12.4477153 12.4477153,12 13,12 Z M13,16 L19,16 C19.5522847,16 20,16.4477153 20,17 C20,17.5522847 19.5522847,18 19,18 L13,18 C12.4477153,18 12,17.5522847 12,17 C12,16.4477153 12.4477153,16 13,16 Z M13,20 L17,20 C17.5522847,20 18,20.4477153 18,21 C18,21.5522847 17.5522847,22 17,22 L13,22 C12.4477153,22 12,21.5522847 12,21 C12,20.4477153 12.4477153,20 13,20 Z"
                        id="Combined-Shape"
                        transform="translate(14.500000, 14.550415) scale(1, -1) translate(-14.500000, -14.550415) "></path>
                    <path
                        d="M14.5,29 C6.49187113,29 0,22.5081289 0,14.5 C0,6.49187113 6.49187113,0 14.5,0 C22.5081289,0 29,6.49187113 29,14.5 C29,22.5081289 22.5081289,29 14.5,29 Z M14.5,27 C21.4035594,27 27,21.4035594 27,14.5 C27,7.59644063 21.4035594,2 14.5,2 C7.59644063,2 2,7.59644063 2,14.5 C2,21.4035594 7.59644063,27 14.5,27 Z"
                        id="Combined-Shape"></path>
                </g>
            </g>
        </g>
    </g>
</svg>
