<?xml version="1.0" encoding="UTF-8"?>
<svg width="20px" height="20px" viewBox="0 0 20 20" version="1.1" xmlns="http://www.w3.org/2000/svg" xmlns:xlink="http://www.w3.org/1999/xlink">
    <!-- Generator: Sketch 63.1 (92452) - https://sketch.com -->
    <title>icon_order</title>
    <desc>Created with Sketch.</desc>
    <g id="Design" stroke="none" stroke-width="1" fill="none" fill-rule="evenodd" opacity="0.9">
        <g id="07-页面布局-2.8" transform="translate(-900.000000, -1835.000000)" fill="#1989FA">
            <g id="底部悬浮操作按钮-备份" transform="translate(670.000000, 1806.000000)">
                <g id="btn_order" transform="translate(205.000000, 18.999834)">
                    <path d="M29.5,10 C30.3284271,10 31,10.6715729 31,11.5 L31,23.047 L31.0203857,23.0478516 L31.0203857,29.1235352 L25,23.0478516 L28,23.047 L28,11.5 C28,10.6715729 28.6715729,10 29.5,10 Z M38,23.0478516 C38.5522847,23.0478516 39,23.4955668 39,24.0478516 C39,24.6001363 38.5522847,25.0478516 38,25.0478516 L34,25.0478516 C33.4477153,25.0478516 33,24.6001363 33,24.0478516 C33,23.4955668 33.4477153,23.0478516 34,23.0478516 L38,23.0478516 Z M40,19.0478516 C40.5522847,19.0478516 41,19.4955668 41,20.0478516 C41,20.6001363 40.5522847,21.0478516 40,21.0478516 L34,21.0478516 C33.4477153,21.0478516 33,20.6001363 33,20.0478516 C33,19.4955668 33.4477153,19.0478516 34,19.0478516 L40,19.0478516 Z M42,15.0478516 C42.5522847,15.0478516 43,15.4955668 43,16.0478516 C43,16.6001363 42.5522847,17.0478516 42,17.0478516 L34,17.0478516 C33.4477153,17.0478516 33,16.6001363 33,16.0478516 C33,15.4955668 33.4477153,15.0478516 34,15.0478516 L42,15.0478516 Z M44,11.0478516 C44.5522847,11.0478516 45,11.4955668 45,12.0478516 C45,12.6001363 44.5522847,13.0478516 44,13.0478516 L34,13.0478516 C33.4477153,13.0478516 33,12.6001363 33,12.0478516 C33,11.4955668 33.4477153,11.0478516 34,11.0478516 L44,11.0478516 Z" id="icon_order" transform="translate(35.000000, 19.561768) scale(1, -1) translate(-35.000000, -19.561768) "></path>
                </g>
            </g>
        </g>
    </g>
</svg>