<?xml version="1.0" encoding="UTF-8"?>
<svg width="29px" height="29px" viewBox="0 0 29 29" version="1.1" xmlns="http://www.w3.org/2000/svg" xmlns:xlink="http://www.w3.org/1999/xlink">
    <!-- Generator: Sketch 49.3 (51167) - http://www.bohemiancoding.com/sketch -->
    <title>sort_model</title>
    <desc>Created with Sketch.</desc>
    <defs></defs>
    <g id="Design" stroke="none" stroke-width="1" fill="none" fill-rule="evenodd">
        <g id="01推荐设置" transform="translate(-737.000000, -1990.000000)">
            <g id="模块排序按钮-灰-copy" transform="translate(729.000000, 1984.000000)">
                <g id="sort_model" transform="translate(9.000000, 7.000000)">
                    <path d="M9,18 L11,18 L7.5,22.1008301 L4,18 L6,18 L6,6.5 C6,5.67157288 6.67157288,5 7.5,5 C8.32842712,5 9,5.67157288 9,6.5 L9,18 Z M12,7 L22,7 C22.5522847,7 23,7.44771525 23,8 C23,8.55228475 22.5522847,9 22,9 L12,9 C11.4477153,9 11,8.55228475 11,8 C11,7.44771525 11.4477153,7 12,7 Z M12,11 L20,11 C20.5522847,11 21,11.4477153 21,12 C21,12.5522847 20.5522847,13 20,13 L12,13 C11.4477153,13 11,12.5522847 11,12 C11,11.4477153 11.4477153,11 12,11 Z M12,15 L18,15 C18.5522847,15 19,15.4477153 19,16 C19,16.5522847 18.5522847,17 18,17 L12,17 C11.4477153,17 11,16.5522847 11,16 C11,15.4477153 11.4477153,15 12,15 Z M12,19 L16,19 C16.5522847,19 17,19.4477153 17,20 C17,20.5522847 16.5522847,21 16,21 L12,21 C11.4477153,21 11,20.5522847 11,20 C11,19.4477153 11.4477153,19 12,19 Z" id="Combined-Shape" fill="#1989FA" fill-rule="evenodd" transform="translate(13.500000, 13.550415) scale(1, -1) translate(-13.500000, -13.550415) "></path>
                    <circle id="Oval-3" stroke="#1989FA" stroke-width="2" cx="13.5" cy="13.5" r="13.5"></circle>
                </g>
            </g>
        </g>
    </g>
</svg>