<?xml version="1.0" encoding="UTF-8"?>
<svg width="18px" height="12px" viewBox="0 0 18 12" version="1.1" xmlns="http://www.w3.org/2000/svg" xmlns:xlink="http://www.w3.org/1999/xlink">
    <!-- Generator: Sketch 49.3 (51167) - http://www.bohemiancoding.com/sketch -->
    <title>Combined Shape</title>
    <desc>Created with Sketch.</desc>
    <defs></defs>
    <g id="Design" stroke="none" stroke-width="1" fill="none" fill-rule="evenodd">
        <g id="菜单栏-new" transform="translate(-1894.000000, -496.000000)" fill="#B8C7CE" fill-rule="nonzero">
            <g id="菜单栏1级" transform="translate(1865.000000, 75.000000)">
                <path d="M30.125,421.1875 C30.7463203,421.1875 31.25,421.69118 31.25,422.3125 C31.25,422.93382 30.7463203,423.4375 30.125,423.4375 C29.5036797,423.4375 29,422.93382 29,422.3125 C29,421.69118 29.5036797,421.1875 30.125,421.1875 Z M30.125,425.6875 C30.7463203,425.6875 31.25,426.19118 31.25,426.8125 C31.25,427.43382 30.7463203,427.9375 30.125,427.9375 C29.5036797,427.9375 29,427.43382 29,426.8125 C29,426.19118 29.5036797,425.6875 30.125,425.6875 Z M30.125,430.1875 C30.7463203,430.1875 31.25,430.69118 31.25,431.3125 C31.25,431.93382 30.7463203,432.4375 30.125,432.4375 C29.5036797,432.4375 29,431.93382 29,431.3125 C29,430.69118 29.5036797,430.1875 30.125,430.1875 Z M33.275,421.1875 L45.875,421.1875 C46.4963203,421.1875 47,421.69118 47,422.3125 C47,422.93382 46.4963203,423.4375 45.875,423.4375 L33.275,423.4375 C32.6536797,423.4375 32.15,422.93382 32.15,422.3125 C32.15,421.69118 32.6536797,421.1875 33.275,421.1875 Z M33.275,425.6875 L45.875,425.6875 C46.4963203,425.6875 47,426.19118 47,426.8125 C47,427.43382 46.4963203,427.9375 45.875,427.9375 L33.275,427.9375 C32.6536797,427.9375 32.15,427.43382 32.15,426.8125 C32.15,426.19118 32.6536797,425.6875 33.275,425.6875 Z M33.275,430.1875 L45.875,430.1875 C46.4963203,430.1875 47,430.69118 47,431.3125 C47,431.93382 46.4963203,432.4375 45.875,432.4375 L33.275,432.4375 C32.6536797,432.4375 32.15,431.93382 32.15,431.3125 C32.15,430.69118 32.6536797,430.1875 33.275,430.1875 Z" id="Combined-Shape"></path>
            </g>
        </g>
    </g>
</svg>