<?xml version="1.0" encoding="UTF-8"?>
<svg width="212px" height="212px" viewBox="0 0 212 212" version="1.1" xmlns="http://www.w3.org/2000/svg" xmlns:xlink="http://www.w3.org/1999/xlink">
    <!-- Generator: Sketch 54.1 (76490) - https://sketchapp.com -->
    <title>专题占位icon</title>
    <desc>Created with Sketch.</desc>
    <defs>
        <rect id="path-1" x="0" y="0.473933649" width="200" height="199.052133" rx="8"></rect>
        <filter x="-3.9%" y="-3.9%" width="109.7%" height="109.7%" filterUnits="objectBoundingBox" id="filter-3">
            <feMorphology radius="1.20000005" operator="dilate" in="SourceAlpha" result="shadowSpreadOuter1"></feMorphology>
            <feOffset dx="2" dy="2" in="shadowSpreadOuter1" result="shadowOffsetOuter1"></feOffset>
            <feGaussianBlur stdDeviation="2.5" in="shadowOffsetOuter1" result="shadowBlurOuter1"></feGaussianBlur>
            <feComposite in="shadowBlurOuter1" in2="SourceAlpha" operator="out" result="shadowBlurOuter1"></feComposite>
            <feColorMatrix values="0 0 0 0 0   0 0 0 0 0   0 0 0 0 0  0 0 0 0.5 0" type="matrix" in="shadowBlurOuter1"></feColorMatrix>
        </filter>
    </defs>
    <g id="Design" stroke="none" stroke-width="1" fill="none" fill-rule="evenodd">
        <g id="05-05内容管理-人物专题详情页-3.0" transform="translate(-238.000000, -167.000000)">
            <g id="专题占位icon" transform="translate(242.000000, 171.000000)">
                <mask id="mask-2" fill="white">
                    <use xlink:href="#path-1"></use>
                </mask>
                <g id="Mask" fill-rule="nonzero">
                    <use fill="black" fill-opacity="1" filter="url(#filter-3)" xlink:href="#path-1"></use>
                    <rect stroke="#3E495E" stroke-width="1.20000005" fill="#2A3040" fill-rule="evenodd" x="-0.600000024" y="-0.126066375" width="201.2" height="200.252133" rx="8"></rect>
                </g>
                <path d="M69.3832234,79.4253671 L65.7103565,79.4253671 L64.0213351,89.0042832 C63.8295286,90.0920718 62.7922119,90.8184088 61.7044233,90.6266024 L60.7196155,90.4529542 C59.6318269,90.2611477 58.9054899,89.2238309 59.0972964,88.1360423 L60.6332234,79.4253671 L52.5,79.4253671 C51.1192881,79.4253671 50,78.306079 50,76.9253671 C50,75.5446552 51.1192881,74.4253671 52.5,74.4253671 L61.5148583,74.4253671 L62.3833334,69.5 L52.5,69.5 C51.1192881,69.5 50,68.3807119 50,67 C50,65.6192881 51.1192881,64.5 52.5,64.5 L63.2649683,64.5 L64.9145103,55.1449826 C65.1063168,54.057194 66.1436336,53.330857 67.2314222,53.5226634 L68.2162299,53.6963116 C69.3040185,53.8881181 70.0303556,54.9254349 69.8385491,56.0132235 L68.3421014,64.5 L72.0149683,64.5 L73.6645103,55.1449826 C73.8563168,54.057194 74.8936336,53.330857 75.9814222,53.5226634 L76.9662299,53.6963116 C78.0540185,53.8881181 78.7803556,54.9254349 78.5885491,56.0132235 L77.0921014,64.5 L85,64.5 C86.3807119,64.5 87.5,65.6192881 87.5,67 C87.5,68.3807119 86.3807119,69.5 85,69.5 L76.2104665,69.5 L75.3419914,74.4253671 L85,74.4253671 C86.3807119,74.4253671 87.5,75.5446552 87.5,76.9253671 C87.5,78.306079 86.3807119,79.4253671 85,79.4253671 L74.4603565,79.4253671 L72.7713351,89.0042832 C72.5795286,90.0920718 71.5422119,90.8184088 70.4544233,90.6266024 L69.4696155,90.4529542 C68.3818269,90.2611477 67.6554899,89.2238309 67.8472964,88.1360423 L69.3832234,79.4253671 Z M70.2648583,74.4253671 L71.1333334,69.5 L67.4604665,69.5 L66.5919914,74.4253671 L70.2648583,74.4253671 Z M85,96.9253671 L85,97.4171273 C85,101.283121 88.1340068,104.417127 92,104.417127 L133.75,104.417127 L133.75,118.425367 C133.75,121.739076 131.063708,124.425367 127.75,124.425367 L77.25,124.425367 C73.9362915,124.425367 71.25,121.739076 71.25,118.425367 L71.25,102.925367 C71.25,99.6116586 73.9362915,96.9253671 77.25,96.9253671 L85,96.9253671 Z M68.75,119.425367 L68.75,120.257662 C68.75,124.123655 71.8840068,127.257662 75.75,127.257662 L117.5,127.257662 L117.5,142.175367 C117.5,145.489076 114.813708,148.175367 111.5,148.175367 L61,148.175367 C57.6862915,148.175367 55,145.489076 55,142.175367 L55,125.425367 C55,122.111659 57.6862915,119.425367 61,119.425367 L68.75,119.425367 Z M93.5,74.4253671 L144,74.4253671 C147.313708,74.4253671 150,77.1116586 150,80.4253671 L150,95.9253671 C150,99.2390756 147.313708,101.925367 144,101.925367 L93.5,101.925367 C90.1862915,101.925367 87.5,99.2390756 87.5,95.9253671 L87.5,80.4253671 C87.5,77.1116586 90.1862915,74.4253671 93.5,74.4253671 Z" id="专题管理icon" fill="#3E495E" fill-rule="nonzero" mask="url(#mask-2)"></path>
            </g>
        </g>
    </g>
</svg>