<?xml version="1.0" encoding="UTF-8"?>
<svg width="13px" height="13px" viewBox="0 0 13 13" version="1.1" xmlns="http://www.w3.org/2000/svg" xmlns:xlink="http://www.w3.org/1999/xlink">
    <!-- Generator: Sketch 49.3 (51167) - http://www.bohemiancoding.com/sketch -->
    <title>电话</title>
    <desc>Created with Sketch.</desc>
    <defs></defs>
    <g id="Design" stroke="none" stroke-width="1" fill="none" fill-rule="evenodd">
        <g id="04个人中心/我的信息" transform="translate(-650.000000, -411.000000)" fill="#DCDFE6">
            <path d="M662.97181,421.072879 C662.93512,420.9621 662.701239,420.798766 662.270167,420.583727 C662.15344,420.516013 661.987414,420.423792 661.772091,420.306923 C661.556343,420.189628 661.360993,420.081825 661.185618,419.98323 C661.010101,419.885201 660.845209,419.789439 660.691366,419.697076 C660.667001,419.678802 660.590221,419.625113 660.460602,419.535442 C660.331692,419.44648 660.222188,419.380608 660.133084,419.337543 C660.04398,419.294195 659.956009,419.272805 659.869738,419.272805 C659.746777,419.272805 659.592934,419.360067 659.40821,419.535442 C659.22391,419.710959 659.054626,419.901775 658.900783,420.108174 C658.746941,420.314572 658.583607,420.504964 658.411631,420.680339 C658.238948,420.856422 658.097288,420.943968 657.986651,420.943968 C657.931262,420.943968 657.862132,420.928244 657.778553,420.897928 C657.696107,420.867047 657.632501,420.840839 657.589295,420.819449 C657.546655,420.797775 657.472567,420.75471 657.36788,420.689972 C657.263335,420.625233 657.204688,420.589818 657.192505,420.583727 C656.349203,420.115965 655.626028,419.58049 655.02284,418.97716 C654.419652,418.373972 653.884035,417.650797 653.416415,416.807495 C653.410324,416.794746 653.374909,416.736665 653.31017,416.631978 C653.245431,416.527575 653.202225,416.453345 653.180693,416.410138 C653.159019,416.367074 653.133095,416.303893 653.102072,416.221022 C653.071756,416.13801 653.056174,416.068596 653.056174,416.01349 C653.056174,415.902712 653.144145,415.761052 653.319661,415.58851 C653.495036,415.416252 653.685994,415.253059 653.891826,415.099358 C654.098225,414.945515 654.288474,414.77609 654.463991,414.591932 C654.639933,414.406924 654.727337,414.253081 654.727337,414.129695 C654.727337,414.043849 654.705663,413.95602 654.662598,413.866774 C654.619392,413.777387 654.553662,413.668167 654.463991,413.53869 C654.374745,413.409921 654.321198,413.332858 654.302357,413.308067 C654.210561,413.154224 654.114799,412.989757 654.016345,412.814523 C653.917608,412.639007 653.810372,412.443232 653.693077,412.227909 C653.576349,412.012586 653.483845,411.846135 653.416415,411.729266 C653.200525,411.298761 653.0379,411.064739 652.926696,411.027624 C652.884057,411.00935 652.819318,411 652.733047,411 C652.567022,411 652.35014,411.030882 652.082261,411.092362 C651.814523,411.153701 651.603592,411.218581 651.449749,411.286153 C651.141638,411.415631 650.815537,411.790746 650.470878,412.412776 C650.157101,412.991032 650,413.563763 650,414.129695 C650,414.295862 650.010483,414.457355 650.032157,414.614598 C650.053689,414.771699 650.092362,414.948774 650.147751,415.145823 C650.20314,415.34273 650.247905,415.488923 650.281478,415.583977 C650.315477,415.679173 650.378516,415.850015 650.470878,416.096503 C650.563382,416.342567 650.618629,416.493151 650.636904,416.548965 C650.852793,417.152295 651.107781,417.690745 651.403284,418.164881 C651.889178,418.952228 652.552714,419.766773 653.393183,420.606959 C654.233085,421.446861 655.047205,422.110255 655.835119,422.596716 C656.30883,422.892219 656.847846,423.147773 657.450893,423.363238 C657.506282,423.381512 657.657292,423.43676 657.903638,423.529264 C658.149277,423.621484 658.320261,423.684665 658.415456,423.71838 C658.511218,423.752803 658.65727,423.79686 658.854319,423.852957 C659.051226,423.908204 659.228301,423.946311 659.385544,423.967985 C659.542078,423.989659 659.703713,424.000708 659.869738,424.000708 C660.436378,424.000708 661.008543,423.843466 661.587366,423.529689 C662.208687,423.184888 662.584511,422.858362 662.713422,422.550818 C662.781419,422.396975 662.845591,422.186043 662.907638,421.918306 C662.968976,421.650427 663,421.433687 663,421.267661 C663,421.181249 662.99065,421.11651 662.97181,421.072879 Z" id="电话"></path>
        </g>
    </g>
</svg>