<?xml version="1.0" encoding="UTF-8"?>
<svg width="530px" height="247px" viewBox="0 0 530 247" version="1.1" xmlns="http://www.w3.org/2000/svg" xmlns:xlink="http://www.w3.org/1999/xlink">
    <!-- Generator: Sketch 52.4 (67378) - http://www.bohemiancoding.com/sketch -->
    <title>搜索输入框 copy 27</title>
    <desc>Created with Sketch.</desc>
    <g id="Design" stroke="none" stroke-width="1" fill="none" fill-rule="evenodd">
        <g id="03-新增混排模块版式" transform="translate(-720.000000, -340.000000)" fill="#2A3040" fill-rule="nonzero" stroke="#3E495E" stroke-width="0.5">
            <g id="搜索输入框-copy-27" transform="translate(721.000000, 341.000000)">
                <rect x="179.75" y="-0.25" width="78.5" height="117.5" rx="4"></rect>
                <rect id="搜索输入框-copy-33" x="179.75" y="127.75" width="78.5" height="117.5" rx="4"></rect>
                <rect id="搜索输入框-copy-28" x="-0.25" y="-0.25" width="78.5" height="117.5" rx="4"></rect>
                <rect id="搜索输入框-copy-34" x="-0.25" y="127.75" width="78.5" height="117.5" rx="4"></rect>
                <rect id="搜索输入框-copy-29" x="359.75" y="-0.25" width="78.5" height="117.5" rx="4"></rect>
                <rect id="搜索输入框-copy-35" x="359.75" y="127.75" width="78.5" height="117.5" rx="4"></rect>
                <rect id="搜索输入框-copy-30" x="269.75" y="-0.25" width="78.5" height="117.5" rx="4"></rect>
                <rect id="搜索输入框-copy-36" x="269.75" y="127.75" width="78.5" height="117.5" rx="4"></rect>
                <rect id="搜索输入框-copy-31" x="89.75" y="-0.25" width="78.5" height="117.5" rx="4"></rect>
                <rect id="搜索输入框-copy-37" x="89.75" y="127.75" width="78.5" height="117.5" rx="4"></rect>
                <rect id="搜索输入框-copy-32" x="449.75" y="-0.25" width="78.5" height="117.5" rx="4"></rect>
                <rect id="搜索输入框-copy-38" x="449.75" y="127.75" width="78.5" height="117.5" rx="4"></rect>
            </g>
        </g>
    </g>
</svg>