<?xml version="1.0" encoding="UTF-8"?>
<svg width="85px" height="41px" viewBox="0 0 85 41" version="1.1" xmlns="http://www.w3.org/2000/svg" xmlns:xlink="http://www.w3.org/1999/xlink">
    <!-- Generator: Sketch 52.3 (67297) - http://www.bohemiancoding.com/sketch -->
    <title>sn</title>
    <desc>Created with Sketch.</desc>
    <g id="Design" stroke="none" stroke-width="1" fill="none" fill-rule="evenodd">
        <g id="03-新增混排模块" transform="translate(-1021.000000, -496.000000)" fill-rule="nonzero">
            <g id="sn" transform="translate(1021.000000, 497.000000)">
                <rect id="搜索输入框-copy-45" fill="#2A3040" x="0" y="0" width="39" height="39" rx="2"></rect>
                <rect id="搜索输入框-copy-46" stroke="#2A3040" stroke-width="0.5" x="45" y="0" width="39" height="39" rx="2"></rect>
                <path d="M65.4583333,19.5 L69.5,19.5 C69.7761424,19.5 70,19.7238576 70,20 C70,20.2761424 69.7761424,20.5 69.5,20.5 L65.4583333,20.5 L65.4583333,24.5 C65.4583333,24.7761424 65.2344757,25 64.9583333,25 C64.682191,25 64.4583333,24.7761424 64.4583333,24.5 L64.4583333,20.5 L60.5,20.5 C60.2238576,20.5 60,20.2761424 60,20 C60,19.7238576 60.2238576,19.5 60.5,19.5 L64.4583333,19.5 L64.4583333,15.5 C64.4583333,15.2238576 64.682191,15 64.9583333,15 C65.2344757,15 65.4583333,15.2238576 65.4583333,15.5 L65.4583333,19.5 Z" id="Path" fill="#2A3040"></path>
            </g>
        </g>
    </g>
</svg>
