<?xml version="1.0" encoding="UTF-8"?>
<svg width="20px" height="16px" viewBox="0 0 20 16" version="1.1" xmlns="http://www.w3.org/2000/svg" xmlns:xlink="http://www.w3.org/1999/xlink">
    <!-- Generator: Sketch 60.1 (88133) - https://sketch.com -->
    <title>TV icon备份</title>
    <desc>Created with Sketch.</desc>
    <g id="Design" stroke="none" stroke-width="1" fill="none" fill-rule="evenodd">
        <g id="03-页面布局-首页推荐（空）" transform="translate(-40.000000, -388.000000)" fill="#A3D0FD">
            <path d="M56.5,403 C56.7761424,403 57,403.223858 57,403.5 C57,403.776142 56.7761424,404 56.5,404 L43.5,404 C43.2238576,404 43,403.776142 43,403.5 C43,403.223858 43.2238576,403 43.5,403 L56.5,403 Z M58,388 C59.1045695,388 60,388.895431 60,390 L60,400 C60,401.104569 59.1045695,402 58,402 L42,402 C40.8954305,402 40,401.104569 40,400 L40,390 C40,388.895431 40.8954305,388 42,388 L58,388 Z M58,389 L42,389 C41.4477153,389 41,389.447715 41,390 L41,400 C41,400.552285 41.4477153,401 42,401 L58,401 C58.5522847,401 59,400.552285 59,400 L59,390 C59,389.447715 58.5522847,389 58,389 Z" id="TV-icon备份"></path>
        </g>
    </g>
</svg>