<?xml version="1.0" encoding="UTF-8"?>
<svg width="20px" height="16px" viewBox="0 0 20 16" version="1.1" xmlns="http://www.w3.org/2000/svg" xmlns:xlink="http://www.w3.org/1999/xlink">
    <!-- Generator: Sketch 63.1 (92452) - https://sketch.com -->
    <title>TV icon备份</title>
    <desc>Created with Sketch.</desc>
    <g id="Design" stroke="none" stroke-width="1" fill="none" fill-rule="evenodd">
        <g id="00-2.9-说明" transform="translate(-68.000000, -152.000000)" fill="#6E7481">
            <path d="M84.5,167 C84.7761424,167 85,167.223858 85,167.5 C85,167.776142 84.7761424,168 84.5,168 L71.5,168 C71.2238576,168 71,167.776142 71,167.5 C71,167.223858 71.2238576,167 71.5,167 L84.5,167 Z M86,152 C87.1045695,152 88,152.895431 88,154 L88,164 C88,165.104569 87.1045695,166 86,166 L70,166 C68.8954305,166 68,165.104569 68,164 L68,154 C68,152.895431 68.8954305,152 70,152 L86,152 Z M86,153 L70,153 C69.4477153,153 69,153.447715 69,154 L69,164 C69,164.552285 69.4477153,165 70,165 L86,165 C86.5522847,165 87,164.552285 87,164 L87,154 C87,153.447715 86.5522847,153 86,153 Z M85.5,154 C85.7761424,154 86,154.223858 86,154.5 L86,163.5 C86,163.776142 85.7761424,164 85.5,164 L70.5,164 C70.2238576,164 70,163.776142 70,163.5 L70,154.5 C70,154.223858 70.2238576,154 70.5,154 L85.5,154 Z" id="TV-icon备份"></path>
        </g>
    </g>
</svg>