<?xml version="1.0" encoding="UTF-8"?>
<svg width="20px" height="16px" viewBox="0 0 20 16" version="1.1" xmlns="http://www.w3.org/2000/svg" xmlns:xlink="http://www.w3.org/1999/xlink">
    <!-- Generator: Sketch 63.1 (92452) - https://sketch.com -->
    <title>TV icon</title>
    <desc>Created with Sketch.</desc>
    <g id="Design" stroke="none" stroke-width="1" fill="none" fill-rule="evenodd">
        <g id="00-2.9-说明" transform="translate(-68.000000, -192.000000)" fill="#FFFFFF">
            <path d="M84.5,207 C84.7761424,207 85,207.223858 85,207.5 C85,207.776142 84.7761424,208 84.5,208 L71.5,208 C71.2238576,208 71,207.776142 71,207.5 C71,207.223858 71.2238576,207 71.5,207 L84.5,207 Z M86,192 C87.1045695,192 88,192.895431 88,194 L88,204 C88,205.104569 87.1045695,206 86,206 L70,206 C68.8954305,206 68,205.104569 68,204 L68,194 C68,192.895431 68.8954305,192 70,192 L86,192 Z M86,193 L70,193 C69.4477153,193 69,193.447715 69,194 L69,204 C69,204.552285 69.4477153,205 70,205 L86,205 C86.5522847,205 87,204.552285 87,204 L87,194 C87,193.447715 86.5522847,193 86,193 Z M85.5,194 C85.7761424,194 86,194.223858 86,194.5 L86,203.5 C86,203.776142 85.7761424,204 85.5,204 L70.5,204 C70.2238576,204 70,203.776142 70,203.5 L70,194.5 C70,194.223858 70.2238576,194 70.5,194 L85.5,194 Z" id="TV-icon"></path>
        </g>
    </g>
</svg>