<?xml version="1.0" encoding="UTF-8"?>
<svg width="20px" height="16px" viewBox="0 0 20 16" version="1.1" xmlns="http://www.w3.org/2000/svg" xmlns:xlink="http://www.w3.org/1999/xlink">
    <!-- Generator: Sketch 60.1 (88133) - https://sketch.com -->
    <title>TV icon</title>
    <desc>Created with Sketch.</desc>
    <g id="Design" stroke="none" stroke-width="1" fill="none" fill-rule="evenodd">
        <g id="03-页面布局-首页推荐（空）" transform="translate(-40.000000, -22.000000)" fill="#515E78">
            <path d="M56.5,37 C56.7761424,37 57,37.2238576 57,37.5 C57,37.7761424 56.7761424,38 56.5,38 L43.5,38 C43.2238576,38 43,37.7761424 43,37.5 C43,37.2238576 43.2238576,37 43.5,37 L56.5,37 Z M58,22 C59.1045695,22 60,22.8954305 60,24 L60,34 C60,35.1045695 59.1045695,36 58,36 L42,36 C40.8954305,36 40,35.1045695 40,34 L40,24 C40,22.8954305 40.8954305,22 42,22 L58,22 Z M58,23 L42,23 C41.4477153,23 41,23.4477153 41,24 L41,34 C41,34.5522847 41.4477153,35 42,35 L58,35 C58.5522847,35 59,34.5522847 59,34 L59,24 C59,23.4477153 58.5522847,23 58,23 Z" id="TV-icon"></path>
        </g>
    </g>
</svg>