<?xml version="1.0" encoding="UTF-8"?>
<svg width="19px" height="20px" viewBox="0 0 19 20" version="1.1" xmlns="http://www.w3.org/2000/svg" xmlns:xlink="http://www.w3.org/1999/xlink">
    <!-- Generator: Sketch 54.1 (76490) - https://sketchapp.com -->
    <title>Path</title>
    <desc>Created with Sketch.</desc>
    <g id="Design" stroke="none" stroke-width="1" fill="none" fill-rule="evenodd">
        <g id="06-01直播频道-列表" transform="translate(-1335.000000, -311.000000)" fill-rule="nonzero" stroke="#A3D0FD">
            <g id="上传btn-" transform="translate(1320.000000, 301.000000)">
                <path d="M28.7539976,29.3239997 L28.7539976,19.3599958 L32.6919907,19.3599958 C32.7891929,19.3599958 32.8679909,19.2811977 32.8679909,19.1839955 C32.8679909,19.1373173 32.8494481,19.0925509 32.8164417,19.0595445 L24.3084465,10.5515493 C24.2397141,10.4828169 24.1282769,10.4828169 24.0595445,10.5515493 L15.5515493,19.0595445 C15.4828169,19.1282769 15.4828169,19.2397141 15.5515493,19.3084465 C15.5845557,19.3414529 15.6293221,19.3599958 15.6760003,19.3599958 L19.6139934,19.3599958 L19.6139934,29.3239997 C19.6139934,29.421202 19.6927914,29.5 19.7899936,29.5 L28.5779973,29.5 C28.6751996,29.5 28.7539976,29.421202 28.7539976,29.3239997 Z" id="Path"></path>
            </g>
        </g>
    </g>
</svg>