<?xml version="1.0" encoding="UTF-8"?>
<svg width="40px" height="15px" viewBox="0 0 40 15" version="1.1" xmlns="http://www.w3.org/2000/svg" xmlns:xlink="http://www.w3.org/1999/xlink">
    <!-- Generator: Sketch 54.1 (76490) - https://sketchapp.com -->
    <title>APP</title>
    <desc>Created with Sketch.</desc>
    <g id="Design" stroke="none" stroke-width="1" fill="none" fill-rule="evenodd">
        <g id="11-03用户管理-查看用户-2.3" transform="translate(-540.000000, -88.000000)" fill="#3AC26F" fill-rule="nonzero">
            <path d="M545.6,96.9 L549.12,96.9 L548.68,95.28 C548.22,93.74 547.82,92.04 547.38,90.44 L547.3,90.44 C546.92,92.06 546.48,93.74 546.04,95.28 L545.6,96.9 Z M550.8,103 L549.76,99.2 L544.96,99.2 L543.92,103 L540.92,103 L545.66,88.2 L549.14,88.2 L553.9,103 L550.8,103 Z M555.64,103 L555.64,88.2 L560.5,88.2 C563.78,88.2 566.3,89.34 566.3,92.84 C566.3,96.22 563.76,97.74 560.58,97.74 L558.6,97.74 L558.6,103 L555.64,103 Z M558.6,95.4 L560.38,95.4 C562.42,95.4 563.4,94.54 563.4,92.84 C563.4,91.12 562.32,90.54 560.28,90.54 L558.6,90.54 L558.6,95.4 Z M568.98,103 L568.98,88.2 L573.84,88.2 C577.12,88.2 579.64,89.34 579.64,92.84 C579.64,96.22 577.1,97.74 573.92,97.74 L571.94,97.74 L571.94,103 L568.98,103 Z M571.94,95.4 L573.72,95.4 C575.76,95.4 576.74,94.54 576.74,92.84 C576.74,91.12 575.66,90.54 573.62,90.54 L571.94,90.54 L571.94,95.4 Z" id="APP"></path>
        </g>
    </g>
</svg>