<?xml version="1.0" encoding="UTF-8"?>
<svg width="16px" height="15px" viewBox="0 0 16 15" version="1.1" xmlns="http://www.w3.org/2000/svg"
     xmlns:xlink="http://www.w3.org/1999/xlink">
    <!-- Generator: Sketch 49.3 (51167) - http://www.bohemiancoding.com/sketch -->
    <title>用户管理icon</title>
    <desc>Created with Sketch.</desc>
    <defs></defs>
    <g id="Design" stroke="none" stroke-width="1">
        <g id="菜单栏" transform="translate(-492.000000, -328.000000)">
            <g id="菜单栏1级" transform="translate(462.000000, 75.000000)">
                <g id="用户管理icon" transform="translate(30.000000, 253.000000)">
                    <path
                        d="M14.6903605,12.1088259 L11.8683201,10.757347 C11.5034234,10.5818671 11.2740703,10.2252465 11.2740703,9.83430822 L11.2740703,8.77435256 C11.3516293,8.68696637 11.4439615,8.5765838 11.5407256,8.44532761 C11.9244581,7.92419454 12.2158584,7.35211567 12.4178812,6.75102599 C12.7801926,6.64453512 13.0453706,6.32400113 13.0453706,5.94403038 L13.0453706,4.8119015 C13.0453706,4.56177178 12.9301401,4.3392377 12.751385,4.18463135 L12.751385,2.54693618 C12.751385,2.54693618 13.1018779,0 9.50092332,0 C5.89996875,0 6.25046166,2.54693618 6.25046166,2.54693618 L6.25046166,4.18463135 C6.07022927,4.3392377 5.95462939,4.56177178 5.95462939,4.8119015 L5.95462939,5.94403038 C5.95462939,6.24227558 6.11934998,6.50514175 6.36310691,6.65550262 C6.65856985,7.88846172 7.43194409,8.77435256 7.43194409,8.77435256 L7.43194409,9.80777395 C7.43194409,10.1852682 7.2169948,10.5333978 6.87093383,10.7131233 L4.23503509,12.0911364 C3.47311003,12.4891504 3,13.2533374 3,14.0836832 L3,15 L16,15 L16,14.1392283 C16,13.2795179 15.4936504,12.4926883 14.6903605,12.1088259"
                        id="Fill-1"></path>
                    <path
                        d="M4.34462692,15 L0,15 L0,14.1500394 C0,13.3773134 0.430234062,12.6681251 1.12000517,12.2983124 L3.20056899,11.0195668 C3.51441872,10.8521619 3.70955645,10.5295269 3.70955645,10.1787374 L3.70955645,9.21730032 C3.70955645,9.21730032 2.81106944,8.39397233 2.54299754,7.25105307 C2.32147937,7.10990026 2.17328333,6.86602169 2.17328333,6.58980352 L2.17328333,5.53743512 C2.17328333,5.30573145 2.31992758,5.09913852 2.48208975,4.95494198 L2.48208975,3.43460065 C2.48208975,3.43460065 2.61864736,1 5.5856718,1 C6.64050175,1 7.32096211,1.31502568 7.75895513,1.64945512 L7.75895513,3.36916053 C7.56963662,3.53542408 7.44820897,3.77473707 7.44820897,4.04372639 L7.44820897,5.26121695 C7.44820897,5.26540207 7.44820897,5.26996766 7.44820897,5.27415278 C7.45286435,5.58955893 7.6247252,5.8669185 7.87727919,6.02633367 C8.1876374,7.35225698 9,8.30494334 9,8.30494334 L9,9.41628394 C9,9.82224094 8.77421441,10.1966193 8.41070736,10.3898959 L5.64192422,11.8718102 C4.841588,12.2998342 4.34462692,13.1216404 4.34462692,14.0145936 L4.34462692,15"
                        id="Fill-2" fill-opacity="0.700000048"></path>
                </g>
            </g>
        </g>
    </g>
</svg>
