<?xml version="1.0" encoding="UTF-8"?>
<svg width="46px" height="29px" viewBox="0 0 46 29" version="1.1" xmlns="http://www.w3.org/2000/svg" xmlns:xlink="http://www.w3.org/1999/xlink">
    <!-- Generator: Sketch 54.1 (76490) - https://sketchapp.com -->
    <title>icon_vip</title>
    <desc>Created with Sketch.</desc>
    <g id="Design" stroke="none" stroke-width="1" fill="none" fill-rule="evenodd">
        <g id="11-03用户管理-查看用户-2.3" transform="translate(-240.000000, -130.000000)">
            <g id="icon_vip" transform="translate(240.000000, 130.000000)">
                <path d="M18.68,7 L18.68,7.6 L17,7.9 L12.28,21.98 L10.46,21.98 L5.38,7.82 L4,7.68 L4,7 L11.06,7 L11.06,7.62 L8.98,7.86 L12.64,18.72 L15.86,7.92 L13.76,7.62 L13.76,7 L18.68,7 Z M26.64,7.68 L24.86,7.84 C24.82,9.88 24.82,11.96 24.82,14.04 L24.82,14.9 C24.82,16.96 24.82,19.02 24.86,21.08 L26.64,21.26 L26.64,21.94 L19.58,21.94 L19.58,21.26 L21.38,21.08 C21.44,19.06 21.44,17 21.44,14.92 L21.44,14.04 C21.44,11.96 21.44,9.9 21.38,7.84 L19.58,7.68 L19.58,7 L26.64,7 L26.64,7.68 Z M34.36,7.76 L33.58,7.76 C33.54,9.82 33.54,11.92 33.54,14.04 L33.54,15.22 L34.2,15.22 C36.52,15.22 37.64,13.66 37.64,11.42 C37.64,9 36.48,7.76 34.36,7.76 Z M34.3,15.96 L33.54,15.96 C33.54,17.46 33.54,19.24 33.58,21.04 L35.72,21.26 L35.72,21.94 L28.3,21.94 L28.3,21.26 L30.1,21.08 C30.16,19.06 30.16,17 30.16,14.92 L30.16,14.04 C30.16,11.96 30.16,9.9 30.1,7.84 L28.3,7.68 L28.3,7 L34.4,7 C38.94,7 40.76,8.62 40.76,11.44 C40.76,13.94 39.06,15.96 34.3,15.96 Z" id="VIP" fill="#D1A254" fill-rule="nonzero"></path>
                <rect id="Rectangle" stroke="#D1A254" x="0.5" y="0.5" width="45" height="28" rx="8"></rect>
            </g>
        </g>
    </g>
</svg>