<?xml version="1.0" encoding="UTF-8"?>
<svg width="50px" height="50px" viewBox="0 0 50 50" version="1.1" xmlns="http://www.w3.org/2000/svg" xmlns:xlink="http://www.w3.org/1999/xlink">
    <!-- Generator: Sketch 52.3 (67297) - http://www.bohemiancoding.com/sketch -->
    <title>视频icon</title>
    <desc>Created with Sketch.</desc>
    <g id="Design" stroke="none" stroke-width="1" fill="none" fill-rule="evenodd">
        <g id="17-02-广告管理-新建广告" transform="translate(-410.000000, -538.000000)" fill="#000000" fill-rule="nonzero">
            <path d="M435,588 C421.192881,588 410,576.807119 410,563 C410,549.192881 421.192881,538 435,538 C448.807119,538 460,549.192881 460,563 C460,576.807119 448.807119,588 435,588 Z M446.580305,563.866374 C446.732796,563.778476 446.859386,563.651886 446.947284,563.499395 C447.223093,563.020909 447.05879,562.409434 446.580305,562.133626 L430.499395,552.86428 C430.34752,552.776736 430.1753,552.730655 430,552.730655 C429.447715,552.730655 429,553.17837 429,553.730655 L429,572.269345 C429,572.444645 429.046082,572.616865 429.133626,572.76874 C429.409434,573.247226 430.020909,573.411528 430.499395,573.13572 L446.580305,563.866374 Z" id="视频icon"></path>
        </g>
    </g>
</svg>
