<?xml version="1.0" encoding="UTF-8"?>
<svg width="32px" height="32px" viewBox="0 0 32 32" version="1.1" xmlns="http://www.w3.org/2000/svg" xmlns:xlink="http://www.w3.org/1999/xlink">
    <!-- Generator: Sketch 63.1 (92452) - https://sketch.com -->
    <title>icon_on</title>
    <desc>Created with Sketch.</desc>
    <defs>
        <linearGradient x1="50%" y1="100%" x2="50%" y2="0%" id="linearGradient-1">
            <stop stop-color="#00A2DE" offset="0%"></stop>
            <stop stop-color="#18A8FF" offset="100%"></stop>
        </linearGradient>
    </defs>
    <g id="Design" stroke="none" stroke-width="1" fill="none" fill-rule="evenodd">
        <g id="05-02-点播统计2.9" transform="translate(-242.000000, -226.000000)">
            <g id="icon_on" transform="translate(242.000000, 226.000000)">
                <rect id="矩形" fill-opacity="0.3" fill="url(#linearGradient-1)" x="1" y="1" width="30" height="30"></rect>
                <path d="M15.1109334,10 C15.2507068,10 15.380575,10.0360424 15.5010883,10.1060071 C15.620501,10.1770318 15.7228547,10.2761484 15.8081495,10.4033569 C15.8934443,10.5300353 15.9512246,10.6784452 15.9809402,10.8485866 C16.0106558,11.0176678 16.0057032,11.2084806 15.9655321,11.4210247 L14.9607045,22 L6.88961687,22 C6.74929319,22 6.61942501,21.9644876 6.49946202,21.894523 C6.37894875,21.8240283 6.27659501,21.7243816 6.19185051,21.5971731 C6.10655573,21.4699647 6.04932568,21.3189046 6.01905979,21.1418728 C5.98934419,20.964841 5.99429679,20.7777385 6.03446788,20.5795053 L7.03929546,10 L15.1109334,10 Z M20.9439574,10 L23.8913032,17.5265018 L24.5953316,10 L27,10 L25.8710805,22 L23.0555048,22 L20.2404668,14.664311 L19.5364384,22 L17,22 L18.1289195,10.8061837 L17.5566611,10 L20.9439574,10 Z M13.0858702,12.0353357 L9.63500832,12.0353357 L8.91468012,19.9646643 L12.2301709,19.9646643 L13.0858702,12.0353357 Z" id="形状结合" fill="#DBEDFF"></path>
                <path d="M31,24 C31.5522847,24 32,24.4477153 32,25 L32,25 L32,31 C32,31.5522847 31.5522847,32 31,32 L31,32 L25,32 C24.4477153,32 24,31.5522847 24,31 C24,30.4477153 24.4477153,30 25,30 L25,30 L30,30 L30,25 C30,24.4477153 30.4477153,24 31,24 Z M1,24 C1.55228475,24 2,24.4477153 2,25 L2,30 L7,30 C7.55228475,30 8,30.4477153 8,31 C8,31.5522847 7.55228475,32 7,32 L1,32 C0.44771525,32 0,31.5522847 0,31 L0,25 C0,24.4477153 0.44771525,24 1,24 Z M31,0 C31.5522847,-1.01453063e-16 32,0.44771525 32,1 L32,7 C32,7.55228475 31.5522847,8 31,8 C30.4477153,8 30,7.55228475 30,7 L30,2 L25,2 C24.4477153,2 24,1.55228475 24,1 C24,0.44771525 24.4477153,1.01453063e-16 25,0 L31,0 Z M7,0 C7.55228475,1.01453063e-16 8,0.44771525 8,1 C8,1.55228475 7.55228475,2 7,2 L7,2 L2,2 L2,7 C2,7.55228475 1.55228475,8 1,8 C0.44771525,8 0,7.55228475 0,7 L0,7 L0,1 C0,0.44771525 0.44771525,-1.01453063e-16 1,0 L1,0 Z" id="形状结合" fill="url(#linearGradient-1)"></path>
            </g>
        </g>
    </g>
</svg>