<?xml version="1.0" encoding="UTF-8"?>
<svg width="208px" height="73px" viewBox="0 0 208 73" version="1.1" xmlns="http://www.w3.org/2000/svg" xmlns:xlink="http://www.w3.org/1999/xlink">
    <!-- Generator: Sketch 63.1 (92452) - https://sketch.com -->
    <title>font_video</title>
    <desc>Created with Sketch.</desc>
    <defs>
        <linearGradient x1="59.6562123%" y1="44.0088757%" x2="58.5036058%" y2="55.9911243%" id="linearGradient-1">
            <stop stop-color="#9BD5FF" stop-opacity="0.01" offset="0%"></stop>
            <stop stop-color="#62ABFF" stop-opacity="0.0468476836" offset="100%"></stop>
        </linearGradient>
    </defs>
    <g id="Design" stroke="none" stroke-width="1" fill="none" fill-rule="evenodd">
        <g id="05-02-点播统计2.9" transform="translate(-856.000000, -142.000000)" fill="url(#linearGradient-1)">
            <path d="M868.824881,143.003478 L873.650084,192.671873 L885.84007,143.003478 L898.030056,143.003478 L881.014867,214.538015 L863.936189,214.538015 L857.206301,146.542555 L856,143.003478 L868.824881,143.003478 Z M921.046515,143.003478 L915.543928,214.538015 L904.034349,214.538015 L908.271974,147.808005 L906.437778,143.003478 L921.046515,143.003478 Z M1015.84115,142.53843 L1015.26423,154.580024 L994.943779,154.580024 L993.725834,170.13176 L1012.76424,170.13176 L1012.18731,182.173354 L992.443787,182.173354 L991.225842,201.488477 L1012.76424,201.488477 L1012.18731,213.530071 L977.700244,213.530071 L982.636126,147.306495 L980.777158,142.53843 L1015.84115,142.53843 Z M971.931993,142.538015 L967.573033,205.128979 C967.573033,207.553489 967.069829,209.560767 966.066627,211.148738 C965.061823,212.738784 963.940032,213.529656 962.701254,213.529656 L928.214184,213.529656 L932.509042,147.306079 L930.650073,142.538015 L971.931993,142.538015 Z M1060.19998,142.538015 C1060.79774,142.538015 1061.35382,142.749745 1061.86664,143.166976 C1062.37946,143.586284 1062.81696,144.169577 1063.18074,144.925161 C1063.54292,145.674517 1063.78971,146.552572 1063.91792,147.557249 C1064.04612,148.55985 1064.02369,149.689074 1063.85382,150.94492 L1059.55896,213.529656 L1025.07189,213.529656 C1024.47253,213.529656 1023.91805,213.322078 1023.40523,212.906922 C1022.89241,212.487615 1022.45331,211.90017 1022.09113,211.148738 C1021.72735,210.39523 1021.48216,209.500569 1021.35395,208.452301 C1021.22575,207.406108 1021.24658,206.299718 1021.41805,205.128979 L1025.71291,142.538015 L1060.19998,142.538015 Z M959.62434,154.579609 L944.816695,154.579609 L941.162861,201.490138 L955.906403,201.490138 L959.62434,154.579609 Z M1051.54616,154.579609 L1036.80262,154.579609 L1033.72571,201.490138 L1047.89233,201.490138 L1051.54616,154.579609 Z" id="font_video"></path>
        </g>
    </g>
</svg>