<?xml version="1.0" encoding="UTF-8"?>
<svg width="32px" height="32px" viewBox="0 0 32 32" version="1.1" xmlns="http://www.w3.org/2000/svg" xmlns:xlink="http://www.w3.org/1999/xlink">
    <!-- Generator: Sketch 63.1 (92452) - https://sketch.com -->
    <title>icon_off</title>
    <desc>Created with Sketch.</desc>
    <defs>
        <linearGradient x1="50%" y1="0%" x2="50%" y2="100%" id="linearGradient-1">
            <stop stop-color="#EBB24B" offset="0%"></stop>
            <stop stop-color="#D27B25" offset="100%"></stop>
        </linearGradient>
    </defs>
    <g id="Design" stroke="none" stroke-width="1" fill="none" fill-rule="evenodd">
        <g id="05-02-点播统计2.9" transform="translate(-242.000000, -268.000000)">
            <g id="icon_off" transform="translate(242.000000, 268.000000)">
                <rect id="矩形备份-4" fill-opacity="0.3" fill="url(#linearGradient-1)" x="1" y="1" width="30" height="30"></rect>
                <path d="M11.2623385,10.2035913 C11.3737231,10.2035913 11.4777231,10.2420261 11.5737231,10.3166348 C11.6691077,10.3923739 11.7503385,10.4980696 11.8186462,10.6337217 C11.8857231,10.7688087 11.9318769,10.9270696 11.9558769,11.1085043 C11.9798769,11.2888087 11.9755692,11.492287 11.9441846,11.7189391 L11.1429538,23.000113 L4.70910769,23.000113 C4.59710769,23.000113 4.49372308,22.9622435 4.39833846,22.8876348 C4.30233846,22.8124609 4.22049231,22.7062 4.1528,22.5705478 C4.08510769,22.4348957 4.03895385,22.2738087 4.01556923,22.0850261 C3.99156923,21.8962435 3.99526154,21.6967217 4.02726154,21.4853304 L4.82849231,10.2035913 L11.2623385,10.2035913 Z M19.7712,10.2037043 L19.6635077,12.3741391 L15.5262769,12.3741391 L15.2985846,16.0593565 L19.0899692,16.0593565 L18.9699692,18.2297913 L15.0715077,18.2297913 L14.7250462,23.0002261 L12.4284308,23.0002261 L13.3496615,11.0634 L13.0025846,10.2037043 L19.7712,10.2037043 Z M27.5148923,10.2037043 L27.4072,12.3741391 L23.2699692,12.3741391 L23.0422769,16.0593565 L26.8336615,16.0593565 L26.7136615,18.2297913 L22.8152,18.2297913 L22.4681231,23.0002261 L20.1721231,23.0002261 L21.0927385,11.0634 L20.7462769,10.2037043 L27.5148923,10.2037043 Z M9.64818462,12.3740261 L6.89741538,12.3740261 L6.32326154,20.8296783 L8.96633846,20.8296783 L9.64818462,12.3740261 Z" id="形状结合" fill="#DBEDFF"></path>
                <path d="M31,24 C31.5522847,24 32,24.4477153 32,25 L32,25 L32,31 C32,31.5522847 31.5522847,32 31,32 L31,32 L25,32 C24.4477153,32 24,31.5522847 24,31 C24,30.4477153 24.4477153,30 25,30 L25,30 L30,30 L30,25 C30,24.4477153 30.4477153,24 31,24 Z M1,24 C1.55228475,24 2,24.4477153 2,25 L2,30 L7,30 C7.55228475,30 8,30.4477153 8,31 C8,31.5522847 7.55228475,32 7,32 L1,32 C0.44771525,32 0,31.5522847 0,31 L0,25 C0,24.4477153 0.44771525,24 1,24 Z M31,0 C31.5522847,-1.01453063e-16 32,0.44771525 32,1 L32,7 C32,7.55228475 31.5522847,8 31,8 C30.4477153,8 30,7.55228475 30,7 L30,2 L25,2 C24.4477153,2 24,1.55228475 24,1 C24,0.44771525 24.4477153,1.01453063e-16 25,0 L31,0 Z M7,0 C7.55228475,1.01453063e-16 8,0.44771525 8,1 C8,1.55228475 7.55228475,2 7,2 L7,2 L2,2 L2,7 C2,7.55228475 1.55228475,8 1,8 C0.44771525,8 0,7.55228475 0,7 L0,7 L0,1 C0,0.44771525 0.44771525,-1.01453063e-16 1,0 L1,0 Z" id="形状结合备份" fill="url(#linearGradient-1)"></path>
            </g>
        </g>
    </g>
</svg>