<?xml version="1.0" encoding="UTF-8"?>
<svg width="300px" height="73px" viewBox="0 0 300 73" version="1.1" xmlns="http://www.w3.org/2000/svg" xmlns:xlink="http://www.w3.org/1999/xlink">
    <!-- Generator: Sketch 63.1 (92452) - https://sketch.com -->
    <title>font_program</title>
    <desc>Created with Sketch.</desc>
    <defs>
        <linearGradient x1="58.5036058%" y1="0%" x2="58.5036058%" y2="100%" id="linearGradient-1">
            <stop stop-color="#9BD5FF" stop-opacity="0.01" offset="0%"></stop>
            <stop stop-color="#62ABFF" stop-opacity="0.0468476836" offset="100%"></stop>
        </linearGradient>
    </defs>
    <g id="Design" stroke="none" stroke-width="1" fill="none" fill-rule="evenodd">
        <g id="05-02-点播统计2.9" transform="translate(-236.000000, -142.000000)" fill="url(#linearGradient-1)">
            <path d="M401.531544,142.222473 L400.447587,162.959094 L389.493913,162.959094 L390.007367,154.434063 L376.885778,154.434063 L374.14736,202.010882 L387.268948,202.010882 L387.839452,187.382275 L384.53053,175.170685 L399.306579,175.170685 L397.138664,214.222473 L366.445558,214.222473 C365.912137,214.222473 365.418651,214.011622 364.962248,213.58992 C364.505845,213.165999 364.11505,212.571178 363.792715,211.805457 C363.468955,211.041955 363.250737,210.134187 363.136636,209.071055 C363.022535,208.010142 363.041077,206.889304 363.193686,205.699661 L367.016062,142.222473 L401.531544,142.222473 Z M273.207837,142.222917 L271.07204,181.276924 C270.772747,183.73611 270.182593,185.773595 269.301576,187.382719 C268.42056,188.994063 267.567646,189.799735 266.74424,189.799735 L247.859296,189.799735 L246.229345,214.220697 L236,214.220697 L239.765748,145.785185 L238.135797,142.222917 L273.207837,142.222917 Z M315.955969,142.222917 L313.788055,178.859908 C313.788055,180.047331 313.665396,181.172608 313.417227,182.229082 C313.169058,183.289994 312.83674,184.202201 312.418846,184.965703 C312.000951,185.731425 311.534565,186.319587 311.021111,186.745728 C310.507658,187.171869 309.965679,187.382719 309.395175,187.382719 L302.263877,187.382719 L313.788055,214.220697 L301.750424,214.220697 L290.79675,187.382719 L289.142289,214.220697 L278.188616,214.220697 L282.010991,147.059168 L280.35653,142.222917 L315.955969,142.222917 Z M354.864616,142.222917 C355.396611,142.222917 355.891523,142.438206 356.347926,142.859908 C356.804329,143.286049 357.193698,143.87865 357.517459,144.642152 C357.839793,145.403435 358.059437,146.293447 358.173538,147.312189 C358.287639,148.328712 358.267671,149.476184 358.116488,150.747947 L354.294112,214.220697 L323.601006,214.220697 C323.067585,214.220697 322.574099,214.012066 322.117696,213.588145 C321.661293,213.166443 321.270498,212.569402 320.948163,211.805901 C320.624402,211.042399 320.406184,210.134631 320.292084,209.071499 C320.177983,208.010586 320.196524,206.889748 320.349134,205.700105 L324.17151,142.222917 L354.864616,142.222917 Z M443.57682,142.222917 L441.408906,178.859908 C441.408906,180.047331 441.286248,181.172608 441.038078,182.229082 C440.789909,183.289994 440.457591,184.202201 440.039697,184.965703 C439.621803,185.731425 439.155416,186.319587 438.641962,186.745728 C438.128509,187.171869 437.58653,187.382719 437.016026,187.382719 L429.884729,187.382719 L441.408906,214.220697 L429.371275,214.220697 L418.417602,187.382719 L416.76314,214.220697 L405.809467,214.220697 L409.631843,147.059168 L407.977381,142.222917 L443.57682,142.222917 Z M482.172974,142.222917 L486.507376,214.220697 L476.69471,214.220697 L475.553703,194.631548 L461.861611,194.631548 L458.039235,214.220697 L448.740023,214.220697 L461.348157,145.785185 L459.693696,142.222917 L482.172974,142.222917 Z M507.047929,142.222917 L513.076944,187.382719 L524.510744,142.222917 L536,142.222917 L531.620432,214.220697 L521.780624,214.220697 L524.510744,176.314162 L515.807064,209.388885 L507.047929,209.388885 L502.669783,177.588145 L500.507016,214.220697 L490.667208,214.220697 L495.048198,147.059168 L492.828553,142.222917 L507.047929,142.222917 Z M347.162814,154.434507 L334.041226,154.434507 L331.302808,202.011326 L343.910942,202.011326 L347.162814,154.434507 Z M473.387215,154.434507 L469.563413,154.434507 L464.086576,182.419957 L475.041676,182.419957 L473.387215,154.434507 Z M261.910594,154.434507 L250.051298,154.434507 L248.927194,177.588145 L260.280643,177.588145 L261.910594,154.434507 Z M304.488842,154.434507 L292.451211,154.434507 L291.310204,175.171129 L303.404885,175.171129 L304.488842,154.434507 Z M432.109693,154.434507 L420.072063,154.434507 L418.931055,175.171129 L431.025736,175.171129 L432.109693,154.434507 Z" id="font_program"></path>
        </g>
    </g>
</svg>