<?xml version="1.0" encoding="UTF-8"?>
<svg width="30px" height="25px" viewBox="0 0 30 25" version="1.1" xmlns="http://www.w3.org/2000/svg" xmlns:xlink="http://www.w3.org/1999/xlink">
    <!-- Generator: Sketch 54.1 (76490) - https://sketchapp.com -->
    <title>wechat</title>
    <desc>Created with Sketch.</desc>
    <g id="Design" stroke="none" stroke-width="1" fill="none" fill-rule="evenodd">
        <g id="11-03用户管理-查看用户-2.3" transform="translate(-1002.000000, -703.000000)" fill="#1BAF3B">
            <path d="M1028.87786,724.667053 C1030.78256,723.278169 1032,721.223315 1032,718.940616 C1032,714.756088 1027.95427,711.36433 1022.96382,711.36433 C1017.97337,711.36433 1013.92795,714.756088 1013.92795,718.940616 C1013.92795,723.124908 1017.97337,726.516587 1022.96382,726.516587 C1023.99504,726.516587 1024.9904,726.368523 1025.91329,726.101379 C1025.99947,726.074909 1026.08908,726.061504 1026.17919,726.061607 C1026.35234,726.061607 1026.5103,726.11461 1026.65871,726.201322 L1028.63692,727.350153 C1028.69218,727.382286 1028.74549,727.40678 1028.81101,727.40678 C1028.89094,727.40678 1028.96759,727.374805 1029.02408,727.3179 C1029.08056,727.260995 1029.11224,727.18383 1029.11214,727.103407 C1029.11214,727.028903 1029.08255,726.953768 1029.06376,726.882257 C1029.05226,726.839491 1028.80835,725.924805 1028.65665,725.353894 C1028.63919,725.290022 1028.62502,725.22804 1028.62502,725.16086 C1028.62485,724.964774 1028.71907,724.780745 1028.87786,724.667053 L1028.87786,724.667053 Z M1019.9515,717.728543 C1019.2867,717.728543 1018.74721,717.185906 1018.74721,716.516233 C1018.74721,715.846639 1019.2867,715.303845 1019.9515,715.303845 C1020.6174,715.303845 1021.15649,715.846639 1021.15649,716.516233 C1021.15649,717.185827 1020.6174,717.728622 1019.9515,717.728622 L1019.9515,717.728543 Z M1025.97575,717.728622 C1025.31055,717.728622 1024.77107,717.185827 1024.77107,716.516233 C1024.77107,715.846639 1025.31055,715.303845 1025.97575,715.303845 C1026.64134,715.303845 1027.18043,715.846639 1027.18043,716.516233 C1027.18043,717.185827 1026.64134,717.728622 1025.97575,717.728622 Z M1012.8432,703 C1018.2529,703 1022.73619,706.321506 1023.55277,710.664651 C1023.35664,710.654541 1023.16029,710.649262 1022.9639,710.648821 C1017.50214,710.648821 1013.07458,714.361436 1013.07458,718.94038 C1013.07458,719.712673 1013.20327,720.459764 1013.43896,721.168815 C1013.24147,721.177715 1013.04327,721.182991 1012.8432,721.182991 C1011.60596,721.182991 1010.41153,721.004843 1009.30392,720.684616 C1009.20058,720.652742 1009.0931,720.63655 1008.98502,720.636574 C1008.77696,720.636574 1008.58808,720.700525 1008.40937,720.804169 L1006.03555,722.183208 C1005.96941,722.221563 1005.90491,722.251018 1005.82655,722.251018 C1005.73069,722.251081 1005.63872,722.212791 1005.57093,722.144585 C1005.50315,722.076379 1005.46509,721.983854 1005.46515,721.887396 C1005.46515,721.797376 1005.50077,721.707593 1005.52347,721.621512 L1006.01191,719.787886 C1006.03266,719.710704 1006.05003,719.636515 1006.05003,719.556025 C1006.05022,719.320684 1005.93717,719.099811 1005.74663,718.963298 C1003.46041,717.296796 1002,714.831065 1002,712.091732 C1002,707.070566 1006.85448,703 1012.8432,703 Z M1009.22854,710.636929 C1010.02743,710.636929 1010.67446,709.985843 1010.67446,709.182126 C1010.67446,708.378723 1010.02743,707.727638 1009.22854,707.727638 C1008.43043,707.727638 1007.783,708.378723 1007.783,709.182126 C1007.783,709.985843 1008.43035,710.636929 1009.22854,710.636929 L1009.22854,710.636929 Z M1016.45778,710.636929 C1017.25628,710.636929 1017.9037,709.985843 1017.9037,709.182126 C1017.9037,708.378723 1017.25636,707.727638 1016.45778,707.727638 C1015.65896,707.727638 1015.01193,708.378723 1015.01193,709.182126 C1015.01193,709.985843 1015.65896,710.636929 1016.45778,710.636929 L1016.45778,710.636929 Z" id="wechat"></path>
        </g>
    </g>
</svg>